<?xml version="1.0" encoding="utf-8" standalone="no"?>
<!DOCTYPE svg PUBLIC "-//W3C//DTD SVG 1.1//EN"
  "http://www.w3.org/Graphics/SVG/1.1/DTD/svg11.dtd">
<svg height="216pt" version="1.1" viewBox="0 0 576 216" width="576pt" xmlns="http://www.w3.org/2000/svg" xmlns:xlink="http://www.w3.org/1999/xlink">
 <metadata>
  <rdf:RDF xmlns:cc="http://creativecommons.org/ns#" xmlns:dc="http://purl.org/dc/elements/1.1/" xmlns:rdf="http://www.w3.org/1999/02/22-rdf-syntax-ns#">
   <cc:Work>
    <dc:type rdf:resource="http://purl.org/dc/dcmitype/StillImage"/>
    <dc:date>2021-11-30T11:15:51.372842</dc:date>
    <dc:format>image/svg+xml</dc:format>
    <dc:creator>
     <cc:Agent>
      <dc:title>Matplotlib v3.4.3, https://matplotlib.org/</dc:title>
     </cc:Agent>
    </dc:creator>
   </cc:Work>
  </rdf:RDF>
 </metadata>
 <defs>
  <style type="text/css">*{stroke-linecap:butt;stroke-linejoin:round;}</style>
 </defs>
 <g id="figure_1">
  <g id="patch_1">
   <path d="M 0 216 
L 576 216 
L 576 0 
L 0 0 
z
" style="fill:#ffffff;"/>
  </g>
  <g id="axes_1">
   <g id="patch_2">
    <path d="M 50.87 174.04 
L 565.2 174.04 
L 565.2 10.8 
L 50.87 10.8 
z
" style="fill:#ffffff;"/>
   </g>
   <g id="matplotlib.axis_1">
    <g id="xtick_1">
     <g id="line2d_1">
      <defs>
       <path d="M 0 0 
L 0 3.5 
" id="md6897da4d5" style="stroke:#000000;stroke-width:0.8;"/>
      </defs>
      <g>
       <use style="stroke:#000000;stroke-width:0.8;" x="74.248636" xlink:href="#md6897da4d5" y="174.04"/>
      </g>
     </g>
     <g id="text_1">
      <!-- 0 -->
      <g transform="translate(71.067386 188.638438)scale(0.1 -0.1)">
       <defs>
        <path d="M 2034 4250 
Q 1547 4250 1301 3770 
Q 1056 3291 1056 2328 
Q 1056 1369 1301 889 
Q 1547 409 2034 409 
Q 2525 409 2770 889 
Q 3016 1369 3016 2328 
Q 3016 3291 2770 3770 
Q 2525 4250 2034 4250 
z
M 2034 4750 
Q 2819 4750 3233 4129 
Q 3647 3509 3647 2328 
Q 3647 1150 3233 529 
Q 2819 -91 2034 -91 
Q 1250 -91 836 529 
Q 422 1150 422 2328 
Q 422 3509 836 4129 
Q 1250 4750 2034 4750 
z
" id="DejaVuSans-30" transform="scale(0.015625)"/>
       </defs>
       <use xlink:href="#DejaVuSans-30"/>
      </g>
     </g>
    </g>
    <g id="xtick_2">
     <g id="line2d_2">
      <g>
       <use style="stroke:#000000;stroke-width:0.8;" x="187.73716" xlink:href="#md6897da4d5" y="174.04"/>
      </g>
     </g>
     <g id="text_2">
      <!-- 5 -->
      <g transform="translate(184.55591 188.638438)scale(0.1 -0.1)">
       <defs>
        <path d="M 691 4666 
L 3169 4666 
L 3169 4134 
L 1269 4134 
L 1269 2991 
Q 1406 3038 1543 3061 
Q 1681 3084 1819 3084 
Q 2600 3084 3056 2656 
Q 3513 2228 3513 1497 
Q 3513 744 3044 326 
Q 2575 -91 1722 -91 
Q 1428 -91 1123 -41 
Q 819 9 494 109 
L 494 744 
Q 775 591 1075 516 
Q 1375 441 1709 441 
Q 2250 441 2565 725 
Q 2881 1009 2881 1497 
Q 2881 1984 2565 2268 
Q 2250 2553 1709 2553 
Q 1456 2553 1204 2497 
Q 953 2441 691 2322 
L 691 4666 
z
" id="DejaVuSans-35" transform="scale(0.015625)"/>
       </defs>
       <use xlink:href="#DejaVuSans-35"/>
      </g>
     </g>
    </g>
    <g id="xtick_3">
     <g id="line2d_3">
      <g>
       <use style="stroke:#000000;stroke-width:0.8;" x="301.225684" xlink:href="#md6897da4d5" y="174.04"/>
      </g>
     </g>
     <g id="text_3">
      <!-- 10 -->
      <g transform="translate(294.863184 188.638438)scale(0.1 -0.1)">
       <defs>
        <path d="M 794 531 
L 1825 531 
L 1825 4091 
L 703 3866 
L 703 4441 
L 1819 4666 
L 2450 4666 
L 2450 531 
L 3481 531 
L 3481 0 
L 794 0 
L 794 531 
z
" id="DejaVuSans-31" transform="scale(0.015625)"/>
       </defs>
       <use xlink:href="#DejaVuSans-31"/>
       <use x="63.623047" xlink:href="#DejaVuSans-30"/>
      </g>
     </g>
    </g>
    <g id="xtick_4">
     <g id="line2d_4">
      <g>
       <use style="stroke:#000000;stroke-width:0.8;" x="414.714208" xlink:href="#md6897da4d5" y="174.04"/>
      </g>
     </g>
     <g id="text_4">
      <!-- 15 -->
      <g transform="translate(408.351708 188.638438)scale(0.1 -0.1)">
       <use xlink:href="#DejaVuSans-31"/>
       <use x="63.623047" xlink:href="#DejaVuSans-35"/>
      </g>
     </g>
    </g>
    <g id="xtick_5">
     <g id="line2d_5">
      <g>
       <use style="stroke:#000000;stroke-width:0.8;" x="528.202732" xlink:href="#md6897da4d5" y="174.04"/>
      </g>
     </g>
     <g id="text_5">
      <!-- 20 -->
      <g transform="translate(521.840232 188.638438)scale(0.1 -0.1)">
       <defs>
        <path d="M 1228 531 
L 3431 531 
L 3431 0 
L 469 0 
L 469 531 
Q 828 903 1448 1529 
Q 2069 2156 2228 2338 
Q 2531 2678 2651 2914 
Q 2772 3150 2772 3378 
Q 2772 3750 2511 3984 
Q 2250 4219 1831 4219 
Q 1534 4219 1204 4116 
Q 875 4013 500 3803 
L 500 4441 
Q 881 4594 1212 4672 
Q 1544 4750 1819 4750 
Q 2544 4750 2975 4387 
Q 3406 4025 3406 3419 
Q 3406 3131 3298 2873 
Q 3191 2616 2906 2266 
Q 2828 2175 2409 1742 
Q 1991 1309 1228 531 
z
" id="DejaVuSans-32" transform="scale(0.015625)"/>
       </defs>
       <use xlink:href="#DejaVuSans-32"/>
       <use x="63.623047" xlink:href="#DejaVuSans-30"/>
      </g>
     </g>
    </g>
    <g id="text_6">
     <!-- Timestep -->
     <g transform="translate(284.985781 202.316563)scale(0.1 -0.1)">
      <defs>
       <path d="M -19 4666 
L 3928 4666 
L 3928 4134 
L 2272 4134 
L 2272 0 
L 1638 0 
L 1638 4134 
L -19 4134 
L -19 4666 
z
" id="DejaVuSans-54" transform="scale(0.015625)"/>
       <path d="M 603 3500 
L 1178 3500 
L 1178 0 
L 603 0 
L 603 3500 
z
M 603 4863 
L 1178 4863 
L 1178 4134 
L 603 4134 
L 603 4863 
z
" id="DejaVuSans-69" transform="scale(0.015625)"/>
       <path d="M 3328 2828 
Q 3544 3216 3844 3400 
Q 4144 3584 4550 3584 
Q 5097 3584 5394 3201 
Q 5691 2819 5691 2113 
L 5691 0 
L 5113 0 
L 5113 2094 
Q 5113 2597 4934 2840 
Q 4756 3084 4391 3084 
Q 3944 3084 3684 2787 
Q 3425 2491 3425 1978 
L 3425 0 
L 2847 0 
L 2847 2094 
Q 2847 2600 2669 2842 
Q 2491 3084 2119 3084 
Q 1678 3084 1418 2786 
Q 1159 2488 1159 1978 
L 1159 0 
L 581 0 
L 581 3500 
L 1159 3500 
L 1159 2956 
Q 1356 3278 1631 3431 
Q 1906 3584 2284 3584 
Q 2666 3584 2933 3390 
Q 3200 3197 3328 2828 
z
" id="DejaVuSans-6d" transform="scale(0.015625)"/>
       <path d="M 3597 1894 
L 3597 1613 
L 953 1613 
Q 991 1019 1311 708 
Q 1631 397 2203 397 
Q 2534 397 2845 478 
Q 3156 559 3463 722 
L 3463 178 
Q 3153 47 2828 -22 
Q 2503 -91 2169 -91 
Q 1331 -91 842 396 
Q 353 884 353 1716 
Q 353 2575 817 3079 
Q 1281 3584 2069 3584 
Q 2775 3584 3186 3129 
Q 3597 2675 3597 1894 
z
M 3022 2063 
Q 3016 2534 2758 2815 
Q 2500 3097 2075 3097 
Q 1594 3097 1305 2825 
Q 1016 2553 972 2059 
L 3022 2063 
z
" id="DejaVuSans-65" transform="scale(0.015625)"/>
       <path d="M 2834 3397 
L 2834 2853 
Q 2591 2978 2328 3040 
Q 2066 3103 1784 3103 
Q 1356 3103 1142 2972 
Q 928 2841 928 2578 
Q 928 2378 1081 2264 
Q 1234 2150 1697 2047 
L 1894 2003 
Q 2506 1872 2764 1633 
Q 3022 1394 3022 966 
Q 3022 478 2636 193 
Q 2250 -91 1575 -91 
Q 1294 -91 989 -36 
Q 684 19 347 128 
L 347 722 
Q 666 556 975 473 
Q 1284 391 1588 391 
Q 1994 391 2212 530 
Q 2431 669 2431 922 
Q 2431 1156 2273 1281 
Q 2116 1406 1581 1522 
L 1381 1569 
Q 847 1681 609 1914 
Q 372 2147 372 2553 
Q 372 3047 722 3315 
Q 1072 3584 1716 3584 
Q 2034 3584 2315 3537 
Q 2597 3491 2834 3397 
z
" id="DejaVuSans-73" transform="scale(0.015625)"/>
       <path d="M 1172 4494 
L 1172 3500 
L 2356 3500 
L 2356 3053 
L 1172 3053 
L 1172 1153 
Q 1172 725 1289 603 
Q 1406 481 1766 481 
L 2356 481 
L 2356 0 
L 1766 0 
Q 1100 0 847 248 
Q 594 497 594 1153 
L 594 3053 
L 172 3053 
L 172 3500 
L 594 3500 
L 594 4494 
L 1172 4494 
z
" id="DejaVuSans-74" transform="scale(0.015625)"/>
       <path d="M 1159 525 
L 1159 -1331 
L 581 -1331 
L 581 3500 
L 1159 3500 
L 1159 2969 
Q 1341 3281 1617 3432 
Q 1894 3584 2278 3584 
Q 2916 3584 3314 3078 
Q 3713 2572 3713 1747 
Q 3713 922 3314 415 
Q 2916 -91 2278 -91 
Q 1894 -91 1617 61 
Q 1341 213 1159 525 
z
M 3116 1747 
Q 3116 2381 2855 2742 
Q 2594 3103 2138 3103 
Q 1681 3103 1420 2742 
Q 1159 2381 1159 1747 
Q 1159 1113 1420 752 
Q 1681 391 2138 391 
Q 2594 391 2855 752 
Q 3116 1113 3116 1747 
z
" id="DejaVuSans-70" transform="scale(0.015625)"/>
      </defs>
      <use xlink:href="#DejaVuSans-54"/>
      <use x="57.958984" xlink:href="#DejaVuSans-69"/>
      <use x="85.742188" xlink:href="#DejaVuSans-6d"/>
      <use x="183.154297" xlink:href="#DejaVuSans-65"/>
      <use x="244.677734" xlink:href="#DejaVuSans-73"/>
      <use x="296.777344" xlink:href="#DejaVuSans-74"/>
      <use x="335.986328" xlink:href="#DejaVuSans-65"/>
      <use x="397.509766" xlink:href="#DejaVuSans-70"/>
     </g>
    </g>
   </g>
   <g id="matplotlib.axis_2">
    <g id="ytick_1">
     <g id="line2d_6">
      <defs>
       <path d="M 0 0 
L -3.5 0 
" id="mcf8a94c4c2" style="stroke:#000000;stroke-width:0.8;"/>
      </defs>
      <g>
       <use style="stroke:#000000;stroke-width:0.8;" x="50.87" xlink:href="#mcf8a94c4c2" y="174.04"/>
      </g>
     </g>
     <g id="text_7">
      <!-- 0 -->
      <g transform="translate(37.5075 177.839219)scale(0.1 -0.1)">
       <use xlink:href="#DejaVuSans-30"/>
      </g>
     </g>
    </g>
    <g id="ytick_2">
     <g id="line2d_7">
      <g>
       <use style="stroke:#000000;stroke-width:0.8;" x="50.87" xlink:href="#mcf8a94c4c2" y="148.332913"/>
      </g>
     </g>
     <g id="text_8">
      <!-- 20 -->
      <g transform="translate(31.145 152.132132)scale(0.1 -0.1)">
       <use xlink:href="#DejaVuSans-32"/>
       <use x="63.623047" xlink:href="#DejaVuSans-30"/>
      </g>
     </g>
    </g>
    <g id="ytick_3">
     <g id="line2d_8">
      <g>
       <use style="stroke:#000000;stroke-width:0.8;" x="50.87" xlink:href="#mcf8a94c4c2" y="122.625827"/>
      </g>
     </g>
     <g id="text_9">
      <!-- 40 -->
      <g transform="translate(31.145 126.425046)scale(0.1 -0.1)">
       <defs>
        <path d="M 2419 4116 
L 825 1625 
L 2419 1625 
L 2419 4116 
z
M 2253 4666 
L 3047 4666 
L 3047 1625 
L 3713 1625 
L 3713 1100 
L 3047 1100 
L 3047 0 
L 2419 0 
L 2419 1100 
L 313 1100 
L 313 1709 
L 2253 4666 
z
" id="DejaVuSans-34" transform="scale(0.015625)"/>
       </defs>
       <use xlink:href="#DejaVuSans-34"/>
       <use x="63.623047" xlink:href="#DejaVuSans-30"/>
      </g>
     </g>
    </g>
    <g id="ytick_4">
     <g id="line2d_9">
      <g>
       <use style="stroke:#000000;stroke-width:0.8;" x="50.87" xlink:href="#mcf8a94c4c2" y="96.91874"/>
      </g>
     </g>
     <g id="text_10">
      <!-- 60 -->
      <g transform="translate(31.145 100.717959)scale(0.1 -0.1)">
       <defs>
        <path d="M 2113 2584 
Q 1688 2584 1439 2293 
Q 1191 2003 1191 1497 
Q 1191 994 1439 701 
Q 1688 409 2113 409 
Q 2538 409 2786 701 
Q 3034 994 3034 1497 
Q 3034 2003 2786 2293 
Q 2538 2584 2113 2584 
z
M 3366 4563 
L 3366 3988 
Q 3128 4100 2886 4159 
Q 2644 4219 2406 4219 
Q 1781 4219 1451 3797 
Q 1122 3375 1075 2522 
Q 1259 2794 1537 2939 
Q 1816 3084 2150 3084 
Q 2853 3084 3261 2657 
Q 3669 2231 3669 1497 
Q 3669 778 3244 343 
Q 2819 -91 2113 -91 
Q 1303 -91 875 529 
Q 447 1150 447 2328 
Q 447 3434 972 4092 
Q 1497 4750 2381 4750 
Q 2619 4750 2861 4703 
Q 3103 4656 3366 4563 
z
" id="DejaVuSans-36" transform="scale(0.015625)"/>
       </defs>
       <use xlink:href="#DejaVuSans-36"/>
       <use x="63.623047" xlink:href="#DejaVuSans-30"/>
      </g>
     </g>
    </g>
    <g id="ytick_5">
     <g id="line2d_10">
      <g>
       <use style="stroke:#000000;stroke-width:0.8;" x="50.87" xlink:href="#mcf8a94c4c2" y="71.211654"/>
      </g>
     </g>
     <g id="text_11">
      <!-- 80 -->
      <g transform="translate(31.145 75.010872)scale(0.1 -0.1)">
       <defs>
        <path d="M 2034 2216 
Q 1584 2216 1326 1975 
Q 1069 1734 1069 1313 
Q 1069 891 1326 650 
Q 1584 409 2034 409 
Q 2484 409 2743 651 
Q 3003 894 3003 1313 
Q 3003 1734 2745 1975 
Q 2488 2216 2034 2216 
z
M 1403 2484 
Q 997 2584 770 2862 
Q 544 3141 544 3541 
Q 544 4100 942 4425 
Q 1341 4750 2034 4750 
Q 2731 4750 3128 4425 
Q 3525 4100 3525 3541 
Q 3525 3141 3298 2862 
Q 3072 2584 2669 2484 
Q 3125 2378 3379 2068 
Q 3634 1759 3634 1313 
Q 3634 634 3220 271 
Q 2806 -91 2034 -91 
Q 1263 -91 848 271 
Q 434 634 434 1313 
Q 434 1759 690 2068 
Q 947 2378 1403 2484 
z
M 1172 3481 
Q 1172 3119 1398 2916 
Q 1625 2713 2034 2713 
Q 2441 2713 2670 2916 
Q 2900 3119 2900 3481 
Q 2900 3844 2670 4047 
Q 2441 4250 2034 4250 
Q 1625 4250 1398 4047 
Q 1172 3844 1172 3481 
z
" id="DejaVuSans-38" transform="scale(0.015625)"/>
       </defs>
       <use xlink:href="#DejaVuSans-38"/>
       <use x="63.623047" xlink:href="#DejaVuSans-30"/>
      </g>
     </g>
    </g>
    <g id="ytick_6">
     <g id="line2d_11">
      <g>
       <use style="stroke:#000000;stroke-width:0.8;" x="50.87" xlink:href="#mcf8a94c4c2" y="45.504567"/>
      </g>
     </g>
     <g id="text_12">
      <!-- 100 -->
      <g transform="translate(24.7825 49.303786)scale(0.1 -0.1)">
       <use xlink:href="#DejaVuSans-31"/>
       <use x="63.623047" xlink:href="#DejaVuSans-30"/>
       <use x="127.246094" xlink:href="#DejaVuSans-30"/>
      </g>
     </g>
    </g>
    <g id="ytick_7">
     <g id="line2d_12">
      <g>
       <use style="stroke:#000000;stroke-width:0.8;" x="50.87" xlink:href="#mcf8a94c4c2" y="19.79748"/>
      </g>
     </g>
     <g id="text_13">
      <!-- 120 -->
      <g transform="translate(24.7825 23.596699)scale(0.1 -0.1)">
       <use xlink:href="#DejaVuSans-31"/>
       <use x="63.623047" xlink:href="#DejaVuSans-32"/>
       <use x="127.246094" xlink:href="#DejaVuSans-30"/>
      </g>
     </g>
    </g>
    <g id="text_14">
     <!-- Quantization Level -->
     <g transform="translate(18.702813 139.161406)rotate(-90)scale(0.1 -0.1)">
      <defs>
       <path d="M 2522 4238 
Q 1834 4238 1429 3725 
Q 1025 3213 1025 2328 
Q 1025 1447 1429 934 
Q 1834 422 2522 422 
Q 3209 422 3611 934 
Q 4013 1447 4013 2328 
Q 4013 3213 3611 3725 
Q 3209 4238 2522 4238 
z
M 3406 84 
L 4238 -825 
L 3475 -825 
L 2784 -78 
Q 2681 -84 2626 -87 
Q 2572 -91 2522 -91 
Q 1538 -91 948 567 
Q 359 1225 359 2328 
Q 359 3434 948 4092 
Q 1538 4750 2522 4750 
Q 3503 4750 4090 4092 
Q 4678 3434 4678 2328 
Q 4678 1516 4351 937 
Q 4025 359 3406 84 
z
" id="DejaVuSans-51" transform="scale(0.015625)"/>
       <path d="M 544 1381 
L 544 3500 
L 1119 3500 
L 1119 1403 
Q 1119 906 1312 657 
Q 1506 409 1894 409 
Q 2359 409 2629 706 
Q 2900 1003 2900 1516 
L 2900 3500 
L 3475 3500 
L 3475 0 
L 2900 0 
L 2900 538 
Q 2691 219 2414 64 
Q 2138 -91 1772 -91 
Q 1169 -91 856 284 
Q 544 659 544 1381 
z
M 1991 3584 
L 1991 3584 
z
" id="DejaVuSans-75" transform="scale(0.015625)"/>
       <path d="M 2194 1759 
Q 1497 1759 1228 1600 
Q 959 1441 959 1056 
Q 959 750 1161 570 
Q 1363 391 1709 391 
Q 2188 391 2477 730 
Q 2766 1069 2766 1631 
L 2766 1759 
L 2194 1759 
z
M 3341 1997 
L 3341 0 
L 2766 0 
L 2766 531 
Q 2569 213 2275 61 
Q 1981 -91 1556 -91 
Q 1019 -91 701 211 
Q 384 513 384 1019 
Q 384 1609 779 1909 
Q 1175 2209 1959 2209 
L 2766 2209 
L 2766 2266 
Q 2766 2663 2505 2880 
Q 2244 3097 1772 3097 
Q 1472 3097 1187 3025 
Q 903 2953 641 2809 
L 641 3341 
Q 956 3463 1253 3523 
Q 1550 3584 1831 3584 
Q 2591 3584 2966 3190 
Q 3341 2797 3341 1997 
z
" id="DejaVuSans-61" transform="scale(0.015625)"/>
       <path d="M 3513 2113 
L 3513 0 
L 2938 0 
L 2938 2094 
Q 2938 2591 2744 2837 
Q 2550 3084 2163 3084 
Q 1697 3084 1428 2787 
Q 1159 2491 1159 1978 
L 1159 0 
L 581 0 
L 581 3500 
L 1159 3500 
L 1159 2956 
Q 1366 3272 1645 3428 
Q 1925 3584 2291 3584 
Q 2894 3584 3203 3211 
Q 3513 2838 3513 2113 
z
" id="DejaVuSans-6e" transform="scale(0.015625)"/>
       <path d="M 353 3500 
L 3084 3500 
L 3084 2975 
L 922 459 
L 3084 459 
L 3084 0 
L 275 0 
L 275 525 
L 2438 3041 
L 353 3041 
L 353 3500 
z
" id="DejaVuSans-7a" transform="scale(0.015625)"/>
       <path d="M 1959 3097 
Q 1497 3097 1228 2736 
Q 959 2375 959 1747 
Q 959 1119 1226 758 
Q 1494 397 1959 397 
Q 2419 397 2687 759 
Q 2956 1122 2956 1747 
Q 2956 2369 2687 2733 
Q 2419 3097 1959 3097 
z
M 1959 3584 
Q 2709 3584 3137 3096 
Q 3566 2609 3566 1747 
Q 3566 888 3137 398 
Q 2709 -91 1959 -91 
Q 1206 -91 779 398 
Q 353 888 353 1747 
Q 353 2609 779 3096 
Q 1206 3584 1959 3584 
z
" id="DejaVuSans-6f" transform="scale(0.015625)"/>
       <path id="DejaVuSans-20" transform="scale(0.015625)"/>
       <path d="M 628 4666 
L 1259 4666 
L 1259 531 
L 3531 531 
L 3531 0 
L 628 0 
L 628 4666 
z
" id="DejaVuSans-4c" transform="scale(0.015625)"/>
       <path d="M 191 3500 
L 800 3500 
L 1894 563 
L 2988 3500 
L 3597 3500 
L 2284 0 
L 1503 0 
L 191 3500 
z
" id="DejaVuSans-76" transform="scale(0.015625)"/>
       <path d="M 603 4863 
L 1178 4863 
L 1178 0 
L 603 0 
L 603 4863 
z
" id="DejaVuSans-6c" transform="scale(0.015625)"/>
      </defs>
      <use xlink:href="#DejaVuSans-51"/>
      <use x="78.710938" xlink:href="#DejaVuSans-75"/>
      <use x="142.089844" xlink:href="#DejaVuSans-61"/>
      <use x="203.369141" xlink:href="#DejaVuSans-6e"/>
      <use x="266.748047" xlink:href="#DejaVuSans-74"/>
      <use x="305.957031" xlink:href="#DejaVuSans-69"/>
      <use x="333.740234" xlink:href="#DejaVuSans-7a"/>
      <use x="386.230469" xlink:href="#DejaVuSans-61"/>
      <use x="447.509766" xlink:href="#DejaVuSans-74"/>
      <use x="486.71875" xlink:href="#DejaVuSans-69"/>
      <use x="514.501953" xlink:href="#DejaVuSans-6f"/>
      <use x="575.683594" xlink:href="#DejaVuSans-6e"/>
      <use x="639.0625" xlink:href="#DejaVuSans-20"/>
      <use x="670.849609" xlink:href="#DejaVuSans-4c"/>
      <use x="724.8125" xlink:href="#DejaVuSans-65"/>
      <use x="786.335938" xlink:href="#DejaVuSans-76"/>
      <use x="845.515625" xlink:href="#DejaVuSans-65"/>
      <use x="907.039062" xlink:href="#DejaVuSans-6c"/>
     </g>
    </g>
   </g>
   <g id="line2d_13">
    <path clip-path="url(#p8cbaaaf082)" d="M 74.248636 93.062677 
L 75.156545 93.062677 
L 75.156545 94.348031 
L 75.610499 94.348031 
L 75.610499 95.633386 
L 76.972361 95.633386 
L 76.972361 96.91874 
L 77.880269 96.91874 
L 77.880269 98.204094 
L 79.242131 98.204094 
L 79.242131 99.489449 
L 81.511902 99.489449 
L 81.511902 100.774803 
L 82.873764 100.774803 
L 82.873764 102.060157 
L 84.68958 102.060157 
L 84.68958 103.345512 
L 91.044938 103.345512 
L 91.044938 102.060157 
L 96.946341 102.060157 
L 96.946341 100.774803 
L 101.48588 100.774803 
L 101.48588 99.489449 
L 105.571469 99.489449 
L 105.571469 98.204094 
L 111.018918 98.204094 
L 111.018918 96.91874 
L 113.742643 96.91874 
L 113.742643 95.633386 
L 115.558458 95.633386 
L 115.558458 94.348031 
L 117.828229 94.348031 
L 117.828229 93.062677 
L 120.551953 93.062677 
L 120.551953 91.777323 
L 123.275675 91.777323 
L 123.275675 90.491969 
L 125.999403 90.491969 
L 125.999403 89.206614 
L 129.631037 89.206614 
L 129.631037 87.92126 
L 132.808713 87.92126 
L 132.808713 86.635906 
L 134.624528 86.635906 
L 134.624528 85.350551 
L 136.894301 85.350551 
L 136.894301 84.065197 
L 138.256162 84.065197 
L 138.256162 82.779843 
L 140.071977 82.779843 
L 140.071977 81.494488 
L 141.433843 81.494488 
L 141.433843 80.209134 
L 142.341751 80.209134 
L 142.341751 78.92378 
L 143.703612 78.92378 
L 143.703612 77.638425 
L 144.611519 77.638425 
L 144.611519 76.353071 
L 145.519426 76.353071 
L 145.519426 75.067717 
L 146.427334 75.067717 
L 146.427334 73.782362 
L 147.7892 73.782362 
L 147.7892 72.497008 
L 148.697107 72.497008 
L 148.697107 71.211654 
L 149.605015 71.211654 
L 149.605015 69.926299 
L 150.512922 69.926299 
L 150.512922 68.640945 
L 150.966876 68.640945 
L 150.966876 67.355591 
L 152.328737 67.355591 
L 152.328737 66.070236 
L 153.236649 66.070236 
L 153.236649 64.784882 
L 154.144557 64.784882 
L 154.144557 63.499528 
L 154.59851 63.499528 
L 154.59851 62.214173 
L 155.052464 62.214173 
L 155.052464 60.928819 
L 156.414325 60.928819 
L 156.414325 59.643465 
L 157.776186 59.643465 
L 157.776186 58.35811 
L 159.138052 58.35811 
L 159.138052 57.072756 
L 160.499913 57.072756 
L 160.499913 55.787402 
L 162.315728 55.787402 
L 162.315728 54.502047 
L 164.131543 54.502047 
L 164.131543 53.216693 
L 167.309224 53.216693 
L 167.309224 51.931339 
L 169.578992 51.931339 
L 169.578992 50.645984 
L 170.486899 50.645984 
L 170.486899 49.36063 
L 171.394807 49.36063 
L 171.394807 48.075276 
L 172.302714 48.075276 
L 172.302714 46.789921 
L 175.934354 46.789921 
L 175.934354 45.504567 
L 178.204123 45.504567 
L 178.204123 44.219213 
L 179.11203 44.219213 
L 179.11203 42.933858 
L 183.197613 42.933858 
L 183.197613 44.219213 
L 185.467392 44.219213 
L 185.467392 45.504567 
L 189.552975 45.504567 
L 189.552975 46.789921 
L 190.460882 46.789921 
L 190.460882 48.075276 
L 192.276697 48.075276 
L 192.276697 49.36063 
L 193.638558 49.36063 
L 193.638558 50.645984 
L 195.000419 50.645984 
L 195.000419 51.931339 
L 197.270198 51.931339 
L 197.270198 53.216693 
L 198.178105 53.216693 
L 198.178105 54.502047 
L 199.086013 54.502047 
L 199.086013 55.787402 
L 200.447874 55.787402 
L 200.447874 57.072756 
L 202.263688 57.072756 
L 202.263688 58.35811 
L 203.171596 58.35811 
L 203.171596 59.643465 
L 204.533457 59.643465 
L 204.533457 60.928819 
L 206.349271 60.928819 
L 206.349271 62.214173 
L 209.526958 62.214173 
L 209.526958 63.499528 
L 211.796726 63.499528 
L 211.796726 64.784882 
L 213.158587 64.784882 
L 213.158587 66.070236 
L 214.974402 66.070236 
L 214.974402 67.355591 
L 216.790216 67.355591 
L 216.790216 68.640945 
L 218.606031 68.640945 
L 218.606031 69.926299 
L 220.421856 69.926299 
L 220.421856 71.211654 
L 221.329764 71.211654 
L 221.329764 72.497008 
L 222.691625 72.497008 
L 222.691625 73.782362 
L 224.053486 73.782362 
L 224.053486 75.067717 
L 225.415347 75.067717 
L 225.415347 76.353071 
L 227.685115 76.353071 
L 227.685115 77.638425 
L 229.046976 77.638425 
L 229.046976 78.92378 
L 231.316755 78.92378 
L 231.316755 80.209134 
L 234.494431 80.209134 
L 234.494431 81.494488 
L 236.764199 81.494488 
L 236.764199 82.779843 
L 241.757689 82.779843 
L 241.757689 84.065197 
L 244.027469 84.065197 
L 244.027469 85.350551 
L 246.751191 85.350551 
L 246.751191 86.635906 
L 249.474913 86.635906 
L 249.474913 87.92126 
L 252.198635 87.92126 
L 252.198635 89.206614 
L 254.468414 89.206614 
L 254.468414 90.491969 
L 255.376321 90.491969 
L 255.376321 91.777323 
L 257.192125 91.777323 
L 257.192125 93.062677 
L 259.461904 93.062677 
L 259.461904 94.348031 
L 262.63959 94.348031 
L 262.63959 95.633386 
L 265.363312 95.633386 
L 265.363312 96.91874 
L 267.63307 96.91874 
L 267.63307 98.204094 
L 269.902849 98.204094 
L 269.902849 99.489449 
L 272.172628 99.489449 
L 272.172628 100.774803 
L 274.442386 100.774803 
L 274.442386 102.060157 
L 276.2582 102.060157 
L 276.2582 103.345512 
L 276.712165 103.345512 
L 276.712165 104.630866 
L 277.620072 104.630866 
L 277.620072 105.91622 
L 278.527979 105.91622 
L 278.527979 108.486929 
L 278.981922 108.486929 
L 278.981922 109.772283 
L 279.88983 109.772283 
L 279.88983 111.057638 
L 280.343794 111.057638 
L 280.343794 120.055118 
L 281.705644 120.055118 
L 281.705644 121.340472 
L 282.159609 121.340472 
L 282.159609 122.625827 
L 282.613552 122.625827 
L 282.613552 123.911181 
L 283.521481 123.911181 
L 283.521481 125.196535 
L 284.883331 125.196535 
L 284.883331 126.48189 
L 287.15311 126.48189 
L 287.15311 127.767244 
L 288.51496 127.767244 
L 288.51496 126.48189 
L 288.968925 126.48189 
L 288.968925 131.623307 
L 290.330775 131.623307 
L 290.330775 132.908661 
L 291.692646 132.908661 
L 291.692646 134.194016 
L 292.600554 134.194016 
L 292.600554 135.47937 
L 293.054497 135.47937 
L 293.054497 136.764724 
L 293.508461 136.764724 
L 293.508461 138.050079 
L 293.962404 138.050079 
L 293.962404 139.335433 
L 294.870311 139.335433 
L 294.870311 140.620787 
L 296.232183 140.620787 
L 296.232183 141.906142 
L 298.047998 141.906142 
L 298.047998 143.191496 
L 303.949406 143.191496 
L 303.949406 144.47685 
L 305.311256 144.47685 
L 305.311256 143.191496 
L 306.673128 143.191496 
L 306.673128 141.906142 
L 307.127093 141.906142 
L 307.127093 143.191496 
L 307.581036 143.191496 
L 307.581036 141.906142 
L 308.942907 141.906142 
L 308.942907 140.620787 
L 311.666629 140.620787 
L 311.666629 139.335433 
L 313.936387 139.335433 
L 313.936387 138.050079 
L 315.298259 138.050079 
L 315.298259 136.764724 
L 316.660109 136.764724 
L 316.660109 135.47937 
L 320.29176 135.47937 
L 320.29176 134.194016 
L 323.469425 134.194016 
L 323.469425 132.908661 
L 324.831296 132.908661 
L 324.831296 131.623307 
L 325.739204 131.623307 
L 325.739204 130.337953 
L 327.101054 130.337953 
L 327.101054 129.052598 
L 328.462926 129.052598 
L 328.462926 127.767244 
L 330.27874 127.767244 
L 330.27874 126.48189 
L 332.094555 126.48189 
L 332.094555 125.196535 
L 333.456427 125.196535 
L 333.456427 123.911181 
L 336.180149 123.911181 
L 336.180149 122.625827 
L 337.995963 122.625827 
L 337.995963 121.340472 
L 341.173628 121.340472 
L 341.173628 120.055118 
L 343.443407 120.055118 
L 343.443407 118.769764 
L 345.713186 118.769764 
L 345.713186 117.484409 
L 347.529001 117.484409 
L 347.529001 116.199055 
L 349.344816 116.199055 
L 349.344816 114.913701 
L 352.068538 114.913701 
L 352.068538 113.628346 
L 355.700167 113.628346 
L 355.700167 112.342992 
L 359.331796 112.342992 
L 359.331796 111.057638 
L 362.055518 111.057638 
L 362.055518 109.772283 
L 365.233205 109.772283 
L 365.233205 108.486929 
L 367.956927 108.486929 
L 367.956927 107.201575 
L 369.772741 107.201575 
L 369.772741 105.91622 
L 371.588556 105.91622 
L 371.588556 104.630866 
L 374.766243 104.630866 
L 374.766243 103.345512 
L 377.943929 103.345512 
L 377.943929 102.060157 
L 380.667651 102.060157 
L 380.667651 100.774803 
L 382.937408 100.774803 
L 382.937408 99.489449 
L 385.207188 99.489449 
L 385.207188 98.204094 
L 387.476945 98.204094 
L 387.476945 96.91874 
L 389.292781 96.91874 
L 389.292781 95.633386 
L 392.016503 95.633386 
L 392.016503 94.348031 
L 393.378354 94.348031 
L 393.378354 93.062677 
L 394.740225 93.062677 
L 394.740225 91.777323 
L 396.55604 91.777323 
L 396.55604 90.491969 
L 397.91789 90.491969 
L 397.91789 89.206614 
L 399.279762 89.206614 
L 399.279762 87.92126 
L 400.641634 87.92126 
L 400.641634 86.635906 
L 401.549541 86.635906 
L 401.549541 85.350551 
L 402.911391 85.350551 
L 402.911391 84.065197 
L 404.273263 84.065197 
L 404.273263 82.779843 
L 405.635113 82.779843 
L 405.635113 81.494488 
L 406.543021 81.494488 
L 406.543021 80.209134 
L 408.358835 80.209134 
L 408.358835 78.92378 
L 410.17465 78.92378 
L 410.17465 77.638425 
L 411.082557 77.638425 
L 411.082557 76.353071 
L 412.444429 76.353071 
L 412.444429 75.067717 
L 414.260244 75.067717 
L 414.260244 73.782362 
L 416.530023 73.782362 
L 416.530023 72.497008 
L 418.345837 72.497008 
L 418.345837 71.211654 
L 420.615595 71.211654 
L 420.615595 69.926299 
L 423.793281 69.926299 
L 423.793281 68.640945 
L 424.701189 68.640945 
L 424.701189 67.355591 
L 425.155153 67.355591 
L 425.155153 68.640945 
L 426.517003 68.640945 
L 426.517003 67.355591 
L 429.69469 67.355591 
L 429.69469 66.070236 
L 437.411913 66.070236 
L 437.411913 67.355591 
L 442.405392 67.355591 
L 442.405392 68.640945 
L 449.668651 68.640945 
L 449.668651 69.926299 
L 452.846359 69.926299 
L 452.846359 71.211654 
L 454.662174 71.211654 
L 454.662174 69.926299 
L 455.570059 69.926299 
L 455.570059 71.211654 
L 460.109618 71.211654 
L 460.109618 72.497008 
L 464.195212 72.497008 
L 464.195212 73.782362 
L 467.826841 73.782362 
L 467.826841 75.067717 
L 471.004506 75.067717 
L 471.004506 76.353071 
L 474.18217 76.353071 
L 474.18217 77.638425 
L 477.359879 77.638425 
L 477.359879 78.92378 
L 479.629614 78.92378 
L 479.629614 80.209134 
L 481.899394 80.209134 
L 481.899394 81.494488 
L 484.169173 81.494488 
L 484.169173 82.779843 
L 486.892916 82.779843 
L 486.892916 84.065197 
L 488.708731 84.065197 
L 488.708731 85.350551 
L 490.070581 85.350551 
L 490.070581 86.635906 
L 492.34036 86.635906 
L 492.34036 87.92126 
L 494.156175 87.92126 
L 494.156175 89.206614 
L 497.787804 89.206614 
L 497.787804 90.491969 
L 505.505027 90.491969 
L 505.505027 91.777323 
L 524.571103 91.777323 
L 524.571103 93.062677 
L 527.294803 93.062677 
L 527.294803 94.348031 
L 530.472511 94.348031 
L 530.472511 95.633386 
L 534.558062 95.633386 
L 534.558062 96.91874 
L 537.281805 96.91874 
L 537.281805 98.204094 
L 540.913435 98.204094 
L 540.913435 99.489449 
L 541.821364 99.489449 
L 541.821364 99.489449 
" style="fill:none;stroke:#1f77b4;stroke-linecap:square;stroke-opacity:0.8;stroke-width:1.5;"/>
   </g>
   <g id="line2d_14">
    <path clip-path="url(#p8cbaaaf082)" d="M 74.248636 93.062677 
L 75.156545 93.062677 
L 75.156545 94.348031 
L 75.610499 94.348031 
L 75.610499 95.633386 
L 76.972361 95.633386 
L 76.972361 96.91874 
L 77.426315 96.91874 
L 77.426315 98.204094 
L 78.788177 98.204094 
L 78.788177 99.489449 
L 80.150039 99.489449 
L 80.150039 100.774803 
L 81.965856 100.774803 
L 81.965856 102.060157 
L 83.781672 102.060157 
L 83.781672 103.345512 
L 84.235626 103.345512 
L 84.235626 104.630866 
L 85.143534 104.630866 
L 85.143534 105.91622 
L 86.959351 105.91622 
L 86.959351 107.201575 
L 88.775167 107.201575 
L 88.775167 108.486929 
L 90.590983 108.486929 
L 90.590983 109.772283 
L 91.952845 109.772283 
L 91.952845 111.057638 
L 93.314708 111.057638 
L 93.314708 112.342992 
L 94.67657 112.342992 
L 94.67657 113.628346 
L 96.038432 113.628346 
L 96.038432 114.913701 
L 97.854248 114.913701 
L 97.854248 116.199055 
L 99.670066 116.199055 
L 99.670066 117.484409 
L 101.939837 117.484409 
L 101.939837 118.769764 
L 103.755652 118.769764 
L 103.755652 120.055118 
L 105.117515 120.055118 
L 105.117515 121.340472 
L 106.025423 121.340472 
L 106.025423 122.625827 
L 107.387284 122.625827 
L 107.387284 123.911181 
L 108.295194 123.911181 
L 108.295194 125.196535 
L 109.203101 125.196535 
L 109.203101 126.48189 
L 110.111008 126.48189 
L 110.111008 127.767244 
L 111.472872 127.767244 
L 111.472872 129.052598 
L 112.380779 129.052598 
L 112.380779 130.337953 
L 113.288687 130.337953 
L 113.288687 131.623307 
L 114.65055 131.623307 
L 114.65055 134.194016 
L 115.558458 134.194016 
L 115.558458 135.47937 
L 116.920321 135.47937 
L 116.920321 136.764724 
L 117.374275 136.764724 
L 117.374275 140.620787 
L 118.736136 140.620787 
L 118.736136 141.906142 
L 119.19009 141.906142 
L 119.19009 140.620787 
L 121.005907 140.620787 
L 121.005907 139.335433 
L 126.453356 139.335433 
L 126.453356 140.620787 
L 128.269171 140.620787 
L 128.269171 141.906142 
L 130.084991 141.906142 
L 130.084991 143.191496 
L 132.354759 143.191496 
L 132.354759 144.47685 
L 134.624528 144.47685 
L 134.624528 145.762205 
L 149.151061 145.762205 
L 149.151061 144.47685 
L 151.420829 144.47685 
L 151.420829 143.191496 
L 153.690603 143.191496 
L 153.690603 141.906142 
L 158.684099 141.906142 
L 158.684099 140.620787 
L 159.138052 140.620787 
L 159.138052 141.906142 
L 171.84876 141.906142 
L 171.84876 140.620787 
L 173.664586 140.620787 
L 173.664586 139.335433 
L 176.388308 139.335433 
L 176.388308 138.050079 
L 177.750169 138.050079 
L 177.750169 139.335433 
L 179.11203 139.335433 
L 179.11203 140.620787 
L 179.565984 140.620787 
L 179.565984 141.906142 
L 188.191114 141.906142 
L 188.191114 140.620787 
L 190.006929 140.620787 
L 190.006929 139.335433 
L 195.454373 139.335433 
L 195.454373 138.050079 
L 198.178105 138.050079 
L 198.178105 139.335433 
L 199.539966 139.335433 
L 199.539966 140.620787 
L 204.079503 140.620787 
L 204.079503 139.335433 
L 210.434865 139.335433 
L 210.434865 140.620787 
L 212.25068 140.620787 
L 212.25068 141.906142 
L 214.974402 141.906142 
L 214.974402 143.191496 
L 229.046976 143.191496 
L 229.046976 141.906142 
L 230.408837 141.906142 
L 230.408837 140.620787 
L 232.224663 140.620787 
L 232.224663 139.335433 
L 233.586524 139.335433 
L 233.586524 138.050079 
L 237.218153 138.050079 
L 237.218153 136.764724 
L 239.033967 136.764724 
L 239.033967 135.47937 
L 241.757689 135.47937 
L 241.757689 134.194016 
L 243.573515 134.194016 
L 243.573515 132.908661 
L 246.751191 132.908661 
L 246.751191 131.623307 
L 249.474913 131.623307 
L 249.474913 130.337953 
L 250.38282 130.337953 
L 250.38282 129.052598 
L 252.198635 129.052598 
L 252.198635 127.767244 
L 254.922367 127.767244 
L 254.922367 126.48189 
L 259.007939 126.48189 
L 259.007939 125.196535 
L 263.547498 125.196535 
L 263.547498 123.911181 
L 268.087034 123.911181 
L 268.087034 122.625827 
L 271.264699 122.625827 
L 271.264699 121.340472 
L 273.988443 121.340472 
L 273.988443 120.055118 
L 279.435887 120.055118 
L 279.435887 118.769764 
L 280.797737 118.769764 
L 280.797737 117.484409 
L 281.705644 117.484409 
L 281.705644 116.199055 
L 282.613552 116.199055 
L 282.613552 114.913701 
L 284.429388 114.913701 
L 284.429388 113.628346 
L 285.791238 113.628346 
L 285.791238 112.342992 
L 286.699145 112.342992 
L 286.699145 111.057638 
L 288.968925 111.057638 
L 288.968925 109.772283 
L 289.876832 109.772283 
L 289.876832 108.486929 
L 291.238682 108.486929 
L 291.238682 107.201575 
L 293.054497 107.201575 
L 293.054497 105.91622 
L 295.324276 105.91622 
L 295.324276 104.630866 
L 297.14009 104.630866 
L 297.14009 103.345512 
L 300.77172 103.345512 
L 300.77172 102.060157 
L 309.850815 102.060157 
L 309.850815 103.345512 
L 329.824776 103.345512 
L 329.824776 102.060157 
L 350.252723 102.060157 
L 350.252723 100.774803 
L 353.43041 100.774803 
L 353.43041 99.489449 
L 376.582057 99.489449 
L 376.582057 100.774803 
L 377.943929 100.774803 
L 377.943929 102.060157 
L 380.213687 102.060157 
L 380.213687 103.345512 
L 381.575558 103.345512 
L 381.575558 104.630866 
L 384.29928 104.630866 
L 384.29928 105.91622 
L 389.746724 105.91622 
L 389.746724 104.630866 
L 392.924411 104.630866 
L 392.924411 103.345512 
L 395.194168 103.345512 
L 395.194168 102.060157 
L 397.91789 102.060157 
L 397.91789 100.774803 
L 399.279762 100.774803 
L 399.279762 99.489449 
L 401.095577 99.489449 
L 401.095577 98.204094 
L 402.911391 98.204094 
L 402.911391 96.91874 
L 404.727206 96.91874 
L 404.727206 95.633386 
L 406.089078 95.633386 
L 406.089078 94.348031 
L 406.996985 94.348031 
L 406.996985 93.062677 
L 408.358835 93.062677 
L 408.358835 91.777323 
L 409.720707 91.777323 
L 409.720707 90.491969 
L 410.628614 90.491969 
L 410.628614 89.206614 
L 411.536522 89.206614 
L 411.536522 87.92126 
L 412.898394 87.92126 
L 412.898394 86.635906 
L 414.260244 86.635906 
L 414.260244 85.350551 
L 415.168151 85.350551 
L 415.168151 84.065197 
L 416.076058 84.065197 
L 416.076058 82.779843 
L 416.983966 82.779843 
L 416.983966 81.494488 
L 418.345837 81.494488 
L 418.345837 80.209134 
L 419.707688 80.209134 
L 419.707688 78.92378 
L 420.615595 78.92378 
L 420.615595 77.638425 
L 421.977467 77.638425 
L 421.977467 76.353071 
L 423.339339 76.353071 
L 423.339339 75.067717 
L 425.155153 75.067717 
L 425.155153 73.782362 
L 427.424911 73.782362 
L 427.424911 72.497008 
L 429.69469 72.497008 
L 429.69469 71.211654 
L 431.05654 71.211654 
L 431.05654 69.926299 
L 432.872355 69.926299 
L 432.872355 68.640945 
L 434.234226 68.640945 
L 434.234226 67.355591 
L 436.957948 67.355591 
L 436.957948 66.070236 
L 438.773763 66.070236 
L 438.773763 64.784882 
L 440.589578 64.784882 
L 440.589578 63.499528 
L 442.405392 63.499528 
L 442.405392 62.214173 
L 444.675172 62.214173 
L 444.675172 60.928819 
L 447.852836 60.928819 
L 447.852836 59.643465 
L 450.122616 59.643465 
L 450.122616 58.35811 
L 451.484466 58.35811 
L 451.484466 57.072756 
L 453.754245 57.072756 
L 453.754245 55.787402 
L 456.024024 55.787402 
L 456.024024 54.502047 
L 457.839839 54.502047 
L 457.839839 53.216693 
L 459.201689 53.216693 
L 459.201689 51.931339 
L 459.655653 51.931339 
L 459.655653 50.645984 
L 461.471468 50.645984 
L 461.471468 49.36063 
L 462.833318 49.36063 
L 462.833318 48.075276 
L 464.195212 48.075276 
L 464.195212 46.789921 
L 465.103097 46.789921 
L 465.103097 45.504567 
L 466.464947 45.504567 
L 466.464947 44.219213 
L 467.826841 44.219213 
L 467.826841 42.933858 
L 475.090099 42.933858 
L 475.090099 44.219213 
L 479.175693 44.219213 
L 479.175693 141.906142 
L 479.629614 141.906142 
L 479.629614 45.504567 
L 480.083579 45.504567 
L 480.083579 44.219213 
L 480.537543 44.219213 
L 480.537543 42.933858 
L 486.438952 42.933858 
L 486.438952 41.648504 
L 488.254766 41.648504 
L 488.254766 42.933858 
L 493.70221 42.933858 
L 493.70221 44.219213 
L 500.057583 44.219213 
L 500.057583 42.933858 
L 506.412913 42.933858 
L 506.412913 44.219213 
L 509.590621 44.219213 
L 509.590621 45.504567 
L 518.669694 45.504567 
L 518.669694 46.789921 
L 520.485509 46.789921 
L 520.485509 48.075276 
L 522.755288 48.075276 
L 522.755288 49.36063 
L 524.117138 49.36063 
L 524.117138 50.645984 
L 525.478988 50.645984 
L 525.478988 51.931339 
L 526.840839 51.931339 
L 526.840839 53.216693 
L 527.294803 53.216693 
L 527.294803 51.931339 
L 527.748768 51.931339 
L 527.748768 53.216693 
L 530.018547 53.216693 
L 530.018547 54.502047 
L 532.288326 54.502047 
L 532.288326 55.787402 
L 533.650176 55.787402 
L 533.650176 57.072756 
L 535.465991 57.072756 
L 535.465991 58.35811 
L 537.73577 58.35811 
L 537.73577 59.643465 
L 539.09762 59.643465 
L 539.09762 60.928819 
L 540.005549 60.928819 
L 540.005549 62.214173 
L 541.367399 62.214173 
L 541.367399 63.499528 
L 541.821364 63.499528 
L 541.821364 63.499528 
" style="fill:none;stroke:#ff7f0e;stroke-linecap:square;stroke-opacity:0.8;stroke-width:1.5;"/>
   </g>
   <g id="line2d_15">
    <path clip-path="url(#p8cbaaaf082)" d="M 74.248636 93.062677 
L 74.248636 95.633386 
L 76.064453 95.633386 
L 76.064453 96.91874 
L 78.788177 96.91874 
L 78.788177 95.633386 
L 80.150039 95.633386 
L 80.150039 94.348031 
L 84.235626 94.348031 
L 84.235626 93.062677 
L 92.860754 93.062677 
L 92.860754 94.348031 
L 96.038432 94.348031 
L 96.038432 95.633386 
L 99.216112 95.633386 
L 99.216112 96.91874 
L 101.939837 96.91874 
L 101.939837 98.204094 
L 105.571469 98.204094 
L 105.571469 99.489449 
L 111.472872 99.489449 
L 111.472872 100.774803 
L 129.177078 100.774803 
L 129.177078 102.060157 
L 129.631037 102.060157 
L 129.631037 100.774803 
L 133.71662 100.774803 
L 133.71662 99.489449 
L 137.348255 99.489449 
L 137.348255 98.204094 
L 139.16407 98.204094 
L 139.16407 96.91874 
L 141.433843 96.91874 
L 141.433843 95.633386 
L 145.97338 95.633386 
L 145.97338 94.348031 
L 151.874783 94.348031 
L 151.874783 93.062677 
L 177.750169 93.062677 
L 177.750169 91.777323 
L 182.289706 91.777323 
L 182.289706 90.491969 
L 186.375299 90.491969 
L 186.375299 89.206614 
L 188.645068 89.206614 
L 188.645068 87.92126 
L 195.908326 87.92126 
L 195.908326 89.206614 
L 198.632059 89.206614 
L 198.632059 90.491969 
L 201.355781 90.491969 
L 201.355781 91.777323 
L 205.895318 91.777323 
L 205.895318 93.062677 
L 214.520448 93.062677 
L 214.520448 94.348031 
L 218.606031 94.348031 
L 218.606031 95.633386 
L 238.580014 95.633386 
L 238.580014 94.348031 
L 241.757689 94.348031 
L 241.757689 93.062677 
L 245.38933 93.062677 
L 245.38933 91.777323 
L 249.474913 91.777323 
L 249.474913 93.062677 
L 262.185626 93.062677 
L 262.185626 91.777323 
L 265.363312 91.777323 
L 265.363312 90.491969 
L 268.087034 90.491969 
L 268.087034 89.206614 
L 272.172628 89.206614 
L 272.172628 87.92126 
L 282.613552 87.92126 
L 282.613552 89.206614 
L 284.883331 89.206614 
L 284.883331 90.491969 
L 287.15311 90.491969 
L 287.15311 91.777323 
L 289.422867 91.777323 
L 289.422867 93.062677 
L 291.692646 93.062677 
L 291.692646 94.348031 
L 297.594055 94.348031 
L 297.594055 95.633386 
L 310.304757 95.633386 
L 310.304757 94.348031 
L 347.075037 94.348031 
L 347.075037 93.062677 
L 347.529001 93.062677 
L 347.529001 94.348031 
L 379.759744 94.348031 
L 379.759744 95.633386 
L 382.937408 95.633386 
L 382.937408 94.348031 
L 399.279762 94.348031 
L 399.279762 93.062677 
L 402.911391 93.062677 
L 402.911391 91.777323 
L 406.089078 91.777323 
L 406.089078 90.491969 
L 408.8128 90.491969 
L 408.8128 89.206614 
L 411.082557 89.206614 
L 411.082557 87.92126 
L 413.352336 87.92126 
L 413.352336 86.635906 
L 416.530023 86.635906 
L 416.530023 85.350551 
L 419.707688 85.350551 
L 419.707688 84.065197 
L 423.339339 84.065197 
L 423.339339 82.779843 
L 426.970968 82.779843 
L 426.970968 81.494488 
L 431.05654 81.494488 
L 431.05654 80.209134 
L 436.050041 80.209134 
L 436.050041 81.494488 
L 437.411913 81.494488 
L 437.411913 82.779843 
L 440.135613 82.779843 
L 440.135613 84.065197 
L 441.497507 84.065197 
L 441.497507 85.350551 
L 442.859357 85.350551 
L 442.859357 86.635906 
L 444.675172 86.635906 
L 444.675172 87.92126 
L 446.490986 87.92126 
L 446.490986 89.206614 
L 448.306801 89.206614 
L 448.306801 90.491969 
L 450.122616 90.491969 
L 450.122616 91.777323 
L 451.484466 91.777323 
L 451.484466 93.062677 
L 452.846359 93.062677 
L 452.846359 94.348031 
L 454.662174 94.348031 
L 454.662174 95.633386 
L 456.477988 95.633386 
L 456.477988 96.91874 
L 457.839839 96.91874 
L 457.839839 98.204094 
L 459.201689 98.204094 
L 459.201689 99.489449 
L 460.563582 99.489449 
L 460.563582 100.774803 
L 461.925432 100.774803 
L 461.925432 102.060157 
L 463.287283 102.060157 
L 463.287283 103.345512 
L 465.103097 103.345512 
L 465.103097 104.630866 
L 466.918912 104.630866 
L 466.918912 105.91622 
L 469.188691 105.91622 
L 469.188691 107.201575 
L 472.366356 107.201575 
L 472.366356 108.486929 
L 479.629614 108.486929 
L 479.629614 109.772283 
L 482.807323 109.772283 
L 482.807323 111.057638 
L 485.531023 111.057638 
L 485.531023 112.342992 
L 490.070581 112.342992 
L 490.070581 111.057638 
L 500.511505 111.057638 
L 500.511505 112.342992 
L 509.590621 112.342992 
L 509.590621 113.628346 
L 525.478988 113.628346 
L 525.478988 112.342992 
L 532.742247 112.342992 
L 532.742247 111.057638 
L 541.821364 111.057638 
L 541.821364 111.057638 
" style="fill:none;stroke:#2ca02c;stroke-linecap:square;stroke-opacity:0.8;stroke-width:1.5;"/>
   </g>
   <g id="line2d_16">
    <path clip-path="url(#p8cbaaaf082)" d="M 74.248636 93.062677 
L 74.70259 93.062677 
L 74.70259 91.777323 
L 75.610499 91.777323 
L 75.610499 93.062677 
L 76.518407 93.062677 
L 76.518407 94.348031 
L 78.334223 94.348031 
L 78.334223 95.633386 
L 80.603994 95.633386 
L 80.603994 94.348031 
L 84.68958 94.348031 
L 84.68958 93.062677 
L 87.867258 93.062677 
L 87.867258 91.777323 
L 91.044938 91.777323 
L 91.044938 90.491969 
L 93.314708 90.491969 
L 93.314708 89.206614 
L 96.038432 89.206614 
L 96.038432 87.92126 
L 102.393791 87.92126 
L 102.393791 89.206614 
L 105.117515 89.206614 
L 105.117515 90.491969 
L 116.466368 90.491969 
L 116.466368 91.777323 
L 121.005907 91.777323 
L 121.005907 93.062677 
L 129.177078 93.062677 
L 129.177078 91.777323 
L 133.262667 91.777323 
L 133.262667 90.491969 
L 154.59851 90.491969 
L 154.59851 91.777323 
L 166.85527 91.777323 
L 166.85527 93.062677 
L 171.84876 93.062677 
L 171.84876 94.348031 
L 182.743659 94.348031 
L 182.743659 95.633386 
L 200.447874 95.633386 
L 200.447874 96.91874 
L 207.257179 96.91874 
L 207.257179 95.633386 
L 219.059985 95.633386 
L 219.059985 96.91874 
L 222.691625 96.91874 
L 222.691625 98.204094 
L 227.685115 98.204094 
L 227.685115 99.489449 
L 230.408837 99.489449 
L 230.408837 100.774803 
L 233.586524 100.774803 
L 233.586524 102.060157 
L 235.856292 102.060157 
L 235.856292 103.345512 
L 239.487921 103.345512 
L 239.487921 104.630866 
L 242.211643 104.630866 
L 242.211643 105.91622 
L 252.652588 105.91622 
L 252.652588 104.630866 
L 259.007939 104.630866 
L 259.007939 103.345512 
L 265.363312 103.345512 
L 265.363312 102.060157 
L 282.159609 102.060157 
L 282.159609 100.774803 
L 285.791238 100.774803 
L 285.791238 99.489449 
L 289.422867 99.489449 
L 289.422867 98.204094 
L 294.416368 98.204094 
L 294.416368 96.91874 
L 297.14009 96.91874 
L 297.14009 95.633386 
L 301.679627 95.633386 
L 301.679627 94.348031 
L 306.673128 94.348031 
L 306.673128 93.062677 
L 309.39685 93.062677 
L 309.39685 91.777323 
L 312.120572 91.777323 
L 312.120572 90.491969 
L 314.390351 90.491969 
L 314.390351 89.206614 
L 317.114073 89.206614 
L 317.114073 87.92126 
L 319.383852 87.92126 
L 319.383852 86.635906 
L 321.65361 86.635906 
L 321.65361 85.350551 
L 323.015482 85.350551 
L 323.015482 84.065197 
L 324.831296 84.065197 
L 324.831296 82.779843 
L 326.647111 82.779843 
L 326.647111 81.494488 
L 328.462926 81.494488 
L 328.462926 80.209134 
L 330.732705 80.209134 
L 330.732705 78.92378 
L 333.456427 78.92378 
L 333.456427 77.638425 
L 338.903871 77.638425 
L 338.903871 78.92378 
L 342.081557 78.92378 
L 342.081557 80.209134 
L 343.897372 80.209134 
L 343.897372 81.494488 
L 345.259222 81.494488 
L 345.259222 82.779843 
L 346.621094 82.779843 
L 346.621094 84.065197 
L 347.529001 84.065197 
L 347.529001 85.350551 
L 348.436908 85.350551 
L 348.436908 86.635906 
L 349.344816 86.635906 
L 349.344816 87.92126 
L 349.798759 87.92126 
L 349.798759 89.206614 
L 350.706666 89.206614 
L 350.706666 90.491969 
L 351.614573 90.491969 
L 351.614573 91.777323 
L 352.068538 91.777323 
L 352.068538 93.062677 
L 352.976445 93.062677 
L 352.976445 94.348031 
L 353.884352 94.348031 
L 353.884352 95.633386 
L 354.79226 95.633386 
L 354.79226 96.91874 
L 356.154132 96.91874 
L 356.154132 98.204094 
L 357.062039 98.204094 
L 357.062039 99.489449 
L 358.423889 99.489449 
L 358.423889 100.774803 
L 359.785761 100.774803 
L 359.785761 102.060157 
L 361.601576 102.060157 
L 361.601576 103.345512 
L 374.312278 103.345512 
L 374.312278 102.060157 
L 378.397872 102.060157 
L 378.397872 100.774803 
L 382.483466 100.774803 
L 382.483466 99.489449 
L 385.66113 99.489449 
L 385.66113 98.204094 
L 387.93091 98.204094 
L 387.93091 96.91874 
L 394.286261 96.91874 
L 394.286261 95.633386 
L 403.819299 95.633386 
L 403.819299 94.348031 
L 406.089078 94.348031 
L 406.089078 93.062677 
L 408.358835 93.062677 
L 408.358835 91.777323 
L 410.628614 91.777323 
L 410.628614 90.491969 
L 413.352336 90.491969 
L 413.352336 89.206614 
L 416.076058 89.206614 
L 416.076058 87.92126 
L 418.345837 87.92126 
L 418.345837 86.635906 
L 421.069559 86.635906 
L 421.069559 85.350551 
L 424.701189 85.350551 
L 424.701189 84.065197 
L 427.878875 84.065197 
L 427.878875 82.779843 
L 431.05654 82.779843 
L 431.05654 81.494488 
L 436.504006 81.494488 
L 436.504006 80.209134 
L 440.135613 80.209134 
L 440.135613 78.92378 
L 448.760765 78.92378 
L 448.760765 77.638425 
L 455.570059 77.638425 
L 455.570059 78.92378 
L 461.925432 78.92378 
L 461.925432 80.209134 
L 466.464947 80.209134 
L 466.464947 81.494488 
L 469.188691 81.494488 
L 469.188691 82.779843 
L 471.912435 82.779843 
L 471.912435 84.065197 
L 475.544064 84.065197 
L 475.544064 85.350551 
L 482.807323 85.350551 
L 482.807323 86.635906 
L 487.800802 86.635906 
L 487.800802 87.92126 
L 494.156175 87.92126 
L 494.156175 89.206614 
L 499.603619 89.206614 
L 499.603619 90.491969 
L 509.590621 90.491969 
L 509.590621 91.777323 
L 511.406436 91.777323 
L 511.406436 93.062677 
L 513.22225 93.062677 
L 513.22225 94.348031 
L 516.399915 94.348031 
L 516.399915 95.633386 
L 522.755288 95.633386 
L 522.755288 96.91874 
L 525.025024 96.91874 
L 525.025024 98.204094 
L 527.294803 98.204094 
L 527.294803 99.489449 
L 529.110618 99.489449 
L 529.110618 100.774803 
L 531.834361 100.774803 
L 531.834361 102.060157 
L 538.189691 102.060157 
L 538.189691 103.345512 
L 541.821364 103.345512 
L 541.821364 103.345512 
" style="fill:none;stroke:#d62728;stroke-linecap:square;stroke-opacity:0.8;stroke-width:1.5;"/>
   </g>
   <g id="patch_3">
    <path d="M 50.87 174.04 
L 50.87 10.8 
" style="fill:none;stroke:#000000;stroke-linecap:square;stroke-linejoin:miter;stroke-width:0.8;"/>
   </g>
   <g id="patch_4">
    <path d="M 565.2 174.04 
L 565.2 10.8 
" style="fill:none;stroke:#000000;stroke-linecap:square;stroke-linejoin:miter;stroke-width:0.8;"/>
   </g>
   <g id="patch_5">
    <path d="M 50.87 174.04 
L 565.2 174.04 
" style="fill:none;stroke:#000000;stroke-linecap:square;stroke-linejoin:miter;stroke-width:0.8;"/>
   </g>
   <g id="patch_6">
    <path d="M 50.87 10.8 
L 565.2 10.8 
" style="fill:none;stroke:#000000;stroke-linecap:square;stroke-linejoin:miter;stroke-width:0.8;"/>
   </g>
  </g>
 </g>
 <defs>
  <clipPath id="p8cbaaaf082">
   <rect height="163.24" width="514.33" x="50.87" y="10.8"/>
  </clipPath>
 </defs>
</svg>
