<?xml version="1.0" encoding="utf-8" standalone="no"?>
<!DOCTYPE svg PUBLIC "-//W3C//DTD SVG 1.1//EN"
  "http://www.w3.org/Graphics/SVG/1.1/DTD/svg11.dtd">
<svg height="216pt" version="1.1" viewBox="0 0 576 216" width="576pt" xmlns="http://www.w3.org/2000/svg" xmlns:xlink="http://www.w3.org/1999/xlink">
 <metadata>
  <rdf:RDF xmlns:cc="http://creativecommons.org/ns#" xmlns:dc="http://purl.org/dc/elements/1.1/" xmlns:rdf="http://www.w3.org/1999/02/22-rdf-syntax-ns#">
   <cc:Work>
    <dc:type rdf:resource="http://purl.org/dc/dcmitype/StillImage"/>
    <dc:date>2021-11-30T11:14:05.394777</dc:date>
    <dc:format>image/svg+xml</dc:format>
    <dc:creator>
     <cc:Agent>
      <dc:title>Matplotlib v3.4.3, https://matplotlib.org/</dc:title>
     </cc:Agent>
    </dc:creator>
   </cc:Work>
  </rdf:RDF>
 </metadata>
 <defs>
  <style type="text/css">*{stroke-linecap:butt;stroke-linejoin:round;}</style>
 </defs>
 <g id="figure_1">
  <g id="patch_1">
   <path d="M 0 216 
L 576 216 
L 576 0 
L 0 0 
z
" style="fill:#ffffff;"/>
  </g>
  <g id="axes_1">
   <g id="patch_2">
    <path d="M 50.87 174.04 
L 565.2 174.04 
L 565.2 10.8 
L 50.87 10.8 
z
" style="fill:#ffffff;"/>
   </g>
   <g id="matplotlib.axis_1">
    <g id="xtick_1">
     <g id="line2d_1">
      <defs>
       <path d="M 0 0 
L 0 3.5 
" id="m37d80525f1" style="stroke:#000000;stroke-width:0.8;"/>
      </defs>
      <g>
       <use style="stroke:#000000;stroke-width:0.8;" x="74.248636" xlink:href="#m37d80525f1" y="174.04"/>
      </g>
     </g>
     <g id="text_1">
      <!-- 0 -->
      <g transform="translate(71.067386 188.638438)scale(0.1 -0.1)">
       <defs>
        <path d="M 2034 4250 
Q 1547 4250 1301 3770 
Q 1056 3291 1056 2328 
Q 1056 1369 1301 889 
Q 1547 409 2034 409 
Q 2525 409 2770 889 
Q 3016 1369 3016 2328 
Q 3016 3291 2770 3770 
Q 2525 4250 2034 4250 
z
M 2034 4750 
Q 2819 4750 3233 4129 
Q 3647 3509 3647 2328 
Q 3647 1150 3233 529 
Q 2819 -91 2034 -91 
Q 1250 -91 836 529 
Q 422 1150 422 2328 
Q 422 3509 836 4129 
Q 1250 4750 2034 4750 
z
" id="DejaVuSans-30" transform="scale(0.015625)"/>
       </defs>
       <use xlink:href="#DejaVuSans-30"/>
      </g>
     </g>
    </g>
    <g id="xtick_2">
     <g id="line2d_2">
      <g>
       <use style="stroke:#000000;stroke-width:0.8;" x="187.73716" xlink:href="#m37d80525f1" y="174.04"/>
      </g>
     </g>
     <g id="text_2">
      <!-- 5 -->
      <g transform="translate(184.55591 188.638438)scale(0.1 -0.1)">
       <defs>
        <path d="M 691 4666 
L 3169 4666 
L 3169 4134 
L 1269 4134 
L 1269 2991 
Q 1406 3038 1543 3061 
Q 1681 3084 1819 3084 
Q 2600 3084 3056 2656 
Q 3513 2228 3513 1497 
Q 3513 744 3044 326 
Q 2575 -91 1722 -91 
Q 1428 -91 1123 -41 
Q 819 9 494 109 
L 494 744 
Q 775 591 1075 516 
Q 1375 441 1709 441 
Q 2250 441 2565 725 
Q 2881 1009 2881 1497 
Q 2881 1984 2565 2268 
Q 2250 2553 1709 2553 
Q 1456 2553 1204 2497 
Q 953 2441 691 2322 
L 691 4666 
z
" id="DejaVuSans-35" transform="scale(0.015625)"/>
       </defs>
       <use xlink:href="#DejaVuSans-35"/>
      </g>
     </g>
    </g>
    <g id="xtick_3">
     <g id="line2d_3">
      <g>
       <use style="stroke:#000000;stroke-width:0.8;" x="301.225684" xlink:href="#m37d80525f1" y="174.04"/>
      </g>
     </g>
     <g id="text_3">
      <!-- 10 -->
      <g transform="translate(294.863184 188.638438)scale(0.1 -0.1)">
       <defs>
        <path d="M 794 531 
L 1825 531 
L 1825 4091 
L 703 3866 
L 703 4441 
L 1819 4666 
L 2450 4666 
L 2450 531 
L 3481 531 
L 3481 0 
L 794 0 
L 794 531 
z
" id="DejaVuSans-31" transform="scale(0.015625)"/>
       </defs>
       <use xlink:href="#DejaVuSans-31"/>
       <use x="63.623047" xlink:href="#DejaVuSans-30"/>
      </g>
     </g>
    </g>
    <g id="xtick_4">
     <g id="line2d_4">
      <g>
       <use style="stroke:#000000;stroke-width:0.8;" x="414.714208" xlink:href="#m37d80525f1" y="174.04"/>
      </g>
     </g>
     <g id="text_4">
      <!-- 15 -->
      <g transform="translate(408.351708 188.638438)scale(0.1 -0.1)">
       <use xlink:href="#DejaVuSans-31"/>
       <use x="63.623047" xlink:href="#DejaVuSans-35"/>
      </g>
     </g>
    </g>
    <g id="xtick_5">
     <g id="line2d_5">
      <g>
       <use style="stroke:#000000;stroke-width:0.8;" x="528.202732" xlink:href="#m37d80525f1" y="174.04"/>
      </g>
     </g>
     <g id="text_5">
      <!-- 20 -->
      <g transform="translate(521.840232 188.638438)scale(0.1 -0.1)">
       <defs>
        <path d="M 1228 531 
L 3431 531 
L 3431 0 
L 469 0 
L 469 531 
Q 828 903 1448 1529 
Q 2069 2156 2228 2338 
Q 2531 2678 2651 2914 
Q 2772 3150 2772 3378 
Q 2772 3750 2511 3984 
Q 2250 4219 1831 4219 
Q 1534 4219 1204 4116 
Q 875 4013 500 3803 
L 500 4441 
Q 881 4594 1212 4672 
Q 1544 4750 1819 4750 
Q 2544 4750 2975 4387 
Q 3406 4025 3406 3419 
Q 3406 3131 3298 2873 
Q 3191 2616 2906 2266 
Q 2828 2175 2409 1742 
Q 1991 1309 1228 531 
z
" id="DejaVuSans-32" transform="scale(0.015625)"/>
       </defs>
       <use xlink:href="#DejaVuSans-32"/>
       <use x="63.623047" xlink:href="#DejaVuSans-30"/>
      </g>
     </g>
    </g>
    <g id="text_6">
     <!-- Timestep -->
     <g transform="translate(284.985781 202.316563)scale(0.1 -0.1)">
      <defs>
       <path d="M -19 4666 
L 3928 4666 
L 3928 4134 
L 2272 4134 
L 2272 0 
L 1638 0 
L 1638 4134 
L -19 4134 
L -19 4666 
z
" id="DejaVuSans-54" transform="scale(0.015625)"/>
       <path d="M 603 3500 
L 1178 3500 
L 1178 0 
L 603 0 
L 603 3500 
z
M 603 4863 
L 1178 4863 
L 1178 4134 
L 603 4134 
L 603 4863 
z
" id="DejaVuSans-69" transform="scale(0.015625)"/>
       <path d="M 3328 2828 
Q 3544 3216 3844 3400 
Q 4144 3584 4550 3584 
Q 5097 3584 5394 3201 
Q 5691 2819 5691 2113 
L 5691 0 
L 5113 0 
L 5113 2094 
Q 5113 2597 4934 2840 
Q 4756 3084 4391 3084 
Q 3944 3084 3684 2787 
Q 3425 2491 3425 1978 
L 3425 0 
L 2847 0 
L 2847 2094 
Q 2847 2600 2669 2842 
Q 2491 3084 2119 3084 
Q 1678 3084 1418 2786 
Q 1159 2488 1159 1978 
L 1159 0 
L 581 0 
L 581 3500 
L 1159 3500 
L 1159 2956 
Q 1356 3278 1631 3431 
Q 1906 3584 2284 3584 
Q 2666 3584 2933 3390 
Q 3200 3197 3328 2828 
z
" id="DejaVuSans-6d" transform="scale(0.015625)"/>
       <path d="M 3597 1894 
L 3597 1613 
L 953 1613 
Q 991 1019 1311 708 
Q 1631 397 2203 397 
Q 2534 397 2845 478 
Q 3156 559 3463 722 
L 3463 178 
Q 3153 47 2828 -22 
Q 2503 -91 2169 -91 
Q 1331 -91 842 396 
Q 353 884 353 1716 
Q 353 2575 817 3079 
Q 1281 3584 2069 3584 
Q 2775 3584 3186 3129 
Q 3597 2675 3597 1894 
z
M 3022 2063 
Q 3016 2534 2758 2815 
Q 2500 3097 2075 3097 
Q 1594 3097 1305 2825 
Q 1016 2553 972 2059 
L 3022 2063 
z
" id="DejaVuSans-65" transform="scale(0.015625)"/>
       <path d="M 2834 3397 
L 2834 2853 
Q 2591 2978 2328 3040 
Q 2066 3103 1784 3103 
Q 1356 3103 1142 2972 
Q 928 2841 928 2578 
Q 928 2378 1081 2264 
Q 1234 2150 1697 2047 
L 1894 2003 
Q 2506 1872 2764 1633 
Q 3022 1394 3022 966 
Q 3022 478 2636 193 
Q 2250 -91 1575 -91 
Q 1294 -91 989 -36 
Q 684 19 347 128 
L 347 722 
Q 666 556 975 473 
Q 1284 391 1588 391 
Q 1994 391 2212 530 
Q 2431 669 2431 922 
Q 2431 1156 2273 1281 
Q 2116 1406 1581 1522 
L 1381 1569 
Q 847 1681 609 1914 
Q 372 2147 372 2553 
Q 372 3047 722 3315 
Q 1072 3584 1716 3584 
Q 2034 3584 2315 3537 
Q 2597 3491 2834 3397 
z
" id="DejaVuSans-73" transform="scale(0.015625)"/>
       <path d="M 1172 4494 
L 1172 3500 
L 2356 3500 
L 2356 3053 
L 1172 3053 
L 1172 1153 
Q 1172 725 1289 603 
Q 1406 481 1766 481 
L 2356 481 
L 2356 0 
L 1766 0 
Q 1100 0 847 248 
Q 594 497 594 1153 
L 594 3053 
L 172 3053 
L 172 3500 
L 594 3500 
L 594 4494 
L 1172 4494 
z
" id="DejaVuSans-74" transform="scale(0.015625)"/>
       <path d="M 1159 525 
L 1159 -1331 
L 581 -1331 
L 581 3500 
L 1159 3500 
L 1159 2969 
Q 1341 3281 1617 3432 
Q 1894 3584 2278 3584 
Q 2916 3584 3314 3078 
Q 3713 2572 3713 1747 
Q 3713 922 3314 415 
Q 2916 -91 2278 -91 
Q 1894 -91 1617 61 
Q 1341 213 1159 525 
z
M 3116 1747 
Q 3116 2381 2855 2742 
Q 2594 3103 2138 3103 
Q 1681 3103 1420 2742 
Q 1159 2381 1159 1747 
Q 1159 1113 1420 752 
Q 1681 391 2138 391 
Q 2594 391 2855 752 
Q 3116 1113 3116 1747 
z
" id="DejaVuSans-70" transform="scale(0.015625)"/>
      </defs>
      <use xlink:href="#DejaVuSans-54"/>
      <use x="57.958984" xlink:href="#DejaVuSans-69"/>
      <use x="85.742188" xlink:href="#DejaVuSans-6d"/>
      <use x="183.154297" xlink:href="#DejaVuSans-65"/>
      <use x="244.677734" xlink:href="#DejaVuSans-73"/>
      <use x="296.777344" xlink:href="#DejaVuSans-74"/>
      <use x="335.986328" xlink:href="#DejaVuSans-65"/>
      <use x="397.509766" xlink:href="#DejaVuSans-70"/>
     </g>
    </g>
   </g>
   <g id="matplotlib.axis_2">
    <g id="ytick_1">
     <g id="line2d_6">
      <defs>
       <path d="M 0 0 
L -3.5 0 
" id="m8a7da69d44" style="stroke:#000000;stroke-width:0.8;"/>
      </defs>
      <g>
       <use style="stroke:#000000;stroke-width:0.8;" x="50.87" xlink:href="#m8a7da69d44" y="174.04"/>
      </g>
     </g>
     <g id="text_7">
      <!-- 0 -->
      <g transform="translate(37.5075 177.839219)scale(0.1 -0.1)">
       <use xlink:href="#DejaVuSans-30"/>
      </g>
     </g>
    </g>
    <g id="ytick_2">
     <g id="line2d_7">
      <g>
       <use style="stroke:#000000;stroke-width:0.8;" x="50.87" xlink:href="#m8a7da69d44" y="148.332913"/>
      </g>
     </g>
     <g id="text_8">
      <!-- 20 -->
      <g transform="translate(31.145 152.132132)scale(0.1 -0.1)">
       <use xlink:href="#DejaVuSans-32"/>
       <use x="63.623047" xlink:href="#DejaVuSans-30"/>
      </g>
     </g>
    </g>
    <g id="ytick_3">
     <g id="line2d_8">
      <g>
       <use style="stroke:#000000;stroke-width:0.8;" x="50.87" xlink:href="#m8a7da69d44" y="122.625827"/>
      </g>
     </g>
     <g id="text_9">
      <!-- 40 -->
      <g transform="translate(31.145 126.425046)scale(0.1 -0.1)">
       <defs>
        <path d="M 2419 4116 
L 825 1625 
L 2419 1625 
L 2419 4116 
z
M 2253 4666 
L 3047 4666 
L 3047 1625 
L 3713 1625 
L 3713 1100 
L 3047 1100 
L 3047 0 
L 2419 0 
L 2419 1100 
L 313 1100 
L 313 1709 
L 2253 4666 
z
" id="DejaVuSans-34" transform="scale(0.015625)"/>
       </defs>
       <use xlink:href="#DejaVuSans-34"/>
       <use x="63.623047" xlink:href="#DejaVuSans-30"/>
      </g>
     </g>
    </g>
    <g id="ytick_4">
     <g id="line2d_9">
      <g>
       <use style="stroke:#000000;stroke-width:0.8;" x="50.87" xlink:href="#m8a7da69d44" y="96.91874"/>
      </g>
     </g>
     <g id="text_10">
      <!-- 60 -->
      <g transform="translate(31.145 100.717959)scale(0.1 -0.1)">
       <defs>
        <path d="M 2113 2584 
Q 1688 2584 1439 2293 
Q 1191 2003 1191 1497 
Q 1191 994 1439 701 
Q 1688 409 2113 409 
Q 2538 409 2786 701 
Q 3034 994 3034 1497 
Q 3034 2003 2786 2293 
Q 2538 2584 2113 2584 
z
M 3366 4563 
L 3366 3988 
Q 3128 4100 2886 4159 
Q 2644 4219 2406 4219 
Q 1781 4219 1451 3797 
Q 1122 3375 1075 2522 
Q 1259 2794 1537 2939 
Q 1816 3084 2150 3084 
Q 2853 3084 3261 2657 
Q 3669 2231 3669 1497 
Q 3669 778 3244 343 
Q 2819 -91 2113 -91 
Q 1303 -91 875 529 
Q 447 1150 447 2328 
Q 447 3434 972 4092 
Q 1497 4750 2381 4750 
Q 2619 4750 2861 4703 
Q 3103 4656 3366 4563 
z
" id="DejaVuSans-36" transform="scale(0.015625)"/>
       </defs>
       <use xlink:href="#DejaVuSans-36"/>
       <use x="63.623047" xlink:href="#DejaVuSans-30"/>
      </g>
     </g>
    </g>
    <g id="ytick_5">
     <g id="line2d_10">
      <g>
       <use style="stroke:#000000;stroke-width:0.8;" x="50.87" xlink:href="#m8a7da69d44" y="71.211654"/>
      </g>
     </g>
     <g id="text_11">
      <!-- 80 -->
      <g transform="translate(31.145 75.010872)scale(0.1 -0.1)">
       <defs>
        <path d="M 2034 2216 
Q 1584 2216 1326 1975 
Q 1069 1734 1069 1313 
Q 1069 891 1326 650 
Q 1584 409 2034 409 
Q 2484 409 2743 651 
Q 3003 894 3003 1313 
Q 3003 1734 2745 1975 
Q 2488 2216 2034 2216 
z
M 1403 2484 
Q 997 2584 770 2862 
Q 544 3141 544 3541 
Q 544 4100 942 4425 
Q 1341 4750 2034 4750 
Q 2731 4750 3128 4425 
Q 3525 4100 3525 3541 
Q 3525 3141 3298 2862 
Q 3072 2584 2669 2484 
Q 3125 2378 3379 2068 
Q 3634 1759 3634 1313 
Q 3634 634 3220 271 
Q 2806 -91 2034 -91 
Q 1263 -91 848 271 
Q 434 634 434 1313 
Q 434 1759 690 2068 
Q 947 2378 1403 2484 
z
M 1172 3481 
Q 1172 3119 1398 2916 
Q 1625 2713 2034 2713 
Q 2441 2713 2670 2916 
Q 2900 3119 2900 3481 
Q 2900 3844 2670 4047 
Q 2441 4250 2034 4250 
Q 1625 4250 1398 4047 
Q 1172 3844 1172 3481 
z
" id="DejaVuSans-38" transform="scale(0.015625)"/>
       </defs>
       <use xlink:href="#DejaVuSans-38"/>
       <use x="63.623047" xlink:href="#DejaVuSans-30"/>
      </g>
     </g>
    </g>
    <g id="ytick_6">
     <g id="line2d_11">
      <g>
       <use style="stroke:#000000;stroke-width:0.8;" x="50.87" xlink:href="#m8a7da69d44" y="45.504567"/>
      </g>
     </g>
     <g id="text_12">
      <!-- 100 -->
      <g transform="translate(24.7825 49.303786)scale(0.1 -0.1)">
       <use xlink:href="#DejaVuSans-31"/>
       <use x="63.623047" xlink:href="#DejaVuSans-30"/>
       <use x="127.246094" xlink:href="#DejaVuSans-30"/>
      </g>
     </g>
    </g>
    <g id="ytick_7">
     <g id="line2d_12">
      <g>
       <use style="stroke:#000000;stroke-width:0.8;" x="50.87" xlink:href="#m8a7da69d44" y="19.79748"/>
      </g>
     </g>
     <g id="text_13">
      <!-- 120 -->
      <g transform="translate(24.7825 23.596699)scale(0.1 -0.1)">
       <use xlink:href="#DejaVuSans-31"/>
       <use x="63.623047" xlink:href="#DejaVuSans-32"/>
       <use x="127.246094" xlink:href="#DejaVuSans-30"/>
      </g>
     </g>
    </g>
    <g id="text_14">
     <!-- Quantization Level -->
     <g transform="translate(18.702813 139.161406)rotate(-90)scale(0.1 -0.1)">
      <defs>
       <path d="M 2522 4238 
Q 1834 4238 1429 3725 
Q 1025 3213 1025 2328 
Q 1025 1447 1429 934 
Q 1834 422 2522 422 
Q 3209 422 3611 934 
Q 4013 1447 4013 2328 
Q 4013 3213 3611 3725 
Q 3209 4238 2522 4238 
z
M 3406 84 
L 4238 -825 
L 3475 -825 
L 2784 -78 
Q 2681 -84 2626 -87 
Q 2572 -91 2522 -91 
Q 1538 -91 948 567 
Q 359 1225 359 2328 
Q 359 3434 948 4092 
Q 1538 4750 2522 4750 
Q 3503 4750 4090 4092 
Q 4678 3434 4678 2328 
Q 4678 1516 4351 937 
Q 4025 359 3406 84 
z
" id="DejaVuSans-51" transform="scale(0.015625)"/>
       <path d="M 544 1381 
L 544 3500 
L 1119 3500 
L 1119 1403 
Q 1119 906 1312 657 
Q 1506 409 1894 409 
Q 2359 409 2629 706 
Q 2900 1003 2900 1516 
L 2900 3500 
L 3475 3500 
L 3475 0 
L 2900 0 
L 2900 538 
Q 2691 219 2414 64 
Q 2138 -91 1772 -91 
Q 1169 -91 856 284 
Q 544 659 544 1381 
z
M 1991 3584 
L 1991 3584 
z
" id="DejaVuSans-75" transform="scale(0.015625)"/>
       <path d="M 2194 1759 
Q 1497 1759 1228 1600 
Q 959 1441 959 1056 
Q 959 750 1161 570 
Q 1363 391 1709 391 
Q 2188 391 2477 730 
Q 2766 1069 2766 1631 
L 2766 1759 
L 2194 1759 
z
M 3341 1997 
L 3341 0 
L 2766 0 
L 2766 531 
Q 2569 213 2275 61 
Q 1981 -91 1556 -91 
Q 1019 -91 701 211 
Q 384 513 384 1019 
Q 384 1609 779 1909 
Q 1175 2209 1959 2209 
L 2766 2209 
L 2766 2266 
Q 2766 2663 2505 2880 
Q 2244 3097 1772 3097 
Q 1472 3097 1187 3025 
Q 903 2953 641 2809 
L 641 3341 
Q 956 3463 1253 3523 
Q 1550 3584 1831 3584 
Q 2591 3584 2966 3190 
Q 3341 2797 3341 1997 
z
" id="DejaVuSans-61" transform="scale(0.015625)"/>
       <path d="M 3513 2113 
L 3513 0 
L 2938 0 
L 2938 2094 
Q 2938 2591 2744 2837 
Q 2550 3084 2163 3084 
Q 1697 3084 1428 2787 
Q 1159 2491 1159 1978 
L 1159 0 
L 581 0 
L 581 3500 
L 1159 3500 
L 1159 2956 
Q 1366 3272 1645 3428 
Q 1925 3584 2291 3584 
Q 2894 3584 3203 3211 
Q 3513 2838 3513 2113 
z
" id="DejaVuSans-6e" transform="scale(0.015625)"/>
       <path d="M 353 3500 
L 3084 3500 
L 3084 2975 
L 922 459 
L 3084 459 
L 3084 0 
L 275 0 
L 275 525 
L 2438 3041 
L 353 3041 
L 353 3500 
z
" id="DejaVuSans-7a" transform="scale(0.015625)"/>
       <path d="M 1959 3097 
Q 1497 3097 1228 2736 
Q 959 2375 959 1747 
Q 959 1119 1226 758 
Q 1494 397 1959 397 
Q 2419 397 2687 759 
Q 2956 1122 2956 1747 
Q 2956 2369 2687 2733 
Q 2419 3097 1959 3097 
z
M 1959 3584 
Q 2709 3584 3137 3096 
Q 3566 2609 3566 1747 
Q 3566 888 3137 398 
Q 2709 -91 1959 -91 
Q 1206 -91 779 398 
Q 353 888 353 1747 
Q 353 2609 779 3096 
Q 1206 3584 1959 3584 
z
" id="DejaVuSans-6f" transform="scale(0.015625)"/>
       <path id="DejaVuSans-20" transform="scale(0.015625)"/>
       <path d="M 628 4666 
L 1259 4666 
L 1259 531 
L 3531 531 
L 3531 0 
L 628 0 
L 628 4666 
z
" id="DejaVuSans-4c" transform="scale(0.015625)"/>
       <path d="M 191 3500 
L 800 3500 
L 1894 563 
L 2988 3500 
L 3597 3500 
L 2284 0 
L 1503 0 
L 191 3500 
z
" id="DejaVuSans-76" transform="scale(0.015625)"/>
       <path d="M 603 4863 
L 1178 4863 
L 1178 0 
L 603 0 
L 603 4863 
z
" id="DejaVuSans-6c" transform="scale(0.015625)"/>
      </defs>
      <use xlink:href="#DejaVuSans-51"/>
      <use x="78.710938" xlink:href="#DejaVuSans-75"/>
      <use x="142.089844" xlink:href="#DejaVuSans-61"/>
      <use x="203.369141" xlink:href="#DejaVuSans-6e"/>
      <use x="266.748047" xlink:href="#DejaVuSans-74"/>
      <use x="305.957031" xlink:href="#DejaVuSans-69"/>
      <use x="333.740234" xlink:href="#DejaVuSans-7a"/>
      <use x="386.230469" xlink:href="#DejaVuSans-61"/>
      <use x="447.509766" xlink:href="#DejaVuSans-74"/>
      <use x="486.71875" xlink:href="#DejaVuSans-69"/>
      <use x="514.501953" xlink:href="#DejaVuSans-6f"/>
      <use x="575.683594" xlink:href="#DejaVuSans-6e"/>
      <use x="639.0625" xlink:href="#DejaVuSans-20"/>
      <use x="670.849609" xlink:href="#DejaVuSans-4c"/>
      <use x="724.8125" xlink:href="#DejaVuSans-65"/>
      <use x="786.335938" xlink:href="#DejaVuSans-76"/>
      <use x="845.515625" xlink:href="#DejaVuSans-65"/>
      <use x="907.039062" xlink:href="#DejaVuSans-6c"/>
     </g>
    </g>
   </g>
   <g id="line2d_13">
    <path clip-path="url(#pd3ca0e33e0)" d="M 74.248636 93.062677 
L 74.248636 108.486929 
L 82.41981 108.486929 
L 82.41981 109.772283 
L 84.68958 109.772283 
L 84.68958 111.057638 
L 87.413305 111.057638 
L 87.413305 112.342992 
L 89.229121 112.342992 
L 89.229121 113.628346 
L 91.498892 113.628346 
L 91.498892 114.913701 
L 95.130524 114.913701 
L 95.130524 116.199055 
L 98.308202 116.199055 
L 98.308202 117.484409 
L 100.577973 117.484409 
L 100.577973 118.769764 
L 105.117515 118.769764 
L 105.117515 120.055118 
L 107.84124 120.055118 
L 107.84124 121.340472 
L 113.288687 121.340472 
L 113.288687 122.625827 
L 128.269171 122.625827 
L 128.269171 121.340472 
L 130.538945 121.340472 
L 130.538945 120.055118 
L 131.900806 120.055118 
L 131.900806 118.769764 
L 133.262667 118.769764 
L 133.262667 117.484409 
L 134.170574 117.484409 
L 134.170574 116.199055 
L 135.078481 116.199055 
L 135.078481 114.913701 
L 135.986394 114.913701 
L 135.986394 113.628346 
L 136.894301 113.628346 
L 136.894301 112.342992 
L 137.802209 112.342992 
L 137.802209 111.057638 
L 138.256162 111.057638 
L 138.256162 109.772283 
L 139.16407 109.772283 
L 139.16407 108.486929 
L 140.071977 108.486929 
L 140.071977 107.201575 
L 140.525931 107.201575 
L 140.525931 105.91622 
L 141.433843 105.91622 
L 141.433843 104.630866 
L 142.341751 104.630866 
L 142.341751 103.345512 
L 143.249658 103.345512 
L 143.249658 102.060157 
L 144.157565 102.060157 
L 144.157565 100.774803 
L 145.065473 100.774803 
L 145.065473 99.489449 
L 146.427334 99.489449 
L 146.427334 98.204094 
L 146.881287 98.204094 
L 146.881287 96.91874 
L 147.7892 96.91874 
L 147.7892 95.633386 
L 148.243154 95.633386 
L 148.243154 94.348031 
L 149.151061 94.348031 
L 149.151061 93.062677 
L 149.605015 93.062677 
L 149.605015 91.777323 
L 150.512922 91.777323 
L 150.512922 90.491969 
L 150.966876 90.491969 
L 150.966876 89.206614 
L 151.874783 89.206614 
L 151.874783 87.92126 
L 152.782696 87.92126 
L 152.782696 86.635906 
L 153.690603 86.635906 
L 153.690603 85.350551 
L 155.052464 85.350551 
L 155.052464 84.065197 
L 156.868279 84.065197 
L 156.868279 82.779843 
L 160.953867 82.779843 
L 160.953867 81.494488 
L 164.585502 81.494488 
L 164.585502 80.209134 
L 167.763177 80.209134 
L 167.763177 78.92378 
L 171.84876 78.92378 
L 171.84876 80.209134 
L 174.572493 80.209134 
L 174.572493 81.494488 
L 176.388308 81.494488 
L 176.388308 82.779843 
L 178.204123 82.779843 
L 178.204123 84.065197 
L 180.019937 84.065197 
L 180.019937 85.350551 
L 181.381798 85.350551 
L 181.381798 86.635906 
L 182.743659 86.635906 
L 182.743659 87.92126 
L 184.559474 87.92126 
L 184.559474 89.206614 
L 185.467392 89.206614 
L 185.467392 90.491969 
L 186.375299 90.491969 
L 186.375299 91.777323 
L 187.73716 91.777323 
L 187.73716 93.062677 
L 188.645068 93.062677 
L 188.645068 94.348031 
L 189.099021 94.348031 
L 189.099021 95.633386 
L 190.006929 95.633386 
L 190.006929 96.91874 
L 190.914836 96.91874 
L 190.914836 98.204094 
L 191.36879 98.204094 
L 191.36879 99.489449 
L 191.822743 99.489449 
L 191.822743 100.774803 
L 192.276697 100.774803 
L 192.276697 102.060157 
L 193.184604 102.060157 
L 193.184604 103.345512 
L 194.092512 103.345512 
L 194.092512 104.630866 
L 195.000419 104.630866 
L 195.000419 105.91622 
L 195.908326 105.91622 
L 195.908326 107.201575 
L 196.816244 107.201575 
L 196.816244 108.486929 
L 198.178105 108.486929 
L 198.178105 109.772283 
L 199.539966 109.772283 
L 199.539966 111.057638 
L 200.901827 111.057638 
L 200.901827 112.342992 
L 201.809735 112.342992 
L 201.809735 113.628346 
L 202.263688 113.628346 
L 202.263688 114.913701 
L 203.625549 114.913701 
L 203.625549 116.199055 
L 204.533457 116.199055 
L 204.533457 117.484409 
L 205.441364 117.484409 
L 205.441364 118.769764 
L 206.349271 118.769764 
L 206.349271 120.055118 
L 207.257179 120.055118 
L 207.257179 121.340472 
L 208.61905 121.340472 
L 208.61905 122.625827 
L 209.980911 122.625827 
L 209.980911 123.911181 
L 211.342772 123.911181 
L 211.342772 125.196535 
L 212.704633 125.196535 
L 212.704633 126.48189 
L 214.066494 126.48189 
L 214.066494 127.767244 
L 215.428355 127.767244 
L 215.428355 129.052598 
L 216.790216 129.052598 
L 216.790216 130.337953 
L 217.698124 130.337953 
L 217.698124 131.623307 
L 219.513938 131.623307 
L 219.513938 132.908661 
L 221.329764 132.908661 
L 221.329764 134.194016 
L 224.507439 134.194016 
L 224.507439 135.47937 
L 229.50093 135.47937 
L 229.50093 134.194016 
L 232.678616 134.194016 
L 232.678616 132.908661 
L 236.764199 132.908661 
L 236.764199 131.623307 
L 239.487921 131.623307 
L 239.487921 130.337953 
L 241.303736 130.337953 
L 241.303736 129.052598 
L 242.665597 129.052598 
L 242.665597 127.767244 
L 244.027469 127.767244 
L 244.027469 126.48189 
L 244.935376 126.48189 
L 244.935376 125.196535 
L 245.843283 125.196535 
L 245.843283 123.911181 
L 246.751191 123.911181 
L 246.751191 122.625827 
L 247.659098 122.625827 
L 247.659098 121.340472 
L 248.567005 121.340472 
L 248.567005 120.055118 
L 249.474913 120.055118 
L 249.474913 118.769764 
L 250.38282 118.769764 
L 250.38282 117.484409 
L 251.290727 117.484409 
L 251.290727 116.199055 
L 251.744681 116.199055 
L 251.744681 114.913701 
L 252.652588 114.913701 
L 252.652588 113.628346 
L 253.106542 113.628346 
L 253.106542 112.342992 
L 253.560496 112.342992 
L 253.560496 111.057638 
L 254.014449 111.057638 
L 254.014449 109.772283 
L 254.468414 109.772283 
L 254.468414 108.486929 
L 254.922367 108.486929 
L 254.922367 107.201575 
L 255.376321 107.201575 
L 255.376321 105.91622 
L 256.284218 105.91622 
L 256.284218 104.630866 
L 256.738182 104.630866 
L 256.738182 103.345512 
L 257.646089 103.345512 
L 257.646089 102.060157 
L 258.100032 102.060157 
L 258.100032 100.774803 
L 258.553997 100.774803 
L 258.553997 99.489449 
L 259.007939 99.489449 
L 259.007939 98.204094 
L 259.461904 98.204094 
L 259.461904 96.91874 
L 259.915847 96.91874 
L 259.915847 95.633386 
L 260.369811 95.633386 
L 260.369811 94.348031 
L 260.823776 94.348031 
L 260.823776 93.062677 
L 261.277719 93.062677 
L 261.277719 91.777323 
L 261.731683 91.777323 
L 261.731683 90.491969 
L 262.185626 90.491969 
L 262.185626 89.206614 
L 263.093533 89.206614 
L 263.093533 87.92126 
L 263.547498 87.92126 
L 263.547498 86.635906 
L 264.455405 86.635906 
L 264.455405 85.350551 
L 264.909348 85.350551 
L 264.909348 84.065197 
L 265.363312 84.065197 
L 265.363312 82.779843 
L 266.27122 82.779843 
L 266.27122 81.494488 
L 267.179127 81.494488 
L 267.179127 80.209134 
L 267.63307 80.209134 
L 267.63307 78.92378 
L 268.540977 78.92378 
L 268.540977 77.638425 
L 269.448885 77.638425 
L 269.448885 76.353071 
L 269.902849 76.353071 
L 269.902849 75.067717 
L 270.810756 75.067717 
L 270.810756 73.782362 
L 272.172628 73.782362 
L 272.172628 72.497008 
L 272.626571 72.497008 
L 272.626571 71.211654 
L 273.534478 71.211654 
L 273.534478 69.926299 
L 274.89635 69.926299 
L 274.89635 68.640945 
L 275.350293 68.640945 
L 275.350293 67.355591 
L 275.804257 67.355591 
L 275.804257 68.640945 
L 276.2582 68.640945 
L 276.2582 67.355591 
L 277.166108 67.355591 
L 277.166108 66.070236 
L 278.527979 66.070236 
L 278.527979 64.784882 
L 281.251701 64.784882 
L 281.251701 63.499528 
L 286.699145 63.499528 
L 286.699145 62.214173 
L 293.054497 62.214173 
L 293.054497 63.499528 
L 307.581036 63.499528 
L 307.581036 62.214173 
L 313.482444 62.214173 
L 313.482444 63.499528 
L 323.923389 63.499528 
L 323.923389 62.214173 
L 326.193147 62.214173 
L 326.193147 60.928819 
L 333.002462 60.928819 
L 333.002462 62.214173 
L 337.995963 62.214173 
L 337.995963 63.499528 
L 356.154132 63.499528 
L 356.154132 64.784882 
L 359.785761 64.784882 
L 359.785761 66.070236 
L 361.601576 66.070236 
L 361.601576 67.355591 
L 363.41739 67.355591 
L 363.41739 68.640945 
L 365.233205 68.640945 
L 365.233205 69.926299 
L 366.595077 69.926299 
L 366.595077 71.211654 
L 367.956927 71.211654 
L 367.956927 72.497008 
L 369.318799 72.497008 
L 369.318799 73.782362 
L 370.680649 73.782362 
L 370.680649 75.067717 
L 372.042521 75.067717 
L 372.042521 76.353071 
L 373.404371 76.353071 
L 373.404371 77.638425 
L 374.766243 77.638425 
L 374.766243 78.92378 
L 376.128093 78.92378 
L 376.128093 80.209134 
L 377.036022 80.209134 
L 377.036022 81.494488 
L 377.943929 81.494488 
L 377.943929 82.779843 
L 379.305779 82.779843 
L 379.305779 84.065197 
L 380.213687 84.065197 
L 380.213687 85.350551 
L 381.121594 85.350551 
L 381.121594 86.635906 
L 382.029501 86.635906 
L 382.029501 87.92126 
L 382.483466 87.92126 
L 382.483466 89.206614 
L 383.391373 89.206614 
L 383.391373 91.777323 
L 384.753223 91.777323 
L 384.753223 93.062677 
L 385.207188 93.062677 
L 385.207188 94.348031 
L 385.66113 94.348031 
L 385.66113 95.633386 
L 386.569038 95.633386 
L 386.569038 96.91874 
L 387.476945 96.91874 
L 387.476945 98.204094 
L 387.93091 98.204094 
L 387.93091 99.489449 
L 388.384874 99.489449 
L 388.384874 100.774803 
L 388.838817 100.774803 
L 388.838817 102.060157 
L 389.292781 102.060157 
L 389.292781 103.345512 
L 389.746724 103.345512 
L 389.746724 104.630866 
L 390.200689 104.630866 
L 390.200689 105.91622 
L 391.108596 105.91622 
L 391.108596 107.201575 
L 391.562539 107.201575 
L 391.562539 108.486929 
L 392.016503 108.486929 
L 392.016503 109.772283 
L 392.924411 109.772283 
L 392.924411 111.057638 
L 393.378354 111.057638 
L 393.378354 112.342992 
L 394.286261 112.342992 
L 394.286261 113.628346 
L 395.648133 113.628346 
L 395.648133 114.913701 
L 397.009983 114.913701 
L 397.009983 116.199055 
L 398.825798 116.199055 
L 398.825798 117.484409 
L 401.095577 117.484409 
L 401.095577 118.769764 
L 402.457448 118.769764 
L 402.457448 120.055118 
L 404.727206 120.055118 
L 404.727206 121.340472 
L 406.089078 121.340472 
L 406.089078 122.625827 
L 408.358835 122.625827 
L 408.358835 123.911181 
L 413.352336 123.911181 
L 413.352336 122.625827 
L 416.076058 122.625827 
L 416.076058 121.340472 
L 421.977467 121.340472 
L 421.977467 120.055118 
L 425.609096 120.055118 
L 425.609096 118.769764 
L 427.878875 118.769764 
L 427.878875 117.484409 
L 429.240725 117.484409 
L 429.240725 116.199055 
L 430.602597 116.199055 
L 430.602597 114.913701 
L 431.964447 114.913701 
L 431.964447 113.628346 
L 433.326319 113.628346 
L 433.326319 112.342992 
L 434.688191 112.342992 
L 434.688191 111.057638 
L 436.050041 111.057638 
L 436.050041 109.772283 
L 436.957948 109.772283 
L 436.957948 108.486929 
L 438.319799 108.486929 
L 438.319799 107.201575 
L 439.227728 107.201575 
L 439.227728 105.91622 
L 440.135613 105.91622 
L 440.135613 104.630866 
L 441.043542 104.630866 
L 441.043542 103.345512 
L 441.951428 103.345512 
L 441.951428 102.060157 
L 442.859357 102.060157 
L 442.859357 100.774803 
L 443.767243 100.774803 
L 443.767243 99.489449 
L 444.675172 99.489449 
L 444.675172 98.204094 
L 446.037022 98.204094 
L 446.037022 96.91874 
L 446.944951 96.91874 
L 446.944951 95.633386 
L 448.306801 95.633386 
L 448.306801 94.348031 
L 449.668651 94.348031 
L 449.668651 93.062677 
L 451.030544 93.062677 
L 451.030544 91.777323 
L 452.392395 91.777323 
L 452.392395 90.491969 
L 453.754245 90.491969 
L 453.754245 89.206614 
L 455.116095 89.206614 
L 455.116095 87.92126 
L 456.024024 87.92126 
L 456.024024 86.635906 
L 456.93191 86.635906 
L 456.93191 85.350551 
L 458.293803 85.350551 
L 458.293803 84.065197 
L 458.747768 84.065197 
L 458.747768 82.779843 
L 460.109618 82.779843 
L 460.109618 81.494488 
L 461.017503 81.494488 
L 461.017503 80.209134 
L 461.471468 80.209134 
L 461.471468 78.92378 
L 462.379397 78.92378 
L 462.379397 77.638425 
L 462.833318 77.638425 
L 462.833318 76.353071 
L 463.287283 76.353071 
L 463.287283 75.067717 
L 463.741247 75.067717 
L 463.741247 73.782362 
L 464.649133 73.782362 
L 464.649133 71.211654 
L 465.557062 71.211654 
L 465.557062 69.926299 
L 466.011026 69.926299 
L 466.011026 68.640945 
L 466.464947 68.640945 
L 466.464947 67.355591 
L 467.826841 67.355591 
L 467.826841 66.070236 
L 468.734727 66.070236 
L 468.734727 64.784882 
L 470.09662 64.784882 
L 470.09662 63.499528 
L 471.004506 63.499528 
L 471.004506 62.214173 
L 472.82032 62.214173 
L 472.82032 60.928819 
L 474.18217 60.928819 
L 474.18217 59.643465 
L 475.544064 59.643465 
L 475.544064 58.35811 
L 479.629614 58.35811 
L 479.629614 57.072756 
L 483.261287 57.072756 
L 483.261287 55.787402 
L 488.708731 55.787402 
L 488.708731 57.072756 
L 494.156175 57.072756 
L 494.156175 58.35811 
L 495.97199 58.35811 
L 495.97199 59.643465 
L 498.241769 59.643465 
L 498.241769 60.928819 
L 499.603619 60.928819 
L 499.603619 62.214173 
L 500.511505 62.214173 
L 500.511505 63.499528 
L 501.419434 63.499528 
L 501.419434 64.784882 
L 502.327319 64.784882 
L 502.327319 66.070236 
L 503.235248 66.070236 
L 503.235248 67.355591 
L 504.143134 67.355591 
L 504.143134 68.640945 
L 505.505027 68.640945 
L 505.505027 69.926299 
L 506.412913 69.926299 
L 506.412913 71.211654 
L 507.774806 71.211654 
L 507.774806 72.497008 
L 509.136657 72.497008 
L 509.136657 75.067717 
L 509.590621 75.067717 
L 509.590621 76.353071 
L 510.044542 76.353071 
L 510.044542 78.92378 
L 510.952471 78.92378 
L 510.952471 80.209134 
L 511.406436 80.209134 
L 511.406436 81.494488 
L 511.860357 81.494488 
L 511.860357 82.779843 
L 512.314321 82.779843 
L 512.314321 85.350551 
L 513.22225 85.350551 
L 513.22225 86.635906 
L 513.676172 86.635906 
L 513.676172 89.206614 
L 514.130136 89.206614 
L 514.130136 91.777323 
L 515.038065 91.777323 
L 515.038065 93.062677 
L 515.491986 93.062677 
L 515.491986 94.348031 
L 515.945951 94.348031 
L 515.945951 95.633386 
L 516.399915 95.633386 
L 516.399915 96.91874 
L 516.85388 96.91874 
L 516.85388 98.204094 
L 517.761765 98.204094 
L 517.761765 99.489449 
L 518.669694 99.489449 
L 518.669694 100.774803 
L 519.57758 100.774803 
L 519.57758 102.060157 
L 520.031545 102.060157 
L 520.031545 103.345512 
L 521.393395 103.345512 
L 521.393395 104.630866 
L 523.209209 104.630866 
L 523.209209 105.91622 
L 524.571103 105.91622 
L 524.571103 107.201575 
L 525.932953 107.201575 
L 525.932953 108.486929 
L 527.748768 108.486929 
L 527.748768 109.772283 
L 537.73577 109.772283 
L 537.73577 108.486929 
L 539.551584 108.486929 
L 539.551584 107.201575 
L 541.367399 107.201575 
L 541.367399 105.91622 
L 541.821364 105.91622 
L 541.821364 105.91622 
" style="fill:none;stroke:#1f77b4;stroke-linecap:square;stroke-opacity:0.8;stroke-width:1.5;"/>
   </g>
   <g id="line2d_14">
    <path clip-path="url(#pd3ca0e33e0)" d="M 74.248636 93.062677 
L 75.610499 93.062677 
L 75.610499 94.348031 
L 76.064453 94.348031 
L 76.064453 95.633386 
L 76.518407 95.633386 
L 76.518407 96.91874 
L 77.426315 96.91874 
L 77.426315 99.489449 
L 77.880269 99.489449 
L 77.880269 98.204094 
L 78.334223 98.204094 
L 78.334223 99.489449 
L 79.696085 99.489449 
L 79.696085 100.774803 
L 80.603994 100.774803 
L 80.603994 102.060157 
L 82.41981 102.060157 
L 82.41981 103.345512 
L 84.68958 103.345512 
L 84.68958 104.630866 
L 92.406799 104.630866 
L 92.406799 103.345512 
L 96.038432 103.345512 
L 96.038432 102.060157 
L 97.854248 102.060157 
L 97.854248 100.774803 
L 100.124019 100.774803 
L 100.124019 99.489449 
L 101.48588 99.489449 
L 101.48588 98.204094 
L 103.755652 98.204094 
L 103.755652 96.91874 
L 105.117515 96.91874 
L 105.117515 95.633386 
L 106.479376 95.633386 
L 106.479376 94.348031 
L 108.295194 94.348031 
L 108.295194 93.062677 
L 110.111008 93.062677 
L 110.111008 91.777323 
L 111.926826 91.777323 
L 111.926826 90.491969 
L 113.742643 90.491969 
L 113.742643 89.206614 
L 116.012411 89.206614 
L 116.012411 87.92126 
L 117.828229 87.92126 
L 117.828229 86.635906 
L 119.644046 86.635906 
L 119.644046 85.350551 
L 121.459861 85.350551 
L 121.459861 84.065197 
L 123.275675 84.065197 
L 123.275675 82.779843 
L 125.091495 82.779843 
L 125.091495 81.494488 
L 127.361264 81.494488 
L 127.361264 80.209134 
L 129.177078 80.209134 
L 129.177078 78.92378 
L 131.900806 78.92378 
L 131.900806 77.638425 
L 134.170574 77.638425 
L 134.170574 76.353071 
L 137.348255 76.353071 
L 137.348255 75.067717 
L 142.341751 75.067717 
L 142.341751 76.353071 
L 145.065473 76.353071 
L 145.065473 77.638425 
L 147.335246 77.638425 
L 147.335246 78.92378 
L 149.605015 78.92378 
L 149.605015 80.209134 
L 151.420829 80.209134 
L 151.420829 81.494488 
L 153.690603 81.494488 
L 153.690603 82.779843 
L 155.052464 82.779843 
L 155.052464 84.065197 
L 156.868279 84.065197 
L 156.868279 85.350551 
L 158.23014 85.350551 
L 158.23014 86.635906 
L 159.592006 86.635906 
L 159.592006 87.92126 
L 160.953867 87.92126 
L 160.953867 89.206614 
L 161.861774 89.206614 
L 161.861774 90.491969 
L 162.769682 90.491969 
L 162.769682 91.777323 
L 164.131543 91.777323 
L 164.131543 93.062677 
L 165.493409 93.062677 
L 165.493409 94.348031 
L 167.309224 94.348031 
L 167.309224 95.633386 
L 169.125038 95.633386 
L 169.125038 96.91874 
L 170.486899 96.91874 
L 170.486899 98.204094 
L 173.210632 98.204094 
L 173.210632 99.489449 
L 175.480401 99.489449 
L 175.480401 100.774803 
L 194.092512 100.774803 
L 194.092512 99.489449 
L 197.270198 99.489449 
L 197.270198 100.774803 
L 206.349271 100.774803 
L 206.349271 99.489449 
L 209.526958 99.489449 
L 209.526958 98.204094 
L 213.158587 98.204094 
L 213.158587 96.91874 
L 215.428355 96.91874 
L 215.428355 95.633386 
L 218.606031 95.633386 
L 218.606031 94.348031 
L 222.237671 94.348031 
L 222.237671 93.062677 
L 234.040477 93.062677 
L 234.040477 94.348031 
L 247.205144 94.348031 
L 247.205144 95.633386 
L 252.652588 95.633386 
L 252.652588 96.91874 
L 257.192125 96.91874 
L 257.192125 95.633386 
L 259.007939 95.633386 
L 259.007939 94.348031 
L 262.185626 94.348031 
L 262.185626 93.062677 
L 264.909348 93.062677 
L 264.909348 91.777323 
L 267.63307 91.777323 
L 267.63307 90.491969 
L 284.883331 90.491969 
L 284.883331 89.206614 
L 317.568016 89.206614 
L 317.568016 87.92126 
L 327.101054 87.92126 
L 327.101054 86.635906 
L 330.732705 86.635906 
L 330.732705 85.350551 
L 333.002462 85.350551 
L 333.002462 84.065197 
L 335.272241 84.065197 
L 335.272241 82.779843 
L 337.541999 82.779843 
L 337.541999 81.494488 
L 339.357814 81.494488 
L 339.357814 80.209134 
L 346.621094 80.209134 
L 346.621094 81.494488 
L 348.436908 81.494488 
L 348.436908 82.779843 
L 350.706666 82.779843 
L 350.706666 84.065197 
L 353.43041 84.065197 
L 353.43041 85.350551 
L 355.700167 85.350551 
L 355.700167 86.635906 
L 357.515982 86.635906 
L 357.515982 87.92126 
L 359.331796 87.92126 
L 359.331796 89.206614 
L 361.147611 89.206614 
L 361.147611 90.491969 
L 362.963426 90.491969 
L 362.963426 91.777323 
L 364.325297 91.777323 
L 364.325297 93.062677 
L 366.141112 93.062677 
L 366.141112 94.348031 
L 367.502984 94.348031 
L 367.502984 95.633386 
L 368.864834 95.633386 
L 368.864834 96.91874 
L 369.772741 96.91874 
L 369.772741 98.204094 
L 371.134613 98.204094 
L 371.134613 99.489449 
L 372.950428 99.489449 
L 372.950428 100.774803 
L 374.766243 100.774803 
L 374.766243 102.060157 
L 377.036022 102.060157 
L 377.036022 103.345512 
L 379.759744 103.345512 
L 379.759744 104.630866 
L 382.483466 104.630866 
L 382.483466 105.91622 
L 384.753223 105.91622 
L 384.753223 107.201575 
L 386.569038 107.201575 
L 386.569038 108.486929 
L 389.292781 108.486929 
L 389.292781 109.772283 
L 395.194168 109.772283 
L 395.194168 111.057638 
L 409.266743 111.057638 
L 409.266743 109.772283 
L 411.082557 109.772283 
L 411.082557 108.486929 
L 412.444429 108.486929 
L 412.444429 107.201575 
L 414.260244 107.201575 
L 414.260244 105.91622 
L 417.891873 105.91622 
L 417.891873 104.630866 
L 420.161652 104.630866 
L 420.161652 57.072756 
L 420.615595 57.072756 
L 420.615595 55.787402 
L 421.523502 55.787402 
L 421.523502 103.345512 
L 422.43141 103.345512 
L 422.43141 51.931339 
L 423.793281 51.931339 
L 423.793281 58.35811 
L 424.701189 58.35811 
L 424.701189 78.92378 
L 425.155153 78.92378 
L 425.155153 80.209134 
L 425.609096 80.209134 
L 425.609096 81.494488 
L 426.063061 81.494488 
L 426.063061 80.209134 
L 426.517003 80.209134 
L 426.517003 78.92378 
L 427.424911 78.92378 
L 427.424911 77.638425 
L 429.240725 77.638425 
L 429.240725 76.353071 
L 432.418412 76.353071 
L 432.418412 77.638425 
L 434.234226 77.638425 
L 434.234226 76.353071 
L 441.951428 76.353071 
L 441.951428 75.067717 
L 451.030544 75.067717 
L 451.030544 76.353071 
L 453.754245 76.353071 
L 453.754245 77.638425 
L 456.93191 77.638425 
L 456.93191 76.353071 
L 460.563582 76.353071 
L 460.563582 75.067717 
L 462.379397 75.067717 
L 462.379397 73.782362 
L 463.741247 73.782362 
L 463.741247 72.497008 
L 465.557062 72.497008 
L 465.557062 71.211654 
L 467.826841 71.211654 
L 467.826841 69.926299 
L 472.366356 69.926299 
L 472.366356 68.640945 
L 477.8138 68.640945 
L 477.8138 69.926299 
L 481.445472 69.926299 
L 481.445472 71.211654 
L 483.715208 71.211654 
L 483.715208 72.497008 
L 485.077102 72.497008 
L 485.077102 73.782362 
L 486.892916 73.782362 
L 486.892916 75.067717 
L 488.254766 75.067717 
L 488.254766 76.353071 
L 489.616617 76.353071 
L 489.616617 77.638425 
L 490.524546 77.638425 
L 490.524546 78.92378 
L 491.432431 78.92378 
L 491.432431 80.209134 
L 492.34036 80.209134 
L 492.34036 81.494488 
L 493.70221 81.494488 
L 493.70221 82.779843 
L 494.610139 82.779843 
L 494.610139 84.065197 
L 495.97199 84.065197 
L 495.97199 85.350551 
L 496.879875 85.350551 
L 496.879875 86.635906 
L 497.787804 86.635906 
L 497.787804 87.92126 
L 498.69569 87.92126 
L 498.69569 89.206614 
L 499.603619 89.206614 
L 499.603619 90.491969 
L 500.965469 90.491969 
L 500.965469 91.777323 
L 501.873398 91.777323 
L 501.873398 93.062677 
L 502.781284 93.062677 
L 502.781284 94.348031 
L 504.597098 94.348031 
L 504.597098 95.633386 
L 505.958992 95.633386 
L 505.958992 96.91874 
L 507.774806 96.91874 
L 507.774806 98.204094 
L 509.136657 98.204094 
L 509.136657 99.489449 
L 510.498507 99.489449 
L 510.498507 100.774803 
L 511.860357 100.774803 
L 511.860357 102.060157 
L 513.22225 102.060157 
L 513.22225 103.345512 
L 519.123659 103.345512 
L 519.123659 104.630866 
L 541.821364 104.630866 
L 541.821364 104.630866 
" style="fill:none;stroke:#ff7f0e;stroke-linecap:square;stroke-opacity:0.8;stroke-width:1.5;"/>
   </g>
   <g id="line2d_15">
    <path clip-path="url(#pd3ca0e33e0)" d="M 74.248636 93.062677 
L 76.064453 93.062677 
L 76.064453 94.348031 
L 77.426315 94.348031 
L 77.426315 95.633386 
L 80.603994 95.633386 
L 80.603994 94.348031 
L 84.68958 94.348031 
L 84.68958 95.633386 
L 89.229121 95.633386 
L 89.229121 96.91874 
L 93.314708 96.91874 
L 93.314708 98.204094 
L 104.209605 98.204094 
L 104.209605 96.91874 
L 125.545449 96.91874 
L 125.545449 95.633386 
L 128.723125 95.633386 
L 128.723125 94.348031 
L 131.900806 94.348031 
L 131.900806 93.062677 
L 136.894301 93.062677 
L 136.894301 91.777323 
L 139.618023 91.777323 
L 139.618023 90.491969 
L 141.433843 90.491969 
L 141.433843 89.206614 
L 143.249658 89.206614 
L 143.249658 87.92126 
L 145.519426 87.92126 
L 145.519426 86.635906 
L 148.697107 86.635906 
L 148.697107 85.350551 
L 161.407821 85.350551 
L 161.407821 84.065197 
L 165.493409 84.065197 
L 165.493409 82.779843 
L 168.671085 82.779843 
L 168.671085 81.494488 
L 172.302714 81.494488 
L 172.302714 80.209134 
L 193.638558 80.209134 
L 193.638558 81.494488 
L 198.632059 81.494488 
L 198.632059 82.779843 
L 200.901827 82.779843 
L 200.901827 84.065197 
L 202.263688 84.065197 
L 202.263688 85.350551 
L 203.625549 85.350551 
L 203.625549 86.635906 
L 204.98741 86.635906 
L 204.98741 87.92126 
L 205.895318 87.92126 
L 205.895318 89.206614 
L 206.803225 89.206614 
L 206.803225 90.491969 
L 207.711132 90.491969 
L 207.711132 91.777323 
L 208.61905 91.777323 
L 208.61905 93.062677 
L 209.980911 93.062677 
L 209.980911 94.348031 
L 210.888819 94.348031 
L 210.888819 95.633386 
L 211.796726 95.633386 
L 211.796726 96.91874 
L 212.25068 96.91874 
L 212.25068 98.204094 
L 213.158587 98.204094 
L 213.158587 99.489449 
L 214.066494 99.489449 
L 214.066494 100.774803 
L 214.974402 100.774803 
L 214.974402 102.060157 
L 215.882309 102.060157 
L 215.882309 103.345512 
L 216.790216 103.345512 
L 216.790216 104.630866 
L 218.152077 104.630866 
L 218.152077 105.91622 
L 219.059985 105.91622 
L 219.059985 107.201575 
L 219.967903 107.201575 
L 219.967903 108.486929 
L 220.87581 108.486929 
L 220.87581 109.772283 
L 221.783717 109.772283 
L 221.783717 111.057638 
L 222.691625 111.057638 
L 222.691625 112.342992 
L 223.145578 112.342992 
L 223.145578 113.628346 
L 224.053486 113.628346 
L 224.053486 114.913701 
L 224.961393 114.913701 
L 224.961393 116.199055 
L 226.323254 116.199055 
L 226.323254 117.484409 
L 227.231161 117.484409 
L 227.231161 118.769764 
L 228.593022 118.769764 
L 228.593022 120.055118 
L 229.954883 120.055118 
L 229.954883 121.340472 
L 232.224663 121.340472 
L 232.224663 122.625827 
L 234.040477 122.625827 
L 234.040477 121.340472 
L 237.672107 121.340472 
L 237.672107 120.055118 
L 239.033967 120.055118 
L 239.033967 118.769764 
L 240.395828 118.769764 
L 240.395828 117.484409 
L 241.757689 117.484409 
L 241.757689 116.199055 
L 243.119561 116.199055 
L 243.119561 114.913701 
L 244.027469 114.913701 
L 244.027469 113.628346 
L 244.935376 113.628346 
L 244.935376 112.342992 
L 245.38933 112.342992 
L 245.38933 111.057638 
L 246.297237 111.057638 
L 246.297237 109.772283 
L 246.751191 109.772283 
L 246.751191 108.486929 
L 247.659098 108.486929 
L 247.659098 107.201575 
L 248.113052 107.201575 
L 248.113052 105.91622 
L 248.567005 105.91622 
L 248.567005 104.630866 
L 249.020959 104.630866 
L 249.020959 103.345512 
L 249.474913 103.345512 
L 249.474913 102.060157 
L 249.928866 102.060157 
L 249.928866 100.774803 
L 250.836774 100.774803 
L 250.836774 99.489449 
L 251.744681 99.489449 
L 251.744681 98.204094 
L 252.652588 98.204094 
L 252.652588 96.91874 
L 253.560496 96.91874 
L 253.560496 95.633386 
L 254.468414 95.633386 
L 254.468414 94.348031 
L 254.922367 94.348031 
L 254.922367 93.062677 
L 255.376321 93.062677 
L 255.376321 91.777323 
L 256.284218 91.777323 
L 256.284218 90.491969 
L 256.738182 90.491969 
L 256.738182 87.92126 
L 257.646089 87.92126 
L 257.646089 86.635906 
L 258.553997 86.635906 
L 258.553997 85.350551 
L 259.007939 85.350551 
L 259.007939 84.065197 
L 259.915847 84.065197 
L 259.915847 82.779843 
L 261.277719 82.779843 
L 261.277719 81.494488 
L 262.185626 81.494488 
L 262.185626 80.209134 
L 263.093533 80.209134 
L 263.093533 78.92378 
L 264.001441 78.92378 
L 264.001441 77.638425 
L 265.817255 77.638425 
L 265.817255 76.353071 
L 267.179127 76.353071 
L 267.179127 75.067717 
L 268.540977 75.067717 
L 268.540977 73.782362 
L 269.902849 73.782362 
L 269.902849 72.497008 
L 271.718664 72.497008 
L 271.718664 71.211654 
L 273.534478 71.211654 
L 273.534478 69.926299 
L 281.251701 69.926299 
L 281.251701 68.640945 
L 292.600554 68.640945 
L 292.600554 69.926299 
L 296.232183 69.926299 
L 296.232183 71.211654 
L 298.047998 71.211654 
L 298.047998 72.497008 
L 299.40987 72.497008 
L 299.40987 73.782362 
L 301.225684 73.782362 
L 301.225684 75.067717 
L 302.587534 75.067717 
L 302.587534 76.353071 
L 304.403349 76.353071 
L 304.403349 77.638425 
L 305.765221 77.638425 
L 305.765221 78.92378 
L 307.581036 78.92378 
L 307.581036 80.209134 
L 309.39685 80.209134 
L 309.39685 81.494488 
L 310.758722 81.494488 
L 310.758722 82.779843 
L 312.574537 82.779843 
L 312.574537 84.065197 
L 313.482444 84.065197 
L 313.482444 85.350551 
L 314.844294 85.350551 
L 314.844294 86.635906 
L 315.752201 86.635906 
L 315.752201 87.92126 
L 317.114073 87.92126 
L 317.114073 89.206614 
L 318.021981 89.206614 
L 318.021981 90.491969 
L 319.383852 90.491969 
L 319.383852 91.777323 
L 320.29176 91.777323 
L 320.29176 93.062677 
L 321.199667 93.062677 
L 321.199667 94.348031 
L 322.107574 94.348031 
L 322.107574 95.633386 
L 324.377332 95.633386 
L 324.377332 96.91874 
L 329.370833 96.91874 
L 329.370833 95.633386 
L 333.91037 95.633386 
L 333.91037 94.348031 
L 341.173628 94.348031 
L 341.173628 93.062677 
L 350.706666 93.062677 
L 350.706666 94.348031 
L 353.43041 94.348031 
L 353.43041 95.633386 
L 357.062039 95.633386 
L 357.062039 96.91874 
L 359.331796 96.91874 
L 359.331796 98.204094 
L 361.147611 98.204094 
L 361.147611 99.489449 
L 363.871333 99.489449 
L 363.871333 100.774803 
L 366.141112 100.774803 
L 366.141112 102.060157 
L 367.956927 102.060157 
L 367.956927 103.345512 
L 370.680649 103.345512 
L 370.680649 104.630866 
L 372.950428 104.630866 
L 372.950428 105.91622 
L 376.582057 105.91622 
L 376.582057 107.201575 
L 379.305779 107.201575 
L 379.305779 108.486929 
L 387.023002 108.486929 
L 387.023002 107.201575 
L 397.463947 107.201575 
L 397.463947 105.91622 
L 403.365356 105.91622 
L 403.365356 104.630866 
L 406.996985 104.630866 
L 406.996985 103.345512 
L 409.266743 103.345512 
L 409.266743 102.060157 
L 411.082557 102.060157 
L 411.082557 100.774803 
L 412.898394 100.774803 
L 412.898394 98.204094 
L 414.260244 98.204094 
L 414.260244 96.91874 
L 415.622115 96.91874 
L 415.622115 95.633386 
L 417.43793 95.633386 
L 417.43793 94.348031 
L 418.79978 94.348031 
L 418.79978 93.062677 
L 420.615595 93.062677 
L 420.615595 91.777323 
L 422.43141 91.777323 
L 422.43141 90.491969 
L 424.247246 90.491969 
L 424.247246 89.206614 
L 425.609096 89.206614 
L 425.609096 87.92126 
L 426.970968 87.92126 
L 426.970968 86.635906 
L 428.332818 86.635906 
L 428.332818 85.350551 
L 430.148633 85.350551 
L 430.148633 84.065197 
L 432.418412 84.065197 
L 432.418412 82.779843 
L 433.326319 82.779843 
L 433.326319 81.494488 
L 434.688191 81.494488 
L 434.688191 80.209134 
L 436.504006 80.209134 
L 436.504006 78.92378 
L 437.411913 78.92378 
L 437.411913 77.638425 
L 439.227728 77.638425 
L 439.227728 76.353071 
L 440.589578 76.353071 
L 440.589578 75.067717 
L 441.951428 75.067717 
L 441.951428 73.782362 
L 443.313321 73.782362 
L 443.313321 72.497008 
L 444.675172 72.497008 
L 444.675172 71.211654 
L 446.037022 71.211654 
L 446.037022 69.926299 
L 447.398915 69.926299 
L 447.398915 68.640945 
L 448.760765 68.640945 
L 448.760765 67.355591 
L 450.122616 67.355591 
L 450.122616 66.070236 
L 453.30028 66.070236 
L 453.30028 64.784882 
L 455.570059 64.784882 
L 455.570059 63.499528 
L 457.385874 63.499528 
L 457.385874 62.214173 
L 459.655653 62.214173 
L 459.655653 60.928819 
L 463.287283 60.928819 
L 463.287283 59.643465 
L 466.918912 59.643465 
L 466.918912 58.35811 
L 471.45847 58.35811 
L 471.45847 57.072756 
L 475.544064 57.072756 
L 475.544064 55.787402 
L 483.261287 55.787402 
L 483.261287 57.072756 
L 484.623137 57.072756 
L 484.623137 58.35811 
L 485.984987 58.35811 
L 485.984987 59.643465 
L 487.800802 59.643465 
L 487.800802 60.928819 
L 488.708731 60.928819 
L 488.708731 62.214173 
L 489.616617 62.214173 
L 489.616617 63.499528 
L 490.978467 63.499528 
L 490.978467 64.784882 
L 491.886396 64.784882 
L 491.886396 66.070236 
L 492.794325 66.070236 
L 492.794325 67.355591 
L 493.70221 67.355591 
L 493.70221 68.640945 
L 495.064061 68.640945 
L 495.064061 69.926299 
L 495.97199 69.926299 
L 495.97199 71.211654 
L 497.33384 71.211654 
L 497.33384 72.497008 
L 498.241769 72.497008 
L 498.241769 73.782362 
L 499.603619 73.782362 
L 499.603619 75.067717 
L 500.511505 75.067717 
L 500.511505 76.353071 
L 501.419434 76.353071 
L 501.419434 77.638425 
L 502.327319 77.638425 
L 502.327319 78.92378 
L 502.781284 78.92378 
L 502.781284 80.209134 
L 503.689213 80.209134 
L 503.689213 81.494488 
L 504.597098 81.494488 
L 504.597098 82.779843 
L 505.051063 82.779843 
L 505.051063 84.065197 
L 506.412913 84.065197 
L 506.412913 85.350551 
L 507.320842 85.350551 
L 507.320842 86.635906 
L 508.228728 86.635906 
L 508.228728 87.92126 
L 509.136657 87.92126 
L 509.136657 89.206614 
L 510.044542 89.206614 
L 510.044542 90.491969 
L 511.406436 90.491969 
L 511.406436 91.777323 
L 512.314321 91.777323 
L 512.314321 93.062677 
L 513.676172 93.062677 
L 513.676172 94.348031 
L 515.038065 94.348031 
L 515.038065 95.633386 
L 515.945951 95.633386 
L 515.945951 96.91874 
L 516.85388 96.91874 
L 516.85388 98.204094 
L 517.761765 98.204094 
L 517.761765 99.489449 
L 518.669694 99.489449 
L 518.669694 100.774803 
L 519.123659 100.774803 
L 519.123659 102.060157 
L 520.031545 102.060157 
L 520.031545 103.345512 
L 520.485509 103.345512 
L 520.485509 104.630866 
L 521.393395 104.630866 
L 521.393395 105.91622 
L 522.301324 105.91622 
L 522.301324 107.201575 
L 522.755288 107.201575 
L 522.755288 108.486929 
L 523.663174 108.486929 
L 523.663174 109.772283 
L 524.571103 109.772283 
L 524.571103 111.057638 
L 525.025024 111.057638 
L 525.025024 112.342992 
L 525.932953 112.342992 
L 525.932953 113.628346 
L 526.840839 113.628346 
L 526.840839 114.913701 
L 527.748768 114.913701 
L 527.748768 116.199055 
L 528.656697 116.199055 
L 528.656697 117.484409 
L 530.018547 117.484409 
L 530.018547 118.769764 
L 530.926432 118.769764 
L 530.926432 120.055118 
L 533.650176 120.055118 
L 533.650176 121.340472 
L 541.367399 121.340472 
L 541.367399 122.625827 
L 541.821364 122.625827 
L 541.821364 122.625827 
" style="fill:none;stroke:#2ca02c;stroke-linecap:square;stroke-opacity:0.8;stroke-width:1.5;"/>
   </g>
   <g id="line2d_16">
    <path clip-path="url(#pd3ca0e33e0)" d="M 74.248636 93.062677 
L 74.248636 107.201575 
L 74.70259 107.201575 
L 74.70259 91.777323 
L 80.150039 91.777323 
L 80.150039 90.491969 
L 81.511902 90.491969 
L 81.511902 89.206614 
L 83.327718 89.206614 
L 83.327718 87.92126 
L 84.68958 87.92126 
L 84.68958 86.635906 
L 86.051442 86.635906 
L 86.051442 85.350551 
L 87.413305 85.350551 
L 87.413305 84.065197 
L 88.775167 84.065197 
L 88.775167 82.779843 
L 90.137029 82.779843 
L 90.137029 81.494488 
L 91.952845 81.494488 
L 91.952845 80.209134 
L 94.67657 80.209134 
L 94.67657 78.92378 
L 97.854248 78.92378 
L 97.854248 77.638425 
L 101.48588 77.638425 
L 101.48588 76.353071 
L 102.393791 76.353071 
L 102.393791 77.638425 
L 103.301698 77.638425 
L 103.301698 76.353071 
L 109.657055 76.353071 
L 109.657055 77.638425 
L 115.104504 77.638425 
L 115.104504 78.92378 
L 118.282182 78.92378 
L 118.282182 80.209134 
L 120.098 80.209134 
L 120.098 81.494488 
L 122.367768 81.494488 
L 122.367768 82.779843 
L 123.729634 82.779843 
L 123.729634 84.065197 
L 125.545449 84.065197 
L 125.545449 85.350551 
L 126.90731 85.350551 
L 126.90731 86.635906 
L 127.815217 86.635906 
L 127.815217 87.92126 
L 129.177078 87.92126 
L 129.177078 89.206614 
L 130.084991 89.206614 
L 130.084991 90.491969 
L 131.446852 90.491969 
L 131.446852 91.777323 
L 132.354759 91.777323 
L 132.354759 93.062677 
L 133.262667 93.062677 
L 133.262667 94.348031 
L 134.170574 94.348031 
L 134.170574 95.633386 
L 134.624528 95.633386 
L 134.624528 96.91874 
L 135.53244 96.91874 
L 135.53244 98.204094 
L 136.440348 98.204094 
L 136.440348 99.489449 
L 137.348255 99.489449 
L 137.348255 100.774803 
L 137.802209 100.774803 
L 137.802209 102.060157 
L 138.710116 102.060157 
L 138.710116 103.345512 
L 139.618023 103.345512 
L 139.618023 104.630866 
L 140.525931 104.630866 
L 140.525931 105.91622 
L 140.979884 105.91622 
L 140.979884 107.201575 
L 141.887797 107.201575 
L 141.887797 108.486929 
L 142.795704 108.486929 
L 142.795704 109.772283 
L 143.703612 109.772283 
L 143.703612 111.057638 
L 144.157565 111.057638 
L 144.157565 112.342992 
L 145.519426 112.342992 
L 145.519426 113.628346 
L 145.97338 113.628346 
L 145.97338 114.913701 
L 146.881287 114.913701 
L 146.881287 116.199055 
L 147.7892 116.199055 
L 147.7892 117.484409 
L 148.697107 117.484409 
L 148.697107 118.769764 
L 150.058968 118.769764 
L 150.058968 120.055118 
L 151.874783 120.055118 
L 151.874783 121.340472 
L 153.236649 121.340472 
L 153.236649 122.625827 
L 155.960371 122.625827 
L 155.960371 123.911181 
L 159.592006 123.911181 
L 159.592006 125.196535 
L 163.677589 125.196535 
L 163.677589 123.911181 
L 168.217131 123.911181 
L 168.217131 122.625827 
L 170.032946 122.625827 
L 170.032946 121.340472 
L 170.940853 121.340472 
L 170.940853 120.055118 
L 171.84876 120.055118 
L 171.84876 118.769764 
L 173.210632 118.769764 
L 173.210632 117.484409 
L 174.11854 117.484409 
L 174.11854 116.199055 
L 175.026447 116.199055 
L 175.026447 114.913701 
L 175.934354 114.913701 
L 175.934354 113.628346 
L 176.842262 113.628346 
L 176.842262 112.342992 
L 177.750169 112.342992 
L 177.750169 111.057638 
L 178.204123 111.057638 
L 178.204123 109.772283 
L 179.11203 109.772283 
L 179.11203 108.486929 
L 180.019937 108.486929 
L 180.019937 107.201575 
L 180.473891 107.201575 
L 180.473891 105.91622 
L 180.927845 105.91622 
L 180.927845 104.630866 
L 181.381798 104.630866 
L 181.381798 103.345512 
L 181.835752 103.345512 
L 181.835752 102.060157 
L 182.289706 102.060157 
L 182.289706 100.774803 
L 183.197613 100.774803 
L 183.197613 99.489449 
L 183.651567 99.489449 
L 183.651567 98.204094 
L 184.559474 98.204094 
L 184.559474 96.91874 
L 185.467392 96.91874 
L 185.467392 95.633386 
L 186.375299 95.633386 
L 186.375299 94.348031 
L 187.283207 94.348031 
L 187.283207 93.062677 
L 188.191114 93.062677 
L 188.191114 91.777323 
L 189.552975 91.777323 
L 189.552975 90.491969 
L 190.460882 90.491969 
L 190.460882 89.206614 
L 191.822743 89.206614 
L 191.822743 87.92126 
L 193.638558 87.92126 
L 193.638558 86.635906 
L 195.454373 86.635906 
L 195.454373 85.350551 
L 202.263688 85.350551 
L 202.263688 84.065197 
L 205.441364 84.065197 
L 205.441364 82.779843 
L 211.342772 82.779843 
L 211.342772 81.494488 
L 214.520448 81.494488 
L 214.520448 80.209134 
L 219.513938 80.209134 
L 219.513938 78.92378 
L 221.783717 78.92378 
L 221.783717 77.638425 
L 224.053486 77.638425 
L 224.053486 76.353071 
L 225.415347 76.353071 
L 225.415347 75.067717 
L 226.777208 75.067717 
L 226.777208 73.782362 
L 228.139069 73.782362 
L 228.139069 72.497008 
L 229.954883 72.497008 
L 229.954883 71.211654 
L 232.224663 71.211654 
L 232.224663 69.926299 
L 240.395828 69.926299 
L 240.395828 71.211654 
L 243.119561 71.211654 
L 243.119561 72.497008 
L 244.935376 72.497008 
L 244.935376 73.782362 
L 246.751191 73.782362 
L 246.751191 75.067717 
L 248.567005 75.067717 
L 248.567005 76.353071 
L 249.928866 76.353071 
L 249.928866 77.638425 
L 250.836774 77.638425 
L 250.836774 78.92378 
L 252.198635 78.92378 
L 252.198635 80.209134 
L 253.560496 80.209134 
L 253.560496 81.494488 
L 254.468414 81.494488 
L 254.468414 82.779843 
L 255.376321 82.779843 
L 255.376321 84.065197 
L 256.284218 84.065197 
L 256.284218 85.350551 
L 257.192125 85.350551 
L 257.192125 86.635906 
L 258.553997 86.635906 
L 258.553997 87.92126 
L 259.915847 87.92126 
L 259.915847 89.206614 
L 261.277719 89.206614 
L 261.277719 90.491969 
L 262.185626 90.491969 
L 262.185626 91.777323 
L 263.547498 91.777323 
L 263.547498 93.062677 
L 264.909348 93.062677 
L 264.909348 94.348031 
L 266.27122 94.348031 
L 266.27122 95.633386 
L 267.179127 95.633386 
L 267.179127 96.91874 
L 269.448885 96.91874 
L 269.448885 98.204094 
L 270.810756 98.204094 
L 270.810756 99.489449 
L 272.172628 99.489449 
L 272.172628 100.774803 
L 273.534478 100.774803 
L 273.534478 102.060157 
L 275.350293 102.060157 
L 275.350293 103.345512 
L 277.620072 103.345512 
L 277.620072 104.630866 
L 280.343794 104.630866 
L 280.343794 105.91622 
L 283.067516 105.91622 
L 283.067516 107.201575 
L 288.968925 107.201575 
L 288.968925 108.486929 
L 291.238682 108.486929 
L 291.238682 109.772283 
L 294.870311 109.772283 
L 294.870311 111.057638 
L 296.686148 111.057638 
L 296.686148 112.342992 
L 299.40987 112.342992 
L 299.40987 113.628346 
L 301.679627 113.628346 
L 301.679627 114.913701 
L 302.587534 114.913701 
L 302.587534 116.199055 
L 303.949406 116.199055 
L 303.949406 117.484409 
L 305.311256 117.484409 
L 305.311256 118.769764 
L 306.219164 118.769764 
L 306.219164 120.055118 
L 308.488943 120.055118 
L 308.488943 121.340472 
L 309.850815 121.340472 
L 309.850815 122.625827 
L 311.666629 122.625827 
L 311.666629 123.911181 
L 314.390351 123.911181 
L 314.390351 125.196535 
L 324.831296 125.196535 
L 324.831296 123.911181 
L 327.555018 123.911181 
L 327.555018 122.625827 
L 329.824776 122.625827 
L 329.824776 121.340472 
L 331.640612 121.340472 
L 331.640612 120.055118 
L 333.002462 120.055118 
L 333.002462 118.769764 
L 334.364334 118.769764 
L 334.364334 117.484409 
L 335.272241 117.484409 
L 335.272241 116.199055 
L 335.726184 116.199055 
L 335.726184 114.913701 
L 336.634092 114.913701 
L 336.634092 113.628346 
L 337.088056 113.628346 
L 337.088056 112.342992 
L 337.995963 112.342992 
L 337.995963 111.057638 
L 338.449906 111.057638 
L 338.449906 109.772283 
L 339.357814 109.772283 
L 339.357814 108.486929 
L 339.811778 108.486929 
L 339.811778 107.201575 
L 340.265721 107.201575 
L 340.265721 105.91622 
L 340.719685 105.91622 
L 340.719685 104.630866 
L 341.173628 104.630866 
L 341.173628 103.345512 
L 341.627593 103.345512 
L 341.627593 102.060157 
L 342.081557 102.060157 
L 342.081557 100.774803 
L 342.5355 100.774803 
L 342.5355 99.489449 
L 342.989465 99.489449 
L 342.989465 98.204094 
L 343.443407 98.204094 
L 343.443407 96.91874 
L 343.897372 96.91874 
L 343.897372 95.633386 
L 344.805279 95.633386 
L 344.805279 94.348031 
L 345.259222 94.348031 
L 345.259222 93.062677 
L 345.713186 93.062677 
L 345.713186 91.777323 
L 346.167129 91.777323 
L 346.167129 90.491969 
L 346.621094 90.491969 
L 346.621094 89.206614 
L 347.075037 89.206614 
L 347.075037 87.92126 
L 347.529001 87.92126 
L 347.529001 86.635906 
L 347.982944 86.635906 
L 347.982944 85.350551 
L 348.890851 85.350551 
L 348.890851 82.779843 
L 349.344816 82.779843 
L 349.344816 81.494488 
L 349.798759 81.494488 
L 349.798759 80.209134 
L 350.252723 80.209134 
L 350.252723 78.92378 
L 350.706666 78.92378 
L 350.706666 77.638425 
L 351.16063 77.638425 
L 351.16063 75.067717 
L 351.614573 75.067717 
L 351.614573 73.782362 
L 352.068538 73.782362 
L 352.068538 72.497008 
L 352.976445 72.497008 
L 352.976445 71.211654 
L 353.884352 71.211654 
L 353.884352 69.926299 
L 354.338317 69.926299 
L 354.338317 68.640945 
L 354.79226 68.640945 
L 354.79226 67.355591 
L 355.246224 67.355591 
L 355.246224 64.784882 
L 356.154132 64.784882 
L 356.154132 62.214173 
L 357.062039 62.214173 
L 357.062039 60.928819 
L 357.515982 60.928819 
L 357.515982 59.643465 
L 357.969946 59.643465 
L 357.969946 58.35811 
L 358.423889 58.35811 
L 358.423889 57.072756 
L 358.877854 57.072756 
L 358.877854 55.787402 
L 359.331796 55.787402 
L 359.331796 54.502047 
L 359.785761 54.502047 
L 359.785761 53.216693 
L 360.693668 53.216693 
L 360.693668 51.931339 
L 361.147611 51.931339 
L 361.147611 50.645984 
L 362.055518 50.645984 
L 362.055518 49.36063 
L 362.963426 49.36063 
L 362.963426 48.075276 
L 363.871333 48.075276 
L 363.871333 46.789921 
L 366.595077 46.789921 
L 366.595077 45.504567 
L 369.772741 45.504567 
L 369.772741 44.219213 
L 373.858335 44.219213 
L 373.858335 45.504567 
L 375.220185 45.504567 
L 375.220185 46.789921 
L 376.128093 46.789921 
L 376.128093 48.075276 
L 377.489965 48.075276 
L 377.489965 49.36063 
L 378.851836 49.36063 
L 378.851836 50.645984 
L 380.667651 50.645984 
L 380.667651 51.931339 
L 382.483466 51.931339 
L 382.483466 53.216693 
L 383.391373 53.216693 
L 383.391373 54.502047 
L 386.115095 54.502047 
L 386.115095 55.787402 
L 387.93091 55.787402 
L 387.93091 57.072756 
L 389.292781 57.072756 
L 389.292781 58.35811 
L 390.200689 58.35811 
L 390.200689 59.643465 
L 391.562539 59.643465 
L 391.562539 60.928819 
L 392.470446 60.928819 
L 392.470446 62.214173 
L 393.378354 62.214173 
L 393.378354 63.499528 
L 394.286261 63.499528 
L 394.286261 64.784882 
L 395.648133 64.784882 
L 395.648133 66.070236 
L 396.55604 66.070236 
L 396.55604 67.355591 
L 397.91789 67.355591 
L 397.91789 68.640945 
L 398.825798 68.640945 
L 398.825798 69.926299 
L 400.187669 69.926299 
L 400.187669 71.211654 
L 401.095577 71.211654 
L 401.095577 72.497008 
L 402.003484 72.497008 
L 402.003484 73.782362 
L 402.911391 73.782362 
L 402.911391 75.067717 
L 404.273263 75.067717 
L 404.273263 76.353071 
L 405.635113 76.353071 
L 405.635113 77.638425 
L 406.996985 77.638425 
L 406.996985 78.92378 
L 408.8128 78.92378 
L 408.8128 80.209134 
L 410.17465 80.209134 
L 410.17465 81.494488 
L 411.990486 81.494488 
L 411.990486 82.779843 
L 414.260244 82.779843 
L 414.260244 84.065197 
L 414.714208 84.065197 
L 414.714208 82.779843 
L 415.622115 82.779843 
L 415.622115 84.065197 
L 417.891873 84.065197 
L 417.891873 85.350551 
L 420.161652 85.350551 
L 420.161652 86.635906 
L 422.43141 86.635906 
L 422.43141 87.92126 
L 424.247246 87.92126 
L 424.247246 89.206614 
L 426.063061 89.206614 
L 426.063061 90.491969 
L 427.878875 90.491969 
L 427.878875 91.777323 
L 429.240725 91.777323 
L 429.240725 93.062677 
L 430.602597 93.062677 
L 430.602597 94.348031 
L 431.510505 94.348031 
L 431.510505 95.633386 
L 432.872355 95.633386 
L 432.872355 96.91874 
L 433.780262 96.91874 
L 433.780262 98.204094 
L 435.142134 98.204094 
L 435.142134 99.489449 
L 436.504006 99.489449 
L 436.504006 100.774803 
L 438.319799 100.774803 
L 438.319799 102.060157 
L 440.135613 102.060157 
L 440.135613 103.345512 
L 441.951428 103.345512 
L 441.951428 104.630866 
L 443.767243 104.630866 
L 443.767243 105.91622 
L 445.583057 105.91622 
L 445.583057 107.201575 
L 447.398915 107.201575 
L 447.398915 108.486929 
L 457.385874 108.486929 
L 457.385874 107.201575 
L 460.563582 107.201575 
L 460.563582 105.91622 
L 462.379397 105.91622 
L 462.379397 104.630866 
L 464.195212 104.630866 
L 464.195212 103.345512 
L 467.826841 103.345512 
L 467.826841 102.060157 
L 472.366356 102.060157 
L 472.366356 100.774803 
L 474.18217 100.774803 
L 474.18217 99.489449 
L 476.45195 99.489449 
L 476.45195 98.204094 
L 477.8138 98.204094 
L 477.8138 96.91874 
L 479.175693 96.91874 
L 479.175693 95.633386 
L 480.537543 95.633386 
L 480.537543 94.348031 
L 481.899394 94.348031 
L 481.899394 93.062677 
L 482.807323 93.062677 
L 482.807323 91.777323 
L 483.715208 91.777323 
L 483.715208 90.491969 
L 484.623137 90.491969 
L 484.623137 89.206614 
L 485.531023 89.206614 
L 485.531023 87.92126 
L 486.438952 87.92126 
L 486.438952 86.635906 
L 487.800802 86.635906 
L 487.800802 85.350551 
L 488.708731 85.350551 
L 488.708731 84.065197 
L 490.070581 84.065197 
L 490.070581 82.779843 
L 492.34036 82.779843 
L 492.34036 81.494488 
L 494.156175 81.494488 
L 494.156175 80.209134 
L 496.425954 80.209134 
L 496.425954 78.92378 
L 498.241769 78.92378 
L 498.241769 77.638425 
L 500.511505 77.638425 
L 500.511505 76.353071 
L 502.327319 76.353071 
L 502.327319 75.067717 
L 505.505027 75.067717 
L 505.505027 73.782362 
L 507.320842 73.782362 
L 507.320842 72.497008 
L 510.498507 72.497008 
L 510.498507 73.782362 
L 514.130136 73.782362 
L 514.130136 75.067717 
L 516.399915 75.067717 
L 516.399915 76.353071 
L 518.21573 76.353071 
L 518.21573 77.638425 
L 520.031545 77.638425 
L 520.031545 78.92378 
L 520.939474 78.92378 
L 520.939474 80.209134 
L 522.301324 80.209134 
L 522.301324 81.494488 
L 523.663174 81.494488 
L 523.663174 82.779843 
L 525.025024 82.779843 
L 525.025024 84.065197 
L 526.386917 84.065197 
L 526.386917 85.350551 
L 527.748768 85.350551 
L 527.748768 86.635906 
L 529.110618 86.635906 
L 529.110618 87.92126 
L 530.926432 87.92126 
L 530.926432 89.206614 
L 532.742247 89.206614 
L 532.742247 90.491969 
L 535.012026 90.491969 
L 535.012026 91.777323 
L 537.73577 91.777323 
L 537.73577 93.062677 
L 540.005549 93.062677 
L 540.005549 94.348031 
L 541.821364 94.348031 
L 541.821364 94.348031 
" style="fill:none;stroke:#d62728;stroke-linecap:square;stroke-opacity:0.8;stroke-width:1.5;"/>
   </g>
   <g id="patch_3">
    <path d="M 50.87 174.04 
L 50.87 10.8 
" style="fill:none;stroke:#000000;stroke-linecap:square;stroke-linejoin:miter;stroke-width:0.8;"/>
   </g>
   <g id="patch_4">
    <path d="M 565.2 174.04 
L 565.2 10.8 
" style="fill:none;stroke:#000000;stroke-linecap:square;stroke-linejoin:miter;stroke-width:0.8;"/>
   </g>
   <g id="patch_5">
    <path d="M 50.87 174.04 
L 565.2 174.04 
" style="fill:none;stroke:#000000;stroke-linecap:square;stroke-linejoin:miter;stroke-width:0.8;"/>
   </g>
   <g id="patch_6">
    <path d="M 50.87 10.8 
L 565.2 10.8 
" style="fill:none;stroke:#000000;stroke-linecap:square;stroke-linejoin:miter;stroke-width:0.8;"/>
   </g>
  </g>
 </g>
 <defs>
  <clipPath id="pd3ca0e33e0">
   <rect height="163.24" width="514.33" x="50.87" y="10.8"/>
  </clipPath>
 </defs>
</svg>
