<?xml version="1.0" encoding="utf-8" standalone="no"?>
<!DOCTYPE svg PUBLIC "-//W3C//DTD SVG 1.1//EN"
  "http://www.w3.org/Graphics/SVG/1.1/DTD/svg11.dtd">
<svg height="207.99625pt" version="1.1" viewBox="0 0 568.495625 207.99625" width="568.495625pt" xmlns="http://www.w3.org/2000/svg" xmlns:xlink="http://www.w3.org/1999/xlink">
 <metadata>
  <rdf:RDF xmlns:cc="http://creativecommons.org/ns#" xmlns:dc="http://purl.org/dc/elements/1.1/" xmlns:rdf="http://www.w3.org/1999/02/22-rdf-syntax-ns#">
   <cc:Work>
    <dc:type rdf:resource="http://purl.org/dc/dcmitype/StillImage"/>
    <dc:date>2021-12-09T07:19:14.857174</dc:date>
    <dc:format>image/svg+xml</dc:format>
    <dc:creator>
     <cc:Agent>
      <dc:title>Matplotlib v3.4.3, https://matplotlib.org/</dc:title>
     </cc:Agent>
    </dc:creator>
   </cc:Work>
  </rdf:RDF>
 </metadata>
 <defs>
  <style type="text/css">*{stroke-linecap:butt;stroke-linejoin:round;}</style>
 </defs>
 <g id="figure_1">
  <g id="patch_1">
   <path d="M 0 207.99625 
L 568.495625 207.99625 
L 568.495625 0 
L 0 0 
z
" style="fill:#ffffff;"/>
  </g>
  <g id="axes_1">
   <g id="patch_2">
    <path d="M 46.965625 170.44 
L 561.295625 170.44 
L 561.295625 7.2 
L 46.965625 7.2 
z
" style="fill:#ffffff;"/>
   </g>
   <g id="matplotlib.axis_1">
    <g id="xtick_1">
     <g id="line2d_1">
      <defs>
       <path d="M 0 0 
L 0 3.5 
" id="md49af61cdc" style="stroke:#000000;stroke-width:0.8;"/>
      </defs>
      <g>
       <use style="stroke:#000000;stroke-width:0.8;" x="70.344261" xlink:href="#md49af61cdc" y="170.44"/>
      </g>
     </g>
     <g id="text_1">
      <!-- 0.0 -->
      <g transform="translate(62.392699 185.038437)scale(0.1 -0.1)">
       <defs>
        <path d="M 2034 4250 
Q 1547 4250 1301 3770 
Q 1056 3291 1056 2328 
Q 1056 1369 1301 889 
Q 1547 409 2034 409 
Q 2525 409 2770 889 
Q 3016 1369 3016 2328 
Q 3016 3291 2770 3770 
Q 2525 4250 2034 4250 
z
M 2034 4750 
Q 2819 4750 3233 4129 
Q 3647 3509 3647 2328 
Q 3647 1150 3233 529 
Q 2819 -91 2034 -91 
Q 1250 -91 836 529 
Q 422 1150 422 2328 
Q 422 3509 836 4129 
Q 1250 4750 2034 4750 
z
" id="DejaVuSans-30" transform="scale(0.015625)"/>
        <path d="M 684 794 
L 1344 794 
L 1344 0 
L 684 0 
L 684 794 
z
" id="DejaVuSans-2e" transform="scale(0.015625)"/>
       </defs>
       <use xlink:href="#DejaVuSans-30"/>
       <use x="63.623047" xlink:href="#DejaVuSans-2e"/>
       <use x="95.410156" xlink:href="#DejaVuSans-30"/>
      </g>
     </g>
    </g>
    <g id="xtick_2">
     <g id="line2d_2">
      <g>
       <use style="stroke:#000000;stroke-width:0.8;" x="128.790852" xlink:href="#md49af61cdc" y="170.44"/>
      </g>
     </g>
     <g id="text_2">
      <!-- 2.5 -->
      <g transform="translate(120.83929 185.038437)scale(0.1 -0.1)">
       <defs>
        <path d="M 1228 531 
L 3431 531 
L 3431 0 
L 469 0 
L 469 531 
Q 828 903 1448 1529 
Q 2069 2156 2228 2338 
Q 2531 2678 2651 2914 
Q 2772 3150 2772 3378 
Q 2772 3750 2511 3984 
Q 2250 4219 1831 4219 
Q 1534 4219 1204 4116 
Q 875 4013 500 3803 
L 500 4441 
Q 881 4594 1212 4672 
Q 1544 4750 1819 4750 
Q 2544 4750 2975 4387 
Q 3406 4025 3406 3419 
Q 3406 3131 3298 2873 
Q 3191 2616 2906 2266 
Q 2828 2175 2409 1742 
Q 1991 1309 1228 531 
z
" id="DejaVuSans-32" transform="scale(0.015625)"/>
        <path d="M 691 4666 
L 3169 4666 
L 3169 4134 
L 1269 4134 
L 1269 2991 
Q 1406 3038 1543 3061 
Q 1681 3084 1819 3084 
Q 2600 3084 3056 2656 
Q 3513 2228 3513 1497 
Q 3513 744 3044 326 
Q 2575 -91 1722 -91 
Q 1428 -91 1123 -41 
Q 819 9 494 109 
L 494 744 
Q 775 591 1075 516 
Q 1375 441 1709 441 
Q 2250 441 2565 725 
Q 2881 1009 2881 1497 
Q 2881 1984 2565 2268 
Q 2250 2553 1709 2553 
Q 1456 2553 1204 2497 
Q 953 2441 691 2322 
L 691 4666 
z
" id="DejaVuSans-35" transform="scale(0.015625)"/>
       </defs>
       <use xlink:href="#DejaVuSans-32"/>
       <use x="63.623047" xlink:href="#DejaVuSans-2e"/>
       <use x="95.410156" xlink:href="#DejaVuSans-35"/>
      </g>
     </g>
    </g>
    <g id="xtick_3">
     <g id="line2d_3">
      <g>
       <use style="stroke:#000000;stroke-width:0.8;" x="187.237443" xlink:href="#md49af61cdc" y="170.44"/>
      </g>
     </g>
     <g id="text_3">
      <!-- 5.0 -->
      <g transform="translate(179.285881 185.038437)scale(0.1 -0.1)">
       <use xlink:href="#DejaVuSans-35"/>
       <use x="63.623047" xlink:href="#DejaVuSans-2e"/>
       <use x="95.410156" xlink:href="#DejaVuSans-30"/>
      </g>
     </g>
    </g>
    <g id="xtick_4">
     <g id="line2d_4">
      <g>
       <use style="stroke:#000000;stroke-width:0.8;" x="245.684034" xlink:href="#md49af61cdc" y="170.44"/>
      </g>
     </g>
     <g id="text_4">
      <!-- 7.5 -->
      <g transform="translate(237.732472 185.038437)scale(0.1 -0.1)">
       <defs>
        <path d="M 525 4666 
L 3525 4666 
L 3525 4397 
L 1831 0 
L 1172 0 
L 2766 4134 
L 525 4134 
L 525 4666 
z
" id="DejaVuSans-37" transform="scale(0.015625)"/>
       </defs>
       <use xlink:href="#DejaVuSans-37"/>
       <use x="63.623047" xlink:href="#DejaVuSans-2e"/>
       <use x="95.410156" xlink:href="#DejaVuSans-35"/>
      </g>
     </g>
    </g>
    <g id="xtick_5">
     <g id="line2d_5">
      <g>
       <use style="stroke:#000000;stroke-width:0.8;" x="304.130625" xlink:href="#md49af61cdc" y="170.44"/>
      </g>
     </g>
     <g id="text_5">
      <!-- 10.0 -->
      <g transform="translate(292.997813 185.038437)scale(0.1 -0.1)">
       <defs>
        <path d="M 794 531 
L 1825 531 
L 1825 4091 
L 703 3866 
L 703 4441 
L 1819 4666 
L 2450 4666 
L 2450 531 
L 3481 531 
L 3481 0 
L 794 0 
L 794 531 
z
" id="DejaVuSans-31" transform="scale(0.015625)"/>
       </defs>
       <use xlink:href="#DejaVuSans-31"/>
       <use x="63.623047" xlink:href="#DejaVuSans-30"/>
       <use x="127.246094" xlink:href="#DejaVuSans-2e"/>
       <use x="159.033203" xlink:href="#DejaVuSans-30"/>
      </g>
     </g>
    </g>
    <g id="xtick_6">
     <g id="line2d_6">
      <g>
       <use style="stroke:#000000;stroke-width:0.8;" x="362.577216" xlink:href="#md49af61cdc" y="170.44"/>
      </g>
     </g>
     <g id="text_6">
      <!-- 12.5 -->
      <g transform="translate(351.444403 185.038437)scale(0.1 -0.1)">
       <use xlink:href="#DejaVuSans-31"/>
       <use x="63.623047" xlink:href="#DejaVuSans-32"/>
       <use x="127.246094" xlink:href="#DejaVuSans-2e"/>
       <use x="159.033203" xlink:href="#DejaVuSans-35"/>
      </g>
     </g>
    </g>
    <g id="xtick_7">
     <g id="line2d_7">
      <g>
       <use style="stroke:#000000;stroke-width:0.8;" x="421.023807" xlink:href="#md49af61cdc" y="170.44"/>
      </g>
     </g>
     <g id="text_7">
      <!-- 15.0 -->
      <g transform="translate(409.890994 185.038437)scale(0.1 -0.1)">
       <use xlink:href="#DejaVuSans-31"/>
       <use x="63.623047" xlink:href="#DejaVuSans-35"/>
       <use x="127.246094" xlink:href="#DejaVuSans-2e"/>
       <use x="159.033203" xlink:href="#DejaVuSans-30"/>
      </g>
     </g>
    </g>
    <g id="xtick_8">
     <g id="line2d_8">
      <g>
       <use style="stroke:#000000;stroke-width:0.8;" x="479.470398" xlink:href="#md49af61cdc" y="170.44"/>
      </g>
     </g>
     <g id="text_8">
      <!-- 17.5 -->
      <g transform="translate(468.337585 185.038437)scale(0.1 -0.1)">
       <use xlink:href="#DejaVuSans-31"/>
       <use x="63.623047" xlink:href="#DejaVuSans-37"/>
       <use x="127.246094" xlink:href="#DejaVuSans-2e"/>
       <use x="159.033203" xlink:href="#DejaVuSans-35"/>
      </g>
     </g>
    </g>
    <g id="xtick_9">
     <g id="line2d_9">
      <g>
       <use style="stroke:#000000;stroke-width:0.8;" x="537.916989" xlink:href="#md49af61cdc" y="170.44"/>
      </g>
     </g>
     <g id="text_9">
      <!-- 20.0 -->
      <g transform="translate(526.784176 185.038437)scale(0.1 -0.1)">
       <use xlink:href="#DejaVuSans-32"/>
       <use x="63.623047" xlink:href="#DejaVuSans-30"/>
       <use x="127.246094" xlink:href="#DejaVuSans-2e"/>
       <use x="159.033203" xlink:href="#DejaVuSans-30"/>
      </g>
     </g>
    </g>
    <g id="text_10">
     <!-- Timestep -->
     <g transform="translate(281.081406 198.716563)scale(0.1 -0.1)">
      <defs>
       <path d="M -19 4666 
L 3928 4666 
L 3928 4134 
L 2272 4134 
L 2272 0 
L 1638 0 
L 1638 4134 
L -19 4134 
L -19 4666 
z
" id="DejaVuSans-54" transform="scale(0.015625)"/>
       <path d="M 603 3500 
L 1178 3500 
L 1178 0 
L 603 0 
L 603 3500 
z
M 603 4863 
L 1178 4863 
L 1178 4134 
L 603 4134 
L 603 4863 
z
" id="DejaVuSans-69" transform="scale(0.015625)"/>
       <path d="M 3328 2828 
Q 3544 3216 3844 3400 
Q 4144 3584 4550 3584 
Q 5097 3584 5394 3201 
Q 5691 2819 5691 2113 
L 5691 0 
L 5113 0 
L 5113 2094 
Q 5113 2597 4934 2840 
Q 4756 3084 4391 3084 
Q 3944 3084 3684 2787 
Q 3425 2491 3425 1978 
L 3425 0 
L 2847 0 
L 2847 2094 
Q 2847 2600 2669 2842 
Q 2491 3084 2119 3084 
Q 1678 3084 1418 2786 
Q 1159 2488 1159 1978 
L 1159 0 
L 581 0 
L 581 3500 
L 1159 3500 
L 1159 2956 
Q 1356 3278 1631 3431 
Q 1906 3584 2284 3584 
Q 2666 3584 2933 3390 
Q 3200 3197 3328 2828 
z
" id="DejaVuSans-6d" transform="scale(0.015625)"/>
       <path d="M 3597 1894 
L 3597 1613 
L 953 1613 
Q 991 1019 1311 708 
Q 1631 397 2203 397 
Q 2534 397 2845 478 
Q 3156 559 3463 722 
L 3463 178 
Q 3153 47 2828 -22 
Q 2503 -91 2169 -91 
Q 1331 -91 842 396 
Q 353 884 353 1716 
Q 353 2575 817 3079 
Q 1281 3584 2069 3584 
Q 2775 3584 3186 3129 
Q 3597 2675 3597 1894 
z
M 3022 2063 
Q 3016 2534 2758 2815 
Q 2500 3097 2075 3097 
Q 1594 3097 1305 2825 
Q 1016 2553 972 2059 
L 3022 2063 
z
" id="DejaVuSans-65" transform="scale(0.015625)"/>
       <path d="M 2834 3397 
L 2834 2853 
Q 2591 2978 2328 3040 
Q 2066 3103 1784 3103 
Q 1356 3103 1142 2972 
Q 928 2841 928 2578 
Q 928 2378 1081 2264 
Q 1234 2150 1697 2047 
L 1894 2003 
Q 2506 1872 2764 1633 
Q 3022 1394 3022 966 
Q 3022 478 2636 193 
Q 2250 -91 1575 -91 
Q 1294 -91 989 -36 
Q 684 19 347 128 
L 347 722 
Q 666 556 975 473 
Q 1284 391 1588 391 
Q 1994 391 2212 530 
Q 2431 669 2431 922 
Q 2431 1156 2273 1281 
Q 2116 1406 1581 1522 
L 1381 1569 
Q 847 1681 609 1914 
Q 372 2147 372 2553 
Q 372 3047 722 3315 
Q 1072 3584 1716 3584 
Q 2034 3584 2315 3537 
Q 2597 3491 2834 3397 
z
" id="DejaVuSans-73" transform="scale(0.015625)"/>
       <path d="M 1172 4494 
L 1172 3500 
L 2356 3500 
L 2356 3053 
L 1172 3053 
L 1172 1153 
Q 1172 725 1289 603 
Q 1406 481 1766 481 
L 2356 481 
L 2356 0 
L 1766 0 
Q 1100 0 847 248 
Q 594 497 594 1153 
L 594 3053 
L 172 3053 
L 172 3500 
L 594 3500 
L 594 4494 
L 1172 4494 
z
" id="DejaVuSans-74" transform="scale(0.015625)"/>
       <path d="M 1159 525 
L 1159 -1331 
L 581 -1331 
L 581 3500 
L 1159 3500 
L 1159 2969 
Q 1341 3281 1617 3432 
Q 1894 3584 2278 3584 
Q 2916 3584 3314 3078 
Q 3713 2572 3713 1747 
Q 3713 922 3314 415 
Q 2916 -91 2278 -91 
Q 1894 -91 1617 61 
Q 1341 213 1159 525 
z
M 3116 1747 
Q 3116 2381 2855 2742 
Q 2594 3103 2138 3103 
Q 1681 3103 1420 2742 
Q 1159 2381 1159 1747 
Q 1159 1113 1420 752 
Q 1681 391 2138 391 
Q 2594 391 2855 752 
Q 3116 1113 3116 1747 
z
" id="DejaVuSans-70" transform="scale(0.015625)"/>
      </defs>
      <use xlink:href="#DejaVuSans-54"/>
      <use x="57.958984" xlink:href="#DejaVuSans-69"/>
      <use x="85.742188" xlink:href="#DejaVuSans-6d"/>
      <use x="183.154297" xlink:href="#DejaVuSans-65"/>
      <use x="244.677734" xlink:href="#DejaVuSans-73"/>
      <use x="296.777344" xlink:href="#DejaVuSans-74"/>
      <use x="335.986328" xlink:href="#DejaVuSans-65"/>
      <use x="397.509766" xlink:href="#DejaVuSans-70"/>
     </g>
    </g>
   </g>
   <g id="matplotlib.axis_2">
    <g id="ytick_1">
     <g id="line2d_10">
      <defs>
       <path d="M 0 0 
L -3.5 0 
" id="m9d8393c9cc" style="stroke:#000000;stroke-width:0.8;"/>
      </defs>
      <g>
       <use style="stroke:#000000;stroke-width:0.8;" x="46.965625" xlink:href="#m9d8393c9cc" y="170.44"/>
      </g>
     </g>
     <g id="text_11">
      <!-- 0 -->
      <g transform="translate(33.603125 174.239219)scale(0.1 -0.1)">
       <use xlink:href="#DejaVuSans-30"/>
      </g>
     </g>
    </g>
    <g id="ytick_2">
     <g id="line2d_11">
      <g>
       <use style="stroke:#000000;stroke-width:0.8;" x="46.965625" xlink:href="#m9d8393c9cc" y="144.732913"/>
      </g>
     </g>
     <g id="text_12">
      <!-- 20 -->
      <g transform="translate(27.240625 148.532132)scale(0.1 -0.1)">
       <use xlink:href="#DejaVuSans-32"/>
       <use x="63.623047" xlink:href="#DejaVuSans-30"/>
      </g>
     </g>
    </g>
    <g id="ytick_3">
     <g id="line2d_12">
      <g>
       <use style="stroke:#000000;stroke-width:0.8;" x="46.965625" xlink:href="#m9d8393c9cc" y="119.025827"/>
      </g>
     </g>
     <g id="text_13">
      <!-- 40 -->
      <g transform="translate(27.240625 122.825046)scale(0.1 -0.1)">
       <defs>
        <path d="M 2419 4116 
L 825 1625 
L 2419 1625 
L 2419 4116 
z
M 2253 4666 
L 3047 4666 
L 3047 1625 
L 3713 1625 
L 3713 1100 
L 3047 1100 
L 3047 0 
L 2419 0 
L 2419 1100 
L 313 1100 
L 313 1709 
L 2253 4666 
z
" id="DejaVuSans-34" transform="scale(0.015625)"/>
       </defs>
       <use xlink:href="#DejaVuSans-34"/>
       <use x="63.623047" xlink:href="#DejaVuSans-30"/>
      </g>
     </g>
    </g>
    <g id="ytick_4">
     <g id="line2d_13">
      <g>
       <use style="stroke:#000000;stroke-width:0.8;" x="46.965625" xlink:href="#m9d8393c9cc" y="93.31874"/>
      </g>
     </g>
     <g id="text_14">
      <!-- 60 -->
      <g transform="translate(27.240625 97.117959)scale(0.1 -0.1)">
       <defs>
        <path d="M 2113 2584 
Q 1688 2584 1439 2293 
Q 1191 2003 1191 1497 
Q 1191 994 1439 701 
Q 1688 409 2113 409 
Q 2538 409 2786 701 
Q 3034 994 3034 1497 
Q 3034 2003 2786 2293 
Q 2538 2584 2113 2584 
z
M 3366 4563 
L 3366 3988 
Q 3128 4100 2886 4159 
Q 2644 4219 2406 4219 
Q 1781 4219 1451 3797 
Q 1122 3375 1075 2522 
Q 1259 2794 1537 2939 
Q 1816 3084 2150 3084 
Q 2853 3084 3261 2657 
Q 3669 2231 3669 1497 
Q 3669 778 3244 343 
Q 2819 -91 2113 -91 
Q 1303 -91 875 529 
Q 447 1150 447 2328 
Q 447 3434 972 4092 
Q 1497 4750 2381 4750 
Q 2619 4750 2861 4703 
Q 3103 4656 3366 4563 
z
" id="DejaVuSans-36" transform="scale(0.015625)"/>
       </defs>
       <use xlink:href="#DejaVuSans-36"/>
       <use x="63.623047" xlink:href="#DejaVuSans-30"/>
      </g>
     </g>
    </g>
    <g id="ytick_5">
     <g id="line2d_14">
      <g>
       <use style="stroke:#000000;stroke-width:0.8;" x="46.965625" xlink:href="#m9d8393c9cc" y="67.611654"/>
      </g>
     </g>
     <g id="text_15">
      <!-- 80 -->
      <g transform="translate(27.240625 71.410872)scale(0.1 -0.1)">
       <defs>
        <path d="M 2034 2216 
Q 1584 2216 1326 1975 
Q 1069 1734 1069 1313 
Q 1069 891 1326 650 
Q 1584 409 2034 409 
Q 2484 409 2743 651 
Q 3003 894 3003 1313 
Q 3003 1734 2745 1975 
Q 2488 2216 2034 2216 
z
M 1403 2484 
Q 997 2584 770 2862 
Q 544 3141 544 3541 
Q 544 4100 942 4425 
Q 1341 4750 2034 4750 
Q 2731 4750 3128 4425 
Q 3525 4100 3525 3541 
Q 3525 3141 3298 2862 
Q 3072 2584 2669 2484 
Q 3125 2378 3379 2068 
Q 3634 1759 3634 1313 
Q 3634 634 3220 271 
Q 2806 -91 2034 -91 
Q 1263 -91 848 271 
Q 434 634 434 1313 
Q 434 1759 690 2068 
Q 947 2378 1403 2484 
z
M 1172 3481 
Q 1172 3119 1398 2916 
Q 1625 2713 2034 2713 
Q 2441 2713 2670 2916 
Q 2900 3119 2900 3481 
Q 2900 3844 2670 4047 
Q 2441 4250 2034 4250 
Q 1625 4250 1398 4047 
Q 1172 3844 1172 3481 
z
" id="DejaVuSans-38" transform="scale(0.015625)"/>
       </defs>
       <use xlink:href="#DejaVuSans-38"/>
       <use x="63.623047" xlink:href="#DejaVuSans-30"/>
      </g>
     </g>
    </g>
    <g id="ytick_6">
     <g id="line2d_15">
      <g>
       <use style="stroke:#000000;stroke-width:0.8;" x="46.965625" xlink:href="#m9d8393c9cc" y="41.904567"/>
      </g>
     </g>
     <g id="text_16">
      <!-- 100 -->
      <g transform="translate(20.878125 45.703786)scale(0.1 -0.1)">
       <use xlink:href="#DejaVuSans-31"/>
       <use x="63.623047" xlink:href="#DejaVuSans-30"/>
       <use x="127.246094" xlink:href="#DejaVuSans-30"/>
      </g>
     </g>
    </g>
    <g id="ytick_7">
     <g id="line2d_16">
      <g>
       <use style="stroke:#000000;stroke-width:0.8;" x="46.965625" xlink:href="#m9d8393c9cc" y="16.19748"/>
      </g>
     </g>
     <g id="text_17">
      <!-- 120 -->
      <g transform="translate(20.878125 19.996699)scale(0.1 -0.1)">
       <use xlink:href="#DejaVuSans-31"/>
       <use x="63.623047" xlink:href="#DejaVuSans-32"/>
       <use x="127.246094" xlink:href="#DejaVuSans-30"/>
      </g>
     </g>
    </g>
    <g id="text_18">
     <!-- Quantization Level -->
     <g transform="translate(14.798438 135.561406)rotate(-90)scale(0.1 -0.1)">
      <defs>
       <path d="M 2522 4238 
Q 1834 4238 1429 3725 
Q 1025 3213 1025 2328 
Q 1025 1447 1429 934 
Q 1834 422 2522 422 
Q 3209 422 3611 934 
Q 4013 1447 4013 2328 
Q 4013 3213 3611 3725 
Q 3209 4238 2522 4238 
z
M 3406 84 
L 4238 -825 
L 3475 -825 
L 2784 -78 
Q 2681 -84 2626 -87 
Q 2572 -91 2522 -91 
Q 1538 -91 948 567 
Q 359 1225 359 2328 
Q 359 3434 948 4092 
Q 1538 4750 2522 4750 
Q 3503 4750 4090 4092 
Q 4678 3434 4678 2328 
Q 4678 1516 4351 937 
Q 4025 359 3406 84 
z
" id="DejaVuSans-51" transform="scale(0.015625)"/>
       <path d="M 544 1381 
L 544 3500 
L 1119 3500 
L 1119 1403 
Q 1119 906 1312 657 
Q 1506 409 1894 409 
Q 2359 409 2629 706 
Q 2900 1003 2900 1516 
L 2900 3500 
L 3475 3500 
L 3475 0 
L 2900 0 
L 2900 538 
Q 2691 219 2414 64 
Q 2138 -91 1772 -91 
Q 1169 -91 856 284 
Q 544 659 544 1381 
z
M 1991 3584 
L 1991 3584 
z
" id="DejaVuSans-75" transform="scale(0.015625)"/>
       <path d="M 2194 1759 
Q 1497 1759 1228 1600 
Q 959 1441 959 1056 
Q 959 750 1161 570 
Q 1363 391 1709 391 
Q 2188 391 2477 730 
Q 2766 1069 2766 1631 
L 2766 1759 
L 2194 1759 
z
M 3341 1997 
L 3341 0 
L 2766 0 
L 2766 531 
Q 2569 213 2275 61 
Q 1981 -91 1556 -91 
Q 1019 -91 701 211 
Q 384 513 384 1019 
Q 384 1609 779 1909 
Q 1175 2209 1959 2209 
L 2766 2209 
L 2766 2266 
Q 2766 2663 2505 2880 
Q 2244 3097 1772 3097 
Q 1472 3097 1187 3025 
Q 903 2953 641 2809 
L 641 3341 
Q 956 3463 1253 3523 
Q 1550 3584 1831 3584 
Q 2591 3584 2966 3190 
Q 3341 2797 3341 1997 
z
" id="DejaVuSans-61" transform="scale(0.015625)"/>
       <path d="M 3513 2113 
L 3513 0 
L 2938 0 
L 2938 2094 
Q 2938 2591 2744 2837 
Q 2550 3084 2163 3084 
Q 1697 3084 1428 2787 
Q 1159 2491 1159 1978 
L 1159 0 
L 581 0 
L 581 3500 
L 1159 3500 
L 1159 2956 
Q 1366 3272 1645 3428 
Q 1925 3584 2291 3584 
Q 2894 3584 3203 3211 
Q 3513 2838 3513 2113 
z
" id="DejaVuSans-6e" transform="scale(0.015625)"/>
       <path d="M 353 3500 
L 3084 3500 
L 3084 2975 
L 922 459 
L 3084 459 
L 3084 0 
L 275 0 
L 275 525 
L 2438 3041 
L 353 3041 
L 353 3500 
z
" id="DejaVuSans-7a" transform="scale(0.015625)"/>
       <path d="M 1959 3097 
Q 1497 3097 1228 2736 
Q 959 2375 959 1747 
Q 959 1119 1226 758 
Q 1494 397 1959 397 
Q 2419 397 2687 759 
Q 2956 1122 2956 1747 
Q 2956 2369 2687 2733 
Q 2419 3097 1959 3097 
z
M 1959 3584 
Q 2709 3584 3137 3096 
Q 3566 2609 3566 1747 
Q 3566 888 3137 398 
Q 2709 -91 1959 -91 
Q 1206 -91 779 398 
Q 353 888 353 1747 
Q 353 2609 779 3096 
Q 1206 3584 1959 3584 
z
" id="DejaVuSans-6f" transform="scale(0.015625)"/>
       <path id="DejaVuSans-20" transform="scale(0.015625)"/>
       <path d="M 628 4666 
L 1259 4666 
L 1259 531 
L 3531 531 
L 3531 0 
L 628 0 
L 628 4666 
z
" id="DejaVuSans-4c" transform="scale(0.015625)"/>
       <path d="M 191 3500 
L 800 3500 
L 1894 563 
L 2988 3500 
L 3597 3500 
L 2284 0 
L 1503 0 
L 191 3500 
z
" id="DejaVuSans-76" transform="scale(0.015625)"/>
       <path d="M 603 4863 
L 1178 4863 
L 1178 0 
L 603 0 
L 603 4863 
z
" id="DejaVuSans-6c" transform="scale(0.015625)"/>
      </defs>
      <use xlink:href="#DejaVuSans-51"/>
      <use x="78.710938" xlink:href="#DejaVuSans-75"/>
      <use x="142.089844" xlink:href="#DejaVuSans-61"/>
      <use x="203.369141" xlink:href="#DejaVuSans-6e"/>
      <use x="266.748047" xlink:href="#DejaVuSans-74"/>
      <use x="305.957031" xlink:href="#DejaVuSans-69"/>
      <use x="333.740234" xlink:href="#DejaVuSans-7a"/>
      <use x="386.230469" xlink:href="#DejaVuSans-61"/>
      <use x="447.509766" xlink:href="#DejaVuSans-74"/>
      <use x="486.71875" xlink:href="#DejaVuSans-69"/>
      <use x="514.501953" xlink:href="#DejaVuSans-6f"/>
      <use x="575.683594" xlink:href="#DejaVuSans-6e"/>
      <use x="639.0625" xlink:href="#DejaVuSans-20"/>
      <use x="670.849609" xlink:href="#DejaVuSans-4c"/>
      <use x="724.8125" xlink:href="#DejaVuSans-65"/>
      <use x="786.335938" xlink:href="#DejaVuSans-76"/>
      <use x="845.515625" xlink:href="#DejaVuSans-65"/>
      <use x="907.039062" xlink:href="#DejaVuSans-6c"/>
     </g>
    </g>
   </g>
   <g id="line2d_17">
    <path clip-path="url(#pa5698bdce8)" d="M 70.344261 62.470236 
L 70.811834 61.184882 
L 75.487561 61.184882 
L 75.955134 62.470236 
L 78.292998 62.470236 
L 78.76057 63.755591 
L 79.695715 63.755591 
L 80.163288 65.040945 
L 81.098434 65.040945 
L 81.566007 66.326299 
L 82.03358 66.326299 
L 82.501152 67.611654 
L 82.968724 67.611654 
L 83.436298 68.897008 
L 83.90387 68.897008 
L 84.371442 70.182362 
L 84.839016 70.182362 
L 85.306588 71.467717 
L 85.774161 71.467717 
L 86.709307 74.038425 
L 87.176879 74.038425 
L 88.112025 76.609134 
L 88.579597 76.609134 
L 89.514743 79.179843 
L 89.982315 79.179843 
L 91.852606 84.32126 
L 92.320179 84.32126 
L 94.19047 89.462677 
L 94.658042 89.462677 
L 97.463479 97.174803 
L 97.931051 97.174803 
L 100.736488 104.886929 
L 101.20406 104.886929 
L 103.074352 110.028346 
L 103.541924 110.028346 
L 105.412216 115.169764 
L 105.879788 115.169764 
L 106.814933 117.740472 
L 107.282505 117.740472 
L 107.750077 119.025827 
L 108.217652 119.025827 
L 109.152797 121.596535 
L 109.620369 121.596535 
L 110.087942 122.88189 
L 110.555514 122.88189 
L 111.023089 124.167244 
L 111.490661 124.167244 
L 111.958233 125.452598 
L 112.425806 125.452598 
L 112.893378 126.737953 
L 113.36095 126.737953 
L 113.828525 128.023307 
L 114.76367 128.023307 
L 115.231242 129.308661 
L 116.633959 129.308661 
L 117.101534 130.594016 
L 118.971823 130.594016 
L 119.439395 131.87937 
L 125.985413 131.87937 
L 126.452985 130.594016 
L 128.32328 130.594016 
L 128.790852 129.308661 
L 130.193569 129.308661 
L 130.661141 128.023307 
L 131.596286 128.023307 
L 132.063858 126.737953 
L 132.999003 126.737953 
L 133.466581 125.452598 
L 134.401725 125.452598 
L 134.869298 124.167244 
L 135.33687 124.167244 
L 135.804442 122.88189 
L 136.272014 122.88189 
L 136.739587 121.596535 
L 137.674731 121.596535 
L 138.142303 120.311181 
L 138.609876 120.311181 
L 139.077448 119.025827 
L 139.545026 119.025827 
L 140.012598 117.740472 
L 140.48017 117.740472 
L 140.947743 116.455118 
L 141.415315 116.455118 
L 141.882887 115.169764 
L 142.35046 115.169764 
L 142.818032 113.884409 
L 143.753176 113.884409 
L 144.220749 112.599055 
L 144.688321 112.599055 
L 145.155893 111.313701 
L 145.623471 111.313701 
L 146.091043 110.028346 
L 146.558616 110.028346 
L 147.026188 108.742992 
L 147.49376 108.742992 
L 147.961333 107.457638 
L 148.896477 107.457638 
L 149.364049 106.172283 
L 149.831622 106.172283 
L 150.299194 104.886929 
L 150.766766 104.886929 
L 151.234344 103.601575 
L 152.169489 103.601575 
L 152.637061 102.31622 
L 153.572205 102.31622 
L 154.039778 101.030866 
L 154.50735 101.030866 
L 154.974922 99.745512 
L 155.910067 99.745512 
L 156.377639 98.460157 
L 157.780362 98.460157 
L 158.247934 97.174803 
L 159.183078 97.174803 
L 159.650651 95.889449 
L 160.585795 95.889449 
L 161.053368 94.604094 
L 162.456084 94.604094 
L 162.923657 93.31874 
L 163.858807 93.31874 
L 164.326379 92.033386 
L 165.729096 92.033386 
L 166.196668 90.748031 
L 167.599385 90.748031 
L 168.066957 89.462677 
L 169.469674 89.462677 
L 169.937246 88.177323 
L 171.339963 88.177323 
L 171.807536 86.891969 
L 173.210264 86.891969 
L 173.677836 85.606614 
L 175.080553 85.606614 
L 175.548125 84.32126 
L 176.950842 84.32126 
L 177.418414 83.035906 
L 178.821131 83.035906 
L 179.288703 81.750551 
L 180.69142 81.750551 
L 181.158992 80.465197 
L 182.561709 80.465197 
L 183.029282 79.179843 
L 184.432009 79.179843 
L 184.899582 77.894488 
L 186.302299 77.894488 
L 186.769871 76.609134 
L 188.172588 76.609134 
L 188.64016 75.32378 
L 190.042877 75.32378 
L 190.510449 74.038425 
L 191.913166 74.038425 
L 192.380738 72.753071 
L 194.251027 72.753071 
L 194.7186 71.467717 
L 196.5889 71.467717 
L 197.056472 70.182362 
L 198.926761 70.182362 
L 199.394334 68.897008 
L 202.66734 68.897008 
L 203.134912 67.611654 
L 211.083652 67.611654 
L 211.551224 68.897008 
L 214.82423 68.897008 
L 215.291802 70.182362 
L 217.629664 70.182362 
L 218.097236 71.467717 
L 219.499953 71.467717 
L 219.967525 72.753071 
L 221.370253 72.753071 
L 221.837825 74.038425 
L 222.77297 74.038425 
L 223.240542 75.32378 
L 224.643259 75.32378 
L 225.110831 76.609134 
L 226.045976 76.609134 
L 226.513548 77.894488 
L 227.448693 77.894488 
L 227.916265 79.179843 
L 229.318982 79.179843 
L 229.786554 80.465197 
L 230.721699 80.465197 
L 231.189271 81.750551 
L 232.124427 81.750551 
L 232.591999 83.035906 
L 233.994716 83.035906 
L 234.462288 84.32126 
L 235.397433 84.32126 
L 235.865005 85.606614 
L 237.735294 85.606614 
L 238.202866 86.891969 
L 240.073156 86.891969 
L 240.540728 88.177323 
L 250.827329 88.177323 
L 251.294901 86.891969 
L 253.632763 86.891969 
L 254.100335 85.606614 
L 255.503052 85.606614 
L 255.970635 84.32126 
L 257.373352 84.32126 
L 257.840913 83.035906 
L 258.776058 83.035906 
L 259.243641 81.750551 
L 260.178786 81.750551 
L 260.646347 80.465197 
L 261.581492 80.465197 
L 262.049075 79.179843 
L 262.98422 79.179843 
L 263.451803 77.894488 
L 264.386948 77.894488 
L 264.854509 76.609134 
L 265.789653 76.609134 
L 266.257237 75.32378 
L 267.192381 75.32378 
L 267.659942 74.038425 
L 268.595087 74.038425 
L 269.06267 72.753071 
L 269.997815 72.753071 
L 270.465376 71.467717 
L 271.868104 71.467717 
L 272.335665 70.182362 
L 273.738393 70.182362 
L 274.205977 68.897008 
L 277.01141 68.897008 
L 277.478972 67.611654 
L 283.089839 67.611654 
L 283.557422 68.897008 
L 285.895295 68.897008 
L 286.362856 70.182362 
L 287.765584 70.182362 
L 288.233145 71.467717 
L 289.16829 71.467717 
L 289.635873 72.753071 
L 290.571018 72.753071 
L 291.038579 74.038425 
L 291.973723 74.038425 
L 292.441307 75.32378 
L 292.908868 75.32378 
L 293.376451 76.609134 
L 293.844013 76.609134 
L 294.311596 77.894488 
L 294.779157 77.894488 
L 295.246741 79.179843 
L 295.714302 79.179843 
L 296.181885 80.465197 
L 296.649446 80.465197 
L 297.11703 81.750551 
L 297.584591 81.750551 
L 298.519758 84.32126 
L 298.987319 84.32126 
L 299.454902 85.606614 
L 299.922463 85.606614 
L 300.857608 88.177323 
L 301.325191 88.177323 
L 302.260336 90.748031 
L 302.727897 90.748031 
L 303.663042 93.31874 
L 304.130625 93.31874 
L 305.06577 95.889449 
L 305.533331 95.889449 
L 306.468475 98.460157 
L 306.936059 98.460157 
L 307.871203 101.030866 
L 308.338764 101.030866 
L 309.273909 103.601575 
L 309.741492 103.601575 
L 310.676637 106.172283 
L 311.14422 106.172283 
L 312.079365 108.742992 
L 312.546926 108.742992 
L 313.014509 110.028346 
L 313.482071 110.028346 
L 314.417215 112.599055 
L 314.884799 112.599055 
L 315.35236 113.884409 
L 315.819943 113.884409 
L 316.287504 115.169764 
L 316.755088 115.169764 
L 317.222649 116.455118 
L 317.690232 116.455118 
L 318.157793 117.740472 
L 318.625377 117.740472 
L 319.092938 119.025827 
L 319.560521 119.025827 
L 320.028083 120.311181 
L 320.963227 120.311181 
L 321.430811 121.596535 
L 321.898394 121.596535 
L 322.365955 122.88189 
L 323.768683 122.88189 
L 324.236244 124.167244 
L 325.638972 124.167244 
L 326.106533 125.452598 
L 329.37955 125.452598 
L 329.847112 126.737953 
L 332.184984 126.737953 
L 332.652545 125.452598 
L 336.393146 125.452598 
L 336.860707 124.167244 
L 338.730996 124.167244 
L 339.19858 122.88189 
L 340.601285 122.88189 
L 341.068869 121.596535 
L 342.471574 121.596535 
L 342.939158 120.311181 
L 343.874302 120.311181 
L 344.341863 119.025827 
L 345.277008 119.025827 
L 345.744591 117.740472 
L 346.679736 117.740472 
L 347.147319 116.455118 
L 348.082464 116.455118 
L 348.550025 115.169764 
L 349.48517 115.169764 
L 349.952753 113.884409 
L 350.887898 113.884409 
L 351.355459 112.599055 
L 351.823042 112.599055 
L 352.290603 111.313701 
L 353.225748 111.313701 
L 353.693331 110.028346 
L 354.628476 110.028346 
L 355.096037 108.742992 
L 355.563621 108.742992 
L 356.031182 107.457638 
L 356.966326 107.457638 
L 357.43391 106.172283 
L 358.369054 106.172283 
L 358.836638 104.886929 
L 359.771782 104.886929 
L 360.239343 103.601575 
L 360.706927 103.601575 
L 361.174488 102.31622 
L 362.109632 102.31622 
L 362.577216 101.030866 
L 363.51236 101.030866 
L 363.979922 99.745512 
L 364.915066 99.745512 
L 365.38265 98.460157 
L 366.317794 98.460157 
L 366.785355 97.174803 
L 368.188083 97.174803 
L 368.655644 95.889449 
L 369.590789 95.889449 
L 370.058372 94.604094 
L 370.993517 94.604094 
L 371.4611 93.31874 
L 372.863806 93.31874 
L 373.33139 92.033386 
L 374.266534 92.033386 
L 374.734095 90.748031 
L 376.136823 90.748031 
L 376.604384 89.462677 
L 378.007112 89.462677 
L 378.474673 88.177323 
L 379.409818 88.177323 
L 379.877401 86.891969 
L 381.280107 86.891969 
L 381.747691 85.606614 
L 383.150419 85.606614 
L 383.61798 84.32126 
L 385.020708 84.32126 
L 385.488269 83.035906 
L 386.890997 83.035906 
L 387.358558 81.750551 
L 388.761286 81.750551 
L 389.228847 80.465197 
L 390.631575 80.465197 
L 391.099136 79.179843 
L 392.501864 79.179843 
L 392.969425 77.894488 
L 394.372153 77.894488 
L 394.839737 76.609134 
L 396.242442 76.609134 
L 396.710026 75.32378 
L 398.112732 75.32378 
L 398.580315 74.038425 
L 400.450604 74.038425 
L 400.918165 72.753071 
L 402.788454 72.753071 
L 403.256038 71.467717 
L 406.529055 71.467717 
L 406.996616 70.182362 
L 418.685934 70.182362 
L 419.153518 71.467717 
L 421.491368 71.467717 
L 421.958951 72.753071 
L 423.829241 72.753071 
L 424.296802 74.038425 
L 425.69953 74.038425 
L 426.167091 75.32378 
L 427.569819 75.32378 
L 428.03738 76.609134 
L 428.972524 76.609134 
L 429.440108 77.894488 
L 430.842836 77.894488 
L 431.310397 79.179843 
L 432.245542 79.179843 
L 432.713125 80.465197 
L 434.115831 80.465197 
L 434.583414 81.750551 
L 435.518559 81.750551 
L 435.98612 83.035906 
L 436.921264 83.035906 
L 437.388848 84.32126 
L 438.791554 84.32126 
L 439.259137 85.606614 
L 440.661843 85.606614 
L 441.129426 86.891969 
L 442.532154 86.891969 
L 442.999715 88.177323 
L 445.337565 88.177323 
L 445.805149 89.462677 
L 456.091761 89.462677 
L 456.559345 88.177323 
L 459.364756 88.177323 
L 459.83234 86.891969 
L 461.235045 86.891969 
L 461.702629 85.606614 
L 463.105334 85.606614 
L 463.572918 84.32126 
L 464.50804 84.32126 
L 464.975624 83.035906 
L 465.91079 83.035906 
L 466.378374 81.750551 
L 467.313496 81.750551 
L 467.78108 80.465197 
L 468.716202 80.465197 
L 469.183785 79.179843 
L 470.118952 79.179843 
L 470.586491 77.894488 
L 471.521658 77.894488 
L 471.989241 76.609134 
L 472.924363 76.609134 
L 473.391947 75.32378 
L 474.327069 75.32378 
L 474.794653 74.038425 
L 476.197358 74.038425 
L 476.664942 72.753071 
L 477.600109 72.753071 
L 478.067692 71.467717 
L 479.470398 71.467717 
L 479.937981 70.182362 
L 481.80827 70.182362 
L 482.275809 68.897008 
L 485.548849 68.897008 
L 486.016387 67.611654 
L 490.224549 67.611654 
L 490.692132 68.897008 
L 493.497588 68.897008 
L 493.965127 70.182362 
L 495.367878 70.182362 
L 495.835416 71.467717 
L 497.238167 71.467717 
L 497.705706 72.753071 
L 498.640872 72.753071 
L 499.108456 74.038425 
L 499.575995 74.038425 
L 500.043578 75.32378 
L 500.978745 75.32378 
L 501.446328 76.609134 
L 501.913867 76.609134 
L 502.381451 77.894488 
L 502.849034 77.894488 
L 503.316618 79.179843 
L 503.784156 79.179843 
L 504.25174 80.465197 
L 504.719323 80.465197 
L 505.186907 81.750551 
L 505.654445 81.750551 
L 506.122029 83.035906 
L 506.589612 83.035906 
L 507.057196 84.32126 
L 507.524735 84.32126 
L 508.459901 86.891969 
L 508.927485 86.891969 
L 509.395024 88.177323 
L 509.862607 88.177323 
L 510.797774 90.748031 
L 511.265313 90.748031 
L 511.732896 92.033386 
L 512.20048 92.033386 
L 513.135602 94.604094 
L 513.603185 94.604094 
L 514.070769 95.889449 
L 514.538352 95.889449 
L 515.473475 98.460157 
L 515.941058 98.460157 
L 516.876225 101.030866 
L 517.343764 101.030866 
L 517.811347 102.31622 
L 518.278931 102.31622 
L 519.214053 104.886929 
L 519.681636 104.886929 
L 520.14922 106.172283 
L 520.616803 106.172283 
L 521.551925 108.742992 
L 522.019509 108.742992 
L 522.487092 110.028346 
L 522.954631 110.028346 
L 523.422214 111.313701 
L 523.889798 111.313701 
L 524.357381 112.599055 
L 524.82492 112.599055 
L 525.292504 113.884409 
L 525.760087 113.884409 
L 526.22767 115.169764 
L 526.695254 115.169764 
L 527.162793 116.455118 
L 527.630376 116.455118 
L 528.09796 117.740472 
L 528.565543 117.740472 
L 529.033082 119.025827 
L 529.968249 119.025827 
L 530.435832 120.311181 
L 531.370954 120.311181 
L 531.838538 121.596535 
L 532.77366 121.596535 
L 533.241244 122.88189 
L 534.17641 122.88189 
L 534.643949 124.167244 
L 536.0467 124.167244 
L 536.514238 125.452598 
L 537.916989 125.452598 
L 537.916989 125.452598 
" style="fill:none;stroke:#1f77b4;stroke-linecap:square;stroke-opacity:0.8;stroke-width:1.5;"/>
   </g>
   <g id="line2d_18">
    <path clip-path="url(#pa5698bdce8)" d="M 70.344261 162.727874 
L 70.811834 147.303622 
L 71.279407 146.018268 
L 72.682125 146.018268 
L 73.149698 144.732913 
L 74.084843 144.732913 
L 74.552416 143.447559 
L 75.019988 143.447559 
L 75.487561 142.162205 
L 76.422707 142.162205 
L 76.89028 140.87685 
L 77.357852 140.87685 
L 77.825425 139.591496 
L 78.292998 139.591496 
L 78.76057 138.306142 
L 79.228143 138.306142 
L 79.695715 137.020787 
L 80.163288 137.020787 
L 80.630861 135.735433 
L 81.098434 135.735433 
L 81.566007 134.450079 
L 82.03358 134.450079 
L 82.501152 133.164724 
L 82.968724 133.164724 
L 83.90387 130.594016 
L 84.371442 130.594016 
L 84.839016 129.308661 
L 85.306588 129.308661 
L 86.241734 126.737953 
L 86.709307 126.737953 
L 87.176879 125.452598 
L 87.644452 125.452598 
L 88.579597 122.88189 
L 89.047169 122.88189 
L 89.982315 120.311181 
L 90.449888 120.311181 
L 90.917461 119.025827 
L 91.385034 119.025827 
L 92.320179 116.455118 
L 92.787752 116.455118 
L 93.722898 113.884409 
L 94.19047 113.884409 
L 95.125615 111.313701 
L 95.593187 111.313701 
L 96.528334 108.742992 
L 96.995906 108.742992 
L 97.931051 106.172283 
L 98.398623 106.172283 
L 98.866198 104.886929 
L 99.333771 104.886929 
L 100.268915 102.31622 
L 100.736488 102.31622 
L 101.671632 99.745512 
L 102.139207 99.745512 
L 102.606779 98.460157 
L 103.074352 98.460157 
L 104.009496 95.889449 
L 104.477069 95.889449 
L 104.944644 94.604094 
L 105.412216 94.604094 
L 105.879788 93.31874 
L 106.34736 93.31874 
L 107.282505 90.748031 
L 107.750077 90.748031 
L 108.217652 89.462677 
L 108.685225 89.462677 
L 109.152797 88.177323 
L 109.620369 88.177323 
L 110.087942 86.891969 
L 110.555514 86.891969 
L 111.023089 85.606614 
L 111.490661 85.606614 
L 111.958233 84.32126 
L 112.425806 84.32126 
L 112.893378 83.035906 
L 113.36095 83.035906 
L 113.828525 81.750551 
L 114.296098 81.750551 
L 114.76367 80.465197 
L 115.231242 80.465197 
L 115.698814 79.179843 
L 116.166387 79.179843 
L 116.633959 77.894488 
L 117.101534 77.894488 
L 117.569106 76.609134 
L 118.504251 76.609134 
L 118.971823 75.32378 
L 119.439395 75.32378 
L 119.906968 74.038425 
L 120.842112 74.038425 
L 121.30969 72.753071 
L 121.777262 72.753071 
L 122.244835 71.467717 
L 123.179979 71.467717 
L 123.647552 70.182362 
L 124.582696 70.182362 
L 125.050268 68.897008 
L 125.517841 68.897008 
L 125.985413 67.611654 
L 126.920558 67.611654 
L 127.388135 66.326299 
L 128.32328 66.326299 
L 128.790852 65.040945 
L 129.725997 65.040945 
L 130.193569 63.755591 
L 131.128714 63.755591 
L 131.596286 62.470236 
L 132.531431 62.470236 
L 132.999003 61.184882 
L 133.934153 61.184882 
L 134.401725 59.899528 
L 135.804442 59.899528 
L 136.272014 58.614173 
L 137.207159 58.614173 
L 137.674731 57.328819 
L 139.545026 57.328819 
L 140.012598 56.043465 
L 141.415315 56.043465 
L 141.882887 54.75811 
L 143.753176 54.75811 
L 144.220749 53.472756 
L 146.091043 53.472756 
L 146.558616 52.187402 
L 149.364049 52.187402 
L 149.831622 50.902047 
L 152.169489 50.902047 
L 152.637061 49.616693 
L 156.845211 49.616693 
L 157.312789 48.331339 
L 162.923657 48.331339 
L 163.391235 47.045984 
L 175.548125 47.045984 
L 176.015697 48.331339 
L 181.626565 48.331339 
L 182.094137 49.616693 
L 186.302299 49.616693 
L 186.769871 50.902047 
L 189.575305 50.902047 
L 190.042877 52.187402 
L 192.380738 52.187402 
L 192.848311 53.472756 
L 195.186172 53.472756 
L 195.653744 54.75811 
L 197.524045 54.75811 
L 197.991617 56.043465 
L 199.394334 56.043465 
L 199.861906 57.328819 
L 201.264623 57.328819 
L 201.732195 58.614173 
L 203.134912 58.614173 
L 203.602484 59.899528 
L 205.005201 59.899528 
L 205.472773 61.184882 
L 206.407918 61.184882 
L 206.87549 62.470236 
L 207.810635 62.470236 
L 208.278218 63.755591 
L 209.213363 63.755591 
L 209.680935 65.040945 
L 210.61608 65.040945 
L 211.083652 66.326299 
L 211.551224 66.326299 
L 212.018796 67.611654 
L 212.953941 67.611654 
L 213.421513 68.897008 
L 214.356658 68.897008 
L 214.82423 70.182362 
L 215.291802 70.182362 
L 215.759375 71.467717 
L 216.226947 71.467717 
L 216.694519 72.753071 
L 217.162091 72.753071 
L 217.629664 74.038425 
L 218.097236 74.038425 
L 218.564808 75.32378 
L 219.032381 75.32378 
L 219.499953 76.609134 
L 219.967525 76.609134 
L 220.435109 77.894488 
L 220.902681 77.894488 
L 221.370253 79.179843 
L 221.837825 79.179843 
L 222.305398 80.465197 
L 222.77297 80.465197 
L 223.240542 81.750551 
L 223.708115 81.750551 
L 224.643259 84.32126 
L 225.110831 84.32126 
L 225.578404 85.606614 
L 226.045976 85.606614 
L 226.981121 88.177323 
L 227.448693 88.177323 
L 227.916265 89.462677 
L 228.383837 89.462677 
L 229.318982 92.033386 
L 229.786554 92.033386 
L 230.721699 94.604094 
L 231.189271 94.604094 
L 232.124427 97.174803 
L 232.591999 97.174803 
L 233.527144 99.745512 
L 233.994716 99.745512 
L 234.92986 102.31622 
L 235.397433 102.31622 
L 236.80015 106.172283 
L 237.267722 106.172283 
L 238.670439 110.028346 
L 239.138011 110.028346 
L 240.073156 112.599055 
L 240.540728 112.599055 
L 241.943445 116.455118 
L 242.411017 116.455118 
L 243.813734 120.311181 
L 244.281317 120.311181 
L 245.216462 122.88189 
L 245.684034 122.88189 
L 247.086751 126.737953 
L 247.554323 126.737953 
L 248.489468 129.308661 
L 248.95704 129.308661 
L 249.892185 131.87937 
L 250.359757 131.87937 
L 251.294901 134.450079 
L 251.762474 134.450079 
L 252.697618 137.020787 
L 253.165191 137.020787 
L 253.632763 138.306142 
L 254.100335 138.306142 
L 255.03548 140.87685 
L 255.503052 140.87685 
L 255.970635 142.162205 
L 256.438208 142.162205 
L 256.90578 143.447559 
L 257.373352 143.447559 
L 257.840913 144.732913 
L 258.308497 144.732913 
L 258.776058 146.018268 
L 259.243641 146.018268 
L 259.711203 147.303622 
L 260.178786 147.303622 
L 260.646347 148.588976 
L 261.581492 148.588976 
L 262.049075 149.874331 
L 262.98422 149.874331 
L 263.451803 151.159685 
L 264.854509 151.159685 
L 265.322092 152.445039 
L 267.192381 152.445039 
L 267.659942 153.730394 
L 270.465376 153.730394 
L 270.93296 155.015748 
L 273.738393 155.015748 
L 274.205977 153.730394 
L 276.543827 153.730394 
L 277.01141 152.445039 
L 278.414116 152.445039 
L 278.8817 151.159685 
L 279.816844 151.159685 
L 280.284405 149.874331 
L 281.21955 149.874331 
L 281.687133 148.588976 
L 282.154694 148.588976 
L 282.622278 147.303622 
L 283.557422 147.303622 
L 284.024983 146.018268 
L 284.492567 146.018268 
L 284.960128 144.732913 
L 285.427711 144.732913 
L 285.895295 143.447559 
L 286.362856 143.447559 
L 286.830439 142.162205 
L 287.298001 142.162205 
L 287.765584 140.87685 
L 288.233145 140.87685 
L 288.700729 139.591496 
L 289.16829 139.591496 
L 289.635873 138.306142 
L 290.103434 138.306142 
L 291.038579 135.735433 
L 291.506162 135.735433 
L 291.973723 134.450079 
L 292.441307 134.450079 
L 293.376451 131.87937 
L 293.844013 131.87937 
L 294.311596 130.594016 
L 294.779157 130.594016 
L 295.714302 128.023307 
L 296.181885 128.023307 
L 297.584591 124.167244 
L 298.052174 124.167244 
L 298.519758 122.88189 
L 298.987319 122.88189 
L 299.922463 120.311181 
L 300.390047 120.311181 
L 301.792752 116.455118 
L 302.260336 116.455118 
L 303.19548 113.884409 
L 303.663042 113.884409 
L 304.598186 111.313701 
L 305.06577 111.313701 
L 306.000914 108.742992 
L 306.468475 108.742992 
L 307.40362 106.172283 
L 307.871203 106.172283 
L 308.338764 104.886929 
L 308.806348 104.886929 
L 309.741492 102.31622 
L 310.209076 102.31622 
L 311.14422 99.745512 
L 311.611782 99.745512 
L 312.079365 98.460157 
L 312.546926 98.460157 
L 313.482071 95.889449 
L 313.949654 95.889449 
L 314.417215 94.604094 
L 314.884799 94.604094 
L 315.35236 93.31874 
L 315.819943 93.31874 
L 316.287504 92.033386 
L 316.755088 92.033386 
L 317.222649 90.748031 
L 317.690232 90.748031 
L 318.625377 88.177323 
L 319.092938 88.177323 
L 319.560521 86.891969 
L 320.028083 86.891969 
L 320.495666 85.606614 
L 321.430811 85.606614 
L 321.898394 84.32126 
L 322.365955 84.32126 
L 322.833539 83.035906 
L 323.3011 83.035906 
L 323.768683 81.750551 
L 324.236244 81.750551 
L 324.703828 80.465197 
L 325.171389 80.465197 
L 325.638972 79.179843 
L 326.574117 79.179843 
L 327.041678 77.894488 
L 327.509261 77.894488 
L 327.976822 76.609134 
L 328.911967 76.609134 
L 329.37955 75.32378 
L 329.847112 75.32378 
L 330.314695 74.038425 
L 331.24984 74.038425 
L 331.717401 72.753071 
L 332.184984 72.753071 
L 332.652545 71.467717 
L 333.58769 71.467717 
L 334.055273 70.182362 
L 334.990418 70.182362 
L 335.458001 68.897008 
L 336.393146 68.897008 
L 336.860707 67.611654 
L 337.795852 67.611654 
L 338.263435 66.326299 
L 339.19858 66.326299 
L 339.666141 65.040945 
L 340.601285 65.040945 
L 341.068869 63.755591 
L 342.004013 63.755591 
L 342.471574 62.470236 
L 343.406719 62.470236 
L 343.874302 61.184882 
L 344.809447 61.184882 
L 345.277008 59.899528 
L 346.679736 59.899528 
L 347.147319 58.614173 
L 348.082464 58.614173 
L 348.550025 57.328819 
L 349.952753 57.328819 
L 350.420314 56.043465 
L 351.823042 56.043465 
L 352.290603 54.75811 
L 353.693331 54.75811 
L 354.160893 53.472756 
L 355.563621 53.472756 
L 356.031182 52.187402 
L 357.901493 52.187402 
L 358.369054 50.902047 
L 360.239343 50.902047 
L 360.706927 49.616693 
L 363.51236 49.616693 
L 363.979922 48.331339 
L 366.785355 48.331339 
L 367.252939 47.045984 
L 372.396245 47.045984 
L 372.863806 45.76063 
L 379.877401 45.76063 
L 380.344963 47.045984 
L 388.293703 47.045984 
L 388.761286 48.331339 
L 393.904592 48.331339 
L 394.372153 49.616693 
L 398.580315 49.616693 
L 399.047876 50.902047 
L 401.85331 50.902047 
L 402.320893 52.187402 
L 405.126327 52.187402 
L 405.59391 53.472756 
L 407.4642 53.472756 
L 407.931761 54.75811 
L 409.80205 54.75811 
L 410.269633 56.043465 
L 412.139922 56.043465 
L 412.607483 57.328819 
L 414.010211 57.328819 
L 414.477773 58.614173 
L 415.880501 58.614173 
L 416.348062 59.899528 
L 417.283206 59.899528 
L 417.75079 61.184882 
L 418.685934 61.184882 
L 419.153518 62.470236 
L 420.088662 62.470236 
L 420.556223 63.755591 
L 421.491368 63.755591 
L 421.958951 65.040945 
L 422.426513 65.040945 
L 422.894096 66.326299 
L 423.829241 66.326299 
L 424.296802 67.611654 
L 424.764385 67.611654 
L 425.231946 68.897008 
L 425.69953 68.897008 
L 426.167091 70.182362 
L 426.634674 70.182362 
L 427.102235 71.467717 
L 428.03738 71.467717 
L 428.504963 72.753071 
L 428.972524 72.753071 
L 429.907691 75.32378 
L 430.375252 75.32378 
L 430.842836 76.609134 
L 431.310397 76.609134 
L 432.245542 79.179843 
L 432.713125 79.179843 
L 433.180686 80.465197 
L 433.64827 80.465197 
L 434.583414 83.035906 
L 435.050975 83.035906 
L 435.98612 85.606614 
L 436.453703 85.606614 
L 437.388848 88.177323 
L 437.856409 88.177323 
L 439.259137 92.033386 
L 439.726698 92.033386 
L 440.661843 94.604094 
L 441.129426 94.604094 
L 442.999715 99.745512 
L 443.467299 99.745512 
L 445.337565 104.886929 
L 445.805149 104.886929 
L 447.675438 110.028346 
L 448.143021 110.028346 
L 450.013311 115.169764 
L 450.480894 115.169764 
L 452.818722 121.596535 
L 453.286305 121.596535 
L 455.624178 128.023307 
L 456.091761 128.023307 
L 457.494467 131.87937 
L 457.96205 131.87937 
L 458.897173 134.450079 
L 459.364756 134.450079 
L 460.299923 137.020787 
L 460.767462 137.020787 
L 461.702629 139.591496 
L 462.170212 139.591496 
L 462.637751 140.87685 
L 463.105334 140.87685 
L 464.040501 143.447559 
L 464.50804 143.447559 
L 464.975624 144.732913 
L 465.443207 144.732913 
L 465.91079 146.018268 
L 466.378374 146.018268 
L 466.845913 147.303622 
L 467.313496 147.303622 
L 467.78108 148.588976 
L 468.248663 148.588976 
L 468.716202 149.874331 
L 469.651369 149.874331 
L 470.118952 151.159685 
L 471.054074 151.159685 
L 471.521658 152.445039 
L 472.924363 152.445039 
L 473.391947 153.730394 
L 480.40552 153.730394 
L 480.873103 152.445039 
L 482.743393 152.445039 
L 483.210976 151.159685 
L 484.613682 151.159685 
L 485.081265 149.874331 
L 486.016387 149.874331 
L 486.483971 148.588976 
L 486.951554 148.588976 
L 487.419138 147.303622 
L 488.35426 147.303622 
L 488.821843 146.018268 
L 489.289427 146.018268 
L 489.75701 144.732913 
L 490.224549 144.732913 
L 490.692132 143.447559 
L 491.627299 143.447559 
L 492.562422 140.87685 
L 493.030005 140.87685 
L 493.497588 139.591496 
L 493.965127 139.591496 
L 494.432711 138.306142 
L 494.900294 138.306142 
L 495.367878 137.020787 
L 495.835416 137.020787 
L 496.303 135.735433 
L 496.770583 135.735433 
L 497.705706 133.164724 
L 498.173289 133.164724 
L 498.640872 131.87937 
L 499.108456 131.87937 
L 499.575995 130.594016 
L 500.043578 130.594016 
L 500.978745 128.023307 
L 501.446328 128.023307 
L 501.913867 126.737953 
L 502.381451 126.737953 
L 502.849034 125.452598 
L 503.316618 125.452598 
L 503.784156 124.167244 
L 504.25174 124.167244 
L 504.719323 122.88189 
L 505.186907 122.88189 
L 506.122029 120.311181 
L 506.589612 120.311181 
L 507.057196 119.025827 
L 507.524735 119.025827 
L 507.992318 117.740472 
L 508.459901 117.740472 
L 508.927485 116.455118 
L 509.395024 116.455118 
L 509.862607 115.169764 
L 510.330191 115.169764 
L 510.797774 113.884409 
L 511.265313 113.884409 
L 511.732896 112.599055 
L 512.20048 112.599055 
L 512.668063 111.313701 
L 513.135602 111.313701 
L 513.603185 110.028346 
L 514.538352 110.028346 
L 515.005936 108.742992 
L 515.473475 108.742992 
L 515.941058 107.457638 
L 516.408641 107.457638 
L 516.876225 106.172283 
L 517.343764 106.172283 
L 517.811347 104.886929 
L 518.746514 104.886929 
L 519.214053 103.601575 
L 520.14922 103.601575 
L 520.616803 102.31622 
L 521.551925 102.31622 
L 522.019509 101.030866 
L 522.954631 101.030866 
L 523.422214 99.745512 
L 524.357381 99.745512 
L 524.82492 98.460157 
L 525.760087 98.460157 
L 526.22767 97.174803 
L 527.630376 97.174803 
L 528.09796 95.889449 
L 529.033082 95.889449 
L 529.500665 94.604094 
L 530.903371 94.604094 
L 531.370954 93.31874 
L 532.306121 93.31874 
L 532.77366 92.033386 
L 534.17641 92.033386 
L 534.643949 90.748031 
L 536.0467 90.748031 
L 536.514238 89.462677 
L 537.449405 89.462677 
L 537.916989 88.177323 
L 537.916989 88.177323 
" style="fill:none;stroke:#ff7f0e;stroke-linecap:square;stroke-opacity:0.8;stroke-width:1.5;"/>
   </g>
   <g id="line2d_19">
    <path clip-path="url(#pa5698bdce8)" d="M 70.344261 170.44 
L 70.811834 83.035906 
L 71.279407 84.32126 
L 71.74698 84.32126 
L 72.214552 85.606614 
L 72.682125 85.606614 
L 73.149698 86.891969 
L 74.084843 86.891969 
L 74.552416 88.177323 
L 75.019988 88.177323 
L 75.487561 89.462677 
L 75.955134 89.462677 
L 76.422707 90.748031 
L 76.89028 90.748031 
L 77.357852 92.033386 
L 78.292998 92.033386 
L 78.76057 93.31874 
L 79.228143 93.31874 
L 79.695715 94.604094 
L 80.163288 94.604094 
L 80.630861 95.889449 
L 81.566007 95.889449 
L 82.03358 97.174803 
L 82.501152 97.174803 
L 82.968724 98.460157 
L 83.90387 98.460157 
L 84.371442 99.745512 
L 85.306588 99.745512 
L 85.774161 101.030866 
L 86.709307 101.030866 
L 87.176879 102.31622 
L 88.579597 102.31622 
L 89.047169 103.601575 
L 90.449888 103.601575 
L 90.917461 104.886929 
L 92.787752 104.886929 
L 93.255324 106.172283 
L 102.606779 106.172283 
L 103.074352 104.886929 
L 104.944644 104.886929 
L 105.412216 103.601575 
L 106.814933 103.601575 
L 107.282505 102.31622 
L 108.685225 102.31622 
L 109.152797 101.030866 
L 110.087942 101.030866 
L 110.555514 99.745512 
L 111.490661 99.745512 
L 111.958233 98.460157 
L 112.425806 98.460157 
L 112.893378 97.174803 
L 113.828525 97.174803 
L 114.296098 95.889449 
L 115.231242 95.889449 
L 115.698814 94.604094 
L 116.633959 94.604094 
L 117.101534 93.31874 
L 117.569106 93.31874 
L 118.036679 92.033386 
L 118.971823 92.033386 
L 119.439395 90.748031 
L 119.906968 90.748031 
L 120.37454 89.462677 
L 121.777262 89.462677 
L 122.244835 88.177323 
L 122.712407 88.177323 
L 123.179979 86.891969 
L 124.115124 86.891969 
L 124.582696 85.606614 
L 125.985413 85.606614 
L 126.452985 84.32126 
L 127.855708 84.32126 
L 128.32328 83.035906 
L 130.193569 83.035906 
L 130.661141 81.750551 
L 140.48017 81.750551 
L 140.947743 83.035906 
L 143.285604 83.035906 
L 143.753176 84.32126 
L 145.155893 84.32126 
L 145.623471 85.606614 
L 147.026188 85.606614 
L 147.49376 86.891969 
L 148.428905 86.891969 
L 148.896477 88.177323 
L 149.831622 88.177323 
L 150.299194 89.462677 
L 151.234344 89.462677 
L 151.701916 90.748031 
L 152.637061 90.748031 
L 153.104633 92.033386 
L 153.572205 92.033386 
L 154.039778 93.31874 
L 154.974922 93.31874 
L 155.442495 94.604094 
L 155.910067 94.604094 
L 156.377639 95.889449 
L 157.312789 95.889449 
L 157.780362 97.174803 
L 158.247934 97.174803 
L 158.715506 98.460157 
L 159.650651 98.460157 
L 160.118223 99.745512 
L 160.585795 99.745512 
L 161.053368 101.030866 
L 161.988512 101.030866 
L 162.456084 102.31622 
L 163.391235 102.31622 
L 163.858807 103.601575 
L 164.793951 103.601575 
L 165.261524 104.886929 
L 166.664241 104.886929 
L 167.131813 106.172283 
L 168.53453 106.172283 
L 169.002102 107.457638 
L 170.872391 107.457638 
L 171.339963 108.742992 
L 179.756276 108.742992 
L 180.223848 107.457638 
L 182.561709 107.457638 
L 183.029282 106.172283 
L 184.899582 106.172283 
L 185.367154 104.886929 
L 186.302299 104.886929 
L 186.769871 103.601575 
L 187.705015 103.601575 
L 188.172588 102.31622 
L 189.107732 102.31622 
L 189.575305 101.030866 
L 190.510449 101.030866 
L 190.978021 99.745512 
L 191.445594 99.745512 
L 191.913166 98.460157 
L 192.848311 98.460157 
L 193.315883 97.174803 
L 193.783455 97.174803 
L 194.251027 95.889449 
L 195.186172 95.889449 
L 195.653744 94.604094 
L 196.121328 94.604094 
L 196.5889 93.31874 
L 197.524045 93.31874 
L 197.991617 92.033386 
L 198.459189 92.033386 
L 198.926761 90.748031 
L 199.861906 90.748031 
L 200.329478 89.462677 
L 200.79705 89.462677 
L 201.264623 88.177323 
L 202.199767 88.177323 
L 202.66734 86.891969 
L 203.602484 86.891969 
L 204.070056 85.606614 
L 204.537629 85.606614 
L 205.005201 84.32126 
L 205.940346 84.32126 
L 206.407918 83.035906 
L 207.810635 83.035906 
L 208.278218 81.750551 
L 209.213363 81.750551 
L 209.680935 80.465197 
L 211.083652 80.465197 
L 211.551224 79.179843 
L 213.421513 79.179843 
L 213.889086 77.894488 
L 216.226947 77.894488 
L 216.694519 76.609134 
L 220.435109 76.609134 
L 220.902681 75.32378 
L 238.202866 75.32378 
L 238.670439 74.038425 
L 246.151606 74.038425 
L 246.619179 72.753071 
L 251.294901 72.753071 
L 251.762474 71.467717 
L 255.03548 71.467717 
L 255.503052 70.182362 
L 260.646347 70.182362 
L 261.113931 68.897008 
L 268.127526 68.897008 
L 268.595087 70.182362 
L 272.335665 70.182362 
L 272.803249 71.467717 
L 274.673538 71.467717 
L 275.141121 72.753071 
L 276.543827 72.753071 
L 277.01141 74.038425 
L 278.414116 74.038425 
L 278.8817 75.32378 
L 279.816844 75.32378 
L 280.284405 76.609134 
L 281.21955 76.609134 
L 281.687133 77.894488 
L 282.622278 77.894488 
L 283.089839 79.179843 
L 283.557422 79.179843 
L 284.024983 80.465197 
L 284.960128 80.465197 
L 285.427711 81.750551 
L 285.895295 81.750551 
L 286.362856 83.035906 
L 286.830439 83.035906 
L 287.298001 84.32126 
L 287.765584 84.32126 
L 288.233145 85.606614 
L 289.16829 85.606614 
L 289.635873 86.891969 
L 290.103434 86.891969 
L 290.571018 88.177323 
L 291.038579 88.177323 
L 291.506162 89.462677 
L 291.973723 89.462677 
L 292.441307 90.748031 
L 292.908868 90.748031 
L 293.376451 92.033386 
L 293.844013 92.033386 
L 294.311596 93.31874 
L 295.246741 93.31874 
L 295.714302 94.604094 
L 296.181885 94.604094 
L 296.649446 95.889449 
L 297.11703 95.889449 
L 297.584591 97.174803 
L 298.519758 97.174803 
L 298.987319 98.460157 
L 299.454902 98.460157 
L 299.922463 99.745512 
L 300.857608 99.745512 
L 301.325191 101.030866 
L 302.260336 101.030866 
L 302.727897 102.31622 
L 304.130625 102.31622 
L 304.598186 103.601575 
L 306.000914 103.601575 
L 306.468475 104.886929 
L 308.338764 104.886929 
L 308.806348 106.172283 
L 319.560521 106.172283 
L 320.028083 104.886929 
L 322.365955 104.886929 
L 322.833539 103.601575 
L 324.236244 103.601575 
L 324.703828 102.31622 
L 326.574117 102.31622 
L 327.041678 101.030866 
L 327.976822 101.030866 
L 328.444406 99.745512 
L 329.847112 99.745512 
L 330.314695 98.460157 
L 331.717401 98.460157 
L 332.184984 97.174803 
L 333.58769 97.174803 
L 334.055273 95.889449 
L 335.458001 95.889449 
L 335.925562 94.604094 
L 337.32829 94.604094 
L 337.795852 93.31874 
L 340.133724 93.31874 
L 340.601285 92.033386 
L 344.809447 92.033386 
L 345.277008 90.748031 
L 350.420314 90.748031 
L 350.887898 92.033386 
L 354.160893 92.033386 
L 354.628476 93.31874 
L 356.498765 93.31874 
L 356.966326 94.604094 
L 358.369054 94.604094 
L 358.836638 95.889449 
L 360.239343 95.889449 
L 360.706927 97.174803 
L 361.642071 97.174803 
L 362.109632 98.460157 
L 363.51236 98.460157 
L 363.979922 99.745512 
L 364.915066 99.745512 
L 365.38265 101.030866 
L 366.317794 101.030866 
L 366.785355 102.31622 
L 368.188083 102.31622 
L 368.655644 103.601575 
L 369.590789 103.601575 
L 370.058372 104.886929 
L 371.4611 104.886929 
L 371.928662 106.172283 
L 373.33139 106.172283 
L 373.798951 107.457638 
L 375.66924 107.457638 
L 376.136823 108.742992 
L 378.942257 108.742992 
L 379.409818 110.028346 
L 386.423413 110.028346 
L 386.890997 108.742992 
L 389.228847 108.742992 
L 389.696431 107.457638 
L 391.099136 107.457638 
L 391.56672 106.172283 
L 392.969425 106.172283 
L 393.437009 104.886929 
L 394.372153 104.886929 
L 394.839737 103.601575 
L 395.774881 103.601575 
L 396.242442 102.31622 
L 396.710026 102.31622 
L 397.177587 101.030866 
L 398.112732 101.030866 
L 398.580315 99.745512 
L 399.51546 99.745512 
L 399.983021 98.460157 
L 400.450604 98.460157 
L 400.918165 97.174803 
L 401.385749 97.174803 
L 401.85331 95.889449 
L 402.788454 95.889449 
L 403.256038 94.604094 
L 403.723599 94.604094 
L 404.191182 93.31874 
L 404.658744 93.31874 
L 405.126327 92.033386 
L 406.061472 92.033386 
L 406.529055 90.748031 
L 406.996616 90.748031 
L 407.4642 89.462677 
L 407.931761 89.462677 
L 408.399344 88.177323 
L 409.334489 88.177323 
L 409.80205 86.891969 
L 410.269633 86.891969 
L 410.737194 85.606614 
L 411.672339 85.606614 
L 412.139922 84.32126 
L 412.607483 84.32126 
L 413.075067 83.035906 
L 414.010211 83.035906 
L 414.477773 81.750551 
L 415.412917 81.750551 
L 415.880501 80.465197 
L 417.283206 80.465197 
L 417.75079 79.179843 
L 418.685934 79.179843 
L 419.153518 77.894488 
L 420.556223 77.894488 
L 421.023807 76.609134 
L 422.894096 76.609134 
L 423.361657 75.32378 
L 426.167091 75.32378 
L 426.634674 74.038425 
L 445.805149 74.038425 
L 446.272732 75.32378 
L 454.221472 75.32378 
L 454.689056 74.038425 
L 461.235045 74.038425 
L 461.702629 72.753071 
L 468.716202 72.753071 
L 469.183785 71.467717 
L 474.794653 71.467717 
L 475.262236 72.753071 
L 479.470398 72.753071 
L 479.937981 74.038425 
L 481.80827 74.038425 
L 482.275809 75.32378 
L 484.146098 75.32378 
L 484.613682 76.609134 
L 485.548849 76.609134 
L 486.016387 77.894488 
L 487.419138 77.894488 
L 487.886676 79.179843 
L 488.821843 79.179843 
L 489.289427 80.465197 
L 490.224549 80.465197 
L 490.692132 81.750551 
L 491.159716 81.750551 
L 491.627299 83.035906 
L 492.562422 83.035906 
L 493.030005 84.32126 
L 493.965127 84.32126 
L 494.432711 85.606614 
L 494.900294 85.606614 
L 495.367878 86.891969 
L 496.303 86.891969 
L 496.770583 88.177323 
L 497.238167 88.177323 
L 497.705706 89.462677 
L 498.173289 89.462677 
L 498.640872 90.748031 
L 499.575995 90.748031 
L 500.043578 92.033386 
L 500.978745 92.033386 
L 501.446328 93.31874 
L 501.913867 93.31874 
L 502.381451 94.604094 
L 502.849034 94.604094 
L 503.316618 95.889449 
L 504.25174 95.889449 
L 504.719323 97.174803 
L 505.654445 97.174803 
L 506.122029 98.460157 
L 507.057196 98.460157 
L 507.524735 99.745512 
L 508.459901 99.745512 
L 508.927485 101.030866 
L 510.330191 101.030866 
L 510.797774 102.31622 
L 512.20048 102.31622 
L 512.668063 103.601575 
L 515.005936 103.601575 
L 515.473475 104.886929 
L 525.760087 104.886929 
L 526.22767 103.601575 
L 528.09796 103.601575 
L 528.565543 102.31622 
L 530.435832 102.31622 
L 530.903371 101.030866 
L 532.306121 101.030866 
L 532.77366 99.745512 
L 534.17641 99.745512 
L 534.643949 98.460157 
L 536.0467 98.460157 
L 536.514238 97.174803 
L 537.916989 97.174803 
L 537.916989 97.174803 
" style="fill:none;stroke:#2ca02c;stroke-linecap:square;stroke-opacity:0.8;stroke-width:1.5;"/>
   </g>
   <g id="line2d_20">
    <path clip-path="url(#pa5698bdce8)" d="M 70.344261 139.591496 
L 71.74698 139.591496 
L 72.214552 140.87685 
L 77.825425 140.87685 
L 78.292998 139.591496 
L 79.695715 139.591496 
L 80.163288 138.306142 
L 81.098434 138.306142 
L 81.566007 137.020787 
L 82.03358 137.020787 
L 82.501152 135.735433 
L 82.968724 135.735433 
L 83.436298 134.450079 
L 83.90387 134.450079 
L 84.839016 131.87937 
L 85.306588 131.87937 
L 86.241734 129.308661 
L 86.709307 129.308661 
L 88.579597 124.167244 
L 89.047169 124.167244 
L 95.593187 106.172283 
L 96.060762 103.601575 
L 99.333771 94.604094 
L 99.801343 92.033386 
L 102.606779 84.32126 
L 103.074352 81.750551 
L 106.34736 72.753071 
L 106.814933 70.182362 
L 115.231242 47.045984 
L 115.698814 47.045984 
L 117.569106 41.904567 
L 118.036679 41.904567 
L 118.971823 39.333858 
L 119.439395 39.333858 
L 120.37454 36.76315 
L 120.842112 36.76315 
L 121.30969 35.477795 
L 121.777262 35.477795 
L 122.244835 34.192441 
L 122.712407 34.192441 
L 123.179979 32.907087 
L 123.647552 32.907087 
L 124.115124 31.621732 
L 125.050268 31.621732 
L 125.517841 30.336378 
L 126.452985 30.336378 
L 126.920558 29.051024 
L 128.790852 29.051024 
L 129.258425 27.765669 
L 133.934153 27.765669 
L 134.401725 29.051024 
L 136.272014 29.051024 
L 136.739587 30.336378 
L 138.142303 30.336378 
L 138.609876 31.621732 
L 139.545026 31.621732 
L 140.012598 32.907087 
L 140.48017 32.907087 
L 140.947743 34.192441 
L 141.882887 34.192441 
L 142.35046 35.477795 
L 142.818032 35.477795 
L 143.285604 36.76315 
L 143.753176 36.76315 
L 144.220749 38.048504 
L 144.688321 38.048504 
L 145.155893 39.333858 
L 145.623471 39.333858 
L 146.558616 41.904567 
L 147.026188 41.904567 
L 147.961333 44.475276 
L 148.428905 44.475276 
L 148.896477 45.76063 
L 149.364049 45.76063 
L 150.299194 48.331339 
L 150.766766 48.331339 
L 151.234344 49.616693 
L 151.701916 49.616693 
L 152.637061 52.187402 
L 153.104633 52.187402 
L 153.572205 53.472756 
L 154.039778 53.472756 
L 154.974922 56.043465 
L 155.442495 56.043465 
L 156.377639 58.614173 
L 156.845211 58.614173 
L 157.312789 59.899528 
L 157.780362 59.899528 
L 158.715506 62.470236 
L 159.183078 62.470236 
L 159.650651 63.755591 
L 160.118223 63.755591 
L 161.053368 66.326299 
L 161.52094 66.326299 
L 161.988512 67.611654 
L 162.456084 67.611654 
L 162.923657 68.897008 
L 163.391235 68.897008 
L 163.858807 70.182362 
L 164.326379 70.182362 
L 164.793951 71.467717 
L 165.261524 71.467717 
L 166.196668 74.038425 
L 166.664241 74.038425 
L 167.131813 75.32378 
L 168.066957 75.32378 
L 168.53453 76.609134 
L 169.002102 76.609134 
L 169.469674 77.894488 
L 169.937246 77.894488 
L 170.404819 79.179843 
L 170.872391 79.179843 
L 171.339963 80.465197 
L 171.807536 80.465197 
L 172.275119 81.750551 
L 173.210264 81.750551 
L 173.677836 83.035906 
L 174.145408 83.035906 
L 174.61298 84.32126 
L 175.548125 84.32126 
L 176.015697 85.606614 
L 176.950842 85.606614 
L 177.418414 86.891969 
L 178.353559 86.891969 
L 178.821131 88.177323 
L 179.756276 88.177323 
L 180.223848 89.462677 
L 181.626565 89.462677 
L 182.094137 90.748031 
L 183.029282 90.748031 
L 183.496854 92.033386 
L 184.899582 92.033386 
L 185.367154 93.31874 
L 186.769871 93.31874 
L 187.237443 94.604094 
L 188.64016 94.604094 
L 189.107732 95.889449 
L 190.978021 95.889449 
L 191.445594 97.174803 
L 193.315883 97.174803 
L 193.783455 98.460157 
L 196.121328 98.460157 
L 196.5889 99.745512 
L 198.926761 99.745512 
L 199.394334 101.030866 
L 202.199767 101.030866 
L 202.66734 102.31622 
L 206.407918 102.31622 
L 206.87549 103.601575 
L 211.083652 103.601575 
L 211.551224 104.886929 
L 216.694519 104.886929 
L 217.162091 106.172283 
L 226.513548 106.172283 
L 226.981121 107.457638 
L 232.591999 107.457638 
L 233.059571 108.742992 
L 237.735294 108.742992 
L 238.202866 110.028346 
L 241.475872 110.028346 
L 241.943445 111.313701 
L 244.74889 111.313701 
L 245.216462 112.599055 
L 247.554323 112.599055 
L 248.021895 113.884409 
L 249.892185 113.884409 
L 250.359757 115.169764 
L 252.230046 115.169764 
L 252.697618 116.455118 
L 254.100335 116.455118 
L 254.567907 117.740472 
L 256.438208 117.740472 
L 256.90578 119.025827 
L 257.840913 119.025827 
L 258.308497 120.311181 
L 259.711203 120.311181 
L 260.178786 121.596535 
L 261.581492 121.596535 
L 262.049075 122.88189 
L 263.451803 122.88189 
L 263.919364 124.167244 
L 265.322092 124.167244 
L 265.789653 125.452598 
L 267.192381 125.452598 
L 267.659942 126.737953 
L 269.530232 126.737953 
L 269.997815 128.023307 
L 271.868104 128.023307 
L 272.335665 129.308661 
L 282.154694 129.308661 
L 282.622278 128.023307 
L 284.492567 128.023307 
L 284.960128 126.737953 
L 285.895295 126.737953 
L 286.362856 125.452598 
L 287.298001 125.452598 
L 287.765584 124.167244 
L 288.700729 124.167244 
L 289.16829 122.88189 
L 289.635873 122.88189 
L 290.103434 121.596535 
L 290.571018 121.596535 
L 291.038579 120.311181 
L 291.506162 120.311181 
L 291.973723 119.025827 
L 292.441307 119.025827 
L 293.376451 116.455118 
L 293.844013 116.455118 
L 294.779157 113.884409 
L 295.246741 113.884409 
L 296.649446 110.028346 
L 297.11703 110.028346 
L 298.519758 106.172283 
L 298.987319 106.172283 
L 302.260336 97.174803 
L 302.727897 97.174803 
L 305.533331 89.462677 
L 306.000914 86.891969 
L 318.157793 53.472756 
L 318.625377 53.472756 
L 320.495666 48.331339 
L 320.963227 48.331339 
L 322.365955 44.475276 
L 322.833539 44.475276 
L 323.768683 41.904567 
L 324.236244 41.904567 
L 324.703828 40.619213 
L 325.171389 40.619213 
L 325.638972 39.333858 
L 326.106533 39.333858 
L 326.574117 38.048504 
L 327.041678 38.048504 
L 327.509261 36.76315 
L 327.976822 36.76315 
L 328.444406 35.477795 
L 329.37955 35.477795 
L 329.847112 34.192441 
L 330.782256 34.192441 
L 331.24984 32.907087 
L 333.120129 32.907087 
L 333.58769 31.621732 
L 338.730996 31.621732 
L 339.19858 32.907087 
L 341.068869 32.907087 
L 341.53643 34.192441 
L 342.939158 34.192441 
L 343.406719 35.477795 
L 344.341863 35.477795 
L 344.809447 36.76315 
L 345.744591 36.76315 
L 346.212175 38.048504 
L 346.679736 38.048504 
L 347.147319 39.333858 
L 347.614881 39.333858 
L 348.082464 40.619213 
L 349.017609 40.619213 
L 349.48517 41.904567 
L 349.952753 41.904567 
L 350.420314 43.189921 
L 350.887898 43.189921 
L 351.823042 45.76063 
L 352.290603 45.76063 
L 352.758187 47.045984 
L 353.225748 47.045984 
L 353.693331 48.331339 
L 354.160893 48.331339 
L 355.096037 50.902047 
L 355.563621 50.902047 
L 356.031182 52.187402 
L 356.498765 52.187402 
L 357.43391 54.75811 
L 357.901493 54.75811 
L 358.369054 56.043465 
L 358.836638 56.043465 
L 359.771782 58.614173 
L 360.239343 58.614173 
L 361.174488 61.184882 
L 361.642071 61.184882 
L 362.109632 62.470236 
L 362.577216 62.470236 
L 363.51236 65.040945 
L 363.979922 65.040945 
L 364.447505 66.326299 
L 364.915066 66.326299 
L 365.850211 68.897008 
L 366.317794 68.897008 
L 366.785355 70.182362 
L 367.252939 70.182362 
L 367.7205 71.467717 
L 368.188083 71.467717 
L 368.655644 72.753071 
L 369.123228 72.753071 
L 369.590789 74.038425 
L 370.058372 74.038425 
L 370.525956 75.32378 
L 370.993517 75.32378 
L 371.4611 76.609134 
L 371.928662 76.609134 
L 372.396245 77.894488 
L 372.863806 77.894488 
L 373.33139 79.179843 
L 373.798951 79.179843 
L 374.266534 80.465197 
L 374.734095 80.465197 
L 375.201679 81.750551 
L 376.136823 81.750551 
L 376.604384 83.035906 
L 377.071968 83.035906 
L 377.539529 84.32126 
L 378.474673 84.32126 
L 378.942257 85.606614 
L 379.877401 85.606614 
L 380.344963 86.891969 
L 380.812546 86.891969 
L 381.280107 88.177323 
L 382.682835 88.177323 
L 383.150419 89.462677 
L 384.085563 89.462677 
L 384.553124 90.748031 
L 385.955852 90.748031 
L 386.423413 92.033386 
L 387.826141 92.033386 
L 388.293703 93.31874 
L 389.696431 93.31874 
L 390.163992 94.604094 
L 391.56672 94.604094 
L 392.034281 95.889449 
L 393.904592 95.889449 
L 394.372153 97.174803 
L 396.242442 97.174803 
L 396.710026 98.460157 
L 399.047876 98.460157 
L 399.51546 99.745512 
L 401.85331 99.745512 
L 402.320893 101.030866 
L 405.126327 101.030866 
L 405.59391 102.31622 
L 408.866905 102.31622 
L 409.334489 103.601575 
L 412.607483 103.601575 
L 413.075067 104.886929 
L 417.283206 104.886929 
L 417.75079 106.172283 
L 430.842836 106.172283 
L 431.310397 107.457638 
L 434.115831 107.457638 
L 434.583414 106.172283 
L 442.999715 106.172283 
L 443.467299 107.457638 
L 448.610605 107.457638 
L 449.078144 108.742992 
L 452.818722 108.742992 
L 453.286305 110.028346 
L 456.091761 110.028346 
L 456.559345 111.313701 
L 458.429634 111.313701 
L 458.897173 112.599055 
L 460.767462 112.599055 
L 461.235045 113.884409 
L 462.637751 113.884409 
L 463.105334 115.169764 
L 464.50804 115.169764 
L 464.975624 116.455118 
L 465.91079 116.455118 
L 466.378374 117.740472 
L 467.313496 117.740472 
L 467.78108 119.025827 
L 469.183785 119.025827 
L 469.651369 120.311181 
L 470.586491 120.311181 
L 471.054074 121.596535 
L 471.989241 121.596535 
L 472.45678 122.88189 
L 473.391947 122.88189 
L 473.85953 124.167244 
L 474.794653 124.167244 
L 475.262236 125.452598 
L 476.664942 125.452598 
L 477.132525 126.737953 
L 478.535231 126.737953 
L 479.002814 128.023307 
L 480.40552 128.023307 
L 480.873103 129.308661 
L 482.743393 129.308661 
L 483.210976 130.594016 
L 486.016387 130.594016 
L 486.483971 131.87937 
L 492.562422 131.87937 
L 493.030005 130.594016 
L 494.900294 130.594016 
L 495.367878 129.308661 
L 496.770583 129.308661 
L 497.238167 128.023307 
L 498.173289 128.023307 
L 498.640872 126.737953 
L 499.575995 126.737953 
L 500.043578 125.452598 
L 500.511162 125.452598 
L 500.978745 124.167244 
L 501.446328 124.167244 
L 501.913867 122.88189 
L 502.381451 122.88189 
L 502.849034 121.596535 
L 503.316618 121.596535 
L 503.784156 120.311181 
L 504.25174 120.311181 
L 505.186907 117.740472 
L 505.654445 117.740472 
L 506.589612 115.169764 
L 507.057196 115.169764 
L 508.459901 111.313701 
L 508.927485 111.313701 
L 510.330191 107.457638 
L 510.797774 107.457638 
L 514.538352 97.174803 
L 515.005936 97.174803 
L 530.903371 53.472756 
L 531.370954 53.472756 
L 533.708827 47.045984 
L 534.17641 47.045984 
L 535.111533 44.475276 
L 535.579116 44.475276 
L 536.514238 41.904567 
L 536.981822 41.904567 
L 537.916989 39.333858 
L 537.916989 39.333858 
" style="fill:none;stroke:#d62728;stroke-linecap:square;stroke-opacity:0.8;stroke-width:1.5;"/>
   </g>
   <g id="patch_3">
    <path d="M 46.965625 170.44 
L 46.965625 7.2 
" style="fill:none;stroke:#000000;stroke-linecap:square;stroke-linejoin:miter;stroke-width:0.8;"/>
   </g>
   <g id="patch_4">
    <path d="M 561.295625 170.44 
L 561.295625 7.2 
" style="fill:none;stroke:#000000;stroke-linecap:square;stroke-linejoin:miter;stroke-width:0.8;"/>
   </g>
   <g id="patch_5">
    <path d="M 46.965625 170.44 
L 561.295625 170.44 
" style="fill:none;stroke:#000000;stroke-linecap:square;stroke-linejoin:miter;stroke-width:0.8;"/>
   </g>
   <g id="patch_6">
    <path d="M 46.965625 7.2 
L 561.295625 7.2 
" style="fill:none;stroke:#000000;stroke-linecap:square;stroke-linejoin:miter;stroke-width:0.8;"/>
   </g>
  </g>
 </g>
 <defs>
  <clipPath id="pa5698bdce8">
   <rect height="163.24" width="514.33" x="46.965625" y="7.2"/>
  </clipPath>
 </defs>
</svg>
