<?xml version="1.0" encoding="utf-8" standalone="no"?>
<!DOCTYPE svg PUBLIC "-//W3C//DTD SVG 1.1//EN"
  "http://www.w3.org/Graphics/SVG/1.1/DTD/svg11.dtd">
<svg height="207.99625pt" version="1.1" viewBox="0 0 568.495625 207.99625" width="568.495625pt" xmlns="http://www.w3.org/2000/svg" xmlns:xlink="http://www.w3.org/1999/xlink">
 <metadata>
  <rdf:RDF xmlns:cc="http://creativecommons.org/ns#" xmlns:dc="http://purl.org/dc/elements/1.1/" xmlns:rdf="http://www.w3.org/1999/02/22-rdf-syntax-ns#">
   <cc:Work>
    <dc:type rdf:resource="http://purl.org/dc/dcmitype/StillImage"/>
    <dc:date>2021-12-09T07:17:32.778564</dc:date>
    <dc:format>image/svg+xml</dc:format>
    <dc:creator>
     <cc:Agent>
      <dc:title>Matplotlib v3.4.3, https://matplotlib.org/</dc:title>
     </cc:Agent>
    </dc:creator>
   </cc:Work>
  </rdf:RDF>
 </metadata>
 <defs>
  <style type="text/css">*{stroke-linecap:butt;stroke-linejoin:round;}</style>
 </defs>
 <g id="figure_1">
  <g id="patch_1">
   <path d="M 0 207.99625 
L 568.495625 207.99625 
L 568.495625 0 
L 0 0 
z
" style="fill:#ffffff;"/>
  </g>
  <g id="axes_1">
   <g id="patch_2">
    <path d="M 46.965625 170.44 
L 561.295625 170.44 
L 561.295625 7.2 
L 46.965625 7.2 
z
" style="fill:#ffffff;"/>
   </g>
   <g id="matplotlib.axis_1">
    <g id="xtick_1">
     <g id="line2d_1">
      <defs>
       <path d="M 0 0 
L 0 3.5 
" id="mcf9c428904" style="stroke:#000000;stroke-width:0.8;"/>
      </defs>
      <g>
       <use style="stroke:#000000;stroke-width:0.8;" x="70.344261" xlink:href="#mcf9c428904" y="170.44"/>
      </g>
     </g>
     <g id="text_1">
      <!-- 0.0 -->
      <g transform="translate(62.392699 185.038437)scale(0.1 -0.1)">
       <defs>
        <path d="M 2034 4250 
Q 1547 4250 1301 3770 
Q 1056 3291 1056 2328 
Q 1056 1369 1301 889 
Q 1547 409 2034 409 
Q 2525 409 2770 889 
Q 3016 1369 3016 2328 
Q 3016 3291 2770 3770 
Q 2525 4250 2034 4250 
z
M 2034 4750 
Q 2819 4750 3233 4129 
Q 3647 3509 3647 2328 
Q 3647 1150 3233 529 
Q 2819 -91 2034 -91 
Q 1250 -91 836 529 
Q 422 1150 422 2328 
Q 422 3509 836 4129 
Q 1250 4750 2034 4750 
z
" id="DejaVuSans-30" transform="scale(0.015625)"/>
        <path d="M 684 794 
L 1344 794 
L 1344 0 
L 684 0 
L 684 794 
z
" id="DejaVuSans-2e" transform="scale(0.015625)"/>
       </defs>
       <use xlink:href="#DejaVuSans-30"/>
       <use x="63.623047" xlink:href="#DejaVuSans-2e"/>
       <use x="95.410156" xlink:href="#DejaVuSans-30"/>
      </g>
     </g>
    </g>
    <g id="xtick_2">
     <g id="line2d_2">
      <g>
       <use style="stroke:#000000;stroke-width:0.8;" x="128.790852" xlink:href="#mcf9c428904" y="170.44"/>
      </g>
     </g>
     <g id="text_2">
      <!-- 2.5 -->
      <g transform="translate(120.83929 185.038437)scale(0.1 -0.1)">
       <defs>
        <path d="M 1228 531 
L 3431 531 
L 3431 0 
L 469 0 
L 469 531 
Q 828 903 1448 1529 
Q 2069 2156 2228 2338 
Q 2531 2678 2651 2914 
Q 2772 3150 2772 3378 
Q 2772 3750 2511 3984 
Q 2250 4219 1831 4219 
Q 1534 4219 1204 4116 
Q 875 4013 500 3803 
L 500 4441 
Q 881 4594 1212 4672 
Q 1544 4750 1819 4750 
Q 2544 4750 2975 4387 
Q 3406 4025 3406 3419 
Q 3406 3131 3298 2873 
Q 3191 2616 2906 2266 
Q 2828 2175 2409 1742 
Q 1991 1309 1228 531 
z
" id="DejaVuSans-32" transform="scale(0.015625)"/>
        <path d="M 691 4666 
L 3169 4666 
L 3169 4134 
L 1269 4134 
L 1269 2991 
Q 1406 3038 1543 3061 
Q 1681 3084 1819 3084 
Q 2600 3084 3056 2656 
Q 3513 2228 3513 1497 
Q 3513 744 3044 326 
Q 2575 -91 1722 -91 
Q 1428 -91 1123 -41 
Q 819 9 494 109 
L 494 744 
Q 775 591 1075 516 
Q 1375 441 1709 441 
Q 2250 441 2565 725 
Q 2881 1009 2881 1497 
Q 2881 1984 2565 2268 
Q 2250 2553 1709 2553 
Q 1456 2553 1204 2497 
Q 953 2441 691 2322 
L 691 4666 
z
" id="DejaVuSans-35" transform="scale(0.015625)"/>
       </defs>
       <use xlink:href="#DejaVuSans-32"/>
       <use x="63.623047" xlink:href="#DejaVuSans-2e"/>
       <use x="95.410156" xlink:href="#DejaVuSans-35"/>
      </g>
     </g>
    </g>
    <g id="xtick_3">
     <g id="line2d_3">
      <g>
       <use style="stroke:#000000;stroke-width:0.8;" x="187.237443" xlink:href="#mcf9c428904" y="170.44"/>
      </g>
     </g>
     <g id="text_3">
      <!-- 5.0 -->
      <g transform="translate(179.285881 185.038437)scale(0.1 -0.1)">
       <use xlink:href="#DejaVuSans-35"/>
       <use x="63.623047" xlink:href="#DejaVuSans-2e"/>
       <use x="95.410156" xlink:href="#DejaVuSans-30"/>
      </g>
     </g>
    </g>
    <g id="xtick_4">
     <g id="line2d_4">
      <g>
       <use style="stroke:#000000;stroke-width:0.8;" x="245.684034" xlink:href="#mcf9c428904" y="170.44"/>
      </g>
     </g>
     <g id="text_4">
      <!-- 7.5 -->
      <g transform="translate(237.732472 185.038437)scale(0.1 -0.1)">
       <defs>
        <path d="M 525 4666 
L 3525 4666 
L 3525 4397 
L 1831 0 
L 1172 0 
L 2766 4134 
L 525 4134 
L 525 4666 
z
" id="DejaVuSans-37" transform="scale(0.015625)"/>
       </defs>
       <use xlink:href="#DejaVuSans-37"/>
       <use x="63.623047" xlink:href="#DejaVuSans-2e"/>
       <use x="95.410156" xlink:href="#DejaVuSans-35"/>
      </g>
     </g>
    </g>
    <g id="xtick_5">
     <g id="line2d_5">
      <g>
       <use style="stroke:#000000;stroke-width:0.8;" x="304.130625" xlink:href="#mcf9c428904" y="170.44"/>
      </g>
     </g>
     <g id="text_5">
      <!-- 10.0 -->
      <g transform="translate(292.997813 185.038437)scale(0.1 -0.1)">
       <defs>
        <path d="M 794 531 
L 1825 531 
L 1825 4091 
L 703 3866 
L 703 4441 
L 1819 4666 
L 2450 4666 
L 2450 531 
L 3481 531 
L 3481 0 
L 794 0 
L 794 531 
z
" id="DejaVuSans-31" transform="scale(0.015625)"/>
       </defs>
       <use xlink:href="#DejaVuSans-31"/>
       <use x="63.623047" xlink:href="#DejaVuSans-30"/>
       <use x="127.246094" xlink:href="#DejaVuSans-2e"/>
       <use x="159.033203" xlink:href="#DejaVuSans-30"/>
      </g>
     </g>
    </g>
    <g id="xtick_6">
     <g id="line2d_6">
      <g>
       <use style="stroke:#000000;stroke-width:0.8;" x="362.577216" xlink:href="#mcf9c428904" y="170.44"/>
      </g>
     </g>
     <g id="text_6">
      <!-- 12.5 -->
      <g transform="translate(351.444403 185.038437)scale(0.1 -0.1)">
       <use xlink:href="#DejaVuSans-31"/>
       <use x="63.623047" xlink:href="#DejaVuSans-32"/>
       <use x="127.246094" xlink:href="#DejaVuSans-2e"/>
       <use x="159.033203" xlink:href="#DejaVuSans-35"/>
      </g>
     </g>
    </g>
    <g id="xtick_7">
     <g id="line2d_7">
      <g>
       <use style="stroke:#000000;stroke-width:0.8;" x="421.023807" xlink:href="#mcf9c428904" y="170.44"/>
      </g>
     </g>
     <g id="text_7">
      <!-- 15.0 -->
      <g transform="translate(409.890994 185.038437)scale(0.1 -0.1)">
       <use xlink:href="#DejaVuSans-31"/>
       <use x="63.623047" xlink:href="#DejaVuSans-35"/>
       <use x="127.246094" xlink:href="#DejaVuSans-2e"/>
       <use x="159.033203" xlink:href="#DejaVuSans-30"/>
      </g>
     </g>
    </g>
    <g id="xtick_8">
     <g id="line2d_8">
      <g>
       <use style="stroke:#000000;stroke-width:0.8;" x="479.470398" xlink:href="#mcf9c428904" y="170.44"/>
      </g>
     </g>
     <g id="text_8">
      <!-- 17.5 -->
      <g transform="translate(468.337585 185.038437)scale(0.1 -0.1)">
       <use xlink:href="#DejaVuSans-31"/>
       <use x="63.623047" xlink:href="#DejaVuSans-37"/>
       <use x="127.246094" xlink:href="#DejaVuSans-2e"/>
       <use x="159.033203" xlink:href="#DejaVuSans-35"/>
      </g>
     </g>
    </g>
    <g id="xtick_9">
     <g id="line2d_9">
      <g>
       <use style="stroke:#000000;stroke-width:0.8;" x="537.916989" xlink:href="#mcf9c428904" y="170.44"/>
      </g>
     </g>
     <g id="text_9">
      <!-- 20.0 -->
      <g transform="translate(526.784176 185.038437)scale(0.1 -0.1)">
       <use xlink:href="#DejaVuSans-32"/>
       <use x="63.623047" xlink:href="#DejaVuSans-30"/>
       <use x="127.246094" xlink:href="#DejaVuSans-2e"/>
       <use x="159.033203" xlink:href="#DejaVuSans-30"/>
      </g>
     </g>
    </g>
    <g id="text_10">
     <!-- Timestep -->
     <g transform="translate(281.081406 198.716563)scale(0.1 -0.1)">
      <defs>
       <path d="M -19 4666 
L 3928 4666 
L 3928 4134 
L 2272 4134 
L 2272 0 
L 1638 0 
L 1638 4134 
L -19 4134 
L -19 4666 
z
" id="DejaVuSans-54" transform="scale(0.015625)"/>
       <path d="M 603 3500 
L 1178 3500 
L 1178 0 
L 603 0 
L 603 3500 
z
M 603 4863 
L 1178 4863 
L 1178 4134 
L 603 4134 
L 603 4863 
z
" id="DejaVuSans-69" transform="scale(0.015625)"/>
       <path d="M 3328 2828 
Q 3544 3216 3844 3400 
Q 4144 3584 4550 3584 
Q 5097 3584 5394 3201 
Q 5691 2819 5691 2113 
L 5691 0 
L 5113 0 
L 5113 2094 
Q 5113 2597 4934 2840 
Q 4756 3084 4391 3084 
Q 3944 3084 3684 2787 
Q 3425 2491 3425 1978 
L 3425 0 
L 2847 0 
L 2847 2094 
Q 2847 2600 2669 2842 
Q 2491 3084 2119 3084 
Q 1678 3084 1418 2786 
Q 1159 2488 1159 1978 
L 1159 0 
L 581 0 
L 581 3500 
L 1159 3500 
L 1159 2956 
Q 1356 3278 1631 3431 
Q 1906 3584 2284 3584 
Q 2666 3584 2933 3390 
Q 3200 3197 3328 2828 
z
" id="DejaVuSans-6d" transform="scale(0.015625)"/>
       <path d="M 3597 1894 
L 3597 1613 
L 953 1613 
Q 991 1019 1311 708 
Q 1631 397 2203 397 
Q 2534 397 2845 478 
Q 3156 559 3463 722 
L 3463 178 
Q 3153 47 2828 -22 
Q 2503 -91 2169 -91 
Q 1331 -91 842 396 
Q 353 884 353 1716 
Q 353 2575 817 3079 
Q 1281 3584 2069 3584 
Q 2775 3584 3186 3129 
Q 3597 2675 3597 1894 
z
M 3022 2063 
Q 3016 2534 2758 2815 
Q 2500 3097 2075 3097 
Q 1594 3097 1305 2825 
Q 1016 2553 972 2059 
L 3022 2063 
z
" id="DejaVuSans-65" transform="scale(0.015625)"/>
       <path d="M 2834 3397 
L 2834 2853 
Q 2591 2978 2328 3040 
Q 2066 3103 1784 3103 
Q 1356 3103 1142 2972 
Q 928 2841 928 2578 
Q 928 2378 1081 2264 
Q 1234 2150 1697 2047 
L 1894 2003 
Q 2506 1872 2764 1633 
Q 3022 1394 3022 966 
Q 3022 478 2636 193 
Q 2250 -91 1575 -91 
Q 1294 -91 989 -36 
Q 684 19 347 128 
L 347 722 
Q 666 556 975 473 
Q 1284 391 1588 391 
Q 1994 391 2212 530 
Q 2431 669 2431 922 
Q 2431 1156 2273 1281 
Q 2116 1406 1581 1522 
L 1381 1569 
Q 847 1681 609 1914 
Q 372 2147 372 2553 
Q 372 3047 722 3315 
Q 1072 3584 1716 3584 
Q 2034 3584 2315 3537 
Q 2597 3491 2834 3397 
z
" id="DejaVuSans-73" transform="scale(0.015625)"/>
       <path d="M 1172 4494 
L 1172 3500 
L 2356 3500 
L 2356 3053 
L 1172 3053 
L 1172 1153 
Q 1172 725 1289 603 
Q 1406 481 1766 481 
L 2356 481 
L 2356 0 
L 1766 0 
Q 1100 0 847 248 
Q 594 497 594 1153 
L 594 3053 
L 172 3053 
L 172 3500 
L 594 3500 
L 594 4494 
L 1172 4494 
z
" id="DejaVuSans-74" transform="scale(0.015625)"/>
       <path d="M 1159 525 
L 1159 -1331 
L 581 -1331 
L 581 3500 
L 1159 3500 
L 1159 2969 
Q 1341 3281 1617 3432 
Q 1894 3584 2278 3584 
Q 2916 3584 3314 3078 
Q 3713 2572 3713 1747 
Q 3713 922 3314 415 
Q 2916 -91 2278 -91 
Q 1894 -91 1617 61 
Q 1341 213 1159 525 
z
M 3116 1747 
Q 3116 2381 2855 2742 
Q 2594 3103 2138 3103 
Q 1681 3103 1420 2742 
Q 1159 2381 1159 1747 
Q 1159 1113 1420 752 
Q 1681 391 2138 391 
Q 2594 391 2855 752 
Q 3116 1113 3116 1747 
z
" id="DejaVuSans-70" transform="scale(0.015625)"/>
      </defs>
      <use xlink:href="#DejaVuSans-54"/>
      <use x="57.958984" xlink:href="#DejaVuSans-69"/>
      <use x="85.742188" xlink:href="#DejaVuSans-6d"/>
      <use x="183.154297" xlink:href="#DejaVuSans-65"/>
      <use x="244.677734" xlink:href="#DejaVuSans-73"/>
      <use x="296.777344" xlink:href="#DejaVuSans-74"/>
      <use x="335.986328" xlink:href="#DejaVuSans-65"/>
      <use x="397.509766" xlink:href="#DejaVuSans-70"/>
     </g>
    </g>
   </g>
   <g id="matplotlib.axis_2">
    <g id="ytick_1">
     <g id="line2d_10">
      <defs>
       <path d="M 0 0 
L -3.5 0 
" id="mc087b52cc5" style="stroke:#000000;stroke-width:0.8;"/>
      </defs>
      <g>
       <use style="stroke:#000000;stroke-width:0.8;" x="46.965625" xlink:href="#mc087b52cc5" y="170.44"/>
      </g>
     </g>
     <g id="text_11">
      <!-- 0 -->
      <g transform="translate(33.603125 174.239219)scale(0.1 -0.1)">
       <use xlink:href="#DejaVuSans-30"/>
      </g>
     </g>
    </g>
    <g id="ytick_2">
     <g id="line2d_11">
      <g>
       <use style="stroke:#000000;stroke-width:0.8;" x="46.965625" xlink:href="#mc087b52cc5" y="144.732913"/>
      </g>
     </g>
     <g id="text_12">
      <!-- 20 -->
      <g transform="translate(27.240625 148.532132)scale(0.1 -0.1)">
       <use xlink:href="#DejaVuSans-32"/>
       <use x="63.623047" xlink:href="#DejaVuSans-30"/>
      </g>
     </g>
    </g>
    <g id="ytick_3">
     <g id="line2d_12">
      <g>
       <use style="stroke:#000000;stroke-width:0.8;" x="46.965625" xlink:href="#mc087b52cc5" y="119.025827"/>
      </g>
     </g>
     <g id="text_13">
      <!-- 40 -->
      <g transform="translate(27.240625 122.825046)scale(0.1 -0.1)">
       <defs>
        <path d="M 2419 4116 
L 825 1625 
L 2419 1625 
L 2419 4116 
z
M 2253 4666 
L 3047 4666 
L 3047 1625 
L 3713 1625 
L 3713 1100 
L 3047 1100 
L 3047 0 
L 2419 0 
L 2419 1100 
L 313 1100 
L 313 1709 
L 2253 4666 
z
" id="DejaVuSans-34" transform="scale(0.015625)"/>
       </defs>
       <use xlink:href="#DejaVuSans-34"/>
       <use x="63.623047" xlink:href="#DejaVuSans-30"/>
      </g>
     </g>
    </g>
    <g id="ytick_4">
     <g id="line2d_13">
      <g>
       <use style="stroke:#000000;stroke-width:0.8;" x="46.965625" xlink:href="#mc087b52cc5" y="93.31874"/>
      </g>
     </g>
     <g id="text_14">
      <!-- 60 -->
      <g transform="translate(27.240625 97.117959)scale(0.1 -0.1)">
       <defs>
        <path d="M 2113 2584 
Q 1688 2584 1439 2293 
Q 1191 2003 1191 1497 
Q 1191 994 1439 701 
Q 1688 409 2113 409 
Q 2538 409 2786 701 
Q 3034 994 3034 1497 
Q 3034 2003 2786 2293 
Q 2538 2584 2113 2584 
z
M 3366 4563 
L 3366 3988 
Q 3128 4100 2886 4159 
Q 2644 4219 2406 4219 
Q 1781 4219 1451 3797 
Q 1122 3375 1075 2522 
Q 1259 2794 1537 2939 
Q 1816 3084 2150 3084 
Q 2853 3084 3261 2657 
Q 3669 2231 3669 1497 
Q 3669 778 3244 343 
Q 2819 -91 2113 -91 
Q 1303 -91 875 529 
Q 447 1150 447 2328 
Q 447 3434 972 4092 
Q 1497 4750 2381 4750 
Q 2619 4750 2861 4703 
Q 3103 4656 3366 4563 
z
" id="DejaVuSans-36" transform="scale(0.015625)"/>
       </defs>
       <use xlink:href="#DejaVuSans-36"/>
       <use x="63.623047" xlink:href="#DejaVuSans-30"/>
      </g>
     </g>
    </g>
    <g id="ytick_5">
     <g id="line2d_14">
      <g>
       <use style="stroke:#000000;stroke-width:0.8;" x="46.965625" xlink:href="#mc087b52cc5" y="67.611654"/>
      </g>
     </g>
     <g id="text_15">
      <!-- 80 -->
      <g transform="translate(27.240625 71.410872)scale(0.1 -0.1)">
       <defs>
        <path d="M 2034 2216 
Q 1584 2216 1326 1975 
Q 1069 1734 1069 1313 
Q 1069 891 1326 650 
Q 1584 409 2034 409 
Q 2484 409 2743 651 
Q 3003 894 3003 1313 
Q 3003 1734 2745 1975 
Q 2488 2216 2034 2216 
z
M 1403 2484 
Q 997 2584 770 2862 
Q 544 3141 544 3541 
Q 544 4100 942 4425 
Q 1341 4750 2034 4750 
Q 2731 4750 3128 4425 
Q 3525 4100 3525 3541 
Q 3525 3141 3298 2862 
Q 3072 2584 2669 2484 
Q 3125 2378 3379 2068 
Q 3634 1759 3634 1313 
Q 3634 634 3220 271 
Q 2806 -91 2034 -91 
Q 1263 -91 848 271 
Q 434 634 434 1313 
Q 434 1759 690 2068 
Q 947 2378 1403 2484 
z
M 1172 3481 
Q 1172 3119 1398 2916 
Q 1625 2713 2034 2713 
Q 2441 2713 2670 2916 
Q 2900 3119 2900 3481 
Q 2900 3844 2670 4047 
Q 2441 4250 2034 4250 
Q 1625 4250 1398 4047 
Q 1172 3844 1172 3481 
z
" id="DejaVuSans-38" transform="scale(0.015625)"/>
       </defs>
       <use xlink:href="#DejaVuSans-38"/>
       <use x="63.623047" xlink:href="#DejaVuSans-30"/>
      </g>
     </g>
    </g>
    <g id="ytick_6">
     <g id="line2d_15">
      <g>
       <use style="stroke:#000000;stroke-width:0.8;" x="46.965625" xlink:href="#mc087b52cc5" y="41.904567"/>
      </g>
     </g>
     <g id="text_16">
      <!-- 100 -->
      <g transform="translate(20.878125 45.703786)scale(0.1 -0.1)">
       <use xlink:href="#DejaVuSans-31"/>
       <use x="63.623047" xlink:href="#DejaVuSans-30"/>
       <use x="127.246094" xlink:href="#DejaVuSans-30"/>
      </g>
     </g>
    </g>
    <g id="ytick_7">
     <g id="line2d_16">
      <g>
       <use style="stroke:#000000;stroke-width:0.8;" x="46.965625" xlink:href="#mc087b52cc5" y="16.19748"/>
      </g>
     </g>
     <g id="text_17">
      <!-- 120 -->
      <g transform="translate(20.878125 19.996699)scale(0.1 -0.1)">
       <use xlink:href="#DejaVuSans-31"/>
       <use x="63.623047" xlink:href="#DejaVuSans-32"/>
       <use x="127.246094" xlink:href="#DejaVuSans-30"/>
      </g>
     </g>
    </g>
    <g id="text_18">
     <!-- Quantization Level -->
     <g transform="translate(14.798438 135.561406)rotate(-90)scale(0.1 -0.1)">
      <defs>
       <path d="M 2522 4238 
Q 1834 4238 1429 3725 
Q 1025 3213 1025 2328 
Q 1025 1447 1429 934 
Q 1834 422 2522 422 
Q 3209 422 3611 934 
Q 4013 1447 4013 2328 
Q 4013 3213 3611 3725 
Q 3209 4238 2522 4238 
z
M 3406 84 
L 4238 -825 
L 3475 -825 
L 2784 -78 
Q 2681 -84 2626 -87 
Q 2572 -91 2522 -91 
Q 1538 -91 948 567 
Q 359 1225 359 2328 
Q 359 3434 948 4092 
Q 1538 4750 2522 4750 
Q 3503 4750 4090 4092 
Q 4678 3434 4678 2328 
Q 4678 1516 4351 937 
Q 4025 359 3406 84 
z
" id="DejaVuSans-51" transform="scale(0.015625)"/>
       <path d="M 544 1381 
L 544 3500 
L 1119 3500 
L 1119 1403 
Q 1119 906 1312 657 
Q 1506 409 1894 409 
Q 2359 409 2629 706 
Q 2900 1003 2900 1516 
L 2900 3500 
L 3475 3500 
L 3475 0 
L 2900 0 
L 2900 538 
Q 2691 219 2414 64 
Q 2138 -91 1772 -91 
Q 1169 -91 856 284 
Q 544 659 544 1381 
z
M 1991 3584 
L 1991 3584 
z
" id="DejaVuSans-75" transform="scale(0.015625)"/>
       <path d="M 2194 1759 
Q 1497 1759 1228 1600 
Q 959 1441 959 1056 
Q 959 750 1161 570 
Q 1363 391 1709 391 
Q 2188 391 2477 730 
Q 2766 1069 2766 1631 
L 2766 1759 
L 2194 1759 
z
M 3341 1997 
L 3341 0 
L 2766 0 
L 2766 531 
Q 2569 213 2275 61 
Q 1981 -91 1556 -91 
Q 1019 -91 701 211 
Q 384 513 384 1019 
Q 384 1609 779 1909 
Q 1175 2209 1959 2209 
L 2766 2209 
L 2766 2266 
Q 2766 2663 2505 2880 
Q 2244 3097 1772 3097 
Q 1472 3097 1187 3025 
Q 903 2953 641 2809 
L 641 3341 
Q 956 3463 1253 3523 
Q 1550 3584 1831 3584 
Q 2591 3584 2966 3190 
Q 3341 2797 3341 1997 
z
" id="DejaVuSans-61" transform="scale(0.015625)"/>
       <path d="M 3513 2113 
L 3513 0 
L 2938 0 
L 2938 2094 
Q 2938 2591 2744 2837 
Q 2550 3084 2163 3084 
Q 1697 3084 1428 2787 
Q 1159 2491 1159 1978 
L 1159 0 
L 581 0 
L 581 3500 
L 1159 3500 
L 1159 2956 
Q 1366 3272 1645 3428 
Q 1925 3584 2291 3584 
Q 2894 3584 3203 3211 
Q 3513 2838 3513 2113 
z
" id="DejaVuSans-6e" transform="scale(0.015625)"/>
       <path d="M 353 3500 
L 3084 3500 
L 3084 2975 
L 922 459 
L 3084 459 
L 3084 0 
L 275 0 
L 275 525 
L 2438 3041 
L 353 3041 
L 353 3500 
z
" id="DejaVuSans-7a" transform="scale(0.015625)"/>
       <path d="M 1959 3097 
Q 1497 3097 1228 2736 
Q 959 2375 959 1747 
Q 959 1119 1226 758 
Q 1494 397 1959 397 
Q 2419 397 2687 759 
Q 2956 1122 2956 1747 
Q 2956 2369 2687 2733 
Q 2419 3097 1959 3097 
z
M 1959 3584 
Q 2709 3584 3137 3096 
Q 3566 2609 3566 1747 
Q 3566 888 3137 398 
Q 2709 -91 1959 -91 
Q 1206 -91 779 398 
Q 353 888 353 1747 
Q 353 2609 779 3096 
Q 1206 3584 1959 3584 
z
" id="DejaVuSans-6f" transform="scale(0.015625)"/>
       <path id="DejaVuSans-20" transform="scale(0.015625)"/>
       <path d="M 628 4666 
L 1259 4666 
L 1259 531 
L 3531 531 
L 3531 0 
L 628 0 
L 628 4666 
z
" id="DejaVuSans-4c" transform="scale(0.015625)"/>
       <path d="M 191 3500 
L 800 3500 
L 1894 563 
L 2988 3500 
L 3597 3500 
L 2284 0 
L 1503 0 
L 191 3500 
z
" id="DejaVuSans-76" transform="scale(0.015625)"/>
       <path d="M 603 4863 
L 1178 4863 
L 1178 0 
L 603 0 
L 603 4863 
z
" id="DejaVuSans-6c" transform="scale(0.015625)"/>
      </defs>
      <use xlink:href="#DejaVuSans-51"/>
      <use x="78.710938" xlink:href="#DejaVuSans-75"/>
      <use x="142.089844" xlink:href="#DejaVuSans-61"/>
      <use x="203.369141" xlink:href="#DejaVuSans-6e"/>
      <use x="266.748047" xlink:href="#DejaVuSans-74"/>
      <use x="305.957031" xlink:href="#DejaVuSans-69"/>
      <use x="333.740234" xlink:href="#DejaVuSans-7a"/>
      <use x="386.230469" xlink:href="#DejaVuSans-61"/>
      <use x="447.509766" xlink:href="#DejaVuSans-74"/>
      <use x="486.71875" xlink:href="#DejaVuSans-69"/>
      <use x="514.501953" xlink:href="#DejaVuSans-6f"/>
      <use x="575.683594" xlink:href="#DejaVuSans-6e"/>
      <use x="639.0625" xlink:href="#DejaVuSans-20"/>
      <use x="670.849609" xlink:href="#DejaVuSans-4c"/>
      <use x="724.8125" xlink:href="#DejaVuSans-65"/>
      <use x="786.335938" xlink:href="#DejaVuSans-76"/>
      <use x="845.515625" xlink:href="#DejaVuSans-65"/>
      <use x="907.039062" xlink:href="#DejaVuSans-6c"/>
     </g>
    </g>
   </g>
   <g id="line2d_17">
    <path clip-path="url(#p3cc150a217)" d="M 70.344261 151.159685 
L 72.214552 151.159685 
L 72.682125 149.874331 
L 73.61727 149.874331 
L 74.084843 148.588976 
L 74.552416 148.588976 
L 75.019988 147.303622 
L 75.487561 147.303622 
L 75.955134 146.018268 
L 76.422707 146.018268 
L 77.357852 143.447559 
L 77.825425 143.447559 
L 79.228143 139.591496 
L 79.695715 139.591496 
L 83.90387 128.023307 
L 84.371442 125.452598 
L 85.774161 121.596535 
L 86.241734 119.025827 
L 87.644452 115.169764 
L 88.112025 112.599055 
L 89.514743 108.742992 
L 89.982315 106.172283 
L 91.385034 102.31622 
L 91.852606 99.745512 
L 94.19047 93.31874 
L 94.658042 90.748031 
L 101.20406 72.753071 
L 101.671632 72.753071 
L 103.541924 67.611654 
L 104.009496 67.611654 
L 104.944644 65.040945 
L 105.412216 65.040945 
L 106.34736 62.470236 
L 106.814933 62.470236 
L 107.282505 61.184882 
L 107.750077 61.184882 
L 108.217652 59.899528 
L 108.685225 59.899528 
L 109.152797 58.614173 
L 109.620369 58.614173 
L 110.087942 57.328819 
L 110.555514 57.328819 
L 111.023089 56.043465 
L 111.490661 56.043465 
L 111.958233 54.75811 
L 112.893378 54.75811 
L 113.36095 53.472756 
L 114.296098 53.472756 
L 114.76367 52.187402 
L 116.633959 52.187402 
L 117.101534 50.902047 
L 125.050268 50.902047 
L 125.517841 52.187402 
L 127.388135 52.187402 
L 127.855708 53.472756 
L 128.790852 53.472756 
L 129.258425 54.75811 
L 130.193569 54.75811 
L 130.661141 56.043465 
L 131.128714 56.043465 
L 131.596286 57.328819 
L 132.063858 57.328819 
L 132.531431 58.614173 
L 132.999003 58.614173 
L 133.466581 59.899528 
L 133.934153 59.899528 
L 134.401725 61.184882 
L 134.869298 61.184882 
L 135.33687 62.470236 
L 135.804442 62.470236 
L 136.739587 65.040945 
L 137.207159 65.040945 
L 137.674731 66.326299 
L 138.142303 66.326299 
L 138.609876 67.611654 
L 139.077448 67.611654 
L 140.012598 70.182362 
L 140.48017 70.182362 
L 140.947743 71.467717 
L 141.415315 71.467717 
L 141.882887 72.753071 
L 142.35046 72.753071 
L 142.818032 74.038425 
L 143.285604 74.038425 
L 143.753176 75.32378 
L 144.220749 75.32378 
L 144.688321 76.609134 
L 145.623471 76.609134 
L 146.091043 77.894488 
L 146.558616 77.894488 
L 147.026188 79.179843 
L 147.961333 79.179843 
L 148.428905 80.465197 
L 149.831622 80.465197 
L 150.299194 81.750551 
L 152.637061 81.750551 
L 153.104633 83.035906 
L 154.974922 83.035906 
L 155.442495 84.32126 
L 157.780362 84.32126 
L 158.247934 85.606614 
L 159.650651 85.606614 
L 160.118223 86.891969 
L 161.053368 86.891969 
L 161.52094 88.177323 
L 162.456084 88.177323 
L 162.923657 89.462677 
L 163.391235 89.462677 
L 163.858807 90.748031 
L 164.326379 90.748031 
L 164.793951 92.033386 
L 165.261524 92.033386 
L 166.196668 94.604094 
L 166.664241 94.604094 
L 167.131813 95.889449 
L 167.599385 95.889449 
L 169.002102 99.745512 
L 169.469674 99.745512 
L 177.885986 122.88189 
L 178.353559 125.452598 
L 181.626565 134.450079 
L 182.094137 134.450079 
L 184.432009 140.87685 
L 184.899582 140.87685 
L 185.367154 142.162205 
L 185.834726 142.162205 
L 186.302299 143.447559 
L 186.769871 143.447559 
L 187.237443 144.732913 
L 188.172588 144.732913 
L 188.64016 146.018268 
L 192.848311 146.018268 
L 193.315883 144.732913 
L 194.251027 144.732913 
L 194.7186 143.447559 
L 195.186172 143.447559 
L 196.121328 140.87685 
L 196.5889 140.87685 
L 201.264623 128.023307 
L 201.732195 125.452598 
L 202.66734 122.88189 
L 203.134912 120.311181 
L 204.070056 117.740472 
L 204.537629 115.169764 
L 205.472773 112.599055 
L 205.940346 110.028346 
L 206.407918 108.742992 
L 206.87549 106.172283 
L 207.810635 103.601575 
L 208.278218 101.030866 
L 208.74579 99.745512 
L 209.213363 97.174803 
L 210.148507 94.604094 
L 210.61608 92.033386 
L 211.551224 89.462677 
L 212.018796 86.891969 
L 213.421513 83.035906 
L 213.889086 80.465197 
L 220.435109 62.470236 
L 220.902681 62.470236 
L 222.305398 58.614173 
L 222.77297 58.614173 
L 223.240542 57.328819 
L 223.708115 57.328819 
L 224.175687 56.043465 
L 224.643259 56.043465 
L 225.110831 54.75811 
L 225.578404 54.75811 
L 226.045976 53.472756 
L 226.981121 53.472756 
L 227.448693 52.187402 
L 228.383837 52.187402 
L 228.85141 50.902047 
L 231.189271 50.902047 
L 231.656843 49.616693 
L 239.605583 49.616693 
L 240.073156 50.902047 
L 241.943445 50.902047 
L 242.411017 52.187402 
L 243.813734 52.187402 
L 244.281317 53.472756 
L 245.216462 53.472756 
L 245.684034 54.75811 
L 246.619179 54.75811 
L 247.086751 56.043465 
L 248.021895 56.043465 
L 248.489468 57.328819 
L 248.95704 57.328819 
L 249.424612 58.614173 
L 250.359757 58.614173 
L 250.827329 59.899528 
L 251.294901 59.899528 
L 251.762474 61.184882 
L 252.230046 61.184882 
L 252.697618 62.470236 
L 253.165191 62.470236 
L 253.632763 63.755591 
L 254.100335 63.755591 
L 254.567907 65.040945 
L 255.03548 65.040945 
L 255.503052 66.326299 
L 255.970635 66.326299 
L 256.438208 67.611654 
L 257.373352 67.611654 
L 257.840913 68.897008 
L 258.308497 68.897008 
L 258.776058 70.182362 
L 259.243641 70.182362 
L 259.711203 71.467717 
L 260.178786 71.467717 
L 260.646347 72.753071 
L 261.581492 72.753071 
L 262.049075 74.038425 
L 262.516659 74.038425 
L 262.98422 75.32378 
L 263.919364 75.32378 
L 264.386948 76.609134 
L 265.322092 76.609134 
L 265.789653 77.894488 
L 266.724798 77.894488 
L 267.192381 79.179843 
L 268.595087 79.179843 
L 269.06267 80.465197 
L 270.465376 80.465197 
L 270.93296 81.750551 
L 272.335665 81.750551 
L 272.803249 83.035906 
L 274.205977 83.035906 
L 274.673538 84.32126 
L 275.608682 84.32126 
L 276.076266 85.606614 
L 277.01141 85.606614 
L 277.478972 86.891969 
L 278.414116 86.891969 
L 278.8817 88.177323 
L 279.349261 88.177323 
L 279.816844 89.462677 
L 280.284405 89.462677 
L 280.751989 90.748031 
L 281.21955 90.748031 
L 281.687133 92.033386 
L 282.154694 92.033386 
L 283.089839 94.604094 
L 283.557422 94.604094 
L 284.492567 97.174803 
L 284.960128 97.174803 
L 288.233145 106.172283 
L 288.700729 106.172283 
L 298.519758 133.164724 
L 298.987319 133.164724 
L 300.390047 137.020787 
L 300.857608 137.020787 
L 301.325191 138.306142 
L 301.792752 138.306142 
L 302.727897 140.87685 
L 303.663042 140.87685 
L 304.130625 142.162205 
L 305.533331 142.162205 
L 306.000914 143.447559 
L 307.871203 143.447559 
L 308.338764 142.162205 
L 309.741492 142.162205 
L 310.209076 140.87685 
L 310.676637 140.87685 
L 311.14422 139.591496 
L 311.611782 139.591496 
L 312.546926 137.020787 
L 313.014509 137.020787 
L 318.157793 122.88189 
L 318.625377 120.311181 
L 320.028083 116.455118 
L 320.495666 113.884409 
L 321.430811 111.313701 
L 321.898394 108.742992 
L 322.833539 106.172283 
L 323.3011 103.601575 
L 324.236244 101.030866 
L 324.703828 98.460157 
L 325.171389 97.174803 
L 325.638972 94.604094 
L 326.574117 92.033386 
L 327.041678 89.462677 
L 327.976822 86.891969 
L 328.444406 84.32126 
L 335.458001 65.040945 
L 335.925562 65.040945 
L 337.32829 61.184882 
L 337.795852 61.184882 
L 338.730996 58.614173 
L 339.19858 58.614173 
L 339.666141 57.328819 
L 340.133724 57.328819 
L 340.601285 56.043465 
L 341.53643 56.043465 
L 342.004013 54.75811 
L 342.939158 54.75811 
L 343.406719 53.472756 
L 344.809447 53.472756 
L 345.277008 52.187402 
L 354.628476 52.187402 
L 355.096037 53.472756 
L 356.966326 53.472756 
L 357.43391 54.75811 
L 358.836638 54.75811 
L 359.304199 56.043465 
L 360.706927 56.043465 
L 361.174488 57.328819 
L 362.109632 57.328819 
L 362.577216 58.614173 
L 363.51236 58.614173 
L 363.979922 59.899528 
L 364.915066 59.899528 
L 365.38265 61.184882 
L 366.317794 61.184882 
L 366.785355 62.470236 
L 367.252939 62.470236 
L 367.7205 63.755591 
L 368.655644 63.755591 
L 369.123228 65.040945 
L 369.590789 65.040945 
L 370.058372 66.326299 
L 370.993517 66.326299 
L 371.4611 67.611654 
L 371.928662 67.611654 
L 372.396245 68.897008 
L 372.863806 68.897008 
L 373.33139 70.182362 
L 374.266534 70.182362 
L 374.734095 71.467717 
L 375.201679 71.467717 
L 375.66924 72.753071 
L 376.604384 72.753071 
L 377.071968 74.038425 
L 378.007112 74.038425 
L 378.474673 75.32378 
L 379.877401 75.32378 
L 380.344963 76.609134 
L 381.747691 76.609134 
L 382.215274 77.894488 
L 383.61798 77.894488 
L 384.085563 79.179843 
L 385.955852 79.179843 
L 386.423413 80.465197 
L 388.293703 80.465197 
L 388.761286 81.750551 
L 390.631575 81.750551 
L 391.099136 83.035906 
L 392.034281 83.035906 
L 392.501864 84.32126 
L 393.904592 84.32126 
L 394.372153 85.606614 
L 394.839737 85.606614 
L 395.307298 86.891969 
L 396.242442 86.891969 
L 396.710026 88.177323 
L 397.177587 88.177323 
L 397.64517 89.462677 
L 398.112732 89.462677 
L 399.047876 92.033386 
L 399.51546 92.033386 
L 400.450604 94.604094 
L 400.918165 94.604094 
L 402.788454 99.745512 
L 403.256038 99.745512 
L 414.010211 129.308661 
L 414.477773 129.308661 
L 415.880501 133.164724 
L 416.348062 133.164724 
L 417.283206 135.735433 
L 417.75079 135.735433 
L 418.218373 137.020787 
L 418.685934 137.020787 
L 419.153518 138.306142 
L 420.556223 138.306142 
L 421.023807 139.591496 
L 424.296802 139.591496 
L 424.764385 138.306142 
L 425.69953 138.306142 
L 426.167091 137.020787 
L 426.634674 137.020787 
L 427.102235 135.735433 
L 427.569819 135.735433 
L 428.972524 131.87937 
L 429.440108 131.87937 
L 435.518559 115.169764 
L 435.98612 112.599055 
L 437.388848 108.742992 
L 437.856409 106.172283 
L 439.259137 102.31622 
L 439.726698 99.745512 
L 441.129426 95.889449 
L 441.597009 93.31874 
L 447.675438 76.609134 
L 448.143021 76.609134 
L 450.013311 71.467717 
L 450.480894 71.467717 
L 451.416016 68.897008 
L 451.8836 68.897008 
L 452.818722 66.326299 
L 453.286305 66.326299 
L 453.753889 65.040945 
L 454.221472 65.040945 
L 454.689056 63.755591 
L 455.156595 63.755591 
L 455.624178 62.470236 
L 456.091761 62.470236 
L 456.559345 61.184882 
L 457.494467 61.184882 
L 457.96205 59.899528 
L 458.897173 59.899528 
L 459.364756 58.614173 
L 460.767462 58.614173 
L 461.235045 57.328819 
L 463.572918 57.328819 
L 464.040501 56.043465 
L 471.521658 56.043465 
L 471.989241 57.328819 
L 474.794653 57.328819 
L 475.262236 58.614173 
L 476.664942 58.614173 
L 477.132525 59.899528 
L 478.535231 59.899528 
L 479.002814 61.184882 
L 479.937981 61.184882 
L 480.40552 62.470236 
L 481.340687 62.470236 
L 481.80827 63.755591 
L 482.743393 63.755591 
L 483.210976 65.040945 
L 483.678559 65.040945 
L 484.146098 66.326299 
L 485.081265 66.326299 
L 485.548849 67.611654 
L 486.016387 67.611654 
L 486.483971 68.897008 
L 486.951554 68.897008 
L 487.419138 70.182362 
L 488.35426 70.182362 
L 488.821843 71.467717 
L 489.75701 71.467717 
L 490.224549 72.753071 
L 491.159716 72.753071 
L 491.627299 74.038425 
L 492.094838 74.038425 
L 492.562422 75.32378 
L 493.497588 75.32378 
L 493.965127 76.609134 
L 494.900294 76.609134 
L 495.367878 77.894488 
L 496.770583 77.894488 
L 497.238167 79.179843 
L 498.173289 79.179843 
L 498.640872 80.465197 
L 500.511162 80.465197 
L 500.978745 81.750551 
L 503.316618 81.750551 
L 503.784156 83.035906 
L 505.654445 83.035906 
L 506.122029 84.32126 
L 507.992318 84.32126 
L 508.459901 85.606614 
L 509.862607 85.606614 
L 510.330191 86.891969 
L 511.265313 86.891969 
L 511.732896 88.177323 
L 512.668063 88.177323 
L 513.135602 89.462677 
L 513.603185 89.462677 
L 514.070769 90.748031 
L 514.538352 90.748031 
L 515.005936 92.033386 
L 515.473475 92.033386 
L 516.408641 94.604094 
L 516.876225 94.604094 
L 518.278931 98.460157 
L 518.746514 98.460157 
L 531.370954 133.164724 
L 531.838538 133.164724 
L 533.241244 137.020787 
L 533.708827 137.020787 
L 534.17641 138.306142 
L 534.643949 138.306142 
L 535.111533 139.591496 
L 535.579116 139.591496 
L 536.0467 140.87685 
L 537.449405 140.87685 
L 537.916989 142.162205 
L 537.916989 142.162205 
" style="fill:none;stroke:#1f77b4;stroke-linecap:square;stroke-opacity:0.8;stroke-width:1.5;"/>
   </g>
   <g id="line2d_18">
    <path clip-path="url(#p3cc150a217)" d="M 70.344261 66.326299 
L 71.74698 66.326299 
L 72.214552 67.611654 
L 72.682125 67.611654 
L 73.149698 68.897008 
L 74.552416 68.897008 
L 75.019988 70.182362 
L 75.487561 70.182362 
L 75.955134 71.467717 
L 76.422707 71.467717 
L 76.89028 72.753071 
L 77.357852 72.753071 
L 77.825425 74.038425 
L 78.292998 74.038425 
L 78.76057 75.32378 
L 79.228143 75.32378 
L 79.695715 76.609134 
L 80.163288 76.609134 
L 80.630861 77.894488 
L 81.098434 77.894488 
L 81.566007 79.179843 
L 82.03358 79.179843 
L 82.968724 81.750551 
L 83.436298 81.750551 
L 83.90387 83.035906 
L 84.371442 83.035906 
L 84.839016 84.32126 
L 85.306588 84.32126 
L 85.774161 85.606614 
L 86.241734 85.606614 
L 86.709307 86.891969 
L 87.176879 86.891969 
L 87.644452 88.177323 
L 88.112025 88.177323 
L 88.579597 89.462677 
L 89.514743 89.462677 
L 89.982315 90.748031 
L 90.449888 90.748031 
L 90.917461 92.033386 
L 91.385034 92.033386 
L 91.852606 93.31874 
L 92.787752 93.31874 
L 93.255324 94.604094 
L 93.722898 94.604094 
L 94.19047 95.889449 
L 95.125615 95.889449 
L 95.593187 97.174803 
L 96.995906 97.174803 
L 97.463479 98.460157 
L 98.398623 98.460157 
L 98.866198 99.745512 
L 100.736488 99.745512 
L 101.20406 101.030866 
L 103.074352 101.030866 
L 103.541924 102.31622 
L 106.814933 102.31622 
L 107.282505 103.601575 
L 110.555514 103.601575 
L 111.023089 102.31622 
L 113.828525 102.31622 
L 114.296098 101.030866 
L 115.698814 101.030866 
L 116.166387 99.745512 
L 117.101534 99.745512 
L 117.569106 98.460157 
L 118.504251 98.460157 
L 118.971823 97.174803 
L 119.906968 97.174803 
L 120.37454 95.889449 
L 121.30969 95.889449 
L 121.777262 94.604094 
L 122.712407 94.604094 
L 123.179979 93.31874 
L 123.647552 93.31874 
L 124.115124 92.033386 
L 125.050268 92.033386 
L 125.517841 90.748031 
L 126.452985 90.748031 
L 126.920558 89.462677 
L 127.855708 89.462677 
L 128.32328 88.177323 
L 129.258425 88.177323 
L 129.725997 86.891969 
L 131.128714 86.891969 
L 131.596286 85.606614 
L 133.466581 85.606614 
L 133.934153 84.32126 
L 139.545026 84.32126 
L 140.012598 85.606614 
L 141.882887 85.606614 
L 142.35046 86.891969 
L 143.753176 86.891969 
L 144.220749 88.177323 
L 145.155893 88.177323 
L 145.623471 89.462677 
L 146.558616 89.462677 
L 147.026188 90.748031 
L 147.961333 90.748031 
L 148.428905 92.033386 
L 149.364049 92.033386 
L 149.831622 93.31874 
L 151.234344 93.31874 
L 151.701916 94.604094 
L 153.104633 94.604094 
L 153.572205 95.889449 
L 161.053368 95.889449 
L 161.52094 94.604094 
L 162.923657 94.604094 
L 163.391235 93.31874 
L 164.326379 93.31874 
L 164.793951 92.033386 
L 165.261524 92.033386 
L 165.729096 90.748031 
L 166.664241 90.748031 
L 167.131813 89.462677 
L 167.599385 89.462677 
L 168.53453 86.891969 
L 169.002102 86.891969 
L 169.469674 85.606614 
L 169.937246 85.606614 
L 170.404819 84.32126 
L 170.872391 84.32126 
L 171.807536 81.750551 
L 172.275119 81.750551 
L 172.742691 80.465197 
L 173.210264 80.465197 
L 174.145408 77.894488 
L 174.61298 77.894488 
L 175.080553 76.609134 
L 175.548125 76.609134 
L 176.015697 75.32378 
L 176.48327 75.32378 
L 176.950842 74.038425 
L 177.418414 74.038425 
L 177.885986 72.753071 
L 178.353559 72.753071 
L 178.821131 71.467717 
L 179.288703 71.467717 
L 179.756276 70.182362 
L 180.69142 70.182362 
L 181.158992 68.897008 
L 183.029282 68.897008 
L 183.496854 67.611654 
L 187.705015 67.611654 
L 188.172588 68.897008 
L 189.575305 68.897008 
L 190.042877 70.182362 
L 190.978021 70.182362 
L 191.445594 71.467717 
L 192.380738 71.467717 
L 192.848311 72.753071 
L 193.315883 72.753071 
L 193.783455 74.038425 
L 194.251027 74.038425 
L 194.7186 75.32378 
L 195.186172 75.32378 
L 195.653744 76.609134 
L 196.121328 76.609134 
L 197.056472 79.179843 
L 197.524045 79.179843 
L 197.991617 80.465197 
L 198.459189 80.465197 
L 199.394334 83.035906 
L 199.861906 83.035906 
L 200.329478 84.32126 
L 200.79705 84.32126 
L 201.732195 86.891969 
L 202.199767 86.891969 
L 202.66734 88.177323 
L 203.134912 88.177323 
L 204.070056 90.748031 
L 204.537629 90.748031 
L 205.005201 92.033386 
L 205.472773 92.033386 
L 205.940346 93.31874 
L 206.407918 93.31874 
L 206.87549 94.604094 
L 207.343062 94.604094 
L 208.278218 97.174803 
L 209.213363 97.174803 
L 209.680935 98.460157 
L 210.148507 98.460157 
L 210.61608 99.745512 
L 211.551224 99.745512 
L 212.018796 101.030866 
L 212.486369 101.030866 
L 212.953941 102.31622 
L 214.356658 102.31622 
L 214.82423 103.601575 
L 216.226947 103.601575 
L 216.694519 104.886929 
L 226.045976 104.886929 
L 226.513548 103.601575 
L 228.383837 103.601575 
L 228.85141 102.31622 
L 230.254127 102.31622 
L 230.721699 101.030866 
L 232.124427 101.030866 
L 232.591999 99.745512 
L 233.527144 99.745512 
L 233.994716 98.460157 
L 234.92986 98.460157 
L 235.397433 97.174803 
L 236.332577 97.174803 
L 236.80015 95.889449 
L 237.735294 95.889449 
L 238.202866 94.604094 
L 239.138011 94.604094 
L 239.605583 93.31874 
L 240.540728 93.31874 
L 241.0083 92.033386 
L 241.943445 92.033386 
L 242.411017 90.748031 
L 243.346162 90.748031 
L 243.813734 89.462677 
L 245.216462 89.462677 
L 245.684034 88.177323 
L 246.619179 88.177323 
L 247.086751 86.891969 
L 248.489468 86.891969 
L 248.95704 85.606614 
L 250.827329 85.606614 
L 251.294901 84.32126 
L 257.373352 84.32126 
L 257.840913 85.606614 
L 259.711203 85.606614 
L 260.178786 86.891969 
L 261.581492 86.891969 
L 262.049075 88.177323 
L 263.451803 88.177323 
L 263.919364 89.462677 
L 264.854509 89.462677 
L 265.322092 90.748031 
L 266.257237 90.748031 
L 266.724798 92.033386 
L 268.127526 92.033386 
L 268.595087 93.31874 
L 269.530232 93.31874 
L 269.997815 94.604094 
L 271.868104 94.604094 
L 272.335665 95.889449 
L 278.8817 95.889449 
L 279.349261 94.604094 
L 280.751989 94.604094 
L 281.21955 93.31874 
L 282.154694 93.31874 
L 282.622278 92.033386 
L 283.089839 92.033386 
L 283.557422 90.748031 
L 284.492567 90.748031 
L 284.960128 89.462677 
L 285.427711 89.462677 
L 285.895295 88.177323 
L 286.362856 88.177323 
L 287.298001 85.606614 
L 287.765584 85.606614 
L 288.233145 84.32126 
L 288.700729 84.32126 
L 289.635873 81.750551 
L 290.103434 81.750551 
L 290.571018 80.465197 
L 291.038579 80.465197 
L 291.973723 77.894488 
L 292.441307 77.894488 
L 292.908868 76.609134 
L 293.376451 76.609134 
L 293.844013 75.32378 
L 294.311596 75.32378 
L 294.779157 74.038425 
L 295.246741 74.038425 
L 295.714302 72.753071 
L 296.181885 72.753071 
L 296.649446 71.467717 
L 297.11703 71.467717 
L 297.584591 70.182362 
L 298.519758 70.182362 
L 298.987319 68.897008 
L 299.922463 68.897008 
L 300.390047 67.611654 
L 306.468475 67.611654 
L 306.936059 68.897008 
L 308.338764 68.897008 
L 308.806348 70.182362 
L 309.741492 70.182362 
L 310.209076 71.467717 
L 310.676637 71.467717 
L 311.14422 72.753071 
L 311.611782 72.753071 
L 312.079365 74.038425 
L 312.546926 74.038425 
L 313.014509 75.32378 
L 313.482071 75.32378 
L 313.949654 76.609134 
L 314.417215 76.609134 
L 315.35236 79.179843 
L 315.819943 79.179843 
L 316.755088 81.750551 
L 317.222649 81.750551 
L 317.690232 83.035906 
L 318.157793 83.035906 
L 319.092938 85.606614 
L 319.560521 85.606614 
L 320.495666 88.177323 
L 320.963227 88.177323 
L 321.430811 89.462677 
L 321.898394 89.462677 
L 322.833539 92.033386 
L 323.3011 92.033386 
L 323.768683 93.31874 
L 324.236244 93.31874 
L 324.703828 94.604094 
L 325.171389 94.604094 
L 325.638972 95.889449 
L 326.106533 95.889449 
L 326.574117 97.174803 
L 327.041678 97.174803 
L 327.509261 98.460157 
L 328.444406 98.460157 
L 328.911967 99.745512 
L 329.847112 99.745512 
L 330.314695 101.030866 
L 331.24984 101.030866 
L 331.717401 102.31622 
L 333.58769 102.31622 
L 334.055273 103.601575 
L 337.795852 103.601575 
L 338.263435 104.886929 
L 341.53643 104.886929 
L 342.004013 103.601575 
L 346.212175 103.601575 
L 346.679736 102.31622 
L 349.48517 102.31622 
L 349.952753 101.030866 
L 351.823042 101.030866 
L 352.290603 99.745512 
L 354.160893 99.745512 
L 354.628476 98.460157 
L 356.031182 98.460157 
L 356.498765 97.174803 
L 357.901493 97.174803 
L 358.369054 95.889449 
L 359.771782 95.889449 
L 360.239343 94.604094 
L 361.642071 94.604094 
L 362.109632 93.31874 
L 363.51236 93.31874 
L 363.979922 92.033386 
L 365.38265 92.033386 
L 365.850211 90.748031 
L 367.252939 90.748031 
L 367.7205 89.462677 
L 370.525956 89.462677 
L 370.993517 88.177323 
L 379.877401 88.177323 
L 380.344963 89.462677 
L 383.150419 89.462677 
L 383.61798 90.748031 
L 385.955852 90.748031 
L 386.423413 92.033386 
L 390.163992 92.033386 
L 390.631575 93.31874 
L 393.904592 93.31874 
L 394.372153 92.033386 
L 397.177587 92.033386 
L 397.64517 90.748031 
L 399.047876 90.748031 
L 399.51546 89.462677 
L 400.450604 89.462677 
L 400.918165 88.177323 
L 401.85331 88.177323 
L 402.320893 86.891969 
L 402.788454 86.891969 
L 403.256038 85.606614 
L 403.723599 85.606614 
L 404.191182 84.32126 
L 404.658744 84.32126 
L 405.126327 83.035906 
L 405.59391 83.035906 
L 406.061472 81.750551 
L 406.529055 81.750551 
L 406.996616 80.465197 
L 407.4642 80.465197 
L 407.931761 79.179843 
L 408.399344 79.179843 
L 408.866905 77.894488 
L 409.334489 77.894488 
L 409.80205 76.609134 
L 410.269633 76.609134 
L 410.737194 75.32378 
L 411.204778 75.32378 
L 411.672339 74.038425 
L 412.139922 74.038425 
L 412.607483 72.753071 
L 413.075067 72.753071 
L 413.542628 71.467717 
L 414.477773 71.467717 
L 414.945356 70.182362 
L 415.880501 70.182362 
L 416.348062 68.897008 
L 418.218373 68.897008 
L 418.685934 67.611654 
L 422.426513 67.611654 
L 422.894096 68.897008 
L 424.764385 68.897008 
L 425.231946 70.182362 
L 426.167091 70.182362 
L 426.634674 71.467717 
L 427.569819 71.467717 
L 428.03738 72.753071 
L 428.504963 72.753071 
L 428.972524 74.038425 
L 429.440108 74.038425 
L 429.907691 75.32378 
L 430.375252 75.32378 
L 430.842836 76.609134 
L 431.310397 76.609134 
L 432.245542 79.179843 
L 432.713125 79.179843 
L 433.180686 80.465197 
L 433.64827 80.465197 
L 434.583414 83.035906 
L 435.050975 83.035906 
L 435.98612 85.606614 
L 436.453703 85.606614 
L 436.921264 86.891969 
L 437.388848 86.891969 
L 438.323992 89.462677 
L 438.791554 89.462677 
L 439.259137 90.748031 
L 439.726698 90.748031 
L 440.194282 92.033386 
L 440.661843 92.033386 
L 441.129426 93.31874 
L 441.597009 93.31874 
L 442.064571 94.604094 
L 442.532154 94.604094 
L 442.999715 95.889449 
L 443.467299 95.889449 
L 443.93486 97.174803 
L 444.870027 97.174803 
L 445.337565 98.460157 
L 445.805149 98.460157 
L 446.272732 99.745512 
L 447.207855 99.745512 
L 447.675438 101.030866 
L 449.078144 101.030866 
L 449.545727 102.31622 
L 451.416016 102.31622 
L 451.8836 103.601575 
L 454.689056 103.601575 
L 455.156595 104.886929 
L 466.845913 104.886929 
L 467.313496 103.601575 
L 470.586491 103.601575 
L 471.054074 102.31622 
L 473.391947 102.31622 
L 473.85953 101.030866 
L 475.262236 101.030866 
L 475.729819 99.745512 
L 477.132525 99.745512 
L 477.600109 98.460157 
L 479.002814 98.460157 
L 479.470398 97.174803 
L 480.40552 97.174803 
L 480.873103 95.889449 
L 482.275809 95.889449 
L 482.743393 94.604094 
L 483.678559 94.604094 
L 484.146098 93.31874 
L 485.548849 93.31874 
L 486.016387 92.033386 
L 487.419138 92.033386 
L 487.886676 90.748031 
L 489.75701 90.748031 
L 490.224549 89.462677 
L 493.497588 89.462677 
L 493.965127 88.177323 
L 496.770583 88.177323 
L 497.238167 89.462677 
L 504.25174 89.462677 
L 504.719323 90.748031 
L 510.330191 90.748031 
L 510.797774 89.462677 
L 513.603185 89.462677 
L 514.070769 88.177323 
L 515.473475 88.177323 
L 515.941058 86.891969 
L 516.876225 86.891969 
L 517.343764 85.606614 
L 518.278931 85.606614 
L 518.746514 84.32126 
L 519.214053 84.32126 
L 519.681636 83.035906 
L 520.14922 83.035906 
L 520.616803 81.750551 
L 521.084342 81.750551 
L 521.551925 80.465197 
L 522.019509 80.465197 
L 522.487092 79.179843 
L 522.954631 79.179843 
L 523.422214 77.894488 
L 523.889798 77.894488 
L 524.357381 76.609134 
L 524.82492 76.609134 
L 525.292504 75.32378 
L 525.760087 75.32378 
L 526.22767 74.038425 
L 526.695254 74.038425 
L 527.162793 72.753071 
L 527.630376 72.753071 
L 528.09796 71.467717 
L 528.565543 71.467717 
L 529.033082 70.182362 
L 529.968249 70.182362 
L 530.435832 68.897008 
L 531.370954 68.897008 
L 531.838538 67.611654 
L 532.77366 67.611654 
L 533.241244 66.326299 
L 537.916989 66.326299 
L 537.916989 66.326299 
" style="fill:none;stroke:#ff7f0e;stroke-linecap:square;stroke-opacity:0.8;stroke-width:1.5;"/>
   </g>
   <g id="line2d_19">
    <path clip-path="url(#p3cc150a217)" d="M 70.344261 137.020787 
L 70.811834 137.020787 
L 71.279407 135.735433 
L 75.487561 135.735433 
L 75.955134 134.450079 
L 76.89028 134.450079 
L 77.357852 133.164724 
L 78.292998 133.164724 
L 78.76057 131.87937 
L 79.695715 131.87937 
L 80.163288 130.594016 
L 81.098434 130.594016 
L 81.566007 129.308661 
L 82.501152 129.308661 
L 82.968724 128.023307 
L 83.436298 128.023307 
L 83.90387 126.737953 
L 84.839016 126.737953 
L 85.306588 125.452598 
L 85.774161 125.452598 
L 86.241734 124.167244 
L 87.176879 124.167244 
L 87.644452 122.88189 
L 88.579597 122.88189 
L 89.047169 121.596535 
L 89.982315 121.596535 
L 90.449888 120.311181 
L 91.852606 120.311181 
L 92.320179 119.025827 
L 94.19047 119.025827 
L 94.658042 117.740472 
L 96.528334 117.740472 
L 96.995906 116.455118 
L 97.931051 116.455118 
L 98.398623 115.169764 
L 99.801343 115.169764 
L 100.268915 113.884409 
L 101.20406 113.884409 
L 101.671632 112.599055 
L 102.139207 112.599055 
L 102.606779 111.313701 
L 103.541924 111.313701 
L 104.009496 110.028346 
L 104.477069 110.028346 
L 104.944644 108.742992 
L 105.412216 108.742992 
L 105.879788 107.457638 
L 106.34736 107.457638 
L 106.814933 106.172283 
L 107.282505 106.172283 
L 108.217652 103.601575 
L 108.685225 103.601575 
L 110.087942 99.745512 
L 110.555514 99.745512 
L 112.425806 94.604094 
L 112.893378 94.604094 
L 126.920558 56.043465 
L 127.388135 56.043465 
L 129.258425 50.902047 
L 129.725997 50.902047 
L 130.661141 48.331339 
L 131.128714 48.331339 
L 131.596286 47.045984 
L 132.063858 47.045984 
L 132.531431 45.76063 
L 132.999003 45.76063 
L 133.466581 44.475276 
L 134.401725 44.475276 
L 134.869298 43.189921 
L 135.804442 43.189921 
L 136.272014 41.904567 
L 140.947743 41.904567 
L 141.415315 43.189921 
L 142.818032 43.189921 
L 143.285604 44.475276 
L 144.688321 44.475276 
L 145.155893 45.76063 
L 146.091043 45.76063 
L 146.558616 47.045984 
L 147.026188 47.045984 
L 147.49376 48.331339 
L 148.428905 48.331339 
L 148.896477 49.616693 
L 149.364049 49.616693 
L 149.831622 50.902047 
L 150.299194 50.902047 
L 151.234344 53.472756 
L 151.701916 53.472756 
L 152.169489 54.75811 
L 152.637061 54.75811 
L 153.572205 57.328819 
L 154.039778 57.328819 
L 154.50735 58.614173 
L 154.974922 58.614173 
L 156.377639 62.470236 
L 156.845211 62.470236 
L 157.780362 65.040945 
L 158.247934 65.040945 
L 160.118223 70.182362 
L 160.585795 70.182362 
L 162.923657 76.609134 
L 163.391235 76.609134 
L 177.418414 115.169764 
L 177.885986 115.169764 
L 179.288703 119.025827 
L 179.756276 119.025827 
L 180.69142 121.596535 
L 181.158992 121.596535 
L 182.094137 124.167244 
L 182.561709 124.167244 
L 183.029282 125.452598 
L 183.496854 125.452598 
L 183.964426 126.737953 
L 184.899582 126.737953 
L 185.367154 128.023307 
L 186.769871 128.023307 
L 187.237443 129.308661 
L 191.445594 129.308661 
L 191.913166 128.023307 
L 193.783455 128.023307 
L 194.251027 126.737953 
L 195.653744 126.737953 
L 196.121328 125.452598 
L 197.056472 125.452598 
L 197.524045 124.167244 
L 198.459189 124.167244 
L 198.926761 122.88189 
L 199.861906 122.88189 
L 200.329478 121.596535 
L 201.264623 121.596535 
L 201.732195 120.311181 
L 202.66734 120.311181 
L 203.134912 119.025827 
L 204.070056 119.025827 
L 204.537629 117.740472 
L 205.940346 117.740472 
L 206.407918 116.455118 
L 208.74579 116.455118 
L 209.213363 115.169764 
L 211.551224 115.169764 
L 212.018796 113.884409 
L 214.82423 113.884409 
L 215.291802 112.599055 
L 217.162091 112.599055 
L 217.629664 111.313701 
L 219.032381 111.313701 
L 219.499953 110.028346 
L 220.435109 110.028346 
L 220.902681 108.742992 
L 221.837825 108.742992 
L 222.305398 107.457638 
L 222.77297 107.457638 
L 223.240542 106.172283 
L 223.708115 106.172283 
L 224.175687 104.886929 
L 224.643259 104.886929 
L 225.110831 103.601575 
L 225.578404 103.601575 
L 226.513548 101.030866 
L 226.981121 101.030866 
L 228.383837 97.174803 
L 228.85141 97.174803 
L 236.80015 75.32378 
L 237.267722 72.753071 
L 244.281317 53.472756 
L 244.74889 53.472756 
L 246.619179 48.331339 
L 247.086751 48.331339 
L 248.021895 45.76063 
L 248.489468 45.76063 
L 248.95704 44.475276 
L 249.424612 44.475276 
L 249.892185 43.189921 
L 250.359757 43.189921 
L 250.827329 41.904567 
L 251.762474 41.904567 
L 252.230046 40.619213 
L 256.90578 40.619213 
L 257.373352 41.904567 
L 258.308497 41.904567 
L 258.776058 43.189921 
L 259.711203 43.189921 
L 260.178786 44.475276 
L 260.646347 44.475276 
L 261.113931 45.76063 
L 261.581492 45.76063 
L 262.049075 47.045984 
L 262.516659 47.045984 
L 262.98422 48.331339 
L 263.451803 48.331339 
L 263.919364 49.616693 
L 264.386948 49.616693 
L 265.322092 52.187402 
L 265.789653 52.187402 
L 266.257237 53.472756 
L 266.724798 53.472756 
L 267.659942 56.043465 
L 268.127526 56.043465 
L 269.06267 58.614173 
L 269.530232 58.614173 
L 269.997815 59.899528 
L 270.465376 59.899528 
L 271.400521 62.470236 
L 271.868104 62.470236 
L 272.803249 65.040945 
L 273.27081 65.040945 
L 274.205977 67.611654 
L 274.673538 67.611654 
L 275.608682 70.182362 
L 276.076266 70.182362 
L 277.01141 72.753071 
L 277.478972 72.753071 
L 278.8817 76.609134 
L 279.349261 76.609134 
L 281.21955 81.750551 
L 281.687133 81.750551 
L 284.024983 88.177323 
L 284.492567 88.177323 
L 288.233145 98.460157 
L 288.700729 98.460157 
L 292.441307 108.742992 
L 292.908868 108.742992 
L 294.779157 113.884409 
L 295.246741 113.884409 
L 296.649446 117.740472 
L 297.11703 117.740472 
L 298.052174 120.311181 
L 298.519758 120.311181 
L 298.987319 121.596535 
L 299.454902 121.596535 
L 299.922463 122.88189 
L 300.390047 122.88189 
L 300.857608 124.167244 
L 301.325191 124.167244 
L 301.792752 125.452598 
L 303.19548 125.452598 
L 303.663042 126.737953 
L 309.741492 126.737953 
L 310.209076 125.452598 
L 311.611782 125.452598 
L 312.079365 124.167244 
L 313.014509 124.167244 
L 313.482071 122.88189 
L 314.417215 122.88189 
L 314.884799 121.596535 
L 315.819943 121.596535 
L 316.287504 120.311181 
L 317.222649 120.311181 
L 317.690232 119.025827 
L 318.625377 119.025827 
L 319.092938 117.740472 
L 320.028083 117.740472 
L 320.495666 116.455118 
L 321.898394 116.455118 
L 322.365955 115.169764 
L 323.768683 115.169764 
L 324.236244 113.884409 
L 326.574117 113.884409 
L 327.041678 112.599055 
L 331.717401 112.599055 
L 332.184984 111.313701 
L 334.522857 111.313701 
L 334.990418 110.028346 
L 336.860707 110.028346 
L 337.32829 108.742992 
L 338.263435 108.742992 
L 338.730996 107.457638 
L 339.666141 107.457638 
L 340.133724 106.172283 
L 340.601285 106.172283 
L 341.068869 104.886929 
L 341.53643 104.886929 
L 342.471574 102.31622 
L 342.939158 102.31622 
L 343.874302 99.745512 
L 344.341863 99.745512 
L 346.212175 94.604094 
L 346.679736 94.604094 
L 349.952753 85.606614 
L 350.420314 83.035906 
L 353.225748 75.32378 
L 353.693331 72.753071 
L 355.563621 67.611654 
L 356.031182 65.040945 
L 362.109632 48.331339 
L 362.577216 48.331339 
L 363.979922 44.475276 
L 364.447505 44.475276 
L 364.915066 43.189921 
L 365.38265 43.189921 
L 365.850211 41.904567 
L 366.317794 41.904567 
L 366.785355 40.619213 
L 367.7205 40.619213 
L 368.188083 39.333858 
L 373.33139 39.333858 
L 373.798951 40.619213 
L 374.734095 40.619213 
L 375.201679 41.904567 
L 376.136823 41.904567 
L 376.604384 43.189921 
L 377.071968 43.189921 
L 377.539529 44.475276 
L 378.007112 44.475276 
L 378.474673 45.76063 
L 378.942257 45.76063 
L 379.877401 48.331339 
L 380.344963 48.331339 
L 381.280107 50.902047 
L 381.747691 50.902047 
L 382.682835 53.472756 
L 383.150419 53.472756 
L 384.085563 56.043465 
L 384.553124 56.043465 
L 385.955852 59.899528 
L 386.423413 59.899528 
L 387.358558 62.470236 
L 387.826141 62.470236 
L 388.761286 65.040945 
L 389.228847 65.040945 
L 390.163992 67.611654 
L 390.631575 67.611654 
L 391.56672 70.182362 
L 392.034281 70.182362 
L 392.969425 72.753071 
L 393.437009 72.753071 
L 394.372153 75.32378 
L 394.839737 75.32378 
L 396.242442 79.179843 
L 396.710026 79.179843 
L 398.112732 83.035906 
L 398.580315 83.035906 
L 399.983021 86.891969 
L 400.450604 86.891969 
L 403.256038 94.604094 
L 403.723599 94.604094 
L 405.59391 99.745512 
L 406.061472 99.745512 
L 408.399344 106.172283 
L 408.866905 106.172283 
L 410.269633 110.028346 
L 410.737194 110.028346 
L 412.139922 113.884409 
L 412.607483 113.884409 
L 413.542628 116.455118 
L 414.477773 116.455118 
L 415.412917 119.025827 
L 415.880501 119.025827 
L 416.348062 120.311181 
L 416.815645 120.311181 
L 417.283206 121.596535 
L 418.218373 121.596535 
L 418.685934 122.88189 
L 420.088662 122.88189 
L 420.556223 124.167244 
L 427.569819 124.167244 
L 428.03738 122.88189 
L 429.907691 122.88189 
L 430.375252 121.596535 
L 431.77798 121.596535 
L 432.245542 120.311181 
L 433.64827 120.311181 
L 434.115831 119.025827 
L 435.518559 119.025827 
L 435.98612 117.740472 
L 437.388848 117.740472 
L 437.856409 116.455118 
L 439.726698 116.455118 
L 440.194282 115.169764 
L 442.999715 115.169764 
L 443.467299 113.884409 
L 449.545727 113.884409 
L 450.013311 112.599055 
L 452.351183 112.599055 
L 452.818722 111.313701 
L 454.221472 111.313701 
L 454.689056 110.028346 
L 455.624178 110.028346 
L 456.091761 108.742992 
L 457.026884 108.742992 
L 457.494467 107.457638 
L 457.96205 107.457638 
L 458.429634 106.172283 
L 458.897173 106.172283 
L 459.364756 104.886929 
L 459.83234 104.886929 
L 460.767462 102.31622 
L 461.235045 102.31622 
L 463.105334 97.174803 
L 463.572918 97.174803 
L 466.845913 88.177323 
L 467.313496 85.606614 
L 469.651369 79.179843 
L 470.118952 76.609134 
L 471.521658 72.753071 
L 471.989241 70.182362 
L 473.85953 65.040945 
L 474.327069 62.470236 
L 476.197358 57.328819 
L 476.664942 54.75811 
L 479.470398 47.045984 
L 479.937981 47.045984 
L 481.340687 43.189921 
L 481.80827 43.189921 
L 482.275809 41.904567 
L 482.743393 41.904567 
L 483.210976 40.619213 
L 483.678559 40.619213 
L 484.146098 39.333858 
L 485.081265 39.333858 
L 485.548849 38.048504 
L 486.951554 38.048504 
L 487.419138 36.76315 
L 488.35426 36.76315 
L 488.821843 38.048504 
L 490.692132 38.048504 
L 491.159716 39.333858 
L 492.562422 39.333858 
L 493.030005 40.619213 
L 493.497588 40.619213 
L 493.965127 41.904567 
L 494.432711 41.904567 
L 494.900294 43.189921 
L 495.367878 43.189921 
L 495.835416 44.475276 
L 496.303 44.475276 
L 497.238167 47.045984 
L 497.705706 47.045984 
L 498.640872 49.616693 
L 499.108456 49.616693 
L 500.043578 52.187402 
L 500.511162 52.187402 
L 501.446328 54.75811 
L 501.913867 54.75811 
L 503.784156 59.899528 
L 504.25174 59.899528 
L 505.654445 63.755591 
L 506.122029 63.755591 
L 507.524735 67.611654 
L 507.992318 67.611654 
L 509.395024 71.467717 
L 509.862607 71.467717 
L 511.265313 75.32378 
L 511.732896 75.32378 
L 513.135602 79.179843 
L 513.603185 79.179843 
L 515.473475 84.32126 
L 515.941058 84.32126 
L 518.278931 90.748031 
L 518.746514 90.748031 
L 521.084342 97.174803 
L 521.551925 97.174803 
L 524.357381 104.886929 
L 524.82492 104.886929 
L 526.695254 110.028346 
L 527.162793 110.028346 
L 528.09796 112.599055 
L 528.565543 112.599055 
L 529.500665 115.169764 
L 529.968249 115.169764 
L 530.435832 116.455118 
L 530.903371 116.455118 
L 531.838538 119.025827 
L 532.306121 119.025827 
L 532.77366 120.311181 
L 533.708827 120.311181 
L 534.17641 121.596535 
L 534.643949 121.596535 
L 535.111533 122.88189 
L 536.514238 122.88189 
L 536.981822 124.167244 
L 537.916989 124.167244 
L 537.916989 124.167244 
" style="fill:none;stroke:#2ca02c;stroke-linecap:square;stroke-opacity:0.8;stroke-width:1.5;"/>
   </g>
   <g id="line2d_20">
    <path clip-path="url(#p3cc150a217)" d="M 70.344261 110.028346 
L 72.682125 116.455118 
L 73.149698 119.025827 
L 75.955134 126.737953 
L 76.422707 126.737953 
L 77.357852 129.308661 
L 77.825425 129.308661 
L 78.76057 131.87937 
L 79.695715 131.87937 
L 80.163288 133.164724 
L 81.098434 133.164724 
L 81.566007 134.450079 
L 84.839016 134.450079 
L 85.306588 133.164724 
L 86.241734 133.164724 
L 86.709307 131.87937 
L 87.176879 131.87937 
L 87.644452 130.594016 
L 88.579597 130.594016 
L 89.514743 128.023307 
L 89.982315 128.023307 
L 90.917461 125.452598 
L 91.385034 125.452598 
L 92.320179 122.88189 
L 92.787752 122.88189 
L 94.19047 119.025827 
L 94.658042 119.025827 
L 96.060762 115.169764 
L 96.528334 115.169764 
L 97.931051 111.313701 
L 98.398623 111.313701 
L 99.801343 107.457638 
L 100.268915 107.457638 
L 101.671632 103.601575 
L 102.139207 103.601575 
L 103.074352 101.030866 
L 103.541924 101.030866 
L 104.009496 99.745512 
L 104.477069 99.745512 
L 105.412216 97.174803 
L 105.879788 97.174803 
L 106.814933 94.604094 
L 107.282505 94.604094 
L 107.750077 93.31874 
L 108.217652 93.31874 
L 108.685225 92.033386 
L 109.152797 92.033386 
L 109.620369 90.748031 
L 110.087942 90.748031 
L 110.555514 89.462677 
L 111.023089 89.462677 
L 111.490661 88.177323 
L 111.958233 88.177323 
L 112.425806 86.891969 
L 112.893378 86.891969 
L 113.36095 85.606614 
L 114.296098 85.606614 
L 114.76367 84.32126 
L 115.231242 84.32126 
L 115.698814 83.035906 
L 116.633959 83.035906 
L 117.101534 81.750551 
L 118.036679 81.750551 
L 118.504251 80.465197 
L 119.906968 80.465197 
L 120.37454 79.179843 
L 121.30969 79.179843 
L 121.777262 77.894488 
L 123.179979 77.894488 
L 123.647552 76.609134 
L 125.517841 76.609134 
L 125.985413 75.32378 
L 129.258425 75.32378 
L 129.725997 74.038425 
L 145.155893 74.038425 
L 145.623471 72.753071 
L 148.896477 72.753071 
L 149.364049 71.467717 
L 151.234344 71.467717 
L 151.701916 70.182362 
L 152.637061 70.182362 
L 153.104633 68.897008 
L 154.039778 68.897008 
L 154.50735 67.611654 
L 155.442495 67.611654 
L 155.910067 66.326299 
L 156.845211 66.326299 
L 157.312789 65.040945 
L 158.247934 65.040945 
L 158.715506 63.755591 
L 159.650651 63.755591 
L 160.118223 62.470236 
L 161.52094 62.470236 
L 161.988512 61.184882 
L 163.391235 61.184882 
L 163.858807 59.899528 
L 168.066957 59.899528 
L 168.53453 61.184882 
L 169.937246 61.184882 
L 170.404819 62.470236 
L 170.872391 62.470236 
L 171.339963 63.755591 
L 171.807536 63.755591 
L 172.275119 65.040945 
L 172.742691 65.040945 
L 173.677836 67.611654 
L 174.145408 67.611654 
L 177.885986 77.894488 
L 178.353559 80.465197 
L 179.288703 83.035906 
L 179.756276 85.606614 
L 180.69142 88.177323 
L 181.158992 90.748031 
L 181.626565 92.033386 
L 182.561709 97.174803 
L 183.496854 99.745512 
L 183.964426 102.31622 
L 184.432009 103.601575 
L 184.899582 106.172283 
L 185.367154 107.457638 
L 185.834726 110.028346 
L 186.769871 112.599055 
L 187.237443 115.169764 
L 187.705015 116.455118 
L 188.172588 119.025827 
L 189.575305 122.88189 
L 190.042877 125.452598 
L 192.848311 133.164724 
L 193.315883 133.164724 
L 194.7186 137.020787 
L 195.186172 137.020787 
L 195.653744 138.306142 
L 196.121328 138.306142 
L 196.5889 139.591496 
L 197.991617 139.591496 
L 198.459189 140.87685 
L 200.329478 140.87685 
L 200.79705 139.591496 
L 202.199767 139.591496 
L 202.66734 138.306142 
L 203.134912 138.306142 
L 203.602484 137.020787 
L 204.070056 137.020787 
L 204.537629 135.735433 
L 205.005201 135.735433 
L 205.940346 133.164724 
L 206.407918 133.164724 
L 207.810635 129.308661 
L 208.278218 129.308661 
L 213.889086 113.884409 
L 214.356658 113.884409 
L 218.564808 102.31622 
L 219.032381 102.31622 
L 220.902681 97.174803 
L 221.370253 97.174803 
L 222.77297 93.31874 
L 223.240542 93.31874 
L 224.175687 90.748031 
L 224.643259 90.748031 
L 225.578404 88.177323 
L 226.045976 88.177323 
L 226.513548 86.891969 
L 226.981121 86.891969 
L 227.916265 84.32126 
L 228.383837 84.32126 
L 228.85141 83.035906 
L 229.318982 83.035906 
L 229.786554 81.750551 
L 230.254127 81.750551 
L 230.721699 80.465197 
L 231.189271 80.465197 
L 231.656843 79.179843 
L 232.124427 79.179843 
L 232.591999 77.894488 
L 233.059571 77.894488 
L 233.527144 76.609134 
L 234.462288 76.609134 
L 234.92986 75.32378 
L 235.865005 75.32378 
L 236.332577 74.038425 
L 236.80015 74.038425 
L 237.267722 72.753071 
L 238.670439 72.753071 
L 239.138011 71.467717 
L 240.073156 71.467717 
L 240.540728 70.182362 
L 241.943445 70.182362 
L 242.411017 68.897008 
L 244.74889 68.897008 
L 245.216462 67.611654 
L 264.386948 67.611654 
L 264.854509 66.326299 
L 268.595087 66.326299 
L 269.06267 65.040945 
L 270.93296 65.040945 
L 271.400521 63.755591 
L 272.803249 63.755591 
L 273.27081 62.470236 
L 275.141121 62.470236 
L 275.608682 61.184882 
L 277.478972 61.184882 
L 277.946555 59.899528 
L 283.089839 59.899528 
L 283.557422 61.184882 
L 284.960128 61.184882 
L 285.427711 62.470236 
L 285.895295 62.470236 
L 286.362856 63.755591 
L 286.830439 63.755591 
L 287.298001 65.040945 
L 287.765584 65.040945 
L 288.700729 67.611654 
L 289.16829 67.611654 
L 293.376451 79.179843 
L 293.844013 81.750551 
L 295.246741 85.606614 
L 295.714302 88.177323 
L 296.649446 90.748031 
L 297.11703 93.31874 
L 298.052174 95.889449 
L 298.519758 98.460157 
L 298.987319 99.745512 
L 299.454902 102.31622 
L 299.922463 103.601575 
L 300.390047 106.172283 
L 300.857608 107.457638 
L 301.325191 110.028346 
L 301.792752 111.313701 
L 302.260336 113.884409 
L 303.19548 116.455118 
L 303.663042 119.025827 
L 305.533331 124.167244 
L 306.000914 126.737953 
L 310.209076 138.306142 
L 310.676637 138.306142 
L 311.611782 140.87685 
L 312.079365 140.87685 
L 312.546926 142.162205 
L 313.949654 142.162205 
L 314.417215 143.447559 
L 318.157793 143.447559 
L 318.625377 142.162205 
L 319.560521 142.162205 
L 320.028083 140.87685 
L 320.495666 140.87685 
L 320.963227 139.591496 
L 321.430811 139.591496 
L 321.898394 138.306142 
L 322.365955 138.306142 
L 323.3011 135.735433 
L 323.768683 135.735433 
L 325.638972 130.594016 
L 326.106533 130.594016 
L 334.522857 107.457638 
L 334.990418 107.457638 
L 338.263435 98.460157 
L 338.730996 98.460157 
L 340.601285 93.31874 
L 341.068869 93.31874 
L 342.004013 90.748031 
L 342.471574 90.748031 
L 343.406719 88.177323 
L 343.874302 88.177323 
L 344.809447 85.606614 
L 345.277008 85.606614 
L 345.744591 84.32126 
L 346.212175 84.32126 
L 347.147319 81.750551 
L 347.614881 81.750551 
L 348.082464 80.465197 
L 348.550025 80.465197 
L 349.017609 79.179843 
L 349.48517 79.179843 
L 349.952753 77.894488 
L 350.420314 77.894488 
L 350.887898 76.609134 
L 351.355459 76.609134 
L 351.823042 75.32378 
L 352.290603 75.32378 
L 352.758187 74.038425 
L 353.693331 74.038425 
L 354.160893 72.753071 
L 354.628476 72.753071 
L 355.096037 71.467717 
L 355.563621 71.467717 
L 356.031182 70.182362 
L 356.966326 70.182362 
L 357.43391 68.897008 
L 358.369054 68.897008 
L 358.836638 67.611654 
L 359.771782 67.611654 
L 360.239343 66.326299 
L 361.642071 66.326299 
L 362.109632 65.040945 
L 363.51236 65.040945 
L 363.979922 63.755591 
L 365.850211 63.755591 
L 366.317794 62.470236 
L 376.604384 62.470236 
L 377.071968 63.755591 
L 389.228847 63.755591 
L 389.696431 62.470236 
L 399.51546 62.470236 
L 399.983021 63.755591 
L 400.918165 63.755591 
L 401.385749 65.040945 
L 402.320893 65.040945 
L 402.788454 66.326299 
L 403.256038 66.326299 
L 404.191182 68.897008 
L 404.658744 68.897008 
L 405.59391 71.467717 
L 406.061472 71.467717 
L 410.269633 83.035906 
L 410.737194 85.606614 
L 412.139922 89.462677 
L 412.607483 92.033386 
L 413.542628 94.604094 
L 414.010211 97.174803 
L 414.945356 99.745512 
L 415.412917 102.31622 
L 416.348062 104.886929 
L 416.815645 107.457638 
L 417.283206 108.742992 
L 417.75079 111.313701 
L 418.218373 112.599055 
L 418.685934 115.169764 
L 419.153518 116.455118 
L 419.621079 119.025827 
L 421.023807 122.88189 
L 421.491368 125.452598 
L 423.361657 130.594016 
L 423.829241 133.164724 
L 425.231946 137.020787 
L 425.69953 137.020787 
L 427.102235 140.87685 
L 427.569819 140.87685 
L 428.03738 142.162205 
L 428.504963 142.162205 
L 428.972524 143.447559 
L 429.440108 143.447559 
L 429.907691 144.732913 
L 431.310397 144.732913 
L 431.77798 146.018268 
L 433.64827 146.018268 
L 434.115831 144.732913 
L 435.518559 144.732913 
L 435.98612 143.447559 
L 436.453703 143.447559 
L 436.921264 142.162205 
L 437.388848 142.162205 
L 438.323992 139.591496 
L 438.791554 139.591496 
L 440.194282 135.735433 
L 440.661843 135.735433 
L 450.013311 110.028346 
L 450.480894 110.028346 
L 454.221472 99.745512 
L 454.689056 99.745512 
L 456.559345 94.604094 
L 457.026884 94.604094 
L 457.96205 92.033386 
L 458.429634 92.033386 
L 459.364756 89.462677 
L 459.83234 89.462677 
L 460.767462 86.891969 
L 461.235045 86.891969 
L 461.702629 85.606614 
L 462.170212 85.606614 
L 463.105334 83.035906 
L 463.572918 83.035906 
L 464.040501 81.750551 
L 464.50804 81.750551 
L 464.975624 80.465197 
L 465.443207 80.465197 
L 465.91079 79.179843 
L 466.378374 79.179843 
L 466.845913 77.894488 
L 467.313496 77.894488 
L 467.78108 76.609134 
L 468.248663 76.609134 
L 468.716202 75.32378 
L 469.183785 75.32378 
L 469.651369 74.038425 
L 470.118952 74.038425 
L 470.586491 72.753071 
L 471.054074 72.753071 
L 471.521658 71.467717 
L 471.989241 71.467717 
L 472.45678 70.182362 
L 473.391947 70.182362 
L 473.85953 68.897008 
L 474.327069 68.897008 
L 474.794653 67.611654 
L 475.729819 67.611654 
L 476.197358 66.326299 
L 477.132525 66.326299 
L 477.600109 65.040945 
L 478.535231 65.040945 
L 479.002814 63.755591 
L 480.40552 63.755591 
L 480.873103 62.470236 
L 483.210976 62.470236 
L 483.678559 61.184882 
L 491.159716 61.184882 
L 491.627299 62.470236 
L 504.719323 62.470236 
L 505.186907 61.184882 
L 514.538352 61.184882 
L 515.005936 62.470236 
L 516.408641 62.470236 
L 516.876225 63.755591 
L 517.811347 63.755591 
L 518.278931 65.040945 
L 518.746514 65.040945 
L 519.214053 66.326299 
L 519.681636 66.326299 
L 520.616803 68.897008 
L 521.084342 68.897008 
L 526.22767 83.035906 
L 526.695254 85.606614 
L 527.630376 88.177323 
L 528.09796 90.748031 
L 529.033082 93.31874 
L 529.500665 95.889449 
L 530.435832 98.460157 
L 530.903371 101.030866 
L 531.370954 102.31622 
L 531.838538 104.886929 
L 532.306121 106.172283 
L 532.77366 108.742992 
L 533.241244 110.028346 
L 533.708827 112.599055 
L 534.17641 113.884409 
L 534.643949 116.455118 
L 535.579116 119.025827 
L 536.0467 121.596535 
L 537.449405 125.452598 
L 537.916989 128.023307 
L 537.916989 128.023307 
" style="fill:none;stroke:#d62728;stroke-linecap:square;stroke-opacity:0.8;stroke-width:1.5;"/>
   </g>
   <g id="patch_3">
    <path d="M 46.965625 170.44 
L 46.965625 7.2 
" style="fill:none;stroke:#000000;stroke-linecap:square;stroke-linejoin:miter;stroke-width:0.8;"/>
   </g>
   <g id="patch_4">
    <path d="M 561.295625 170.44 
L 561.295625 7.2 
" style="fill:none;stroke:#000000;stroke-linecap:square;stroke-linejoin:miter;stroke-width:0.8;"/>
   </g>
   <g id="patch_5">
    <path d="M 46.965625 170.44 
L 561.295625 170.44 
" style="fill:none;stroke:#000000;stroke-linecap:square;stroke-linejoin:miter;stroke-width:0.8;"/>
   </g>
   <g id="patch_6">
    <path d="M 46.965625 7.2 
L 561.295625 7.2 
" style="fill:none;stroke:#000000;stroke-linecap:square;stroke-linejoin:miter;stroke-width:0.8;"/>
   </g>
  </g>
 </g>
 <defs>
  <clipPath id="p3cc150a217">
   <rect height="163.24" width="514.33" x="46.965625" y="7.2"/>
  </clipPath>
 </defs>
</svg>
