<?xml version="1.0" encoding="utf-8" standalone="no"?>
<!DOCTYPE svg PUBLIC "-//W3C//DTD SVG 1.1//EN"
  "http://www.w3.org/Graphics/SVG/1.1/DTD/svg11.dtd">
<svg height="216pt" version="1.1" viewBox="0 0 576 216" width="576pt" xmlns="http://www.w3.org/2000/svg" xmlns:xlink="http://www.w3.org/1999/xlink">
 <metadata>
  <rdf:RDF xmlns:cc="http://creativecommons.org/ns#" xmlns:dc="http://purl.org/dc/elements/1.1/" xmlns:rdf="http://www.w3.org/1999/02/22-rdf-syntax-ns#">
   <cc:Work>
    <dc:type rdf:resource="http://purl.org/dc/dcmitype/StillImage"/>
    <dc:date>2021-11-30T11:15:04.583763</dc:date>
    <dc:format>image/svg+xml</dc:format>
    <dc:creator>
     <cc:Agent>
      <dc:title>Matplotlib v3.4.3, https://matplotlib.org/</dc:title>
     </cc:Agent>
    </dc:creator>
   </cc:Work>
  </rdf:RDF>
 </metadata>
 <defs>
  <style type="text/css">*{stroke-linecap:butt;stroke-linejoin:round;}</style>
 </defs>
 <g id="figure_1">
  <g id="patch_1">
   <path d="M 0 216 
L 576 216 
L 576 0 
L 0 0 
z
" style="fill:#ffffff;"/>
  </g>
  <g id="axes_1">
   <g id="patch_2">
    <path d="M 50.87 174.04 
L 565.2 174.04 
L 565.2 10.8 
L 50.87 10.8 
z
" style="fill:#ffffff;"/>
   </g>
   <g id="matplotlib.axis_1">
    <g id="xtick_1">
     <g id="line2d_1">
      <defs>
       <path d="M 0 0 
L 0 3.5 
" id="m2ac373550d" style="stroke:#000000;stroke-width:0.8;"/>
      </defs>
      <g>
       <use style="stroke:#000000;stroke-width:0.8;" x="74.248636" xlink:href="#m2ac373550d" y="174.04"/>
      </g>
     </g>
     <g id="text_1">
      <!-- 0 -->
      <g transform="translate(71.067386 188.638438)scale(0.1 -0.1)">
       <defs>
        <path d="M 2034 4250 
Q 1547 4250 1301 3770 
Q 1056 3291 1056 2328 
Q 1056 1369 1301 889 
Q 1547 409 2034 409 
Q 2525 409 2770 889 
Q 3016 1369 3016 2328 
Q 3016 3291 2770 3770 
Q 2525 4250 2034 4250 
z
M 2034 4750 
Q 2819 4750 3233 4129 
Q 3647 3509 3647 2328 
Q 3647 1150 3233 529 
Q 2819 -91 2034 -91 
Q 1250 -91 836 529 
Q 422 1150 422 2328 
Q 422 3509 836 4129 
Q 1250 4750 2034 4750 
z
" id="DejaVuSans-30" transform="scale(0.015625)"/>
       </defs>
       <use xlink:href="#DejaVuSans-30"/>
      </g>
     </g>
    </g>
    <g id="xtick_2">
     <g id="line2d_2">
      <g>
       <use style="stroke:#000000;stroke-width:0.8;" x="187.73716" xlink:href="#m2ac373550d" y="174.04"/>
      </g>
     </g>
     <g id="text_2">
      <!-- 5 -->
      <g transform="translate(184.55591 188.638438)scale(0.1 -0.1)">
       <defs>
        <path d="M 691 4666 
L 3169 4666 
L 3169 4134 
L 1269 4134 
L 1269 2991 
Q 1406 3038 1543 3061 
Q 1681 3084 1819 3084 
Q 2600 3084 3056 2656 
Q 3513 2228 3513 1497 
Q 3513 744 3044 326 
Q 2575 -91 1722 -91 
Q 1428 -91 1123 -41 
Q 819 9 494 109 
L 494 744 
Q 775 591 1075 516 
Q 1375 441 1709 441 
Q 2250 441 2565 725 
Q 2881 1009 2881 1497 
Q 2881 1984 2565 2268 
Q 2250 2553 1709 2553 
Q 1456 2553 1204 2497 
Q 953 2441 691 2322 
L 691 4666 
z
" id="DejaVuSans-35" transform="scale(0.015625)"/>
       </defs>
       <use xlink:href="#DejaVuSans-35"/>
      </g>
     </g>
    </g>
    <g id="xtick_3">
     <g id="line2d_3">
      <g>
       <use style="stroke:#000000;stroke-width:0.8;" x="301.225684" xlink:href="#m2ac373550d" y="174.04"/>
      </g>
     </g>
     <g id="text_3">
      <!-- 10 -->
      <g transform="translate(294.863184 188.638438)scale(0.1 -0.1)">
       <defs>
        <path d="M 794 531 
L 1825 531 
L 1825 4091 
L 703 3866 
L 703 4441 
L 1819 4666 
L 2450 4666 
L 2450 531 
L 3481 531 
L 3481 0 
L 794 0 
L 794 531 
z
" id="DejaVuSans-31" transform="scale(0.015625)"/>
       </defs>
       <use xlink:href="#DejaVuSans-31"/>
       <use x="63.623047" xlink:href="#DejaVuSans-30"/>
      </g>
     </g>
    </g>
    <g id="xtick_4">
     <g id="line2d_4">
      <g>
       <use style="stroke:#000000;stroke-width:0.8;" x="414.714208" xlink:href="#m2ac373550d" y="174.04"/>
      </g>
     </g>
     <g id="text_4">
      <!-- 15 -->
      <g transform="translate(408.351708 188.638438)scale(0.1 -0.1)">
       <use xlink:href="#DejaVuSans-31"/>
       <use x="63.623047" xlink:href="#DejaVuSans-35"/>
      </g>
     </g>
    </g>
    <g id="xtick_5">
     <g id="line2d_5">
      <g>
       <use style="stroke:#000000;stroke-width:0.8;" x="528.202732" xlink:href="#m2ac373550d" y="174.04"/>
      </g>
     </g>
     <g id="text_5">
      <!-- 20 -->
      <g transform="translate(521.840232 188.638438)scale(0.1 -0.1)">
       <defs>
        <path d="M 1228 531 
L 3431 531 
L 3431 0 
L 469 0 
L 469 531 
Q 828 903 1448 1529 
Q 2069 2156 2228 2338 
Q 2531 2678 2651 2914 
Q 2772 3150 2772 3378 
Q 2772 3750 2511 3984 
Q 2250 4219 1831 4219 
Q 1534 4219 1204 4116 
Q 875 4013 500 3803 
L 500 4441 
Q 881 4594 1212 4672 
Q 1544 4750 1819 4750 
Q 2544 4750 2975 4387 
Q 3406 4025 3406 3419 
Q 3406 3131 3298 2873 
Q 3191 2616 2906 2266 
Q 2828 2175 2409 1742 
Q 1991 1309 1228 531 
z
" id="DejaVuSans-32" transform="scale(0.015625)"/>
       </defs>
       <use xlink:href="#DejaVuSans-32"/>
       <use x="63.623047" xlink:href="#DejaVuSans-30"/>
      </g>
     </g>
    </g>
    <g id="text_6">
     <!-- Timestep -->
     <g transform="translate(284.985781 202.316563)scale(0.1 -0.1)">
      <defs>
       <path d="M -19 4666 
L 3928 4666 
L 3928 4134 
L 2272 4134 
L 2272 0 
L 1638 0 
L 1638 4134 
L -19 4134 
L -19 4666 
z
" id="DejaVuSans-54" transform="scale(0.015625)"/>
       <path d="M 603 3500 
L 1178 3500 
L 1178 0 
L 603 0 
L 603 3500 
z
M 603 4863 
L 1178 4863 
L 1178 4134 
L 603 4134 
L 603 4863 
z
" id="DejaVuSans-69" transform="scale(0.015625)"/>
       <path d="M 3328 2828 
Q 3544 3216 3844 3400 
Q 4144 3584 4550 3584 
Q 5097 3584 5394 3201 
Q 5691 2819 5691 2113 
L 5691 0 
L 5113 0 
L 5113 2094 
Q 5113 2597 4934 2840 
Q 4756 3084 4391 3084 
Q 3944 3084 3684 2787 
Q 3425 2491 3425 1978 
L 3425 0 
L 2847 0 
L 2847 2094 
Q 2847 2600 2669 2842 
Q 2491 3084 2119 3084 
Q 1678 3084 1418 2786 
Q 1159 2488 1159 1978 
L 1159 0 
L 581 0 
L 581 3500 
L 1159 3500 
L 1159 2956 
Q 1356 3278 1631 3431 
Q 1906 3584 2284 3584 
Q 2666 3584 2933 3390 
Q 3200 3197 3328 2828 
z
" id="DejaVuSans-6d" transform="scale(0.015625)"/>
       <path d="M 3597 1894 
L 3597 1613 
L 953 1613 
Q 991 1019 1311 708 
Q 1631 397 2203 397 
Q 2534 397 2845 478 
Q 3156 559 3463 722 
L 3463 178 
Q 3153 47 2828 -22 
Q 2503 -91 2169 -91 
Q 1331 -91 842 396 
Q 353 884 353 1716 
Q 353 2575 817 3079 
Q 1281 3584 2069 3584 
Q 2775 3584 3186 3129 
Q 3597 2675 3597 1894 
z
M 3022 2063 
Q 3016 2534 2758 2815 
Q 2500 3097 2075 3097 
Q 1594 3097 1305 2825 
Q 1016 2553 972 2059 
L 3022 2063 
z
" id="DejaVuSans-65" transform="scale(0.015625)"/>
       <path d="M 2834 3397 
L 2834 2853 
Q 2591 2978 2328 3040 
Q 2066 3103 1784 3103 
Q 1356 3103 1142 2972 
Q 928 2841 928 2578 
Q 928 2378 1081 2264 
Q 1234 2150 1697 2047 
L 1894 2003 
Q 2506 1872 2764 1633 
Q 3022 1394 3022 966 
Q 3022 478 2636 193 
Q 2250 -91 1575 -91 
Q 1294 -91 989 -36 
Q 684 19 347 128 
L 347 722 
Q 666 556 975 473 
Q 1284 391 1588 391 
Q 1994 391 2212 530 
Q 2431 669 2431 922 
Q 2431 1156 2273 1281 
Q 2116 1406 1581 1522 
L 1381 1569 
Q 847 1681 609 1914 
Q 372 2147 372 2553 
Q 372 3047 722 3315 
Q 1072 3584 1716 3584 
Q 2034 3584 2315 3537 
Q 2597 3491 2834 3397 
z
" id="DejaVuSans-73" transform="scale(0.015625)"/>
       <path d="M 1172 4494 
L 1172 3500 
L 2356 3500 
L 2356 3053 
L 1172 3053 
L 1172 1153 
Q 1172 725 1289 603 
Q 1406 481 1766 481 
L 2356 481 
L 2356 0 
L 1766 0 
Q 1100 0 847 248 
Q 594 497 594 1153 
L 594 3053 
L 172 3053 
L 172 3500 
L 594 3500 
L 594 4494 
L 1172 4494 
z
" id="DejaVuSans-74" transform="scale(0.015625)"/>
       <path d="M 1159 525 
L 1159 -1331 
L 581 -1331 
L 581 3500 
L 1159 3500 
L 1159 2969 
Q 1341 3281 1617 3432 
Q 1894 3584 2278 3584 
Q 2916 3584 3314 3078 
Q 3713 2572 3713 1747 
Q 3713 922 3314 415 
Q 2916 -91 2278 -91 
Q 1894 -91 1617 61 
Q 1341 213 1159 525 
z
M 3116 1747 
Q 3116 2381 2855 2742 
Q 2594 3103 2138 3103 
Q 1681 3103 1420 2742 
Q 1159 2381 1159 1747 
Q 1159 1113 1420 752 
Q 1681 391 2138 391 
Q 2594 391 2855 752 
Q 3116 1113 3116 1747 
z
" id="DejaVuSans-70" transform="scale(0.015625)"/>
      </defs>
      <use xlink:href="#DejaVuSans-54"/>
      <use x="57.958984" xlink:href="#DejaVuSans-69"/>
      <use x="85.742188" xlink:href="#DejaVuSans-6d"/>
      <use x="183.154297" xlink:href="#DejaVuSans-65"/>
      <use x="244.677734" xlink:href="#DejaVuSans-73"/>
      <use x="296.777344" xlink:href="#DejaVuSans-74"/>
      <use x="335.986328" xlink:href="#DejaVuSans-65"/>
      <use x="397.509766" xlink:href="#DejaVuSans-70"/>
     </g>
    </g>
   </g>
   <g id="matplotlib.axis_2">
    <g id="ytick_1">
     <g id="line2d_6">
      <defs>
       <path d="M 0 0 
L -3.5 0 
" id="m5159eed6e7" style="stroke:#000000;stroke-width:0.8;"/>
      </defs>
      <g>
       <use style="stroke:#000000;stroke-width:0.8;" x="50.87" xlink:href="#m5159eed6e7" y="174.04"/>
      </g>
     </g>
     <g id="text_7">
      <!-- 0 -->
      <g transform="translate(37.5075 177.839219)scale(0.1 -0.1)">
       <use xlink:href="#DejaVuSans-30"/>
      </g>
     </g>
    </g>
    <g id="ytick_2">
     <g id="line2d_7">
      <g>
       <use style="stroke:#000000;stroke-width:0.8;" x="50.87" xlink:href="#m5159eed6e7" y="148.332913"/>
      </g>
     </g>
     <g id="text_8">
      <!-- 20 -->
      <g transform="translate(31.145 152.132132)scale(0.1 -0.1)">
       <use xlink:href="#DejaVuSans-32"/>
       <use x="63.623047" xlink:href="#DejaVuSans-30"/>
      </g>
     </g>
    </g>
    <g id="ytick_3">
     <g id="line2d_8">
      <g>
       <use style="stroke:#000000;stroke-width:0.8;" x="50.87" xlink:href="#m5159eed6e7" y="122.625827"/>
      </g>
     </g>
     <g id="text_9">
      <!-- 40 -->
      <g transform="translate(31.145 126.425046)scale(0.1 -0.1)">
       <defs>
        <path d="M 2419 4116 
L 825 1625 
L 2419 1625 
L 2419 4116 
z
M 2253 4666 
L 3047 4666 
L 3047 1625 
L 3713 1625 
L 3713 1100 
L 3047 1100 
L 3047 0 
L 2419 0 
L 2419 1100 
L 313 1100 
L 313 1709 
L 2253 4666 
z
" id="DejaVuSans-34" transform="scale(0.015625)"/>
       </defs>
       <use xlink:href="#DejaVuSans-34"/>
       <use x="63.623047" xlink:href="#DejaVuSans-30"/>
      </g>
     </g>
    </g>
    <g id="ytick_4">
     <g id="line2d_9">
      <g>
       <use style="stroke:#000000;stroke-width:0.8;" x="50.87" xlink:href="#m5159eed6e7" y="96.91874"/>
      </g>
     </g>
     <g id="text_10">
      <!-- 60 -->
      <g transform="translate(31.145 100.717959)scale(0.1 -0.1)">
       <defs>
        <path d="M 2113 2584 
Q 1688 2584 1439 2293 
Q 1191 2003 1191 1497 
Q 1191 994 1439 701 
Q 1688 409 2113 409 
Q 2538 409 2786 701 
Q 3034 994 3034 1497 
Q 3034 2003 2786 2293 
Q 2538 2584 2113 2584 
z
M 3366 4563 
L 3366 3988 
Q 3128 4100 2886 4159 
Q 2644 4219 2406 4219 
Q 1781 4219 1451 3797 
Q 1122 3375 1075 2522 
Q 1259 2794 1537 2939 
Q 1816 3084 2150 3084 
Q 2853 3084 3261 2657 
Q 3669 2231 3669 1497 
Q 3669 778 3244 343 
Q 2819 -91 2113 -91 
Q 1303 -91 875 529 
Q 447 1150 447 2328 
Q 447 3434 972 4092 
Q 1497 4750 2381 4750 
Q 2619 4750 2861 4703 
Q 3103 4656 3366 4563 
z
" id="DejaVuSans-36" transform="scale(0.015625)"/>
       </defs>
       <use xlink:href="#DejaVuSans-36"/>
       <use x="63.623047" xlink:href="#DejaVuSans-30"/>
      </g>
     </g>
    </g>
    <g id="ytick_5">
     <g id="line2d_10">
      <g>
       <use style="stroke:#000000;stroke-width:0.8;" x="50.87" xlink:href="#m5159eed6e7" y="71.211654"/>
      </g>
     </g>
     <g id="text_11">
      <!-- 80 -->
      <g transform="translate(31.145 75.010872)scale(0.1 -0.1)">
       <defs>
        <path d="M 2034 2216 
Q 1584 2216 1326 1975 
Q 1069 1734 1069 1313 
Q 1069 891 1326 650 
Q 1584 409 2034 409 
Q 2484 409 2743 651 
Q 3003 894 3003 1313 
Q 3003 1734 2745 1975 
Q 2488 2216 2034 2216 
z
M 1403 2484 
Q 997 2584 770 2862 
Q 544 3141 544 3541 
Q 544 4100 942 4425 
Q 1341 4750 2034 4750 
Q 2731 4750 3128 4425 
Q 3525 4100 3525 3541 
Q 3525 3141 3298 2862 
Q 3072 2584 2669 2484 
Q 3125 2378 3379 2068 
Q 3634 1759 3634 1313 
Q 3634 634 3220 271 
Q 2806 -91 2034 -91 
Q 1263 -91 848 271 
Q 434 634 434 1313 
Q 434 1759 690 2068 
Q 947 2378 1403 2484 
z
M 1172 3481 
Q 1172 3119 1398 2916 
Q 1625 2713 2034 2713 
Q 2441 2713 2670 2916 
Q 2900 3119 2900 3481 
Q 2900 3844 2670 4047 
Q 2441 4250 2034 4250 
Q 1625 4250 1398 4047 
Q 1172 3844 1172 3481 
z
" id="DejaVuSans-38" transform="scale(0.015625)"/>
       </defs>
       <use xlink:href="#DejaVuSans-38"/>
       <use x="63.623047" xlink:href="#DejaVuSans-30"/>
      </g>
     </g>
    </g>
    <g id="ytick_6">
     <g id="line2d_11">
      <g>
       <use style="stroke:#000000;stroke-width:0.8;" x="50.87" xlink:href="#m5159eed6e7" y="45.504567"/>
      </g>
     </g>
     <g id="text_12">
      <!-- 100 -->
      <g transform="translate(24.7825 49.303786)scale(0.1 -0.1)">
       <use xlink:href="#DejaVuSans-31"/>
       <use x="63.623047" xlink:href="#DejaVuSans-30"/>
       <use x="127.246094" xlink:href="#DejaVuSans-30"/>
      </g>
     </g>
    </g>
    <g id="ytick_7">
     <g id="line2d_12">
      <g>
       <use style="stroke:#000000;stroke-width:0.8;" x="50.87" xlink:href="#m5159eed6e7" y="19.79748"/>
      </g>
     </g>
     <g id="text_13">
      <!-- 120 -->
      <g transform="translate(24.7825 23.596699)scale(0.1 -0.1)">
       <use xlink:href="#DejaVuSans-31"/>
       <use x="63.623047" xlink:href="#DejaVuSans-32"/>
       <use x="127.246094" xlink:href="#DejaVuSans-30"/>
      </g>
     </g>
    </g>
    <g id="text_14">
     <!-- Quantization Level -->
     <g transform="translate(18.702813 139.161406)rotate(-90)scale(0.1 -0.1)">
      <defs>
       <path d="M 2522 4238 
Q 1834 4238 1429 3725 
Q 1025 3213 1025 2328 
Q 1025 1447 1429 934 
Q 1834 422 2522 422 
Q 3209 422 3611 934 
Q 4013 1447 4013 2328 
Q 4013 3213 3611 3725 
Q 3209 4238 2522 4238 
z
M 3406 84 
L 4238 -825 
L 3475 -825 
L 2784 -78 
Q 2681 -84 2626 -87 
Q 2572 -91 2522 -91 
Q 1538 -91 948 567 
Q 359 1225 359 2328 
Q 359 3434 948 4092 
Q 1538 4750 2522 4750 
Q 3503 4750 4090 4092 
Q 4678 3434 4678 2328 
Q 4678 1516 4351 937 
Q 4025 359 3406 84 
z
" id="DejaVuSans-51" transform="scale(0.015625)"/>
       <path d="M 544 1381 
L 544 3500 
L 1119 3500 
L 1119 1403 
Q 1119 906 1312 657 
Q 1506 409 1894 409 
Q 2359 409 2629 706 
Q 2900 1003 2900 1516 
L 2900 3500 
L 3475 3500 
L 3475 0 
L 2900 0 
L 2900 538 
Q 2691 219 2414 64 
Q 2138 -91 1772 -91 
Q 1169 -91 856 284 
Q 544 659 544 1381 
z
M 1991 3584 
L 1991 3584 
z
" id="DejaVuSans-75" transform="scale(0.015625)"/>
       <path d="M 2194 1759 
Q 1497 1759 1228 1600 
Q 959 1441 959 1056 
Q 959 750 1161 570 
Q 1363 391 1709 391 
Q 2188 391 2477 730 
Q 2766 1069 2766 1631 
L 2766 1759 
L 2194 1759 
z
M 3341 1997 
L 3341 0 
L 2766 0 
L 2766 531 
Q 2569 213 2275 61 
Q 1981 -91 1556 -91 
Q 1019 -91 701 211 
Q 384 513 384 1019 
Q 384 1609 779 1909 
Q 1175 2209 1959 2209 
L 2766 2209 
L 2766 2266 
Q 2766 2663 2505 2880 
Q 2244 3097 1772 3097 
Q 1472 3097 1187 3025 
Q 903 2953 641 2809 
L 641 3341 
Q 956 3463 1253 3523 
Q 1550 3584 1831 3584 
Q 2591 3584 2966 3190 
Q 3341 2797 3341 1997 
z
" id="DejaVuSans-61" transform="scale(0.015625)"/>
       <path d="M 3513 2113 
L 3513 0 
L 2938 0 
L 2938 2094 
Q 2938 2591 2744 2837 
Q 2550 3084 2163 3084 
Q 1697 3084 1428 2787 
Q 1159 2491 1159 1978 
L 1159 0 
L 581 0 
L 581 3500 
L 1159 3500 
L 1159 2956 
Q 1366 3272 1645 3428 
Q 1925 3584 2291 3584 
Q 2894 3584 3203 3211 
Q 3513 2838 3513 2113 
z
" id="DejaVuSans-6e" transform="scale(0.015625)"/>
       <path d="M 353 3500 
L 3084 3500 
L 3084 2975 
L 922 459 
L 3084 459 
L 3084 0 
L 275 0 
L 275 525 
L 2438 3041 
L 353 3041 
L 353 3500 
z
" id="DejaVuSans-7a" transform="scale(0.015625)"/>
       <path d="M 1959 3097 
Q 1497 3097 1228 2736 
Q 959 2375 959 1747 
Q 959 1119 1226 758 
Q 1494 397 1959 397 
Q 2419 397 2687 759 
Q 2956 1122 2956 1747 
Q 2956 2369 2687 2733 
Q 2419 3097 1959 3097 
z
M 1959 3584 
Q 2709 3584 3137 3096 
Q 3566 2609 3566 1747 
Q 3566 888 3137 398 
Q 2709 -91 1959 -91 
Q 1206 -91 779 398 
Q 353 888 353 1747 
Q 353 2609 779 3096 
Q 1206 3584 1959 3584 
z
" id="DejaVuSans-6f" transform="scale(0.015625)"/>
       <path id="DejaVuSans-20" transform="scale(0.015625)"/>
       <path d="M 628 4666 
L 1259 4666 
L 1259 531 
L 3531 531 
L 3531 0 
L 628 0 
L 628 4666 
z
" id="DejaVuSans-4c" transform="scale(0.015625)"/>
       <path d="M 191 3500 
L 800 3500 
L 1894 563 
L 2988 3500 
L 3597 3500 
L 2284 0 
L 1503 0 
L 191 3500 
z
" id="DejaVuSans-76" transform="scale(0.015625)"/>
       <path d="M 603 4863 
L 1178 4863 
L 1178 0 
L 603 0 
L 603 4863 
z
" id="DejaVuSans-6c" transform="scale(0.015625)"/>
      </defs>
      <use xlink:href="#DejaVuSans-51"/>
      <use x="78.710938" xlink:href="#DejaVuSans-75"/>
      <use x="142.089844" xlink:href="#DejaVuSans-61"/>
      <use x="203.369141" xlink:href="#DejaVuSans-6e"/>
      <use x="266.748047" xlink:href="#DejaVuSans-74"/>
      <use x="305.957031" xlink:href="#DejaVuSans-69"/>
      <use x="333.740234" xlink:href="#DejaVuSans-7a"/>
      <use x="386.230469" xlink:href="#DejaVuSans-61"/>
      <use x="447.509766" xlink:href="#DejaVuSans-74"/>
      <use x="486.71875" xlink:href="#DejaVuSans-69"/>
      <use x="514.501953" xlink:href="#DejaVuSans-6f"/>
      <use x="575.683594" xlink:href="#DejaVuSans-6e"/>
      <use x="639.0625" xlink:href="#DejaVuSans-20"/>
      <use x="670.849609" xlink:href="#DejaVuSans-4c"/>
      <use x="724.8125" xlink:href="#DejaVuSans-65"/>
      <use x="786.335938" xlink:href="#DejaVuSans-76"/>
      <use x="845.515625" xlink:href="#DejaVuSans-65"/>
      <use x="907.039062" xlink:href="#DejaVuSans-6c"/>
     </g>
    </g>
   </g>
   <g id="line2d_13">
    <path clip-path="url(#p999a6c0802)" d="M 74.248636 93.062677 
L 75.610499 93.062677 
L 75.610499 94.348031 
L 76.972361 94.348031 
L 76.972361 95.633386 
L 79.242131 95.633386 
L 79.242131 94.348031 
L 83.781672 94.348031 
L 83.781672 93.062677 
L 88.321213 93.062677 
L 88.321213 91.777323 
L 92.406799 91.777323 
L 92.406799 90.491969 
L 99.670066 90.491969 
L 99.670066 91.777323 
L 102.847744 91.777323 
L 102.847744 93.062677 
L 105.571469 93.062677 
L 105.571469 94.348031 
L 107.84124 94.348031 
L 107.84124 95.633386 
L 110.111008 95.633386 
L 110.111008 96.91874 
L 114.196597 96.91874 
L 114.196597 98.204094 
L 119.644046 98.204094 
L 119.644046 96.91874 
L 121.459861 96.91874 
L 121.459861 95.633386 
L 149.151061 95.633386 
L 149.151061 94.348031 
L 161.861774 94.348031 
L 161.861774 93.062677 
L 169.125038 93.062677 
L 169.125038 91.777323 
L 173.210632 91.777323 
L 173.210632 93.062677 
L 176.842262 93.062677 
L 176.842262 94.348031 
L 180.927845 94.348031 
L 180.927845 95.633386 
L 191.36879 95.633386 
L 191.36879 94.348031 
L 196.362291 94.348031 
L 196.362291 93.062677 
L 204.98741 93.062677 
L 204.98741 94.348031 
L 208.165097 94.348031 
L 208.165097 95.633386 
L 228.593022 95.633386 
L 228.593022 96.91874 
L 233.586524 96.91874 
L 233.586524 98.204094 
L 244.935376 98.204094 
L 244.935376 96.91874 
L 247.205144 96.91874 
L 247.205144 95.633386 
L 248.567005 95.633386 
L 248.567005 96.91874 
L 249.020959 96.91874 
L 249.020959 95.633386 
L 250.836774 95.633386 
L 250.836774 94.348031 
L 253.106542 94.348031 
L 253.106542 93.062677 
L 254.922367 93.062677 
L 254.922367 91.777323 
L 256.284218 91.777323 
L 256.284218 90.491969 
L 258.100032 90.491969 
L 258.100032 89.206614 
L 259.915847 89.206614 
L 259.915847 87.92126 
L 261.731683 87.92126 
L 261.731683 86.635906 
L 263.093533 86.635906 
L 263.093533 85.350551 
L 265.817255 85.350551 
L 265.817255 84.065197 
L 268.540977 84.065197 
L 268.540977 82.779843 
L 276.2582 82.779843 
L 276.2582 84.065197 
L 278.981922 84.065197 
L 278.981922 85.350551 
L 281.251701 85.350551 
L 281.251701 86.635906 
L 282.159609 86.635906 
L 282.159609 87.92126 
L 283.521481 87.92126 
L 283.521481 89.206614 
L 284.429388 89.206614 
L 284.429388 90.491969 
L 285.791238 90.491969 
L 285.791238 91.777323 
L 286.699145 91.777323 
L 286.699145 93.062677 
L 288.061017 93.062677 
L 288.061017 94.348031 
L 289.422867 94.348031 
L 289.422867 95.633386 
L 290.330775 95.633386 
L 290.330775 96.91874 
L 292.146589 96.91874 
L 292.146589 98.204094 
L 293.962404 98.204094 
L 293.962404 99.489449 
L 296.232183 99.489449 
L 296.232183 100.774803 
L 298.047998 100.774803 
L 298.047998 102.060157 
L 314.844294 102.060157 
L 314.844294 100.774803 
L 318.475945 100.774803 
L 318.475945 99.489449 
L 335.272241 99.489449 
L 335.272241 100.774803 
L 339.357814 100.774803 
L 339.357814 99.489449 
L 342.081557 99.489449 
L 342.081557 98.204094 
L 343.443407 98.204094 
L 343.443407 96.91874 
L 344.351315 96.91874 
L 344.351315 95.633386 
L 345.713186 95.633386 
L 345.713186 94.348031 
L 347.075037 94.348031 
L 347.075037 93.062677 
L 347.982944 93.062677 
L 347.982944 91.777323 
L 349.344816 91.777323 
L 349.344816 90.491969 
L 350.252723 90.491969 
L 350.252723 89.206614 
L 351.16063 89.206614 
L 351.16063 87.92126 
L 352.068538 87.92126 
L 352.068538 86.635906 
L 352.976445 86.635906 
L 352.976445 85.350551 
L 353.884352 85.350551 
L 353.884352 84.065197 
L 354.79226 84.065197 
L 354.79226 82.779843 
L 355.700167 82.779843 
L 355.700167 81.494488 
L 356.608074 81.494488 
L 356.608074 80.209134 
L 357.515982 80.209134 
L 357.515982 78.92378 
L 358.423889 78.92378 
L 358.423889 77.638425 
L 359.331796 77.638425 
L 359.331796 76.353071 
L 360.239704 76.353071 
L 360.239704 75.067717 
L 361.601576 75.067717 
L 361.601576 73.782362 
L 362.963426 73.782362 
L 362.963426 72.497008 
L 367.502984 72.497008 
L 367.502984 73.782362 
L 369.318799 73.782362 
L 369.318799 75.067717 
L 370.680649 75.067717 
L 370.680649 76.353071 
L 371.588556 76.353071 
L 371.588556 77.638425 
L 372.496463 77.638425 
L 372.496463 78.92378 
L 373.404371 78.92378 
L 373.404371 80.209134 
L 374.312278 80.209134 
L 374.312278 81.494488 
L 375.67415 81.494488 
L 375.67415 82.779843 
L 376.582057 82.779843 
L 376.582057 84.065197 
L 377.489965 84.065197 
L 377.489965 85.350551 
L 377.943929 85.350551 
L 377.943929 86.635906 
L 378.851836 86.635906 
L 378.851836 87.92126 
L 379.759744 87.92126 
L 379.759744 89.206614 
L 380.667651 89.206614 
L 380.667651 90.491969 
L 382.029501 90.491969 
L 382.029501 91.777323 
L 383.391373 91.777323 
L 383.391373 93.062677 
L 384.29928 93.062677 
L 384.29928 94.348031 
L 385.66113 94.348031 
L 385.66113 95.633386 
L 386.569038 95.633386 
L 386.569038 96.91874 
L 387.476945 96.91874 
L 387.476945 98.204094 
L 388.384874 98.204094 
L 388.384874 99.489449 
L 389.292781 99.489449 
L 389.292781 100.774803 
L 390.654632 100.774803 
L 390.654632 102.060157 
L 392.016503 102.060157 
L 392.016503 104.630866 
L 392.924411 104.630866 
L 392.924411 105.91622 
L 393.832318 105.91622 
L 393.832318 107.201575 
L 394.740225 107.201575 
L 394.740225 108.486929 
L 395.648133 108.486929 
L 395.648133 109.772283 
L 397.009983 109.772283 
L 397.009983 111.057638 
L 398.371855 111.057638 
L 398.371855 112.342992 
L 399.733726 112.342992 
L 399.733726 113.628346 
L 404.727206 113.628346 
L 404.727206 112.342992 
L 406.996985 112.342992 
L 406.996985 111.057638 
L 409.266743 111.057638 
L 409.266743 109.772283 
L 411.082557 109.772283 
L 411.082557 108.486929 
L 412.444429 108.486929 
L 412.444429 107.201575 
L 413.352336 107.201575 
L 413.352336 105.91622 
L 414.260244 105.91622 
L 414.260244 104.630866 
L 415.168151 104.630866 
L 415.168151 103.345512 
L 416.076058 103.345512 
L 416.076058 102.060157 
L 416.983966 102.060157 
L 416.983966 100.774803 
L 417.891873 100.774803 
L 417.891873 99.489449 
L 418.345837 99.489449 
L 418.345837 98.204094 
L 418.79978 98.204094 
L 418.79978 99.489449 
L 419.253745 99.489449 
L 419.253745 96.91874 
L 420.615595 96.91874 
L 420.615595 95.633386 
L 421.523502 95.633386 
L 421.523502 94.348031 
L 421.977467 94.348031 
L 421.977467 93.062677 
L 422.43141 93.062677 
L 422.43141 94.348031 
L 422.885374 94.348031 
L 422.885374 93.062677 
L 425.609096 93.062677 
L 425.609096 91.777323 
L 431.05654 91.777323 
L 431.05654 93.062677 
L 445.129136 93.062677 
L 445.129136 94.348031 
L 447.398915 94.348031 
L 447.398915 95.633386 
L 453.754245 95.633386 
L 453.754245 96.91874 
L 461.471468 96.91874 
L 461.471468 95.633386 
L 464.195212 95.633386 
L 464.195212 94.348031 
L 471.45847 94.348031 
L 471.45847 93.062677 
L 476.905914 93.062677 
L 476.905914 91.777323 
L 479.175693 91.777323 
L 479.175693 90.491969 
L 485.077102 90.491969 
L 485.077102 89.206614 
L 495.97199 89.206614 
L 495.97199 87.92126 
L 504.143134 87.92126 
L 504.143134 86.635906 
L 510.952471 86.635906 
L 510.952471 85.350551 
L 520.939474 85.350551 
L 520.939474 86.635906 
L 523.663174 86.635906 
L 523.663174 87.92126 
L 525.932953 87.92126 
L 525.932953 89.206614 
L 527.748768 89.206614 
L 527.748768 90.491969 
L 529.110618 90.491969 
L 529.110618 91.777323 
L 530.472511 91.777323 
L 530.472511 93.062677 
L 531.380397 93.062677 
L 531.380397 94.348031 
L 532.742247 94.348031 
L 532.742247 95.633386 
L 534.558062 95.633386 
L 534.558062 96.91874 
L 536.373876 96.91874 
L 536.373876 98.204094 
L 538.643656 98.204094 
L 538.643656 99.489449 
L 541.821364 99.489449 
L 541.821364 99.489449 
" style="fill:none;stroke:#1f77b4;stroke-linecap:square;stroke-opacity:0.8;stroke-width:1.5;"/>
   </g>
   <g id="line2d_14">
    <path clip-path="url(#p999a6c0802)" d="M 74.248636 93.062677 
L 75.610499 93.062677 
L 75.610499 91.777323 
L 76.064453 91.777323 
L 76.064453 90.491969 
L 76.518407 90.491969 
L 76.518407 89.206614 
L 77.880269 89.206614 
L 77.880269 87.92126 
L 79.242131 87.92126 
L 79.242131 86.635906 
L 80.150039 86.635906 
L 80.150039 85.350551 
L 82.873764 85.350551 
L 82.873764 84.065197 
L 83.781672 84.065197 
L 83.781672 82.779843 
L 85.143534 82.779843 
L 85.143534 81.494488 
L 86.959351 81.494488 
L 86.959351 80.209134 
L 91.952845 80.209134 
L 91.952845 78.92378 
L 96.946341 78.92378 
L 96.946341 80.209134 
L 99.670066 80.209134 
L 99.670066 81.494488 
L 101.939837 81.494488 
L 101.939837 82.779843 
L 104.663559 82.779843 
L 104.663559 84.065197 
L 107.387284 84.065197 
L 107.387284 85.350551 
L 111.926826 85.350551 
L 111.926826 86.635906 
L 116.012411 86.635906 
L 116.012411 87.92126 
L 120.098 87.92126 
L 120.098 89.206614 
L 154.144557 89.206614 
L 154.144557 90.491969 
L 161.407821 90.491969 
L 161.407821 91.777323 
L 171.394807 91.777323 
L 171.394807 78.92378 
L 171.84876 78.92378 
L 171.84876 77.638425 
L 172.756668 77.638425 
L 172.756668 76.353071 
L 173.210632 76.353071 
L 173.210632 75.067717 
L 173.664586 75.067717 
L 173.664586 72.497008 
L 174.572493 72.497008 
L 174.572493 71.211654 
L 175.026447 71.211654 
L 175.026447 69.926299 
L 175.480401 69.926299 
L 175.480401 68.640945 
L 175.934354 68.640945 
L 175.934354 67.355591 
L 176.842262 67.355591 
L 176.842262 66.070236 
L 177.750169 66.070236 
L 177.750169 64.784882 
L 179.11203 64.784882 
L 179.11203 63.499528 
L 180.019937 63.499528 
L 180.019937 62.214173 
L 184.559474 62.214173 
L 184.559474 63.499528 
L 186.829253 63.499528 
L 186.829253 64.784882 
L 188.645068 64.784882 
L 188.645068 66.070236 
L 191.36879 66.070236 
L 191.36879 67.355591 
L 192.276697 67.355591 
L 192.276697 68.640945 
L 193.184604 68.640945 
L 193.184604 69.926299 
L 194.092512 69.926299 
L 194.092512 71.211654 
L 195.000419 71.211654 
L 195.000419 72.497008 
L 195.454373 72.497008 
L 195.454373 73.782362 
L 196.362291 73.782362 
L 196.362291 75.067717 
L 197.270198 75.067717 
L 197.270198 76.353071 
L 198.178105 76.353071 
L 198.178105 77.638425 
L 199.539966 77.638425 
L 199.539966 78.92378 
L 200.447874 78.92378 
L 200.447874 80.209134 
L 200.901827 80.209134 
L 200.901827 81.494488 
L 201.355781 81.494488 
L 201.355781 82.779843 
L 202.263688 82.779843 
L 202.263688 84.065197 
L 202.717642 84.065197 
L 202.717642 85.350551 
L 203.171596 85.350551 
L 203.171596 86.635906 
L 203.625549 86.635906 
L 203.625549 87.92126 
L 204.533457 87.92126 
L 204.533457 89.206614 
L 205.441364 89.206614 
L 205.441364 90.491969 
L 206.349271 90.491969 
L 206.349271 91.777323 
L 207.257179 91.777323 
L 207.257179 93.062677 
L 208.165097 93.062677 
L 208.165097 94.348031 
L 209.526958 94.348031 
L 209.526958 95.633386 
L 210.888819 95.633386 
L 210.888819 96.91874 
L 213.612541 96.91874 
L 213.612541 98.204094 
L 216.336263 98.204094 
L 216.336263 99.489449 
L 225.415347 99.489449 
L 225.415347 98.204094 
L 228.139069 98.204094 
L 228.139069 96.91874 
L 230.862791 96.91874 
L 230.862791 95.633386 
L 234.494431 95.633386 
L 234.494431 94.348031 
L 241.757689 94.348031 
L 241.757689 95.633386 
L 257.192125 95.633386 
L 257.192125 96.91874 
L 262.185626 96.91874 
L 262.185626 95.633386 
L 264.001441 95.633386 
L 264.001441 94.348031 
L 265.363312 94.348031 
L 265.363312 93.062677 
L 266.725163 93.062677 
L 266.725163 91.777323 
L 267.63307 91.777323 
L 267.63307 90.491969 
L 268.994942 90.491969 
L 268.994942 89.206614 
L 270.810756 89.206614 
L 270.810756 87.92126 
L 272.172628 87.92126 
L 272.172628 86.635906 
L 273.534478 86.635906 
L 273.534478 85.350551 
L 274.442386 85.350551 
L 274.442386 84.065197 
L 275.804257 84.065197 
L 275.804257 82.779843 
L 277.166108 82.779843 
L 277.166108 81.494488 
L 278.981922 81.494488 
L 278.981922 80.209134 
L 282.159609 80.209134 
L 282.159609 78.92378 
L 286.699145 78.92378 
L 286.699145 80.209134 
L 288.968925 80.209134 
L 288.968925 81.494488 
L 289.876832 81.494488 
L 289.876832 82.779843 
L 291.238682 82.779843 
L 291.238682 84.065197 
L 292.600554 84.065197 
L 292.600554 85.350551 
L 293.508461 85.350551 
L 293.508461 86.635906 
L 294.416368 86.635906 
L 294.416368 87.92126 
L 295.324276 87.92126 
L 295.324276 89.206614 
L 296.232183 89.206614 
L 296.232183 90.491969 
L 297.14009 90.491969 
L 297.14009 91.777323 
L 298.047998 91.777323 
L 298.047998 93.062677 
L 299.40987 93.062677 
L 299.40987 94.348031 
L 300.317777 94.348031 
L 300.317777 95.633386 
L 301.225684 95.633386 
L 301.225684 96.91874 
L 301.679627 96.91874 
L 301.679627 98.204094 
L 302.587534 98.204094 
L 302.587534 99.489449 
L 303.495442 99.489449 
L 303.495442 100.774803 
L 304.403349 100.774803 
L 304.403349 102.060157 
L 305.765221 102.060157 
L 305.765221 103.345512 
L 307.127093 103.345512 
L 307.127093 104.630866 
L 308.488943 104.630866 
L 308.488943 105.91622 
L 315.298259 105.91622 
L 315.298259 104.630866 
L 317.114073 104.630866 
L 317.114073 103.345512 
L 318.475945 103.345512 
L 318.475945 102.060157 
L 320.29176 102.060157 
L 320.29176 100.774803 
L 322.107574 100.774803 
L 322.107574 99.489449 
L 323.923389 99.489449 
L 323.923389 98.204094 
L 325.739204 98.204094 
L 325.739204 96.91874 
L 327.555018 96.91874 
L 327.555018 95.633386 
L 328.462926 95.633386 
L 328.462926 94.348031 
L 329.370833 94.348031 
L 329.370833 93.062677 
L 332.548519 93.062677 
L 332.548519 91.777323 
L 336.180149 91.777323 
L 336.180149 90.491969 
L 339.357814 90.491969 
L 339.357814 89.206614 
L 343.897372 89.206614 
L 343.897372 87.92126 
L 347.075037 87.92126 
L 347.075037 86.635906 
L 350.706666 86.635906 
L 350.706666 85.350551 
L 357.515982 85.350551 
L 357.515982 86.635906 
L 359.331796 86.635906 
L 359.331796 87.92126 
L 360.693668 87.92126 
L 360.693668 89.206614 
L 361.601576 89.206614 
L 361.601576 90.491969 
L 362.509483 90.491969 
L 362.509483 91.777323 
L 363.41739 91.777323 
L 363.41739 93.062677 
L 364.325297 93.062677 
L 364.325297 94.348031 
L 365.233205 94.348031 
L 365.233205 95.633386 
L 366.141112 95.633386 
L 366.141112 96.91874 
L 366.595077 96.91874 
L 366.595077 98.204094 
L 367.502984 98.204094 
L 367.502984 99.489449 
L 367.956927 99.489449 
L 367.956927 100.774803 
L 368.864834 100.774803 
L 368.864834 102.060157 
L 369.318799 102.060157 
L 369.318799 103.345512 
L 370.226706 103.345512 
L 370.226706 104.630866 
L 370.680649 104.630866 
L 370.680649 105.91622 
L 371.134613 105.91622 
L 371.134613 107.201575 
L 371.588556 107.201575 
L 371.588556 108.486929 
L 372.496463 108.486929 
L 372.496463 109.772283 
L 372.950428 109.772283 
L 372.950428 111.057638 
L 373.858335 111.057638 
L 373.858335 112.342992 
L 374.766243 112.342992 
L 374.766243 113.628346 
L 375.67415 113.628346 
L 375.67415 114.913701 
L 376.582057 114.913701 
L 376.582057 116.199055 
L 377.943929 116.199055 
L 377.943929 117.484409 
L 380.213687 117.484409 
L 380.213687 118.769764 
L 381.121594 118.769764 
L 381.121594 120.055118 
L 383.845316 120.055118 
L 383.845316 121.340472 
L 385.207188 121.340472 
L 385.207188 122.625827 
L 390.200689 122.625827 
L 390.200689 121.340472 
L 393.832318 121.340472 
L 393.832318 120.055118 
L 395.194168 120.055118 
L 395.194168 118.769764 
L 396.102076 118.769764 
L 396.102076 117.484409 
L 397.009983 117.484409 
L 397.009983 116.199055 
L 398.371855 116.199055 
L 398.371855 114.913701 
L 399.279762 114.913701 
L 399.279762 113.628346 
L 400.187669 113.628346 
L 400.187669 112.342992 
L 401.549541 112.342992 
L 401.549541 111.057638 
L 402.457448 111.057638 
L 402.457448 109.772283 
L 403.819299 109.772283 
L 403.819299 108.486929 
L 404.727206 108.486929 
L 404.727206 107.201575 
L 405.635113 107.201575 
L 405.635113 105.91622 
L 406.543021 105.91622 
L 406.543021 104.630866 
L 407.450928 104.630866 
L 407.450928 103.345512 
L 407.904892 103.345512 
L 407.904892 102.060157 
L 408.358835 102.060157 
L 408.358835 100.774803 
L 409.266743 100.774803 
L 409.266743 99.489449 
L 409.720707 99.489449 
L 409.720707 98.204094 
L 410.628614 98.204094 
L 410.628614 96.91874 
L 411.082557 96.91874 
L 411.082557 95.633386 
L 411.990486 95.633386 
L 411.990486 94.348031 
L 412.444429 94.348031 
L 412.444429 93.062677 
L 412.898394 93.062677 
L 412.898394 91.777323 
L 413.352336 91.777323 
L 413.352336 90.491969 
L 413.806301 90.491969 
L 413.806301 89.206614 
L 414.260244 89.206614 
L 414.260244 86.635906 
L 414.714208 86.635906 
L 414.714208 85.350551 
L 415.168151 85.350551 
L 415.168151 84.065197 
L 415.622115 84.065197 
L 415.622115 82.779843 
L 416.076058 82.779843 
L 416.076058 81.494488 
L 416.530023 81.494488 
L 416.530023 80.209134 
L 416.983966 80.209134 
L 416.983966 78.92378 
L 417.43793 78.92378 
L 417.43793 77.638425 
L 417.891873 77.638425 
L 417.891873 76.353071 
L 418.345837 76.353071 
L 418.345837 75.067717 
L 419.253745 75.067717 
L 419.253745 73.782362 
L 420.615595 73.782362 
L 420.615595 72.497008 
L 421.069559 72.497008 
L 421.069559 71.211654 
L 421.977467 71.211654 
L 421.977467 69.926299 
L 423.339339 69.926299 
L 423.339339 68.640945 
L 424.701189 68.640945 
L 424.701189 67.355591 
L 427.424911 67.355591 
L 427.424911 66.070236 
L 433.780262 66.070236 
L 433.780262 67.355591 
L 435.596098 67.355591 
L 435.596098 68.640945 
L 437.865877 68.640945 
L 437.865877 69.926299 
L 439.227728 69.926299 
L 439.227728 71.211654 
L 440.589578 71.211654 
L 440.589578 72.497008 
L 441.951428 72.497008 
L 441.951428 73.782362 
L 442.859357 73.782362 
L 442.859357 75.067717 
L 443.767243 75.067717 
L 443.767243 76.353071 
L 444.675172 76.353071 
L 444.675172 77.638425 
L 445.583057 77.638425 
L 445.583057 78.92378 
L 446.490986 78.92378 
L 446.490986 80.209134 
L 446.944951 80.209134 
L 446.944951 81.494488 
L 447.852836 81.494488 
L 447.852836 82.779843 
L 448.760765 82.779843 
L 448.760765 84.065197 
L 449.668651 84.065197 
L 449.668651 85.350551 
L 450.57658 85.350551 
L 450.57658 86.635906 
L 451.484466 86.635906 
L 451.484466 87.92126 
L 452.846359 87.92126 
L 452.846359 89.206614 
L 454.208209 89.206614 
L 454.208209 90.491969 
L 454.662174 90.491969 
L 454.662174 91.777323 
L 456.024024 91.777323 
L 456.024024 93.062677 
L 457.385874 93.062677 
L 457.385874 94.348031 
L 458.747768 94.348031 
L 458.747768 95.633386 
L 460.109618 95.633386 
L 460.109618 96.91874 
L 461.017503 96.91874 
L 461.017503 98.204094 
L 462.379397 98.204094 
L 462.379397 99.489449 
L 463.741247 99.489449 
L 463.741247 100.774803 
L 464.649133 100.774803 
L 464.649133 102.060157 
L 465.557062 102.060157 
L 465.557062 103.345512 
L 466.918912 103.345512 
L 466.918912 104.630866 
L 468.734727 104.630866 
L 468.734727 105.91622 
L 470.550541 105.91622 
L 470.550541 107.201575 
L 472.366356 107.201575 
L 472.366356 108.486929 
L 478.721729 108.486929 
L 478.721729 107.201575 
L 480.991508 107.201575 
L 480.991508 105.91622 
L 482.353358 105.91622 
L 482.353358 104.630866 
L 483.715208 104.630866 
L 483.715208 103.345512 
L 485.077102 103.345512 
L 485.077102 102.060157 
L 485.984987 102.060157 
L 485.984987 100.774803 
L 487.346838 100.774803 
L 487.346838 99.489449 
L 488.254766 99.489449 
L 488.254766 98.204094 
L 489.616617 98.204094 
L 489.616617 96.91874 
L 490.524546 96.91874 
L 490.524546 95.633386 
L 491.886396 95.633386 
L 491.886396 94.348031 
L 493.248246 94.348031 
L 493.248246 93.062677 
L 494.610139 93.062677 
L 494.610139 91.777323 
L 495.97199 91.777323 
L 495.97199 90.491969 
L 497.787804 90.491969 
L 497.787804 89.206614 
L 500.511505 89.206614 
L 500.511505 87.92126 
L 502.781284 87.92126 
L 502.781284 86.635906 
L 505.505027 86.635906 
L 505.505027 85.350551 
L 510.044542 85.350551 
L 510.044542 84.065197 
L 517.761765 84.065197 
L 517.761765 85.350551 
L 522.301324 85.350551 
L 522.301324 86.635906 
L 524.571103 86.635906 
L 524.571103 87.92126 
L 525.932953 87.92126 
L 525.932953 89.206614 
L 527.294803 89.206614 
L 527.294803 90.491969 
L 528.656697 90.491969 
L 528.656697 91.777323 
L 529.564582 91.777323 
L 529.564582 93.062677 
L 530.926432 93.062677 
L 530.926432 94.348031 
L 532.288326 94.348031 
L 532.288326 95.633386 
L 533.650176 95.633386 
L 533.650176 96.91874 
L 535.465991 96.91874 
L 535.465991 98.204094 
L 537.73577 98.204094 
L 537.73577 99.489449 
L 539.09762 99.489449 
L 539.09762 100.774803 
L 540.913435 100.774803 
L 540.913435 102.060157 
L 541.821364 102.060157 
L 541.821364 102.060157 
" style="fill:none;stroke:#ff7f0e;stroke-linecap:square;stroke-opacity:0.8;stroke-width:1.5;"/>
   </g>
   <g id="line2d_15">
    <path clip-path="url(#p999a6c0802)" d="M 74.248636 93.062677 
L 75.156545 93.062677 
L 75.156545 91.777323 
L 76.064453 91.777323 
L 76.064453 95.633386 
L 76.518407 95.633386 
L 76.518407 94.348031 
L 77.880269 94.348031 
L 77.880269 95.633386 
L 78.334223 95.633386 
L 78.334223 96.91874 
L 80.150039 96.91874 
L 80.150039 98.204094 
L 81.511902 98.204094 
L 81.511902 99.489449 
L 83.327718 99.489449 
L 83.327718 100.774803 
L 84.68958 100.774803 
L 84.68958 102.060157 
L 86.051442 102.060157 
L 86.051442 103.345512 
L 89.683076 103.345512 
L 89.683076 104.630866 
L 91.952845 104.630866 
L 91.952845 103.345512 
L 95.584479 103.345512 
L 95.584479 102.060157 
L 96.946341 102.060157 
L 96.946341 100.774803 
L 98.308202 100.774803 
L 98.308202 99.489449 
L 99.216112 99.489449 
L 99.216112 98.204094 
L 100.577973 98.204094 
L 100.577973 96.91874 
L 101.939837 96.91874 
L 101.939837 95.633386 
L 102.847744 95.633386 
L 102.847744 94.348031 
L 103.301698 94.348031 
L 103.301698 93.062677 
L 104.209605 93.062677 
L 104.209605 91.777323 
L 105.117515 91.777323 
L 105.117515 90.491969 
L 105.571469 90.491969 
L 105.571469 89.206614 
L 106.479376 89.206614 
L 106.479376 87.92126 
L 107.387284 87.92126 
L 107.387284 86.635906 
L 108.295194 86.635906 
L 108.295194 85.350551 
L 109.203101 85.350551 
L 109.203101 84.065197 
L 110.564962 84.065197 
L 110.564962 82.779843 
L 111.018918 82.779843 
L 111.018918 81.494488 
L 112.380779 81.494488 
L 112.380779 80.209134 
L 113.288687 80.209134 
L 113.288687 78.92378 
L 114.196597 78.92378 
L 114.196597 77.638425 
L 115.104504 77.638425 
L 115.104504 76.353071 
L 116.012411 76.353071 
L 116.012411 75.067717 
L 116.466368 75.067717 
L 116.466368 73.782362 
L 117.374275 73.782362 
L 117.374275 72.497008 
L 118.282182 72.497008 
L 118.282182 71.211654 
L 119.19009 71.211654 
L 119.19009 69.926299 
L 120.098 69.926299 
L 120.098 68.640945 
L 121.459861 68.640945 
L 121.459861 67.355591 
L 123.275675 67.355591 
L 123.275675 66.070236 
L 134.170574 66.070236 
L 134.170574 67.355591 
L 137.348255 67.355591 
L 137.348255 68.640945 
L 139.618023 68.640945 
L 139.618023 69.926299 
L 140.525931 69.926299 
L 140.525931 71.211654 
L 142.341751 71.211654 
L 142.341751 72.497008 
L 143.249658 72.497008 
L 143.249658 73.782362 
L 144.611519 73.782362 
L 144.611519 75.067717 
L 145.065473 75.067717 
L 145.065473 76.353071 
L 145.97338 76.353071 
L 145.97338 77.638425 
L 146.881287 77.638425 
L 146.881287 78.92378 
L 147.7892 78.92378 
L 147.7892 80.209134 
L 148.243154 80.209134 
L 148.243154 81.494488 
L 148.697107 81.494488 
L 148.697107 82.779843 
L 149.151061 82.779843 
L 149.151061 84.065197 
L 149.605015 84.065197 
L 149.605015 85.350551 
L 150.512922 85.350551 
L 150.512922 86.635906 
L 151.420829 86.635906 
L 151.420829 87.92126 
L 152.328737 87.92126 
L 152.328737 89.206614 
L 152.782696 89.206614 
L 152.782696 90.491969 
L 153.690603 90.491969 
L 153.690603 91.777323 
L 154.144557 91.777323 
L 154.144557 95.633386 
L 155.052464 95.633386 
L 155.052464 116.199055 
L 155.506418 116.199055 
L 155.506418 96.91874 
L 155.960371 96.91874 
L 155.960371 98.204094 
L 156.414325 98.204094 
L 156.414325 99.489449 
L 156.868279 99.489449 
L 156.868279 100.774803 
L 157.776186 100.774803 
L 157.776186 102.060157 
L 158.23014 102.060157 
L 158.23014 103.345512 
L 159.138052 103.345512 
L 159.138052 104.630866 
L 159.592006 104.630866 
L 159.592006 105.91622 
L 160.499913 105.91622 
L 160.499913 107.201575 
L 161.407821 107.201575 
L 161.407821 108.486929 
L 161.861774 108.486929 
L 161.861774 109.772283 
L 163.223635 109.772283 
L 163.223635 111.057638 
L 164.131543 111.057638 
L 164.131543 112.342992 
L 165.947363 112.342992 
L 165.947363 113.628346 
L 167.763177 113.628346 
L 167.763177 114.913701 
L 174.572493 114.913701 
L 174.572493 113.628346 
L 175.480401 113.628346 
L 175.480401 112.342992 
L 176.388308 112.342992 
L 176.388308 111.057638 
L 177.296215 111.057638 
L 177.296215 109.772283 
L 178.204123 109.772283 
L 178.204123 108.486929 
L 178.658076 108.486929 
L 178.658076 107.201575 
L 179.565984 107.201575 
L 179.565984 105.91622 
L 180.473891 105.91622 
L 180.473891 104.630866 
L 181.381798 104.630866 
L 181.381798 103.345512 
L 182.289706 103.345512 
L 182.289706 102.060157 
L 182.743659 102.060157 
L 182.743659 100.774803 
L 184.10552 100.774803 
L 184.10552 99.489449 
L 184.559474 99.489449 
L 184.559474 98.204094 
L 185.467392 98.204094 
L 185.467392 96.91874 
L 186.375299 96.91874 
L 186.375299 95.633386 
L 187.283207 95.633386 
L 187.283207 94.348031 
L 188.191114 94.348031 
L 188.191114 93.062677 
L 189.099021 93.062677 
L 189.099021 91.777323 
L 190.006929 91.777323 
L 190.006929 90.491969 
L 190.460882 90.491969 
L 190.460882 89.206614 
L 191.36879 89.206614 
L 191.36879 87.92126 
L 192.730651 87.92126 
L 192.730651 86.635906 
L 193.638558 86.635906 
L 193.638558 85.350551 
L 194.092512 85.350551 
L 194.092512 84.065197 
L 195.454373 84.065197 
L 195.454373 82.779843 
L 196.362291 82.779843 
L 196.362291 81.494488 
L 197.724152 81.494488 
L 197.724152 80.209134 
L 199.539966 80.209134 
L 199.539966 78.92378 
L 201.809735 78.92378 
L 201.809735 77.638425 
L 210.888819 77.638425 
L 210.888819 78.92378 
L 213.612541 78.92378 
L 213.612541 80.209134 
L 214.520448 80.209134 
L 214.520448 81.494488 
L 215.882309 81.494488 
L 215.882309 82.779843 
L 216.790216 82.779843 
L 216.790216 84.065197 
L 218.152077 84.065197 
L 218.152077 85.350551 
L 219.059985 85.350551 
L 219.059985 86.635906 
L 220.421856 86.635906 
L 220.421856 87.92126 
L 221.783717 87.92126 
L 221.783717 89.206614 
L 222.691625 89.206614 
L 222.691625 90.491969 
L 224.053486 90.491969 
L 224.053486 91.777323 
L 224.961393 91.777323 
L 224.961393 93.062677 
L 225.8693 93.062677 
L 225.8693 94.348031 
L 226.777208 94.348031 
L 226.777208 95.633386 
L 227.685115 95.633386 
L 227.685115 96.91874 
L 228.139069 96.91874 
L 228.139069 98.204094 
L 228.593022 98.204094 
L 228.593022 99.489449 
L 229.50093 99.489449 
L 229.50093 100.774803 
L 229.954883 100.774803 
L 229.954883 102.060157 
L 230.408837 102.060157 
L 230.408837 103.345512 
L 231.316755 103.345512 
L 231.316755 104.630866 
L 232.224663 104.630866 
L 232.224663 105.91622 
L 232.678616 105.91622 
L 232.678616 107.201575 
L 233.13257 107.201575 
L 233.13257 108.486929 
L 234.040477 108.486929 
L 234.040477 109.772283 
L 234.494431 109.772283 
L 234.494431 111.057638 
L 235.402338 111.057638 
L 235.402338 112.342992 
L 236.310246 112.342992 
L 236.310246 113.628346 
L 237.218153 113.628346 
L 237.218153 114.913701 
L 237.672107 114.913701 
L 237.672107 116.199055 
L 238.580014 116.199055 
L 238.580014 117.484409 
L 239.487921 117.484409 
L 239.487921 118.769764 
L 244.935376 118.769764 
L 244.935376 117.484409 
L 247.659098 117.484409 
L 247.659098 116.199055 
L 249.020959 116.199055 
L 249.020959 114.913701 
L 250.836774 114.913701 
L 250.836774 113.628346 
L 251.744681 113.628346 
L 251.744681 112.342992 
L 252.652588 112.342992 
L 252.652588 111.057638 
L 253.560496 111.057638 
L 253.560496 109.772283 
L 254.014449 109.772283 
L 254.014449 108.486929 
L 254.922367 108.486929 
L 254.922367 107.201575 
L 255.376321 107.201575 
L 255.376321 105.91622 
L 255.830275 105.91622 
L 255.830275 104.630866 
L 256.284218 104.630866 
L 256.284218 103.345512 
L 256.738182 103.345512 
L 256.738182 102.060157 
L 257.192125 102.060157 
L 257.192125 100.774803 
L 257.646089 100.774803 
L 257.646089 99.489449 
L 258.100032 99.489449 
L 258.100032 98.204094 
L 258.553997 98.204094 
L 258.553997 96.91874 
L 259.007939 96.91874 
L 259.007939 95.633386 
L 259.461904 95.633386 
L 259.461904 94.348031 
L 259.915847 94.348031 
L 259.915847 93.062677 
L 260.369811 93.062677 
L 260.369811 91.777323 
L 260.823776 91.777323 
L 260.823776 90.491969 
L 261.277719 90.491969 
L 261.277719 89.206614 
L 261.731683 89.206614 
L 261.731683 87.92126 
L 262.185626 87.92126 
L 262.185626 86.635906 
L 262.63959 86.635906 
L 262.63959 85.350551 
L 263.093533 85.350551 
L 263.093533 84.065197 
L 263.547498 84.065197 
L 263.547498 82.779843 
L 264.001441 82.779843 
L 264.001441 81.494488 
L 264.455405 81.494488 
L 264.455405 80.209134 
L 264.909348 80.209134 
L 264.909348 78.92378 
L 265.363312 78.92378 
L 265.363312 77.638425 
L 265.817255 77.638425 
L 265.817255 76.353071 
L 266.725163 76.353071 
L 266.725163 75.067717 
L 267.179127 75.067717 
L 267.179127 73.782362 
L 268.087034 73.782362 
L 268.087034 72.497008 
L 268.540977 72.497008 
L 268.540977 71.211654 
L 268.994942 71.211654 
L 268.994942 69.926299 
L 269.448885 69.926299 
L 269.448885 68.640945 
L 270.356792 68.640945 
L 270.356792 67.355591 
L 271.264699 67.355591 
L 271.264699 66.070236 
L 272.626571 66.070236 
L 272.626571 64.784882 
L 273.988443 64.784882 
L 273.988443 63.499528 
L 275.350293 63.499528 
L 275.350293 62.214173 
L 276.2582 62.214173 
L 276.2582 60.928819 
L 277.620072 60.928819 
L 277.620072 59.643465 
L 278.527979 59.643465 
L 278.527979 58.35811 
L 279.88983 58.35811 
L 279.88983 57.072756 
L 283.975423 57.072756 
L 283.975423 58.35811 
L 286.699145 58.35811 
L 286.699145 59.643465 
L 288.061017 59.643465 
L 288.061017 60.928819 
L 289.422867 60.928819 
L 289.422867 62.214173 
L 290.330775 62.214173 
L 290.330775 63.499528 
L 291.238682 63.499528 
L 291.238682 64.784882 
L 292.146589 64.784882 
L 292.146589 66.070236 
L 293.054497 66.070236 
L 293.054497 67.355591 
L 293.962404 67.355591 
L 293.962404 68.640945 
L 294.870311 68.640945 
L 294.870311 69.926299 
L 295.324276 69.926299 
L 295.324276 71.211654 
L 295.77824 71.211654 
L 295.77824 72.497008 
L 296.232183 72.497008 
L 296.232183 73.782362 
L 296.686148 73.782362 
L 296.686148 75.067717 
L 297.14009 75.067717 
L 297.14009 76.353071 
L 298.047998 76.353071 
L 298.047998 77.638425 
L 298.955905 77.638425 
L 298.955905 78.92378 
L 299.40987 78.92378 
L 299.40987 80.209134 
L 299.863812 80.209134 
L 299.863812 81.494488 
L 301.225684 81.494488 
L 301.225684 82.779843 
L 302.133592 82.779843 
L 302.133592 84.065197 
L 303.041499 84.065197 
L 303.041499 85.350551 
L 304.403349 85.350551 
L 304.403349 86.635906 
L 305.311256 86.635906 
L 305.311256 87.92126 
L 306.219164 87.92126 
L 306.219164 89.206614 
L 307.581036 89.206614 
L 307.581036 90.491969 
L 308.942907 90.491969 
L 308.942907 91.777323 
L 313.028479 91.777323 
L 313.028479 93.062677 
L 319.383852 93.062677 
L 319.383852 91.777323 
L 320.745703 91.777323 
L 320.745703 90.491969 
L 323.469425 90.491969 
L 323.469425 89.206614 
L 325.739204 89.206614 
L 325.739204 87.92126 
L 328.916868 87.92126 
L 328.916868 86.635906 
L 331.640612 86.635906 
L 331.640612 85.350551 
L 335.726184 85.350551 
L 335.726184 84.065197 
L 342.081557 84.065197 
L 342.081557 82.779843 
L 345.259222 82.779843 
L 345.259222 81.494488 
L 349.344816 81.494488 
L 349.344816 80.209134 
L 350.252723 80.209134 
L 350.252723 81.494488 
L 354.79226 81.494488 
L 354.79226 82.779843 
L 358.423889 82.779843 
L 358.423889 84.065197 
L 360.693668 84.065197 
L 360.693668 85.350551 
L 362.509483 85.350551 
L 362.509483 86.635906 
L 364.325297 86.635906 
L 364.325297 87.92126 
L 365.687169 87.92126 
L 365.687169 89.206614 
L 367.502984 89.206614 
L 367.502984 90.491969 
L 368.864834 90.491969 
L 368.864834 91.777323 
L 369.318799 91.777323 
L 369.318799 93.062677 
L 370.680649 93.062677 
L 370.680649 94.348031 
L 372.042521 94.348031 
L 372.042521 95.633386 
L 373.404371 95.633386 
L 373.404371 96.91874 
L 375.67415 96.91874 
L 375.67415 98.204094 
L 380.667651 98.204094 
L 380.667651 96.91874 
L 382.937408 96.91874 
L 382.937408 95.633386 
L 386.569038 95.633386 
L 386.569038 94.348031 
L 389.292781 94.348031 
L 389.292781 93.062677 
L 395.648133 93.062677 
L 395.648133 91.777323 
L 398.825798 91.777323 
L 398.825798 93.062677 
L 403.819299 93.062677 
L 403.819299 91.777323 
L 407.450928 91.777323 
L 407.450928 93.062677 
L 418.79978 93.062677 
L 418.79978 91.777323 
L 420.615595 91.777323 
L 420.615595 93.062677 
L 421.977467 93.062677 
L 421.977467 91.777323 
L 425.155153 91.777323 
L 425.155153 90.491969 
L 431.05654 90.491969 
L 431.05654 89.206614 
L 446.037022 89.206614 
L 446.037022 87.92126 
L 446.944951 87.92126 
L 446.944951 89.206614 
L 450.57658 89.206614 
L 450.57658 90.491969 
L 453.754245 90.491969 
L 453.754245 91.777323 
L 456.024024 91.777323 
L 456.024024 93.062677 
L 457.839839 93.062677 
L 457.839839 94.348031 
L 460.563582 94.348031 
L 460.563582 95.633386 
L 466.464947 95.633386 
L 466.464947 96.91874 
L 471.912435 96.91874 
L 471.912435 98.204094 
L 475.544064 98.204094 
L 475.544064 99.489449 
L 477.8138 99.489449 
L 477.8138 100.774803 
L 487.800802 100.774803 
L 487.800802 99.489449 
L 490.070581 99.489449 
L 490.070581 98.204094 
L 492.34036 98.204094 
L 492.34036 96.91874 
L 493.70221 96.91874 
L 493.70221 95.633386 
L 495.518025 95.633386 
L 495.518025 94.348031 
L 497.787804 94.348031 
L 497.787804 93.062677 
L 499.149654 93.062677 
L 499.149654 91.777323 
L 500.965469 91.777323 
L 500.965469 90.491969 
L 502.327319 90.491969 
L 502.327319 89.206614 
L 504.597098 89.206614 
L 504.597098 87.92126 
L 506.412913 87.92126 
L 506.412913 86.635906 
L 507.774806 86.635906 
L 507.774806 85.350551 
L 508.682692 85.350551 
L 508.682692 84.065197 
L 510.498507 84.065197 
L 510.498507 82.779843 
L 512.768286 82.779843 
L 512.768286 81.494488 
L 515.945951 81.494488 
L 515.945951 80.209134 
L 522.301324 80.209134 
L 522.301324 81.494488 
L 525.932953 81.494488 
L 525.932953 82.779843 
L 527.748768 82.779843 
L 527.748768 84.065197 
L 529.110618 84.065197 
L 529.110618 86.635906 
L 530.472511 86.635906 
L 530.472511 87.92126 
L 531.380397 87.92126 
L 531.380397 89.206614 
L 532.742247 89.206614 
L 532.742247 90.491969 
L 533.650176 90.491969 
L 533.650176 91.777323 
L 534.558062 91.777323 
L 534.558062 93.062677 
L 535.465991 93.062677 
L 535.465991 94.348031 
L 536.373876 94.348031 
L 536.373876 95.633386 
L 537.281805 95.633386 
L 537.281805 96.91874 
L 538.189691 96.91874 
L 538.189691 98.204094 
L 539.09762 98.204094 
L 539.09762 99.489449 
L 539.551584 99.489449 
L 539.551584 100.774803 
L 540.45947 100.774803 
L 540.45947 102.060157 
L 541.367399 102.060157 
L 541.367399 103.345512 
L 541.821364 103.345512 
L 541.821364 103.345512 
" style="fill:none;stroke:#2ca02c;stroke-linecap:square;stroke-opacity:0.8;stroke-width:1.5;"/>
   </g>
   <g id="line2d_16">
    <path clip-path="url(#p999a6c0802)" d="M 74.248636 93.062677 
L 74.70259 93.062677 
L 74.70259 91.777323 
L 75.156545 91.777323 
L 75.156545 90.491969 
L 76.972361 90.491969 
L 76.972361 89.206614 
L 77.880269 89.206614 
L 77.880269 90.491969 
L 78.334223 90.491969 
L 78.334223 89.206614 
L 81.057947 89.206614 
L 81.057947 87.92126 
L 84.235626 87.92126 
L 84.235626 86.635906 
L 90.137029 86.635906 
L 90.137029 87.92126 
L 93.314708 87.92126 
L 93.314708 89.206614 
L 95.584479 89.206614 
L 95.584479 90.491969 
L 96.946341 90.491969 
L 96.946341 91.777323 
L 99.216112 91.777323 
L 99.216112 93.062677 
L 104.663559 93.062677 
L 104.663559 94.348031 
L 112.380779 94.348031 
L 112.380779 95.633386 
L 116.466368 95.633386 
L 116.466368 96.91874 
L 120.098 96.91874 
L 120.098 98.204094 
L 122.367768 98.204094 
L 122.367768 99.489449 
L 123.729634 99.489449 
L 123.729634 100.774803 
L 125.091495 100.774803 
L 125.091495 102.060157 
L 126.453356 102.060157 
L 126.453356 103.345512 
L 127.815217 103.345512 
L 127.815217 104.630866 
L 130.538945 104.630866 
L 130.538945 105.91622 
L 137.802209 105.91622 
L 137.802209 104.630866 
L 140.979884 104.630866 
L 140.979884 103.345512 
L 143.703612 103.345512 
L 143.703612 102.060157 
L 145.97338 102.060157 
L 145.97338 100.774803 
L 147.7892 100.774803 
L 147.7892 99.489449 
L 150.058968 99.489449 
L 150.058968 98.204094 
L 152.328737 98.204094 
L 152.328737 96.91874 
L 153.690603 96.91874 
L 153.690603 95.633386 
L 154.59851 95.633386 
L 154.59851 94.348031 
L 155.960371 94.348031 
L 155.960371 93.062677 
L 158.23014 93.062677 
L 158.23014 91.777323 
L 160.04596 91.777323 
L 160.04596 90.491969 
L 162.315728 90.491969 
L 162.315728 89.206614 
L 164.585502 89.206614 
L 164.585502 87.92126 
L 166.401317 87.92126 
L 166.401317 86.635906 
L 168.217131 86.635906 
L 168.217131 85.350551 
L 173.210632 85.350551 
L 173.210632 86.635906 
L 175.026447 86.635906 
L 175.026447 87.92126 
L 175.934354 87.92126 
L 175.934354 89.206614 
L 177.296215 89.206614 
L 177.296215 90.491969 
L 178.204123 90.491969 
L 178.204123 91.777323 
L 179.11203 91.777323 
L 179.11203 93.062677 
L 180.019937 93.062677 
L 180.019937 94.348031 
L 180.473891 94.348031 
L 180.473891 95.633386 
L 181.381798 95.633386 
L 181.381798 96.91874 
L 182.289706 96.91874 
L 182.289706 98.204094 
L 182.743659 98.204094 
L 182.743659 99.489449 
L 183.197613 99.489449 
L 183.197613 100.774803 
L 184.10552 100.774803 
L 184.10552 102.060157 
L 184.559474 102.060157 
L 184.559474 103.345512 
L 185.467392 103.345512 
L 185.467392 104.630866 
L 185.921346 104.630866 
L 185.921346 105.91622 
L 186.375299 105.91622 
L 186.375299 107.201575 
L 186.829253 107.201575 
L 186.829253 108.486929 
L 187.283207 108.486929 
L 187.283207 109.772283 
L 188.191114 109.772283 
L 188.191114 111.057638 
L 189.099021 111.057638 
L 189.099021 112.342992 
L 189.552975 112.342992 
L 189.552975 113.628346 
L 190.460882 113.628346 
L 190.460882 114.913701 
L 191.36879 114.913701 
L 191.36879 116.199055 
L 193.184604 116.199055 
L 193.184604 117.484409 
L 193.638558 117.484409 
L 193.638558 118.769764 
L 194.546465 118.769764 
L 194.546465 120.055118 
L 195.908326 120.055118 
L 195.908326 121.340472 
L 197.270198 121.340472 
L 197.270198 122.625827 
L 199.086013 122.625827 
L 199.086013 123.911181 
L 201.355781 123.911181 
L 201.355781 125.196535 
L 204.98741 125.196535 
L 204.98741 126.48189 
L 205.441364 126.48189 
L 205.441364 127.767244 
L 208.61905 127.767244 
L 208.61905 129.052598 
L 209.980911 129.052598 
L 209.980911 127.767244 
L 212.704633 127.767244 
L 212.704633 126.48189 
L 213.158587 126.48189 
L 213.158587 125.196535 
L 214.520448 125.196535 
L 214.520448 123.911181 
L 215.882309 123.911181 
L 215.882309 122.625827 
L 217.24417 122.625827 
L 217.24417 121.340472 
L 218.152077 121.340472 
L 218.152077 120.055118 
L 219.967903 120.055118 
L 219.967903 118.769764 
L 220.87581 118.769764 
L 220.87581 117.484409 
L 221.783717 117.484409 
L 221.783717 116.199055 
L 222.691625 116.199055 
L 222.691625 114.913701 
L 223.145578 114.913701 
L 223.145578 113.628346 
L 224.053486 113.628346 
L 224.053486 112.342992 
L 224.507439 112.342992 
L 224.507439 111.057638 
L 224.961393 111.057638 
L 224.961393 109.772283 
L 225.8693 109.772283 
L 225.8693 108.486929 
L 226.323254 108.486929 
L 226.323254 107.201575 
L 226.777208 107.201575 
L 226.777208 105.91622 
L 227.685115 105.91622 
L 227.685115 104.630866 
L 228.139069 104.630866 
L 228.139069 103.345512 
L 228.593022 103.345512 
L 228.593022 102.060157 
L 229.50093 102.060157 
L 229.50093 100.774803 
L 229.954883 100.774803 
L 229.954883 99.489449 
L 230.862791 99.489449 
L 230.862791 98.204094 
L 231.316755 98.204094 
L 231.316755 96.91874 
L 232.224663 96.91874 
L 232.224663 95.633386 
L 232.678616 95.633386 
L 232.678616 94.348031 
L 233.586524 94.348031 
L 233.586524 93.062677 
L 234.494431 93.062677 
L 234.494431 91.777323 
L 234.948385 91.777323 
L 234.948385 90.491969 
L 235.856292 90.491969 
L 235.856292 89.206614 
L 236.764199 89.206614 
L 236.764199 87.92126 
L 237.218153 87.92126 
L 237.218153 86.635906 
L 238.12606 86.635906 
L 238.12606 85.350551 
L 238.580014 85.350551 
L 238.580014 84.065197 
L 239.487921 84.065197 
L 239.487921 82.779843 
L 240.395828 82.779843 
L 240.395828 81.494488 
L 241.303736 81.494488 
L 241.303736 80.209134 
L 242.211643 80.209134 
L 242.211643 78.92378 
L 243.119561 78.92378 
L 243.119561 77.638425 
L 244.027469 77.638425 
L 244.027469 76.353071 
L 245.38933 76.353071 
L 245.38933 75.067717 
L 246.297237 75.067717 
L 246.297237 73.782362 
L 247.205144 73.782362 
L 247.205144 72.497008 
L 248.113052 72.497008 
L 248.113052 71.211654 
L 249.020959 71.211654 
L 249.020959 69.926299 
L 250.38282 69.926299 
L 250.38282 68.640945 
L 251.290727 68.640945 
L 251.290727 67.355591 
L 252.652588 67.355591 
L 252.652588 66.070236 
L 253.106542 66.070236 
L 253.106542 64.784882 
L 254.468414 64.784882 
L 254.468414 63.499528 
L 255.376321 63.499528 
L 255.376321 62.214173 
L 259.007939 62.214173 
L 259.007939 60.928819 
L 260.823776 60.928819 
L 260.823776 59.643465 
L 261.731683 59.643465 
L 261.731683 58.35811 
L 263.093533 58.35811 
L 263.093533 59.643465 
L 268.994942 59.643465 
L 268.994942 60.928819 
L 270.356792 60.928819 
L 270.356792 62.214173 
L 272.172628 62.214173 
L 272.172628 63.499528 
L 274.442386 63.499528 
L 274.442386 64.784882 
L 279.88983 64.784882 
L 279.88983 66.070236 
L 281.251701 66.070236 
L 281.251701 67.355591 
L 283.067516 67.355591 
L 283.067516 68.640945 
L 284.429388 68.640945 
L 284.429388 69.926299 
L 285.791238 69.926299 
L 285.791238 71.211654 
L 287.607053 71.211654 
L 287.607053 72.497008 
L 290.330775 72.497008 
L 290.330775 73.782362 
L 292.146589 73.782362 
L 292.146589 75.067717 
L 293.508461 75.067717 
L 293.508461 76.353071 
L 294.870311 76.353071 
L 294.870311 77.638425 
L 296.232183 77.638425 
L 296.232183 78.92378 
L 297.594055 78.92378 
L 297.594055 80.209134 
L 298.955905 80.209134 
L 298.955905 81.494488 
L 299.863812 81.494488 
L 299.863812 82.779843 
L 301.225684 82.779843 
L 301.225684 84.065197 
L 303.041499 84.065197 
L 303.041499 85.350551 
L 303.949406 85.350551 
L 303.949406 86.635906 
L 305.765221 86.635906 
L 305.765221 87.92126 
L 307.127093 87.92126 
L 307.127093 89.206614 
L 308.942907 89.206614 
L 308.942907 90.491969 
L 311.212665 90.491969 
L 311.212665 91.777323 
L 315.752201 91.777323 
L 315.752201 93.062677 
L 318.475945 93.062677 
L 318.475945 94.348031 
L 320.745703 94.348031 
L 320.745703 95.633386 
L 322.107574 95.633386 
L 322.107574 96.91874 
L 323.923389 96.91874 
L 323.923389 98.204094 
L 325.285239 98.204094 
L 325.285239 99.489449 
L 326.193147 99.489449 
L 326.193147 100.774803 
L 327.555018 100.774803 
L 327.555018 102.060157 
L 328.916868 102.060157 
L 328.916868 103.345512 
L 330.27874 103.345512 
L 330.27874 104.630866 
L 332.094555 104.630866 
L 332.094555 105.91622 
L 333.002462 105.91622 
L 333.002462 107.201575 
L 334.364334 107.201575 
L 334.364334 108.486929 
L 334.818277 108.486929 
L 334.818277 109.772283 
L 335.726184 109.772283 
L 335.726184 111.057638 
L 336.634092 111.057638 
L 336.634092 112.342992 
L 337.541999 112.342992 
L 337.541999 113.628346 
L 338.449906 113.628346 
L 338.449906 114.913701 
L 339.357814 114.913701 
L 339.357814 116.199055 
L 340.719685 116.199055 
L 340.719685 117.484409 
L 341.627593 117.484409 
L 341.627593 118.769764 
L 342.989465 118.769764 
L 342.989465 120.055118 
L 344.805279 120.055118 
L 344.805279 121.340472 
L 347.075037 121.340472 
L 347.075037 122.625827 
L 352.976445 122.625827 
L 352.976445 121.340472 
L 353.884352 121.340472 
L 353.884352 120.055118 
L 354.79226 120.055118 
L 354.79226 118.769764 
L 355.700167 118.769764 
L 355.700167 117.484409 
L 356.608074 117.484409 
L 356.608074 116.199055 
L 357.515982 116.199055 
L 357.515982 114.913701 
L 357.969946 114.913701 
L 357.969946 113.628346 
L 358.877854 113.628346 
L 358.877854 112.342992 
L 359.331796 112.342992 
L 359.331796 111.057638 
L 360.239704 111.057638 
L 360.239704 109.772283 
L 360.693668 109.772283 
L 360.693668 108.486929 
L 361.147611 108.486929 
L 361.147611 107.201575 
L 362.055518 107.201575 
L 362.055518 105.91622 
L 362.509483 105.91622 
L 362.509483 104.630866 
L 362.963426 104.630866 
L 362.963426 103.345512 
L 363.871333 103.345512 
L 363.871333 102.060157 
L 364.325297 102.060157 
L 364.325297 100.774803 
L 364.77924 100.774803 
L 364.77924 99.489449 
L 365.233205 99.489449 
L 365.233205 98.204094 
L 365.687169 98.204094 
L 365.687169 95.633386 
L 366.141112 95.633386 
L 366.141112 94.348031 
L 366.595077 94.348031 
L 366.595077 93.062677 
L 367.502984 93.062677 
L 367.502984 91.777323 
L 367.956927 91.777323 
L 367.956927 90.491969 
L 368.410891 90.491969 
L 368.410891 89.206614 
L 368.864834 89.206614 
L 368.864834 87.92126 
L 369.318799 87.92126 
L 369.318799 86.635906 
L 369.772741 86.635906 
L 369.772741 85.350551 
L 370.226706 85.350551 
L 370.226706 84.065197 
L 370.680649 84.065197 
L 370.680649 82.779843 
L 371.134613 82.779843 
L 371.134613 81.494488 
L 371.588556 81.494488 
L 371.588556 80.209134 
L 372.042521 80.209134 
L 372.042521 78.92378 
L 372.496463 78.92378 
L 372.496463 77.638425 
L 373.404371 77.638425 
L 373.404371 75.067717 
L 373.858335 75.067717 
L 373.858335 73.782362 
L 374.766243 73.782362 
L 374.766243 72.497008 
L 375.220185 72.497008 
L 375.220185 71.211654 
L 375.67415 71.211654 
L 375.67415 69.926299 
L 376.128093 69.926299 
L 376.128093 67.355591 
L 376.582057 67.355591 
L 376.582057 66.070236 
L 377.036022 66.070236 
L 377.036022 64.784882 
L 377.489965 64.784882 
L 377.489965 63.499528 
L 377.943929 63.499528 
L 377.943929 60.928819 
L 378.397872 60.928819 
L 378.397872 59.643465 
L 379.305779 59.643465 
L 379.305779 58.35811 
L 379.759744 58.35811 
L 379.759744 57.072756 
L 382.029501 57.072756 
L 382.029501 58.35811 
L 382.937408 58.35811 
L 382.937408 59.643465 
L 384.753223 59.643465 
L 384.753223 60.928819 
L 386.115095 60.928819 
L 386.115095 62.214173 
L 387.93091 62.214173 
L 387.93091 63.499528 
L 389.746724 63.499528 
L 389.746724 64.784882 
L 391.108596 64.784882 
L 391.108596 66.070236 
L 392.016503 66.070236 
L 392.016503 67.355591 
L 392.924411 67.355591 
L 392.924411 68.640945 
L 393.378354 68.640945 
L 393.378354 69.926299 
L 394.286261 69.926299 
L 394.286261 71.211654 
L 395.194168 71.211654 
L 395.194168 72.497008 
L 396.55604 72.497008 
L 396.55604 73.782362 
L 397.91789 73.782362 
L 397.91789 75.067717 
L 398.825798 75.067717 
L 398.825798 76.353071 
L 399.733726 76.353071 
L 399.733726 77.638425 
L 400.641634 77.638425 
L 400.641634 78.92378 
L 401.095577 78.92378 
L 401.095577 80.209134 
L 401.549541 80.209134 
L 401.549541 81.494488 
L 402.003484 81.494488 
L 402.003484 82.779843 
L 402.457448 82.779843 
L 402.457448 84.065197 
L 403.365356 84.065197 
L 403.365356 85.350551 
L 403.819299 85.350551 
L 403.819299 86.635906 
L 404.727206 86.635906 
L 404.727206 87.92126 
L 405.18117 87.92126 
L 405.18117 89.206614 
L 406.089078 89.206614 
L 406.089078 90.491969 
L 406.543021 90.491969 
L 406.543021 91.777323 
L 407.450928 91.777323 
L 407.450928 93.062677 
L 408.358835 93.062677 
L 408.358835 94.348031 
L 409.266743 94.348031 
L 409.266743 95.633386 
L 409.720707 95.633386 
L 409.720707 96.91874 
L 411.082557 96.91874 
L 411.082557 98.204094 
L 411.990486 98.204094 
L 411.990486 99.489449 
L 412.898394 99.489449 
L 412.898394 100.774803 
L 413.352336 100.774803 
L 413.352336 102.060157 
L 414.714208 102.060157 
L 414.714208 103.345512 
L 415.622115 103.345512 
L 415.622115 104.630866 
L 417.43793 104.630866 
L 417.43793 105.91622 
L 417.891873 105.91622 
L 417.891873 58.35811 
L 418.345837 58.35811 
L 418.345837 105.91622 
L 421.523502 105.91622 
L 421.523502 104.630866 
L 426.063061 104.630866 
L 426.063061 103.345512 
L 428.786783 103.345512 
L 428.786783 102.060157 
L 438.319799 102.060157 
L 438.319799 103.345512 
L 441.043542 103.345512 
L 441.043542 104.630866 
L 447.398915 104.630866 
L 447.398915 105.91622 
L 458.747768 105.91622 
L 458.747768 104.630866 
L 464.195212 104.630866 
L 464.195212 103.345512 
L 467.826841 103.345512 
L 467.826841 102.060157 
L 471.004506 102.060157 
L 471.004506 100.774803 
L 474.636135 100.774803 
L 474.636135 99.489449 
L 477.359879 99.489449 
L 477.359879 98.204094 
L 482.353358 98.204094 
L 482.353358 96.91874 
L 484.169173 96.91874 
L 484.169173 95.633386 
L 485.984987 95.633386 
L 485.984987 94.348031 
L 487.346838 94.348031 
L 487.346838 93.062677 
L 488.708731 93.062677 
L 488.708731 91.777323 
L 489.616617 91.777323 
L 489.616617 90.491969 
L 490.524546 90.491969 
L 490.524546 89.206614 
L 491.432431 89.206614 
L 491.432431 87.92126 
L 492.34036 87.92126 
L 492.34036 86.635906 
L 493.248246 86.635906 
L 493.248246 85.350551 
L 494.610139 85.350551 
L 494.610139 84.065197 
L 495.064061 84.065197 
L 495.064061 82.779843 
L 495.97199 82.779843 
L 495.97199 81.494488 
L 496.879875 81.494488 
L 496.879875 80.209134 
L 497.787804 80.209134 
L 497.787804 78.92378 
L 498.69569 78.92378 
L 498.69569 77.638425 
L 499.603619 77.638425 
L 499.603619 76.353071 
L 500.965469 76.353071 
L 500.965469 75.067717 
L 502.327319 75.067717 
L 502.327319 73.782362 
L 504.143134 73.782362 
L 504.143134 72.497008 
L 507.320842 72.497008 
L 507.320842 73.782362 
L 509.136657 73.782362 
L 509.136657 75.067717 
L 510.498507 75.067717 
L 510.498507 76.353071 
L 511.406436 76.353071 
L 511.406436 77.638425 
L 511.860357 77.638425 
L 511.860357 78.92378 
L 512.768286 78.92378 
L 512.768286 80.209134 
L 513.676172 80.209134 
L 513.676172 81.494488 
L 514.584101 81.494488 
L 514.584101 82.779843 
L 515.491986 82.779843 
L 515.491986 84.065197 
L 515.945951 84.065197 
L 515.945951 85.350551 
L 516.85388 85.350551 
L 516.85388 86.635906 
L 517.761765 86.635906 
L 517.761765 87.92126 
L 518.669694 87.92126 
L 518.669694 89.206614 
L 519.57758 89.206614 
L 519.57758 90.491969 
L 520.485509 90.491969 
L 520.485509 91.777323 
L 521.393395 91.777323 
L 521.393395 93.062677 
L 521.847359 93.062677 
L 521.847359 94.348031 
L 522.755288 94.348031 
L 522.755288 95.633386 
L 523.663174 95.633386 
L 523.663174 96.91874 
L 524.117138 96.91874 
L 524.117138 98.204094 
L 524.571103 98.204094 
L 524.571103 99.489449 
L 525.025024 99.489449 
L 525.025024 100.774803 
L 525.932953 100.774803 
L 525.932953 102.060157 
L 526.386917 102.060157 
L 526.386917 103.345512 
L 526.840839 103.345512 
L 526.840839 104.630866 
L 527.748768 104.630866 
L 527.748768 105.91622 
L 528.202732 105.91622 
L 528.202732 107.201575 
L 529.110618 107.201575 
L 529.110618 108.486929 
L 530.018547 108.486929 
L 530.018547 109.772283 
L 530.472511 109.772283 
L 530.472511 111.057638 
L 531.380397 111.057638 
L 531.380397 112.342992 
L 532.288326 112.342992 
L 532.288326 113.628346 
L 533.196212 113.628346 
L 533.196212 114.913701 
L 534.104141 114.913701 
L 534.104141 116.199055 
L 535.465991 116.199055 
L 535.465991 117.484409 
L 537.281805 117.484409 
L 537.281805 118.769764 
L 539.09762 118.769764 
L 539.09762 120.055118 
L 541.367399 120.055118 
L 541.367399 121.340472 
L 541.821364 121.340472 
L 541.821364 121.340472 
" style="fill:none;stroke:#d62728;stroke-linecap:square;stroke-opacity:0.8;stroke-width:1.5;"/>
   </g>
   <g id="patch_3">
    <path d="M 50.87 174.04 
L 50.87 10.8 
" style="fill:none;stroke:#000000;stroke-linecap:square;stroke-linejoin:miter;stroke-width:0.8;"/>
   </g>
   <g id="patch_4">
    <path d="M 565.2 174.04 
L 565.2 10.8 
" style="fill:none;stroke:#000000;stroke-linecap:square;stroke-linejoin:miter;stroke-width:0.8;"/>
   </g>
   <g id="patch_5">
    <path d="M 50.87 174.04 
L 565.2 174.04 
" style="fill:none;stroke:#000000;stroke-linecap:square;stroke-linejoin:miter;stroke-width:0.8;"/>
   </g>
   <g id="patch_6">
    <path d="M 50.87 10.8 
L 565.2 10.8 
" style="fill:none;stroke:#000000;stroke-linecap:square;stroke-linejoin:miter;stroke-width:0.8;"/>
   </g>
  </g>
 </g>
 <defs>
  <clipPath id="p999a6c0802">
   <rect height="163.24" width="514.33" x="50.87" y="10.8"/>
  </clipPath>
 </defs>
</svg>
